<svg width="27" height="27" viewBox="0 0 27 27" fill="none" xmlns="http://www.w3.org/2000/svg">
<path d="M5.27958 5.42532C6.34954 4.32944 7.62818 3.45899 9.04004 2.86532C10.4519 2.27165 11.9684 1.9668 13.5 1.96876C19.8528 1.96876 25.0031 7.11845 25.0031 13.4713C25.0031 19.8242 19.8528 24.9744 13.5 24.9744C7.14708 24.9744 1.99683 19.8242 1.99683 13.4713C1.99683 11.2517 2.62626 9.17888 3.71526 7.42107" stroke="#117ABB" stroke-width="1.5" stroke-linecap="round" stroke-linejoin="round"/>
<path d="M17.3356 13.4015C17.3356 13.7288 17.2056 14.0426 16.9742 14.274C16.7428 14.5054 16.429 14.6354 16.1018 14.6354C15.7745 14.6354 15.4607 14.5054 15.2293 14.274C14.9979 14.0426 14.8679 13.7288 14.8679 13.4015C14.8679 12.7203 15.4203 12.168 16.1015 12.168C16.7827 12.168 17.3356 12.7203 17.3356 13.4015Z" stroke="#117ABB" stroke-width="1.5" stroke-linecap="round" stroke-linejoin="round"/>
<path d="M13.865 9.5865H19.8894C20.304 9.5856 20.702 9.74942 20.9959 10.0419C21.2898 10.3344 21.4554 10.7317 21.4565 11.1463V15.6519C21.4572 16.0666 21.2933 16.4645 21.0007 16.7583C20.708 17.0521 20.3107 17.2176 19.8961 17.2185H13.865C13.4503 17.2194 13.0523 17.0556 12.7585 16.7631C12.4646 16.4706 12.2989 16.0733 12.2979 15.6587V11.1531C12.2974 10.9477 12.3374 10.7443 12.4156 10.5544C12.4938 10.3645 12.6086 10.1919 12.7535 10.0463C12.8984 9.90081 13.0705 9.78526 13.2601 9.70626C13.4496 9.62727 13.6529 9.58638 13.8582 9.58594L13.865 9.5865Z" stroke="#117ABB" stroke-width="1.5" stroke-linecap="round" stroke-linejoin="round"/>
<path d="M20.1657 17.1909V18.7378C20.1662 18.9431 20.1263 19.1466 20.0481 19.3365C19.97 19.5264 19.8553 19.6991 19.7104 19.8446C19.5656 19.9902 19.3935 20.1058 19.204 20.1849C19.0145 20.264 18.8112 20.3049 18.6059 20.3054H8.10567C7.90032 20.3059 7.69689 20.2659 7.507 20.1877C7.3171 20.1095 7.14447 19.9947 6.99895 19.8498C6.85343 19.7049 6.73787 19.5328 6.65887 19.3432C6.57988 19.1537 6.53899 18.9504 6.53855 18.7451V8.20775C6.53811 8.0024 6.57811 7.79897 6.65629 7.60907C6.73447 7.41918 6.84928 7.24655 6.99417 7.10102C7.13907 6.9555 7.31121 6.83995 7.50076 6.76095C7.69031 6.68196 7.89357 6.64107 8.09892 6.64063H18.598C19.0126 6.63988 19.4106 6.80384 19.7043 7.09645C19.9981 7.38906 20.1637 7.78637 20.1645 8.201V9.6095M0.815674 9.31644L3.85036 7.09344L4.25817 10.8329" stroke="#117ABB" stroke-width="1.5" stroke-linecap="round" stroke-linejoin="round"/>
</svg>
