<svg width="32" height="32" viewBox="0 0 32 32" fill="none" xmlns="http://www.w3.org/2000/svg">
<rect width="32" height="32" rx="6" fill="#117ABB"/>
<path d="M17.2329 15.9985L22.7414 10.4987C22.906 10.3341 22.9985 10.1108 22.9985 9.87794C22.9985 9.6451 22.906 9.42179 22.7414 9.25714C22.5767 9.0925 22.3534 9 22.1206 9C21.8877 9 21.6644 9.0925 21.4998 9.25714L16 14.7657L10.5002 9.25714C10.3356 9.0925 10.1123 9 9.87944 9C9.64659 9 9.42328 9.0925 9.25864 9.25714C9.09399 9.42179 9.00149 9.6451 9.00149 9.87794C9.00149 10.1108 9.09399 10.3341 9.25864 10.4987L14.7671 15.9985L9.25864 21.4983C9.17668 21.5796 9.11164 21.6763 9.06725 21.7828C9.02285 21.8894 9 22.0036 9 22.1191C9 22.2345 9.02285 22.3488 9.06725 22.4553C9.11164 22.5619 9.17668 22.6586 9.25864 22.7399C9.33992 22.8218 9.43663 22.8869 9.54318 22.9313C9.64972 22.9757 9.76401 22.9985 9.87944 22.9985C9.99486 22.9985 10.1091 22.9757 10.2157 22.9313C10.3222 22.8869 10.419 22.8218 10.5002 22.7399L16 17.2314L21.4998 22.7399C21.581 22.8218 21.6778 22.8869 21.7843 22.9313C21.8909 22.9757 22.0051 22.9985 22.1206 22.9985C22.236 22.9985 22.3503 22.9757 22.4568 22.9313C22.5634 22.8869 22.6601 22.8218 22.7414 22.7399C22.8233 22.6586 22.8884 22.5619 22.9328 22.4553C22.9771 22.3488 23 22.2345 23 22.1191C23 22.0036 22.9771 21.8894 22.9328 21.7828C22.8884 21.6763 22.8233 21.5796 22.7414 21.4983L17.2329 15.9985Z" fill="white"/>
</svg>
