<svg width="24" height="24" viewBox="0 0 24 24" fill="none" xmlns="http://www.w3.org/2000/svg">
<path d="M8.625 11.25C8.32663 11.25 8.04048 11.3685 7.8295 11.5795C7.61853 11.7905 7.5 12.0766 7.5 12.375C7.5 12.6734 7.61853 12.9595 7.8295 13.1705C8.04048 13.3815 8.32663 13.5 8.625 13.5C8.92337 13.5 9.20952 13.3815 9.4205 13.1705C9.63147 12.9595 9.75 12.6734 9.75 12.375C9.75 12.0766 9.63147 11.7905 9.4205 11.5795C9.20952 11.3685 8.92337 11.25 8.625 11.25ZM10.875 12.375C10.875 12.0766 10.9935 11.7905 11.2045 11.5795C11.4155 11.3685 11.7016 11.25 12 11.25H15.375C15.6734 11.25 15.9595 11.3685 16.1705 11.5795C16.3815 11.7905 16.5 12.0766 16.5 12.375C16.5 12.6734 16.3815 12.9595 16.1705 13.1705C15.9595 13.3815 15.6734 13.5 15.375 13.5H12C11.7016 13.5 11.4155 13.3815 11.2045 13.1705C10.9935 12.9595 10.875 12.6734 10.875 12.375ZM8.625 14.25C8.32663 14.25 8.04048 14.3685 7.8295 14.5795C7.61853 14.7905 7.5 15.0766 7.5 15.375C7.5 15.6734 7.61853 15.9595 7.8295 16.1705C8.04048 16.3815 8.32663 16.5 8.625 16.5H12C12.2984 16.5 12.5845 16.3815 12.7955 16.1705C13.0065 15.9595 13.125 15.6734 13.125 15.375C13.125 15.0766 13.0065 14.7905 12.7955 14.5795C12.5845 14.3685 12.2984 14.25 12 14.25H8.625Z" fill="#968C8C"/>
<path fill-rule="evenodd" clip-rule="evenodd" d="M7.125 1.5C6.82663 1.5 6.54048 1.61853 6.3295 1.8295C6.11853 2.04048 6 2.32663 6 2.625V4.5C5.20435 4.5 4.44129 4.81607 3.87868 5.37868C3.31607 5.94129 3 6.70435 3 7.5V18C3 18.7956 3.31607 19.5587 3.87868 20.1213C4.44129 20.6839 5.20435 21 6 21H18C18.7956 21 19.5587 20.6839 20.1213 20.1213C20.6839 19.5587 21 18.7956 21 18V7.5C21 6.70435 20.6839 5.94129 20.1213 5.37868C19.5587 4.81607 18.7956 4.5 18 4.5V2.625C18 2.32663 17.8815 2.04048 17.6705 1.8295C17.4595 1.61853 17.1734 1.5 16.875 1.5C16.5766 1.5 16.2905 1.61853 16.0795 1.8295C15.8685 2.04048 15.75 2.32663 15.75 2.625V4.5H8.25V2.625C8.25 2.32663 8.13147 2.04048 7.9205 1.8295C7.70952 1.61853 7.42337 1.5 7.125 1.5ZM5.25 10.5C5.25 10.1022 5.40804 9.72064 5.68934 9.43934C5.97064 9.15804 6.35218 9 6.75 9H17.25C17.6478 9 18.0294 9.15804 18.3107 9.43934C18.592 9.72064 18.75 10.1022 18.75 10.5V17.25C18.75 17.6478 18.592 18.0294 18.3107 18.3107C18.0294 18.592 17.6478 18.75 17.25 18.75H6.75C6.35218 18.75 5.97064 18.592 5.68934 18.3107C5.40804 18.0294 5.25 17.6478 5.25 17.25V10.5Z" fill="#968C8C"/>
</svg>
