<svg width="24" height="26" viewBox="0 0 24 26" fill="none" xmlns="http://www.w3.org/2000/svg">
<path d="M22.85 6.76811C22.5724 6.18805 22.1814 5.66951 21.7 5.24311L17.95 1.84311C17.1246 1.08655 16.0766 0.617351 14.9625 0.505612H7.2625C6.43445 0.470498 5.60768 0.600428 4.83032 0.887839C4.05295 1.17525 3.34052 1.6144 2.73447 2.17974C2.12842 2.74507 1.64086 3.4253 1.30017 4.18084C0.95948 4.93637 0.772462 5.75212 0.75 6.58061V19.4556C0.79422 20.705 1.21212 21.9124 1.94969 22.9219C2.68726 23.9313 3.71061 24.6963 4.8875 25.1181C5.65264 25.4089 6.47011 25.5367 7.2875 25.4931H16.7375C17.5656 25.5282 18.3923 25.3983 19.1697 25.1109C19.947 24.8235 20.6595 24.3843 21.2655 23.819C21.8716 23.2537 22.3591 22.5734 22.6998 21.8179C23.0405 21.0624 23.2275 20.2466 23.25 19.4181V8.70561C23.256 8.03868 23.1197 7.37813 22.85 6.76811ZM6.6 6.26811H10.675C11.0065 6.26811 11.3245 6.39981 11.5589 6.63423C11.7933 6.86865 11.925 7.18659 11.925 7.51811C11.925 7.84963 11.7933 8.16758 11.5589 8.402C11.3245 8.63642 11.0065 8.76811 10.675 8.76811H6.6C6.26848 8.76811 5.95054 8.63642 5.71612 8.402C5.4817 8.16758 5.35 7.84963 5.35 7.51811C5.35 7.18659 5.4817 6.86865 5.71612 6.63423C5.95054 6.39981 6.26848 6.26811 6.6 6.26811ZM17.475 19.6556H6.6C6.26848 19.6556 5.95054 19.5239 5.71612 19.2895C5.4817 19.0551 5.35 18.7371 5.35 18.4056C5.35 18.0741 5.4817 17.7561 5.71612 17.5217C5.95054 17.2873 6.26848 17.1556 6.6 17.1556H17.475C17.773 17.1981 18.0456 17.3466 18.2428 17.5739C18.4401 17.8013 18.5487 18.0921 18.5487 18.3931C18.5487 18.6941 18.4401 18.985 18.2428 19.2123C18.0456 19.4396 17.773 19.5882 17.475 19.6306V19.6556ZM17.475 14.2181H6.6C6.26848 14.2181 5.95054 14.0864 5.71612 13.852C5.4817 13.6176 5.35 13.2996 5.35 12.9681C5.35 12.6366 5.4817 12.3187 5.71612 12.0842C5.95054 11.8498 6.26848 11.7181 6.6 11.7181H17.475C17.8065 11.7181 18.1245 11.8498 18.3589 12.0842C18.5933 12.3187 18.725 12.6366 18.725 12.9681C18.725 13.2996 18.5933 13.6176 18.3589 13.852C18.1245 14.0864 17.8065 14.2181 17.475 14.2181ZM17.075 7.25561C16.8967 7.25726 16.7198 7.22356 16.5545 7.15646C16.3893 7.08936 16.239 6.99018 16.1123 6.86465C15.9856 6.73913 15.8851 6.58975 15.8164 6.42514C15.7478 6.26053 15.7125 6.08395 15.7125 5.90561V2.59311C16.5375 2.79311 19.75 6.09311 20.45 6.64311C20.657 6.81751 20.8343 7.02437 20.975 7.25561H17.075Z" fill="#117ABB"/>
</svg>
