<svg width="20" height="19" viewBox="0 0 20 19" fill="none" xmlns="http://www.w3.org/2000/svg">
<path d="M16 10.5C17.11 10.5 18.11 10.95 18.83 11.67L20 10.5V14.5H16L17.77 12.73C17.4098 12.3697 16.9482 12.128 16.4469 12.0374C15.9455 11.9467 15.4285 12.0113 14.9649 12.2227C14.5014 12.434 14.1134 12.7819 13.8531 13.2198C13.5927 13.6577 13.4723 14.1647 13.5081 14.6729C13.5438 15.1811 13.734 15.6662 14.0531 16.0633C14.3722 16.4605 14.805 16.7506 15.2936 16.895C15.7821 17.0393 16.3031 17.031 16.7868 16.871C17.2705 16.7111 17.6938 16.4072 18 16H19.71C19.4122 16.7397 18.8996 17.3733 18.2383 17.8189C17.577 18.2645 16.7974 18.5017 16 18.5C13.79 18.5 12 16.71 12 14.5C12 12.29 13.79 10.5 16 10.5ZM8 0L10 2H18C18.5304 2 19.0391 2.21071 19.4142 2.58579C19.7893 2.96086 20 3.46957 20 4V9C19 8.38 17.79 8 16.5 8C14.7761 8 13.1228 8.68482 11.9038 9.90381C10.6848 11.1228 10 12.7761 10 14.5C10 15 10.06 15.5 10.17 16H2C1.46957 16 0.960859 15.7893 0.585786 15.4142C0.210714 15.0391 0 14.5304 0 14V2C0 0.89 0.89 0 2 0H8Z" fill="white"/>
</svg>
