<svg width="20" height="20" viewBox="0 0 20 20" fill="none" xmlns="http://www.w3.org/2000/svg">
<path d="M4.93818 8C4.24718 8.005 3.83118 8.026 3.50018 8.114C1.99218 8.514 0.960179 9.864 1.00118 11.384C1.01318 11.825 1.18118 12.37 1.51618 13.459C2.32318 16.079 3.68018 18.354 6.71818 18.899C7.27718 19 7.90618 19 9.16318 19H10.8372C12.0942 19 12.7232 19 13.2822 18.9C16.3202 18.354 17.6772 16.079 18.4842 13.459C18.8192 12.369 18.9872 11.825 18.9992 11.385C19.0392 9.864 18.0082 8.513 16.5002 8.114C16.1702 8.026 15.7532 8.005 15.0632 8M10.0002 1V12M10.0002 1C10.4682 1 10.8242 1.438 11.5362 2.314L12.5002 3.5M10.0002 1C9.53218 1 9.17618 1.438 8.46418 2.314L7.50018 3.5" stroke="#AEAFB0" stroke-width="1.5" stroke-linecap="round" stroke-linejoin="round"/>
</svg>
