<svg width="16" height="16" viewBox="0 0 16 16" fill="none" xmlns="http://www.w3.org/2000/svg">
<path d="M8.5999 8.00156C8.5999 7.67019 8.33127 7.40156 7.9999 7.40156C7.66853 7.40156 7.3999 7.67019 7.3999 8.00156C7.3999 8.33293 7.66853 8.60156 7.9999 8.60156C8.33127 8.60156 8.5999 8.33293 8.5999 8.00156Z" fill="white" stroke="#111827" stroke-width="1.5" stroke-linecap="round" stroke-linejoin="round"/>
<path d="M8.5999 3.33359C8.5999 3.00222 8.33127 2.73359 7.9999 2.73359C7.66853 2.73359 7.3999 3.00222 7.3999 3.33359C7.3999 3.66496 7.66853 3.93359 7.9999 3.93359C8.33127 3.93359 8.5999 3.66496 8.5999 3.33359Z" fill="white" stroke="#111827" stroke-width="1.5" stroke-linecap="round" stroke-linejoin="round"/>
<path d="M8.5999 12.6656C8.5999 12.3343 8.33127 12.0656 7.9999 12.0656C7.66853 12.0656 7.3999 12.3343 7.3999 12.6656C7.3999 12.997 7.66853 13.2656 7.9999 13.2656C8.33127 13.2656 8.5999 12.997 8.5999 12.6656Z" fill="white" stroke="#111827" stroke-width="1.5" stroke-linecap="round" stroke-linejoin="round"/>
</svg>
