<svg width="25" height="24" viewBox="0 0 25 24" fill="none" xmlns="http://www.w3.org/2000/svg">
<g clip-path="url(#clip0_499_55798)">
<path d="M16.9769 12.5276C19.028 12.5276 20.6994 10.7006 20.6994 8.47763C20.6994 6.27992 19.0366 4.53906 16.9769 4.53906C14.9343 4.53906 13.2539 6.30563 13.2539 8.49478C13.2624 10.7092 14.9343 12.5276 16.9769 12.5276ZM7.04943 12.7171C8.82457 12.7171 10.2809 11.1228 10.2809 9.16678C10.2809 7.25363 8.84171 5.71121 7.04943 5.71121C5.27429 5.71121 3.80943 7.27978 3.818 9.18392C3.82657 11.1318 5.27429 12.7171 7.04943 12.7171ZM16.9769 11.2265C15.7186 11.2265 14.6411 10.0201 14.6411 8.49478C14.6411 6.99478 15.7014 5.84063 16.9769 5.84063C18.2609 5.84063 19.3121 6.97806 19.3121 8.47721C19.3121 10.0029 18.2523 11.2265 16.9769 11.2265ZM7.04943 11.4331C5.99814 11.4331 5.102 10.4251 5.102 9.18392C5.102 7.96892 5.98914 6.99521 7.04943 6.99521C8.135 6.99521 9.00543 7.95178 9.00543 9.16678C9.00543 10.4251 8.10929 11.4331 7.04943 11.4331ZM2.258 20.6195H9.023C8.609 20.3868 8.29014 19.8695 8.35057 19.3441H2.04286C1.87057 19.3441 1.78443 19.2755 1.78443 19.1113C1.78443 16.9745 4.223 14.9752 7.04129 14.9752C8.12686 14.9752 9.10057 15.2336 9.93671 15.7248C10.2141 15.3736 10.5423 15.0658 10.9104 14.8115C9.79871 14.0786 8.46329 13.6998 7.04129 13.6998C3.43014 13.6998 0.5 16.3192 0.5 19.1889C0.5 20.1455 1.08586 20.6195 2.258 20.6195ZM11.5649 20.6195H22.3889C23.819 20.6195 24.5 20.1888 24.5 19.2408C24.5 16.9831 21.6474 13.7165 16.9769 13.7165C12.2973 13.7165 9.44514 16.9831 9.44514 19.2408C9.44514 20.1888 10.1257 20.6195 11.5649 20.6195ZM11.1513 19.3183C10.9271 19.3183 10.8324 19.2583 10.8324 19.0771C10.8324 17.6636 13.0211 15.0185 16.9769 15.0185C20.924 15.0185 23.1123 17.6636 23.1123 19.0771C23.1123 19.2579 23.0266 19.3183 22.802 19.3183H11.1513Z" fill="#6D2E3D"/>
</g>
<defs>
<clipPath id="clip0_499_55798">
<rect width="24" height="24" fill="white" transform="translate(0.5)"/>
</clipPath>
</defs>
</svg>
