<svg width="36" height="36" viewBox="0 0 36 36" fill="none" xmlns="http://www.w3.org/2000/svg">
<path d="M0.333008 18C0.333008 8.33502 8.16803 0.5 17.833 0.5C27.498 0.5 35.333 8.33502 35.333 18C35.333 27.665 27.498 35.5 17.833 35.5C8.16803 35.5 0.333008 27.665 0.333008 18Z" fill="#F3D8D9"/>
<g clip-path="url(#clip0_499_60743)">
<path fill-rule="evenodd" clip-rule="evenodd" d="M9.70801 10.5H25.958L26.583 11.125V18.0038C26.196 17.7133 25.7765 17.4687 25.333 17.275V11.75H10.333V23H16.583C16.583 24.3523 17.0216 25.6681 17.833 26.75H12.833V25.5H16.583V24.25H9.70801L9.08301 23.625V11.125L9.70801 10.5Z" fill="#6D2E3D"/>
<path fill-rule="evenodd" clip-rule="evenodd" d="M20.0557 18.8434C20.6016 18.4745 21.215 18.2172 21.8606 18.0862C22.5063 17.9552 23.1715 17.9531 23.818 18.0799C24.4644 18.2068 25.0795 18.4602 25.6277 18.8256C26.1759 19.1909 26.6466 19.661 27.0126 20.2088C27.3785 20.7566 27.6326 21.3713 27.7603 22.0177C27.8879 22.664 27.8865 23.3292 27.7563 23.975C27.626 24.6208 27.3694 25.2345 27.0012 25.7808C26.633 26.3271 26.1604 26.7953 25.6107 27.1584C24.508 27.8867 23.1618 28.1489 21.8663 27.8876C20.5709 27.6263 19.4316 26.8627 18.6974 25.7639C17.9633 24.665 17.6941 23.3202 17.9486 22.0234C18.2031 20.7266 18.9607 19.5833 20.0557 18.8434ZM22.7182 25.0809L25.7019 21.1034L24.7019 20.3534L22.1057 23.8146L20.4794 22.5134L19.6982 23.4884L21.8282 25.1934L22.7194 25.0809H22.7182Z" fill="#6D2E3D"/>
</g>
<defs>
<clipPath id="clip0_499_60743">
<rect width="20" height="20" fill="white" transform="translate(7.83301 8)"/>
</clipPath>
</defs>
</svg>
