<svg width="35" height="35" viewBox="0 0 35 35" fill="none" xmlns="http://www.w3.org/2000/svg">
<path d="M0 17.5C0 7.83502 7.83502 0 17.5 0C27.165 0 35 7.83502 35 17.5C35 27.165 27.165 35 17.5 35C7.83502 35 0 27.165 0 17.5Z" fill="#F3D8D9"/>
<path d="M12.5 18.75H16.25V20H12.5V18.75ZM12.5 21.25H18.75V22.5H12.5V21.25Z" fill="#6D2E3D"/>
<path d="M23.75 10H11.25C10.9186 10.0005 10.601 10.1324 10.3667 10.3667C10.1324 10.601 10.0005 10.9186 10 11.25V23.75C10.0005 24.0814 10.1324 24.399 10.3667 24.6333C10.601 24.8676 10.9186 24.9995 11.25 25H23.75C24.0814 24.9995 24.399 24.8676 24.6333 24.6333C24.8676 24.399 24.9995 24.0814 25 23.75V11.25C24.9995 10.9186 24.8676 10.601 24.6333 10.3667C24.399 10.1324 24.0814 10.0005 23.75 10ZM18.75 11.25V13.75H16.25V11.25H18.75ZM11.25 23.75V11.25H15V15H20V11.25H23.75L23.7506 23.75H11.25Z" fill="#6D2E3D"/>
</svg>
