<svg width="20" height="21" viewBox="0 0 20 21" fill="none" xmlns="http://www.w3.org/2000/svg">
<path d="M16.6663 10.4997H8.74967M14.9997 12.9997L17.4997 10.4997L14.9997 7.99967M10.833 6.33301V5.49967C10.833 5.05765 10.6574 4.63372 10.3449 4.32116C10.0323 4.0086 9.60837 3.83301 9.16634 3.83301H4.99967C4.55765 3.83301 4.13372 4.0086 3.82116 4.32116C3.5086 4.63372 3.33301 5.05765 3.33301 5.49967V15.4997C3.33301 15.9417 3.5086 16.3656 3.82116 16.6782C4.13372 16.9907 4.55765 17.1663 4.99967 17.1663H9.16634C9.60837 17.1663 10.0323 16.9907 10.3449 16.6782C10.6574 16.3656 10.833 15.9417 10.833 15.4997V14.6663" stroke="#7C7C7C" stroke-width="1.2" stroke-linecap="round" stroke-linejoin="round"/>
</svg>
