<svg width="36" height="36" viewBox="0 0 36 36" fill="none" xmlns="http://www.w3.org/2000/svg">
<path d="M0.666504 18C0.666504 8.33502 8.50152 0.5 18.1665 0.5C27.8315 0.5 35.6665 8.33502 35.6665 18C35.6665 27.665 27.8315 35.5 18.1665 35.5C8.50152 35.5 0.666504 27.665 0.666504 18Z" fill="#F3D8D9"/>
<path d="M26.008 17.6493L18.508 10.1493C18.208 9.84935 17.7913 9.66602 17.333 9.66602H11.4997C10.583 9.66602 9.83301 10.416 9.83301 11.3327V17.166C9.83301 17.6243 10.0163 18.041 10.3247 18.3493L17.8247 25.8493C18.1247 26.1493 18.5413 26.3327 18.9997 26.3327C19.458 26.3327 19.8747 26.1493 20.1747 25.841L26.008 20.0077C26.3163 19.7077 26.4997 19.291 26.4997 18.8327C26.4997 18.3743 26.308 17.9493 26.008 17.6493ZM18.9997 24.6743L11.4997 17.166V11.3327H17.333V11.3243L24.833 18.8243L18.9997 24.6743Z" fill="#6D2E3D"/>
<path d="M13.583 14.666C14.2734 14.666 14.833 14.1064 14.833 13.416C14.833 12.7257 14.2734 12.166 13.583 12.166C12.8927 12.166 12.333 12.7257 12.333 13.416C12.333 14.1064 12.8927 14.666 13.583 14.666Z" fill="#6D2E3D"/>
</svg>
