<svg width="20" height="26" viewBox="0 0 20 26" fill="none" xmlns="http://www.w3.org/2000/svg">
<path d="M8.77843 19.1477H11.2374V11.7707H8.77843V19.1477ZM10.0079 9.31164C10.3563 9.31164 10.6485 9.1936 10.8846 8.95754C11.1206 8.72147 11.2383 8.42967 11.2374 8.08213C11.2366 7.73459 11.1186 7.44278 10.8834 7.20672C10.6481 6.97065 10.3563 6.85262 10.0079 6.85262C9.65958 6.85262 9.36778 6.97065 9.13253 7.20672C8.89729 7.44278 8.77925 7.73459 8.77843 8.08213C8.77761 8.42967 8.89565 8.72188 9.13253 8.95877C9.36942 9.19565 9.66122 9.31327 10.0079 9.31164ZM10.0079 25.2952C7.15958 24.578 4.80794 22.9436 2.95302 20.392C1.09811 17.8403 0.171056 15.0075 0.171876 11.8936V4.3936L10.0079 0.705078L19.844 4.3936V11.8936C19.844 15.0084 18.917 17.8416 17.0629 20.3932C15.2088 22.9448 12.8571 24.5788 10.0079 25.2952ZM10.0079 22.7133C12.1391 22.037 13.9014 20.6846 15.2948 18.6559C16.6883 16.6272 17.385 14.3731 17.385 11.8936V6.08418L10.0079 3.31778L2.63089 6.08418V11.8936C2.63089 14.3731 3.32761 16.6272 4.72106 18.6559C6.1145 20.6846 7.87679 22.037 10.0079 22.7133Z" fill="currentColor"/>
</svg>
