<svg width="20" height="20" viewBox="0 0 20 20" fill="none" xmlns="http://www.w3.org/2000/svg">
<path d="M9.99935 18.332C5.39102 18.332 1.66602 14.607 1.66602 9.9987C1.66602 5.39036 5.39102 1.66537 9.99935 1.66537C14.6077 1.66537 18.3327 5.39036 18.3327 9.9987C18.3327 14.607 14.6077 18.332 9.99935 18.332ZM13.5827 6.41537C13.5056 6.33811 13.414 6.27682 13.3132 6.23501C13.2124 6.19319 13.1043 6.17166 12.9952 6.17166C12.886 6.17166 12.778 6.19319 12.6772 6.23501C12.5764 6.27682 12.4848 6.33811 12.4077 6.41537L9.99935 8.8237L7.59102 6.41537C7.4352 6.25955 7.22387 6.17202 7.00352 6.17202C6.78316 6.17202 6.57183 6.25955 6.41602 6.41537C6.2602 6.57118 6.17267 6.78251 6.17267 7.00286C6.17267 7.11197 6.19416 7.22001 6.23591 7.32082C6.27766 7.42162 6.33886 7.51321 6.41602 7.59036L8.82435 9.9987L6.41602 12.407C6.2602 12.5628 6.17267 12.7742 6.17267 12.9945C6.17267 13.2149 6.2602 13.4262 6.41602 13.582C6.57183 13.7378 6.78316 13.8254 7.00352 13.8254C7.22387 13.8254 7.4352 13.7378 7.59102 13.582L9.99935 11.1737L12.4077 13.582C12.4848 13.6592 12.5764 13.7204 12.6772 13.7621C12.778 13.8039 12.8861 13.8254 12.9952 13.8254C13.1043 13.8254 13.2123 13.8039 13.3131 13.7621C13.4139 13.7204 13.5055 13.6592 13.5827 13.582C13.6598 13.5049 13.721 13.4133 13.7628 13.3125C13.8045 13.2117 13.826 13.1036 13.826 12.9945C13.826 12.8854 13.8045 12.7774 13.7628 12.6766C13.721 12.5758 13.6598 12.4842 13.5827 12.407L11.1743 9.9987L13.5827 7.59036C13.8993 7.2737 13.8993 6.74037 13.5827 6.41537Z" fill="black"/>
</svg>
