<svg width="20" height="21" viewBox="0 0 20 21" fill="none" xmlns="http://www.w3.org/2000/svg">
<path d="M10.833 3.83464H4.99967C4.55765 3.83464 4.13372 4.01023 3.82116 4.32279C3.5086 4.63535 3.33301 5.05927 3.33301 5.5013V15.5013C3.33301 15.9433 3.5086 16.3673 3.82116 16.6798C4.13372 16.9924 4.55765 17.168 4.99967 17.168H10.833M14.1663 3.83464H14.9997C15.4417 3.83464 15.8656 4.01023 16.1782 4.32279C16.4907 4.63535 16.6663 5.05927 16.6663 5.5013V6.33464M16.6663 14.668V15.5013C16.6663 15.9433 16.4907 16.3673 16.1782 16.6798C15.8656 16.9924 15.4417 17.168 14.9997 17.168H14.1663M16.6663 9.66797V11.3346M9.99967 2.16797V18.8346" stroke="#6D2E3D" stroke-width="1.25" stroke-linecap="round" stroke-linejoin="round"/>
</svg>
