<svg width="22" height="22" viewBox="0 0 22 22" fill="none" xmlns="http://www.w3.org/2000/svg">
<path d="M20.334 11H18.223M18.223 11C18.223 12.9598 17.445 14.8389 16.0592 16.2247C14.6734 17.6105 12.7938 18.389 10.834 18.389M18.223 11C18.223 9.04018 17.445 7.16013 16.0592 5.77433C14.6734 4.38853 12.7938 3.611 10.834 3.611M10.834 1.5V3.611M10.834 3.611C8.8743 3.611 6.99488 4.38848 5.60917 5.77419C4.22347 7.15989 3.44498 9.03931 3.44498 10.999C3.44498 12.9587 4.22347 14.8381 5.60917 16.2238C6.99488 17.6095 8.8743 18.389 10.834 18.389M1.33398 11H3.44498M10.834 20.5V18.389" stroke="#6D2E3D" stroke-width="1.5" stroke-miterlimit="10" stroke-linecap="round"/>
<path d="M10.8333 15.2223C11.9531 15.2223 13.027 14.7775 13.8187 13.9857C14.6105 13.1939 15.0553 12.1201 15.0553 11.0003C15.0553 9.88058 14.6105 8.80669 13.8187 8.01492C13.027 7.22314 11.9531 6.77832 10.8333 6.77832C9.71358 6.77832 8.6397 7.22314 7.84792 8.01492C7.05614 8.80669 6.61133 9.88058 6.61133 11.0003C6.61133 12.1201 7.05614 13.1939 7.84792 13.9857C8.6397 14.7775 9.71358 15.2223 10.8333 15.2223Z" stroke="#6D2E3D" stroke-width="1.5" stroke-miterlimit="10" stroke-linecap="round"/>
</svg>
