<svg width="20" height="21" viewBox="0 0 20 21" fill="none" xmlns="http://www.w3.org/2000/svg">
<path d="M4.1665 18V3H12.0832L15.8332 6.75V10.76C15.7009 10.7267 15.5654 10.7017 15.4265 10.685C15.2876 10.6683 15.1454 10.66 14.9998 10.66V7.16667H11.6665V3.83333H4.99984V17.1667H10.3715C10.4187 17.3222 10.4776 17.4678 10.5482 17.6033C10.6187 17.7383 10.7009 17.8706 10.7948 18H4.1665ZM13.2498 17.8883L12.6765 17.3142L14.4265 15.5642L12.6765 13.8142L13.2498 13.24L14.9998 14.99L16.7498 13.24L17.324 13.8142L15.5948 15.5642L17.324 17.3142L16.7498 17.8883L14.9998 16.1583L13.2498 17.8883Z" fill="#6D2E3D"/>
</svg>
