<svg width="25" height="24" viewBox="0 0 25 24" fill="none" xmlns="http://www.w3.org/2000/svg">
<path d="M12.668 12C13.8614 12 15.006 11.5259 15.8499 10.682C16.6939 9.83807 17.168 8.69347 17.168 7.5C17.168 6.30653 16.6939 5.16193 15.8499 4.31802C15.006 3.47411 13.8614 3 12.668 3C11.4745 3 10.3299 3.47411 9.48599 4.31802C8.64207 5.16193 8.16797 6.30653 8.16797 7.5C8.16797 8.69347 8.64207 9.83807 9.48599 10.682C10.3299 11.5259 11.4745 12 12.668 12ZM12.668 13.5C11.0767 13.5 9.55055 12.8679 8.42533 11.7426C7.30011 10.6174 6.66797 9.0913 6.66797 7.5C6.66797 5.9087 7.30011 4.38258 8.42533 3.25736C9.55055 2.13214 11.0767 1.5 12.668 1.5C14.2593 1.5 15.7854 2.13214 16.9106 3.25736C18.0358 4.38258 18.668 5.9087 18.668 7.5C18.668 9.0913 18.0358 10.6174 16.9106 11.7426C15.7854 12.8679 14.2593 13.5 12.668 13.5Z" fill="#6D2E3D"/>
<path d="M12.668 12C12.8669 12 13.0576 12.079 13.1983 12.2197C13.339 12.3603 13.418 12.5511 13.418 12.75V18.75C13.418 18.9489 13.339 19.1397 13.1983 19.2803C13.0576 19.421 12.8669 19.5 12.668 19.5C12.4691 19.5 12.2783 19.421 12.1376 19.2803C11.997 19.1397 11.918 18.9489 11.918 18.75V12.75C11.918 12.5511 11.997 12.3603 12.1376 12.2197C12.2783 12.079 12.4691 12 12.668 12Z" fill="#6D2E3D"/>
<path d="M9.66797 15.2129V16.7354C6.99047 17.1644 5.16797 18.0914 5.16797 18.7499C5.16797 19.6334 8.44697 20.9999 12.668 20.9999C16.889 20.9999 20.168 19.6334 20.168 18.7499C20.168 18.0899 18.3455 17.1644 15.668 16.7354V15.2129C19.163 15.7274 21.668 17.1179 21.668 18.7499C21.668 20.8199 17.639 22.4999 12.668 22.4999C7.69697 22.4999 3.66797 20.8199 3.66797 18.7499C3.66797 17.1164 6.17297 15.7274 9.66797 15.2129Z" fill="#6D2E3D"/>
</svg>
