<svg width="35" height="36" viewBox="0 0 35 36" fill="none" xmlns="http://www.w3.org/2000/svg">
<rect y="0.5" width="35" height="35" rx="8" fill="#6D2E3D"/>
<path fill-rule="evenodd" clip-rule="evenodd" d="M9.16699 13.7135C9.16699 12.6401 9.59342 11.6106 10.3525 10.8515C11.1115 10.0924 12.141 9.66602 13.2145 9.66602H17.5003C17.7213 9.66602 17.9333 9.75381 18.0896 9.91009C18.2459 10.0664 18.3337 10.2783 18.3337 10.4993C18.3337 10.7204 18.2459 10.9323 18.0896 11.0886C17.9333 11.2449 17.7213 11.3327 17.5003 11.3327H13.2145C12.5831 11.3327 11.9775 11.5835 11.531 12.03C11.0845 12.4765 10.8337 13.0821 10.8337 13.7135V22.2852C10.8337 22.9166 11.0845 23.5222 11.531 23.9687C11.9775 24.4152 12.5831 24.666 13.2145 24.666H21.7862C22.4176 24.666 23.0232 24.4152 23.4697 23.9687C23.9162 23.5222 24.167 22.9166 24.167 22.2852V17.9993C24.167 17.7783 24.2548 17.5664 24.4111 17.4101C24.5673 17.2538 24.7793 17.166 25.0003 17.166C25.2213 17.166 25.4333 17.2538 25.5896 17.4101C25.7459 17.5664 25.8337 17.7783 25.8337 17.9993V22.2852C25.8337 23.3586 25.4072 24.3881 24.6482 25.1472C23.8891 25.9062 22.8596 26.3327 21.7862 26.3327H13.2145C12.141 26.3327 11.1115 25.9062 10.3525 25.1472C9.59342 24.3881 9.16699 23.3586 9.16699 22.2852V13.7135Z" fill="white"/>
<path fill-rule="evenodd" clip-rule="evenodd" d="M20.1146 19.0154L18.2771 20.1237L17.4162 18.6962L19.2537 17.5879L19.2562 17.5862C19.3267 17.5438 19.3916 17.4929 19.4496 17.4346L23.6246 13.2379C23.6664 13.1957 23.7067 13.1521 23.7454 13.1071C24.0212 12.7854 24.4296 12.1487 23.9354 11.6521C23.5179 11.2321 22.9196 11.6287 22.5321 11.9696C22.4281 12.0612 22.328 12.1571 22.2321 12.2571L22.2037 12.2854L18.0871 16.4229C17.9893 16.5201 17.9127 16.6364 17.8621 16.7646L17.1754 18.4921C17.1624 18.5246 17.1599 18.5603 17.1684 18.5943C17.1768 18.6283 17.1958 18.6588 17.2225 18.6814C17.2493 18.7039 17.2825 18.7175 17.3174 18.7202C17.3523 18.7229 17.3864 18.7145 17.4162 18.6962L18.2771 20.1237C16.7729 21.0304 14.9771 19.5071 15.6271 17.8754L16.3146 16.1487C16.4484 15.8113 16.6497 15.5048 16.9062 15.2479L21.0221 11.1096L21.0462 11.0854C21.1687 10.9604 21.5804 10.5387 22.0796 10.2354C22.3521 10.0712 22.7871 9.85372 23.3246 9.81206C23.9412 9.76289 24.5996 9.95706 25.1162 10.4762C25.5117 10.8669 25.7604 11.3819 25.8204 11.9346C25.8617 12.3653 25.7958 12.7996 25.6287 13.1987C25.3871 13.7962 24.9837 14.2354 24.8062 14.4129L20.6312 18.6096C20.4757 18.7657 20.3034 18.9009 20.1146 19.0154ZM23.8254 13.0771C23.8254 13.0771 23.8221 13.0796 23.8146 13.0821L23.8254 13.0771Z" fill="white"/>
</svg>
