<svg width="18" height="19" viewBox="0 0 18 19" fill="none" xmlns="http://www.w3.org/2000/svg">
<path d="M14.9996 10.6996V9.49961C14.9996 9.18135 14.8732 8.87613 14.6481 8.65108C14.4231 8.42604 14.1179 8.29961 13.7996 8.29961H1.79961C1.48135 8.29961 1.17612 8.42604 0.951081 8.65108C0.726038 8.87613 0.599609 9.18135 0.599609 9.49961V16.6996C0.599609 17.0179 0.726038 17.3231 0.951081 17.5481C1.17612 17.7732 1.48135 17.8996 1.79961 17.8996H13.7996C14.1179 17.8996 14.4231 17.7732 14.6481 17.5481C14.8732 17.3231 14.9996 17.0179 14.9996 16.6996V15.4996M14.9996 10.6996H10.1996C9.56309 10.6996 8.95264 10.9525 8.50255 11.4026C8.05247 11.8526 7.79961 12.4631 7.79961 13.0996C7.79961 13.7361 8.05247 14.3466 8.50255 14.7967C8.95264 15.2468 9.56309 15.4996 10.1996 15.4996H14.9996M14.9996 10.6996C15.6361 10.6996 16.2466 10.9525 16.6967 11.4026C17.1468 11.8526 17.3996 12.4631 17.3996 13.0996C17.3996 13.7361 17.1468 14.3466 16.6967 14.7967C16.2466 15.2468 15.6361 15.4996 14.9996 15.4996M4.19961 8.29961V4.69961C4.19961 3.74483 4.57889 2.82916 5.25403 2.15402C5.92916 1.47889 6.84483 1.09961 7.79961 1.09961C8.75439 1.09961 9.67006 1.47889 10.3452 2.15402C11.0203 2.82916 11.3996 3.74483 11.3996 4.69961V8.29961M14.3996 13.0996H15.5996M11.9996 13.0996H13.1996M9.59961 13.0996H10.7996" stroke="black" stroke-width="1.2"/>
</svg>
