<svg width="35" height="36" viewBox="0 0 35 36" fill="none" xmlns="http://www.w3.org/2000/svg">
<path d="M0 18C0 8.33502 7.83502 0.5 17.5 0.5C27.165 0.5 35 8.33502 35 18C35 27.665 27.165 35.5 17.5 35.5C7.83502 35.5 0 27.665 0 18Z" fill="#F3D8D9"/>
<path d="M21.9393 22.059C21.9393 21.9668 21.9074 21.8895 21.8435 21.8273C21.7791 21.7656 21.7041 21.7348 21.6185 21.7348C21.5335 21.7348 21.4588 21.7668 21.3943 21.8307C21.3304 21.8951 21.2985 21.9701 21.2985 22.0556V24.1348C21.2985 24.227 21.3304 24.3043 21.3943 24.3665C21.4588 24.4282 21.5338 24.459 21.6193 24.459C21.7043 24.459 21.7788 24.427 21.8427 24.3632C21.9071 24.2987 21.9393 24.2237 21.9393 24.1382V22.059ZM23.061 22.0548V24.134C23.061 24.2268 23.0932 24.304 23.1577 24.3657C23.2216 24.4279 23.2963 24.459 23.3818 24.459C23.4674 24.459 23.5421 24.4268 23.606 24.3623C23.6699 24.2979 23.7018 24.2232 23.7018 24.1382V22.059C23.7018 21.9668 23.6699 21.8895 23.606 21.8273C23.5421 21.7656 23.4671 21.7348 23.381 21.7348C23.296 21.7348 23.2216 21.7668 23.1577 21.8307C23.0932 21.8951 23.061 21.9693 23.061 22.0548ZM13.5577 15.2757H21.4427C21.5604 15.2757 21.6593 15.2357 21.7393 15.1557C21.8193 15.0757 21.8593 14.9768 21.8593 14.859C21.8593 14.7295 21.8193 14.6279 21.7393 14.554C21.6593 14.4795 21.5604 14.4423 21.4427 14.4423H13.5577C13.4399 14.4423 13.341 14.4823 13.261 14.5623C13.181 14.6423 13.141 14.7415 13.141 14.8598C13.141 14.9782 13.181 15.077 13.261 15.1565C13.341 15.2359 13.4399 15.2757 13.5577 15.2757ZM22.5002 26.4306C21.5718 26.4306 20.7843 26.107 20.1377 25.4598C19.4904 24.8132 19.1668 24.0257 19.1668 23.0973C19.1668 22.169 19.4904 21.3812 20.1377 20.734C20.7849 20.0868 21.5724 19.7634 22.5002 19.764C23.4279 19.7645 24.2157 20.0879 24.8635 20.734C25.5113 21.3801 25.8346 22.1679 25.8335 23.0973C25.8335 24.0251 25.5102 24.8126 24.8635 25.4598C24.2157 26.107 23.4279 26.4306 22.5002 26.4306ZM10.8335 12.6807C10.8335 12.3101 10.9654 11.9932 11.2293 11.7298C11.4932 11.4665 11.8099 11.3345 12.1793 11.334H22.821C23.191 11.334 23.5077 11.4659 23.771 11.7298C24.0343 11.9937 24.1663 12.3104 24.1668 12.6798V17.1115C24.1668 17.2293 24.1268 17.3282 24.0468 17.4082C23.9668 17.4882 23.8677 17.5282 23.7493 17.5282C23.631 17.5282 23.5321 17.4882 23.4527 17.4082C23.3732 17.3282 23.3335 17.2293 23.3335 17.1115V12.6807C23.3335 12.5523 23.2802 12.4345 23.1735 12.3273C23.0668 12.2201 22.9491 12.1668 22.8202 12.1673H12.1802C12.0518 12.1673 11.9341 12.2207 11.8268 12.3273C11.7196 12.434 11.6663 12.5518 11.6668 12.6807V23.8757H16.9535C16.9674 23.989 16.9877 24.1023 17.0143 24.2157C17.0416 24.329 17.0721 24.4384 17.106 24.544C17.1432 24.6434 17.1182 24.7248 17.031 24.7882C16.9432 24.852 16.8599 24.8548 16.781 24.7965L16.5735 24.6548C16.5118 24.6143 16.4468 24.594 16.3785 24.594C16.3102 24.594 16.2449 24.6143 16.1827 24.6548L15.4518 25.1607C15.3902 25.2018 15.3252 25.2223 15.2568 25.2223C15.1885 25.2223 15.1232 25.2018 15.061 25.1607L14.3302 24.6548C14.2679 24.6143 14.2027 24.594 14.1343 24.594C14.066 24.594 14.001 24.6143 13.9393 24.6548L13.2085 25.1607C13.1468 25.2018 13.0818 25.2223 13.0135 25.2223C12.9452 25.2223 12.8799 25.2018 12.8177 25.1607L12.0868 24.6548C12.0246 24.6143 11.9593 24.594 11.891 24.594C11.8227 24.594 11.7577 24.6143 11.696 24.6548L10.8335 25.324V12.6807ZM13.5585 21.5582H16.7868C16.9052 21.5582 17.0041 21.5182 17.0835 21.4382C17.1629 21.3582 17.2029 21.2593 17.2035 21.1415C17.2041 21.0237 17.1641 20.9248 17.0835 20.8448C17.0029 20.7648 16.9041 20.7248 16.7868 20.7248H13.5585C13.4407 20.7248 13.3418 20.7648 13.2618 20.8448C13.1818 20.9248 13.1418 21.024 13.1418 21.1423C13.1418 21.2607 13.1818 21.3595 13.2618 21.439C13.3418 21.5184 13.4407 21.5582 13.5585 21.5582ZM13.5585 18.4173H19.5618C19.6796 18.4173 19.7785 18.3773 19.8585 18.2973C19.9385 18.2173 19.9785 18.1182 19.9785 17.9998C19.9785 17.8815 19.9385 17.7826 19.8585 17.7032C19.7785 17.6237 19.6796 17.584 19.5618 17.584H13.5577C13.4399 17.584 13.341 17.624 13.261 17.704C13.181 17.784 13.141 17.8832 13.141 18.0015C13.141 18.1198 13.181 18.2187 13.261 18.2982C13.341 18.3776 13.4407 18.4173 13.5585 18.4173Z" fill="#6D2E3D"/>
</svg>
