<svg width="24" height="26" viewBox="0 0 24 26" fill="none" xmlns="http://www.w3.org/2000/svg">
<path d="M15.125 20.5C14.25 20.5 13.5104 20.1979 12.9062 19.5938C12.3021 18.9896 12 18.25 12 17.375C12 16.5 12.3021 15.7604 12.9062 15.1562C13.5104 14.5521 14.25 14.25 15.125 14.25C16 14.25 16.7396 14.5521 17.3438 15.1562C17.9479 15.7604 18.25 16.5 18.25 17.375C18.25 18.25 17.9479 18.9896 17.3438 19.5938C16.7396 20.1979 16 20.5 15.125 20.5ZM3.25 25.5C2.5625 25.5 1.97417 25.2554 1.485 24.7663C0.995833 24.2771 0.750833 23.6883 0.75 23V5.5C0.75 4.8125 0.995 4.22417 1.485 3.735C1.975 3.24583 2.56333 3.00083 3.25 3H4.5V0.5H7V3H17V0.5H19.5V3H20.75C21.4375 3 22.0263 3.245 22.5163 3.735C23.0063 4.225 23.2508 4.81333 23.25 5.5V23C23.25 23.6875 23.0054 24.2763 22.5163 24.7663C22.0271 25.2563 21.4383 25.5008 20.75 25.5H3.25ZM3.25 23H20.75V10.5H3.25V23ZM3.25 8H20.75V5.5H3.25V8Z" fill="currentColor"/>
</svg>
