<svg width="25" height="24" viewBox="0 0 25 24" fill="none" xmlns="http://www.w3.org/2000/svg">
<path d="M16.292 13C16.292 12.8011 16.213 12.6103 16.0723 12.4697C15.9317 12.329 15.7409 12.25 15.542 12.25H9.54199C9.34308 12.25 9.15231 12.329 9.01166 12.4697C8.87101 12.6103 8.79199 12.8011 8.79199 13C8.79199 13.1989 8.87101 13.3897 9.01166 13.5303C9.15231 13.671 9.34308 13.75 9.54199 13.75H15.542C15.7409 13.75 15.9317 13.671 16.0723 13.5303C16.213 13.3897 16.292 13.1989 16.292 13ZM16.292 17C16.292 16.8011 16.213 16.6103 16.0723 16.4697C15.9317 16.329 15.7409 16.25 15.542 16.25H9.54199C9.34308 16.25 9.15231 16.329 9.01166 16.4697C8.87101 16.6103 8.79199 16.8011 8.79199 17C8.79199 17.1989 8.87101 17.3897 9.01166 17.5303C9.15231 17.671 9.34308 17.75 9.54199 17.75H15.542C15.7409 17.75 15.9317 17.671 16.0723 17.5303C16.213 17.3897 16.292 17.1989 16.292 17Z" fill="white"/>
<path fill-rule="evenodd" clip-rule="evenodd" d="M7.54199 2.25C6.81265 2.25 6.11317 2.53973 5.59745 3.05546C5.08172 3.57118 4.79199 4.27065 4.79199 5V19C4.79199 19.7293 5.08172 20.4288 5.59745 20.9445C6.11317 21.4603 6.81265 21.75 7.54199 21.75H17.542C18.2713 21.75 18.9708 21.4603 19.4865 20.9445C20.0023 20.4288 20.292 19.7293 20.292 19V7.968C20.292 7.587 20.168 7.217 19.938 6.913L16.94 2.945C16.7769 2.72912 16.5659 2.554 16.3237 2.43341C16.0815 2.31282 15.8146 2.25004 15.544 2.25H7.54199ZM6.29199 5C6.29199 4.31 6.85199 3.75 7.54199 3.75H14.792V8.147C14.792 8.561 15.128 8.897 15.542 8.897H18.792V19C18.792 19.69 18.232 20.25 17.542 20.25H7.54199C6.85199 20.25 6.29199 19.69 6.29199 19V5Z" fill="white"/>
</svg>
