<svg width="25" height="24" viewBox="0 0 25 24" fill="none" xmlns="http://www.w3.org/2000/svg">
<path d="M15.9629 13C15.9629 12.8011 15.8839 12.6103 15.7432 12.4697C15.6026 12.329 15.4118 12.25 15.2129 12.25H9.21289C9.01398 12.25 8.82321 12.329 8.68256 12.4697C8.54191 12.6103 8.46289 12.8011 8.46289 13C8.46289 13.1989 8.54191 13.3897 8.68256 13.5303C8.82321 13.671 9.01398 13.75 9.21289 13.75H15.2129C15.4118 13.75 15.6026 13.671 15.7432 13.5303C15.8839 13.3897 15.9629 13.1989 15.9629 13ZM15.9629 17C15.9629 16.8011 15.8839 16.6103 15.7432 16.4697C15.6026 16.329 15.4118 16.25 15.2129 16.25H9.21289C9.01398 16.25 8.82321 16.329 8.68256 16.4697C8.54191 16.6103 8.46289 16.8011 8.46289 17C8.46289 17.1989 8.54191 17.3897 8.68256 17.5303C8.82321 17.671 9.01398 17.75 9.21289 17.75H15.2129C15.4118 17.75 15.6026 17.671 15.7432 17.5303C15.8839 17.3897 15.9629 17.1989 15.9629 17Z" fill="#6D2E3D"/>
<path fill-rule="evenodd" clip-rule="evenodd" d="M7.21289 2.25C6.48355 2.25 5.78407 2.53973 5.26835 3.05546C4.75262 3.57118 4.46289 4.27065 4.46289 5V19C4.46289 19.7293 4.75262 20.4288 5.26835 20.9445C5.78407 21.4603 6.48355 21.75 7.21289 21.75H17.2129C17.9422 21.75 18.6417 21.4603 19.1574 20.9445C19.6732 20.4288 19.9629 19.7293 19.9629 19V7.968C19.9629 7.587 19.8389 7.217 19.6089 6.913L16.6109 2.945C16.4478 2.72912 16.2368 2.554 15.9946 2.43341C15.7524 2.31282 15.4855 2.25004 15.2149 2.25H7.21289ZM5.96289 5C5.96289 4.31 6.52289 3.75 7.21289 3.75H14.4629V8.147C14.4629 8.561 14.7989 8.897 15.2129 8.897H18.4629V19C18.4629 19.69 17.9029 20.25 17.2129 20.25H7.21289C6.52289 20.25 5.96289 19.69 5.96289 19V5Z" fill="#6D2E3D"/>
</svg>
