<svg width="25" height="24" viewBox="0 0 25 24" fill="none" xmlns="http://www.w3.org/2000/svg">
<path d="M12.2114 20V19H18.6164C18.7698 19 18.9108 18.936 19.0394 18.808C19.1681 18.68 19.2321 18.5387 19.2314 18.384V5.616C19.2314 5.462 19.1674 5.32067 19.0394 5.192C18.9114 5.06333 18.7701 4.99933 18.6154 5H12.2124V4H18.6164C19.0764 4 19.4604 4.15433 19.7684 4.463C20.0764 4.77167 20.2308 5.156 20.2314 5.616V18.385C20.2314 18.845 20.0771 19.2293 19.7684 19.538C19.4598 19.8467 19.0758 20.0007 18.6164 20H12.2114ZM11.5014 15.539L10.7984 14.819L13.1184 12.5H4.23145V11.5H13.1184L10.7984 9.18L11.5004 8.462L15.0394 12L11.5014 15.539Z" fill="white"/>
</svg>
