<svg width="25" height="24" viewBox="0 0 25 24" fill="none" xmlns="http://www.w3.org/2000/svg">
<path d="M12.146 20V19H18.551C18.7043 19 18.8453 18.936 18.974 18.808C19.1027 18.68 19.1667 18.5387 19.166 18.384V5.616C19.166 5.462 19.102 5.32067 18.974 5.192C18.846 5.06333 18.7047 4.99933 18.55 5H12.147V4H18.551C19.011 4 19.395 4.15433 19.703 4.463C20.011 4.77167 20.1653 5.156 20.166 5.616V18.385C20.166 18.845 20.0117 19.2293 19.703 19.538C19.3944 19.8467 19.0103 20.0007 18.551 20H12.146ZM11.436 15.539L10.733 14.819L13.053 12.5H4.16602V11.5H13.053L10.733 9.18L11.435 8.462L14.974 12L11.436 15.539Z" fill="#6D2E3D"/>
</svg>
