<svg width="18" height="19" viewBox="0 0 18 19" fill="none" xmlns="http://www.w3.org/2000/svg">
<path d="M9.56228 10.0183C10.4472 9.87687 11.2464 9.40712 11.8004 8.70273C12.3545 7.99833 12.6228 7.11102 12.5518 6.21764C12.4809 5.32426 12.0759 4.49042 11.4176 3.88233C10.7593 3.27423 9.89597 2.93652 8.99978 2.93652C8.10359 2.93652 7.2403 3.27423 6.58199 3.88233C5.92367 4.49042 5.51868 5.32426 5.44772 6.21764C5.37676 7.11102 5.64505 7.99833 6.19911 8.70273C6.75317 9.40712 7.55232 9.87687 8.43728 10.0183V14.7501C8.43728 14.8993 8.49654 15.0424 8.60203 15.1478C8.70752 15.2533 8.8506 15.3126 8.99978 15.3126C9.14896 15.3126 9.29204 15.2533 9.39753 15.1478C9.50302 15.0424 9.56228 14.8993 9.56228 14.7501V10.0183ZM6.56228 6.50009C6.56219 6.1632 6.63195 5.82994 6.76714 5.52135C6.90233 5.21277 7.10003 4.93556 7.34774 4.70722C7.59546 4.47889 7.88782 4.30438 8.20637 4.19472C8.52493 4.08506 8.86275 4.04262 9.19853 4.07009C9.22561 4.30426 9.30144 4.53015 9.42115 4.73322C9.54085 4.93628 9.70177 5.11202 9.89354 5.24909C10.0853 5.38617 10.3037 5.48155 10.5345 5.52909C10.7654 5.57663 11.0037 5.57527 11.234 5.52509C11.3789 5.85719 11.4479 6.21739 11.436 6.5795C11.4241 6.94161 11.3316 7.29651 11.1653 7.61839C10.999 7.94027 10.763 8.22103 10.4746 8.44024C10.1861 8.65946 9.85242 8.81161 9.49776 8.88562C9.1431 8.95964 8.7764 8.95367 8.42433 8.86813C8.07227 8.7826 7.7437 8.61966 7.46254 8.39117C7.18137 8.16268 6.95467 7.87438 6.79894 7.54725C6.64321 7.22013 6.56236 6.8624 6.56228 6.50009Z" fill="black"/>
<path d="M7.68232 12.4228C7.69248 12.496 7.68812 12.5705 7.66949 12.642C7.65086 12.7135 7.61833 12.7806 7.57376 12.8395C7.52918 12.8984 7.47344 12.948 7.40971 12.9854C7.34597 13.0228 7.2755 13.0472 7.20232 13.0573C5.27335 13.3253 3.43046 14.0279 1.81282 15.1123C1.75141 15.1534 1.68251 15.182 1.61006 15.1964C1.53761 15.2109 1.46302 15.2109 1.39056 15.1965C1.31809 15.1821 1.24917 15.1536 1.18773 15.1126C1.12628 15.0716 1.07352 15.0189 1.03245 14.9575C0.991375 14.8961 0.962801 14.8272 0.948357 14.7547C0.933913 14.6823 0.933881 14.6077 0.948262 14.5352C0.962644 14.4627 0.991157 14.3938 1.03217 14.3324C1.07319 14.2709 1.12591 14.2182 1.18732 14.1771C2.94651 12.9983 4.95038 12.2344 7.04782 11.9428C7.121 11.9327 7.19547 11.937 7.26696 11.9557C7.33845 11.9743 7.40558 12.0068 7.4645 12.0514C7.52342 12.096 7.57299 12.1517 7.61036 12.2155C7.64773 12.2792 7.67219 12.3497 7.68232 12.4228ZM10.3178 12.4228C10.328 12.3497 10.3524 12.2792 10.3898 12.2155C10.4272 12.1517 10.4767 12.096 10.5356 12.0514C10.5946 12.0068 10.6617 11.9743 10.7332 11.9557C10.8047 11.937 10.8791 11.9327 10.9523 11.9428C13.0498 12.2344 15.0536 12.9983 16.8128 14.1771C16.932 14.262 17.0134 14.39 17.0397 14.534C17.066 14.6779 17.0352 14.8265 16.9538 14.9481C16.8724 15.0697 16.7469 15.1548 16.6037 15.1853C16.4606 15.2158 16.3113 15.1894 16.1873 15.1116C14.5697 14.0272 12.7268 13.3245 10.7978 13.0566C10.6502 13.0361 10.5167 12.9579 10.4267 12.839C10.3367 12.7202 10.2975 12.5705 10.3178 12.4228Z" fill="black"/>
</svg>
