<svg width="18" height="19" viewBox="0 0 18 19" fill="none" xmlns="http://www.w3.org/2000/svg">
<path fill-rule="evenodd" clip-rule="evenodd" d="M12 7.25C12 8.04565 11.6839 8.80871 11.1213 9.37132C10.5587 9.93393 9.79565 10.25 9 10.25C8.20435 10.25 7.44129 9.93393 6.87868 9.37132C6.31607 8.80871 6 8.04565 6 7.25C6 6.45435 6.31607 5.69129 6.87868 5.12868C7.44129 4.56607 8.20435 4.25 9 4.25C9.79565 4.25 10.5587 4.56607 11.1213 5.12868C11.6839 5.69129 12 6.45435 12 7.25ZM10.5 7.25C10.5 7.64782 10.342 8.02936 10.0607 8.31066C9.77936 8.59196 9.39782 8.75 9 8.75C8.60218 8.75 8.22064 8.59196 7.93934 8.31066C7.65804 8.02936 7.5 7.64782 7.5 7.25C7.5 6.85218 7.65804 6.47064 7.93934 6.18934C8.22064 5.90804 8.60218 5.75 9 5.75C9.39782 5.75 9.77936 5.90804 10.0607 6.18934C10.342 6.47064 10.5 6.85218 10.5 7.25Z" fill="black"/>
<path fill-rule="evenodd" clip-rule="evenodd" d="M9 1.25C4.44375 1.25 0.75 4.94375 0.75 9.5C0.75 14.0562 4.44375 17.75 9 17.75C13.5562 17.75 17.25 14.0562 17.25 9.5C17.25 4.94375 13.5562 1.25 9 1.25ZM2.25 9.5C2.25 11.0675 2.78475 12.5105 3.681 13.6565C4.31058 12.8301 5.12262 12.1604 6.05373 11.6995C6.98484 11.2387 8.00985 10.9993 9.04875 11C10.0743 10.9988 11.0866 11.2318 12.0083 11.6813C12.9301 12.1307 13.7371 12.7848 14.3678 13.5935C15.0176 12.7412 15.4551 11.7464 15.6442 10.6914C15.8332 9.63647 15.7683 8.55165 15.4549 7.52674C15.1414 6.50183 14.5884 5.56629 13.8416 4.79753C13.0948 4.02877 12.1757 3.44889 11.1603 3.10588C10.1449 2.76287 9.0624 2.66658 8.00239 2.82498C6.94239 2.98338 5.93534 3.39192 5.06458 4.01679C4.19381 4.64166 3.48436 5.4649 2.99492 6.4184C2.50549 7.37189 2.25014 8.42823 2.25 9.5ZM9 16.25C7.45043 16.2525 5.94761 15.7194 4.746 14.741C5.22961 14.0485 5.87339 13.483 6.62256 13.0928C7.37172 12.7027 8.20407 12.4993 9.04875 12.5C9.88288 12.4993 10.7051 12.6976 11.4472 13.0785C12.1893 13.4594 12.8298 14.0118 13.3155 14.69C12.1046 15.7003 10.577 16.2525 9 16.25Z" fill="black"/>
</svg>
