<svg width="35" height="35" viewBox="0 0 35 35" fill="none" xmlns="http://www.w3.org/2000/svg">
<path d="M0 17.5C0 7.83502 7.83502 0 17.5 0C27.165 0 35 7.83502 35 17.5C35 27.165 27.165 35 17.5 35C7.83502 35 0 27.165 0 17.5Z" fill="#F3D8D9"/>
<path d="M25.8332 18.3333H24.1665V13.3333H17.1548L15.4882 11.6667H10.8332V23.3333H18.3332V25H9.99984C9.77882 25 9.56686 24.9122 9.41058 24.7559C9.2543 24.5996 9.1665 24.3877 9.1665 24.1667V10.8333C9.1665 10.6123 9.2543 10.4004 9.41058 10.2441C9.56686 10.0878 9.77882 10 9.99984 10H16.1782L17.8448 11.6667H24.9998C25.2208 11.6667 25.4328 11.7545 25.5891 11.9107C25.7454 12.067 25.8332 12.279 25.8332 12.5V18.3333ZM24.1665 21.6667H26.6665V23.3333H24.1665V26.25L19.9998 22.5L24.1665 18.75V21.6667Z" fill="#6D2E3D"/>
</svg>
