<svg width="35" height="35" viewBox="0 0 35 35" fill="none" xmlns="http://www.w3.org/2000/svg">
<path d="M0 17.5C0 7.83502 7.83502 0 17.5 0C27.165 0 35 7.83502 35 17.5C35 27.165 27.165 35 17.5 35C7.83502 35 0 27.165 0 17.5Z" fill="#F3D8D9"/>
<path d="M13.75 16.8756H21.25V18.1256H13.75V16.8756ZM12.9375 11.4287C13.0588 11.1782 13.1229 10.9039 13.125 10.6256C13.125 10.2547 13.015 9.89222 12.809 9.58388C12.603 9.27554 12.3101 9.03521 11.9675 8.8933C11.6249 8.75138 11.2479 8.71425 10.8842 8.7866C10.5205 8.85895 10.1864 9.03752 9.92418 9.29975C9.66195 9.56197 9.48338 9.89606 9.41103 10.2598C9.33868 10.6235 9.37581 11.0005 9.51773 11.3431C9.65964 11.6857 9.89996 11.9786 10.2083 12.1846C10.5166 12.3906 10.8792 12.5006 11.25 12.5006C11.5284 12.4993 11.8029 12.4352 12.0531 12.3131L13.75 14.0087V15.6256H15V13.4918L12.9375 11.4287ZM11.25 11.2506C11.1264 11.2506 11.0056 11.2139 10.9028 11.1452C10.8 11.0766 10.7199 10.979 10.6726 10.8648C10.6253 10.7505 10.6129 10.6249 10.637 10.5036C10.6611 10.3824 10.7207 10.271 10.8081 10.1836C10.8955 10.0962 11.0068 10.0367 11.1281 10.0126C11.2493 9.98847 11.375 10.0008 11.4892 10.0481C11.6034 10.0955 11.701 10.1756 11.7697 10.2783C11.8383 10.3811 11.875 10.502 11.875 10.6256C11.875 10.7913 11.8092 10.9503 11.6919 11.0675C11.5747 11.1847 11.4158 11.2506 11.25 11.2506ZM19.375 10.6256C19.3765 10.2815 19.2834 9.94359 19.1057 9.64892C18.928 9.35425 18.6726 9.11416 18.3675 8.95495C18.0625 8.79574 17.7195 8.72355 17.3762 8.74628C17.0328 8.76902 16.7023 8.8858 16.4209 9.08383C16.1395 9.28187 15.918 9.55353 15.7807 9.86905C15.6434 10.1846 15.5956 10.5318 15.6425 10.8727C15.6894 11.2136 15.8292 11.535 16.0466 11.8017C16.264 12.0685 16.5506 12.2702 16.875 12.3849V15.6256H18.125V12.3856C18.4893 12.2568 18.8049 12.0186 19.0287 11.7035C19.2524 11.3885 19.3734 11.012 19.375 10.6256ZM17.5 11.2506C17.3764 11.2506 17.2555 11.2139 17.1528 11.1452C17.05 11.0766 16.9699 10.979 16.9226 10.8648C16.8753 10.7505 16.8629 10.6249 16.887 10.5036C16.9111 10.3824 16.9707 10.271 17.0581 10.1836C17.1455 10.0962 17.2568 10.0367 17.3781 10.0126C17.4993 9.98847 17.625 10.0008 17.7392 10.0481C17.8534 10.0955 17.951 10.1756 18.0197 10.2783C18.0883 10.3811 18.125 10.502 18.125 10.6256C18.125 10.7913 18.0592 10.9503 17.9419 11.0675C17.8247 11.1847 17.6658 11.2506 17.5 11.2506ZM23.75 8.75057C23.2529 8.75107 22.7762 8.94877 22.4247 9.3003C22.0732 9.65182 21.8755 10.1284 21.875 10.6256C21.8771 10.9039 21.9412 11.1782 22.0625 11.4287L20 13.4912V15.6256H21.25V14.0093L22.9469 12.3131C23.1971 12.4352 23.4716 12.4993 23.75 12.5006C24.2473 12.5006 24.7242 12.303 25.0758 11.9514C25.4275 11.5998 25.625 11.1229 25.625 10.6256C25.625 10.1283 25.4275 9.65138 25.0758 9.29975C24.7242 8.94812 24.2473 8.75057 23.75 8.75057ZM23.75 11.2506C23.6264 11.2506 23.5056 11.2139 23.4028 11.1452C23.3 11.0766 23.2199 10.979 23.1726 10.8648C23.1253 10.7505 23.1129 10.6249 23.137 10.5036C23.1611 10.3824 23.2207 10.271 23.3081 10.1836C23.3955 10.0962 23.5068 10.0367 23.6281 10.0126C23.7493 9.98847 23.875 10.0008 23.9892 10.0481C24.1034 10.0955 24.201 10.1756 24.2697 10.2783C24.3383 10.3811 24.375 10.502 24.375 10.6256C24.375 10.7913 24.3092 10.9503 24.1919 11.0675C24.0747 11.1847 23.9158 11.2506 23.75 11.2506ZM15 19.3756H13.75V20.9918L12.0531 22.6881C11.8029 22.5659 11.5284 22.5018 11.25 22.5006C10.8792 22.5006 10.5166 22.6105 10.2083 22.8166C9.89996 23.0226 9.65964 23.3154 9.51773 23.658C9.37581 24.0007 9.33868 24.3777 9.41103 24.7414C9.48338 25.1051 9.66195 25.4392 9.92418 25.7014C10.1864 25.9636 10.5205 26.1422 10.8842 26.2145C11.2479 26.2869 11.6249 26.2498 11.9675 26.1078C12.3101 25.9659 12.603 25.7256 12.809 25.4173C13.015 25.1089 13.125 24.7464 13.125 24.3756C13.1229 24.0973 13.0588 23.8229 12.9375 23.5724L15 21.5099V19.3756ZM11.25 25.0006C11.1264 25.0006 11.0056 24.9639 10.9028 24.8952C10.8 24.8266 10.7199 24.729 10.6726 24.6148C10.6253 24.5005 10.6129 24.3749 10.637 24.2536C10.6611 24.1324 10.7207 24.021 10.8081 23.9336C10.8955 23.8462 11.0068 23.7867 11.1281 23.7626C11.2493 23.7385 11.375 23.7508 11.4892 23.7981C11.6034 23.8455 11.701 23.9256 11.7697 24.0283C11.8383 24.1311 11.875 24.252 11.875 24.3756C11.875 24.5413 11.8092 24.7003 11.6919 24.8175C11.5747 24.9347 11.4158 25.0006 11.25 25.0006ZM18.125 22.6156V19.3756H16.875V22.6156C16.458 22.763 16.1065 23.0531 15.8827 23.4346C15.6589 23.8161 15.5772 24.2645 15.652 24.7004C15.7268 25.1363 15.9533 25.5318 16.2915 25.8169C16.6296 26.102 17.0577 26.2583 17.5 26.2583C17.9423 26.2583 18.3704 26.102 18.7085 25.8169C19.0467 25.5318 19.2732 25.1363 19.348 24.7004C19.4228 24.2645 19.3411 23.8161 19.1173 23.4346C18.8935 23.0531 18.542 22.763 18.125 22.6156ZM17.5 25.0006C17.3764 25.0006 17.2555 24.9639 17.1528 24.8952C17.05 24.8266 16.9699 24.729 16.9226 24.6148C16.8753 24.5005 16.8629 24.3749 16.887 24.2536C16.9111 24.1324 16.9707 24.021 17.0581 23.9336C17.1455 23.8462 17.2568 23.7867 17.3781 23.7626C17.4993 23.7385 17.625 23.7508 17.7392 23.7981C17.8534 23.8455 17.951 23.9256 18.0197 24.0283C18.0883 24.1311 18.125 24.252 18.125 24.3756C18.125 24.5413 18.0592 24.7003 17.9419 24.8175C17.8247 24.9347 17.6658 25.0006 17.5 25.0006ZM23.75 22.5006C23.4716 22.5018 23.1971 22.5659 22.9469 22.6881L21.25 20.9924V19.3756H20V21.5093L22.0625 23.5718C21.9411 23.8225 21.877 24.0971 21.875 24.3756C21.875 24.7464 21.985 25.1089 22.191 25.4173C22.397 25.7256 22.6899 25.9659 23.0325 26.1078C23.3751 26.2498 23.7521 26.2869 24.1158 26.2145C24.4795 26.1422 24.8136 25.9636 25.0758 25.7014C25.338 25.4392 25.5166 25.1051 25.589 24.7414C25.6613 24.3777 25.6242 24.0007 25.4823 23.658C25.3404 23.3154 25.1 23.0226 24.7917 22.8166C24.4834 22.6105 24.1208 22.5006 23.75 22.5006ZM23.75 25.0006C23.6264 25.0006 23.5056 24.9639 23.4028 24.8952C23.3 24.8266 23.2199 24.729 23.1726 24.6148C23.1253 24.5005 23.1129 24.3749 23.137 24.2536C23.1611 24.1324 23.2207 24.021 23.3081 23.9336C23.3955 23.8462 23.5068 23.7867 23.6281 23.7626C23.7493 23.7385 23.875 23.7508 23.9892 23.7981C24.1034 23.8455 24.201 23.9256 24.2697 24.0283C24.3383 24.1311 24.375 24.252 24.375 24.3756C24.375 24.5413 24.3092 24.7003 24.1919 24.8175C24.0747 24.9347 23.9158 25.0006 23.75 25.0006Z" fill="#6D2E3D"/>
</svg>
