<svg width="24" height="24" viewBox="0 0 24 24" fill="none" xmlns="http://www.w3.org/2000/svg">
<path d="M11.9971 8.94044V18.0004M16.9971 8.94044V18.0004M6.99707 8.94044V18.0004M12.4441 3.10644L20.2081 7.01444C21.1521 7.48944 20.8161 8.92144 19.7611 8.92144H4.23307C3.17807 8.92144 2.84207 7.48944 3.78607 7.01444L11.5501 3.10644C11.6889 3.03708 11.8419 3.00098 11.9971 3.00098C12.1522 3.00098 12.3053 3.03708 12.4441 3.10644ZM19.4971 21.0004H4.49707C4.09925 21.0004 3.71771 20.8424 3.43641 20.5611C3.15511 20.2798 2.99707 19.8983 2.99707 19.5004C2.99707 19.1026 3.15511 18.7211 3.43641 18.4398C3.71771 18.1585 4.09925 18.0004 4.49707 18.0004H19.4971C19.8949 18.0004 20.2764 18.1585 20.5577 18.4398C20.839 18.7211 20.9971 19.1026 20.9971 19.5004C20.9971 19.8983 20.839 20.2798 20.5577 20.5611C20.2764 20.8424 19.8949 21.0004 19.4971 21.0004Z" stroke="white" stroke-width="1.5" stroke-linecap="round" stroke-linejoin="round"/>
</svg>
