<svg width="25" height="24" viewBox="0 0 25 24" fill="none" xmlns="http://www.w3.org/2000/svg">
<path d="M22.333 12H20.222M20.222 12C20.222 13.9598 19.444 15.8389 18.0582 17.2247C16.6724 18.6105 14.7928 19.389 12.833 19.389M20.222 12C20.222 10.0402 19.444 8.16013 18.0582 6.77433C16.6724 5.38853 14.7928 4.611 12.833 4.611M12.833 2.5V4.611M12.833 4.611C10.8733 4.611 8.9939 5.38848 7.6082 6.77419C6.22249 8.15989 5.44401 10.0393 5.44401 11.999C5.44401 13.9587 6.22249 15.8381 7.6082 17.2238C8.9939 18.6095 10.8733 19.389 12.833 19.389M3.33301 12H5.44401M12.833 21.5V19.389" stroke="white" stroke-width="1.5" stroke-miterlimit="10" stroke-linecap="round"/>
<path d="M12.8333 16.2223C13.9531 16.2223 15.027 15.7775 15.8187 14.9857C16.6105 14.1939 17.0553 13.1201 17.0553 12.0003C17.0553 10.8806 16.6105 9.80669 15.8187 9.01492C15.027 8.22314 13.9531 7.77832 12.8333 7.77832C11.7136 7.77832 10.6397 8.22314 9.84792 9.01492C9.05614 9.80669 8.61133 10.8806 8.61133 12.0003C8.61133 13.1201 9.05614 14.1939 9.84792 14.9857C10.6397 15.7775 11.7136 16.2223 12.8333 16.2223Z" stroke="white" stroke-width="1.5" stroke-miterlimit="10" stroke-linecap="round"/>
</svg>
