<svg width="35" height="35" viewBox="0 0 35 35" fill="none" xmlns="http://www.w3.org/2000/svg">
<path d="M0 17.5C0 7.83502 7.83502 0 17.5 0C27.165 0 35 7.83502 35 17.5C35 27.165 27.165 35 17.5 35C7.83502 35 0 27.165 0 17.5Z" fill="#F3D8D9"/>
<path d="M17.5 25.8346C16.8183 25.8346 16.1667 25.5596 14.8642 25.0113C11.6217 23.6455 10 22.963 10 21.8138V13.7863M17.5 25.8346C18.1817 25.8346 18.8333 25.5596 20.1358 25.0113C23.3783 23.6455 25 22.963 25 21.8138V13.7863M17.5 25.8346V17.5263C18.3083 17.5263 19.0592 17.1638 20.5625 16.4388L22.9958 15.2638C24.3317 14.6196 25 14.2971 25 13.7863M10 13.7863C10 14.2971 10.6683 14.6188 12.0042 15.263L14.4375 16.438C15.9408 17.163 16.6917 17.5246 17.5 17.5246M10 13.7863C10 13.2763 10.6683 12.9538 12.0042 12.3096L13.3333 11.668M25 13.7863C25 13.2763 24.3317 12.9538 22.9958 12.3096L21.7042 11.6863M12.5 18.3563L14.1667 19.1871" stroke="#6D2E3D" stroke-width="1.25" stroke-linecap="round" stroke-linejoin="round"/>
<path d="M17.4968 15.0014V9.16802M17.4968 9.16802C17.2777 9.16469 17.0618 9.31802 16.9018 9.50552L15.8335 10.783M17.4968 9.16802C17.7085 9.17052 17.9227 9.32302 18.0918 9.50552L19.1668 10.783" stroke="#6D2E3D" stroke-width="1.25" stroke-linecap="round"/>
</svg>
