<svg width="24" height="24" viewBox="0 0 24 24" fill="none" xmlns="http://www.w3.org/2000/svg">
<path d="M11.9998 3.83991C7.48784 3.83991 3.83984 7.48791 3.83984 11.9999C3.83984 16.5119 7.48784 20.1599 11.9998 20.1599C16.5118 20.1599 20.1598 16.5119 20.1598 11.9999C20.1598 7.48791 16.5118 3.83991 11.9998 3.83991ZM11.9998 19.1999C8.01584 19.1999 4.79984 15.9839 4.79984 11.9999C4.79984 8.01591 8.01584 4.79991 11.9998 4.79991C15.9838 4.79991 19.1998 8.01591 19.1998 11.9999C19.1998 15.9839 15.9838 19.1999 11.9998 19.1999Z" fill="#6D2E3D"/>
<path d="M15.9838 11.1837L11.9998 15.1677L8.01575 11.1837L7.34375 11.8557L11.9998 16.5117L16.6558 11.8557L15.9838 11.1837Z" fill="#6D2E3D"/>
<path d="M11.5195 15.8398H12.4795L12.4795 7.67984H11.5195L11.5195 15.8398Z" fill="#6D2E3D"/>
</svg>
