<svg width="25" height="24" viewBox="0 0 25 24" fill="none" xmlns="http://www.w3.org/2000/svg">
<path d="M12.3867 8.93947V17.9995M17.3867 8.93947V17.9995M7.38672 8.93947V17.9995M12.8337 3.10547L20.5977 7.01347C21.5417 7.48847 21.2057 8.92047 20.1507 8.92047H4.62272C3.56772 8.92047 3.23172 7.48847 4.17572 7.01347L11.9397 3.10547C12.0785 3.03611 12.2316 3 12.3867 3C12.5419 3 12.6949 3.03611 12.8337 3.10547ZM19.8867 20.9995H4.88672C4.48889 20.9995 4.10736 20.8414 3.82606 20.5601C3.54475 20.2788 3.38672 19.8973 3.38672 19.4995C3.38672 19.1016 3.54475 18.7201 3.82606 18.4388C4.10736 18.1575 4.48889 17.9995 4.88672 17.9995H19.8867C20.2845 17.9995 20.6661 18.1575 20.9474 18.4388C21.2287 18.7201 21.3867 19.1016 21.3867 19.4995C21.3867 19.8973 21.2287 20.2788 20.9474 20.5601C20.6661 20.8414 20.2845 20.9995 19.8867 20.9995Z" stroke="#6D2E3D" stroke-width="1.5" stroke-linecap="round" stroke-linejoin="round"/>
</svg>
