<svg width="25" height="20" viewBox="0 0 25 20" fill="none" xmlns="http://www.w3.org/2000/svg">
<path d="M19.7386 8.21163C19.4946 4.28575 16.8671 0.5 12.0483 0.5C7.64084 0.5 4.24198 3.90397 4.06198 8.44675C1.65056 9.22634 0.333984 11.9077 0.333984 13.8594C0.333984 16.8643 2.73741 19.5 5.47684 19.5H9.19113C9.2669 19.5 9.33958 19.4687 9.39316 19.413C9.44674 19.3574 9.47684 19.2819 9.47684 19.2031C9.47684 19.1244 9.44674 19.0489 9.39316 18.9932C9.33958 18.9375 9.2669 18.9062 9.19113 18.9062H5.47684C3.04141 18.9062 0.905413 16.5479 0.905413 13.8594C0.905413 12.0478 2.43341 8.8125 5.47684 8.8125H6.33398C6.40976 8.8125 6.48243 8.78122 6.53602 8.72555C6.5896 8.66987 6.6197 8.59436 6.6197 8.51562C6.6197 8.43689 6.5896 8.36138 6.53602 8.3057C6.48243 8.25003 6.40976 8.21875 6.33398 8.21875H5.47684C5.18598 8.21875 4.91113 8.25259 4.64313 8.30128C4.86713 4.74472 7.46884 1.09375 12.0483 1.09375C16.9557 1.09375 19.1911 5.09503 19.1911 8.8125V9.70312C19.1911 9.78186 19.2212 9.85737 19.2748 9.91305C19.3284 9.96872 19.4011 10 19.4768 10C19.5526 10 19.6253 9.96872 19.6789 9.91305C19.7325 9.85737 19.7626 9.78186 19.7626 9.70312V8.80716C21.4877 9.00369 23.7626 10.9274 23.7626 13.8594C23.7626 16.1311 21.6534 18.9062 19.1911 18.9062H14.9054C13.0551 18.9062 12.334 18.1569 12.334 16.2344V8.08991L14.6643 10.5065C14.6906 10.5349 14.7221 10.5575 14.7569 10.5731C14.7918 10.5887 14.8292 10.597 14.8672 10.5974C14.9051 10.5978 14.9427 10.5903 14.9779 10.5754C15.013 10.5606 15.0449 10.5386 15.0718 10.5107C15.0987 10.4829 15.1199 10.4498 15.1343 10.4133C15.1487 10.3769 15.156 10.3378 15.1558 10.2984C15.1555 10.2589 15.1477 10.22 15.1327 10.1837C15.1178 10.1475 15.0961 10.1147 15.0688 10.0873L12.5197 7.44391C12.1803 7.09241 11.9168 7.09241 11.578 7.44391L9.02884 10.0873C8.9768 10.1433 8.948 10.2183 8.94865 10.2961C8.9493 10.3739 8.97935 10.4484 9.03232 10.5034C9.0853 10.5585 9.15696 10.5897 9.23187 10.5904C9.30678 10.5911 9.37896 10.5611 9.43284 10.5071L11.7626 8.08991V16.2344C11.7626 18.493 12.7317 19.5 14.9054 19.5H19.1911C21.9608 19.5 24.334 16.3982 24.334 13.8594C24.334 10.7915 21.9208 8.39213 19.7386 8.21163Z" fill="#979797"/>
</svg>
