<svg width="20" height="20" viewBox="0 0 20 20" fill="none" xmlns="http://www.w3.org/2000/svg">
<path d="M11.668 9.99967H16.2513L11.668 5.41634V9.99967ZM6.66797 4.16634H12.5013L17.5013 9.16634V17.4997C17.5013 17.9417 17.3257 18.3656 17.0131 18.6782C16.7006 18.9907 16.2767 19.1663 15.8346 19.1663H6.66797C6.22594 19.1663 5.80202 18.9907 5.48946 18.6782C5.1769 18.3656 5.0013 17.9417 5.0013 17.4997V14.9997H9.16797V16.6663L12.5013 14.1663L9.16797 11.6663V13.333H5.0013V5.83301C5.0013 5.39098 5.1769 4.96706 5.48946 4.6545C5.80202 4.34194 6.22594 4.16634 6.66797 4.16634ZM11.2513 2.49967H3.33464V13.333H5.0013V14.9997H3.33464C2.89261 14.9997 2.46868 14.8241 2.15612 14.5115C1.84356 14.199 1.66797 13.775 1.66797 13.333V2.49967C1.66797 2.05765 1.84356 1.63372 2.15612 1.32116C2.46868 1.0086 2.89261 0.833008 3.33464 0.833008H9.58464L11.2513 2.49967Z" fill="white"/>
</svg>
