<svg width="36" height="36" viewBox="0 0 36 36" fill="none" xmlns="http://www.w3.org/2000/svg">
<path d="M0.5 18C0.5 8.33502 8.33502 0.5 18 0.5C27.665 0.5 35.5 8.33502 35.5 18C35.5 27.665 27.665 35.5 18 35.5C8.33502 35.5 0.5 27.665 0.5 18Z" fill="#F3D8D9"/>
<g clip-path="url(#clip0_499_80145)">
<path fill-rule="evenodd" clip-rule="evenodd" d="M17.3661 8.01991L16.8836 8.06991C14.5423 8.30366 12.1836 9.51116 10.5886 11.2937C8.82483 13.2649 7.92858 15.7112 8.01108 18.3174C8.15483 22.8187 11.2486 26.6299 15.6373 27.7149C16.9295 28.0272 18.2708 28.0798 19.5833 27.8695C20.8959 27.6592 22.1537 27.1902 23.2836 26.4899C25.5058 25.1053 27.0964 22.9044 27.7136 20.3599C27.9286 19.4837 27.9786 19.0374 27.9786 18.0012C27.9786 16.9649 27.9286 16.5187 27.7136 15.6424C26.7236 11.5987 23.3936 8.62366 19.2498 8.08116C18.8948 8.03491 17.6036 7.99366 17.3661 8.01991ZM19.0661 9.95491C19.9296 10.0647 20.7688 10.3169 21.5498 10.7012C22.4223 11.1262 23.0248 11.5587 23.7336 12.2674C24.3829 12.8951 24.9135 13.6349 25.2998 14.4512C25.8561 15.5949 26.1073 16.6987 26.1073 18.0012C26.1238 19.2446 25.8409 20.4738 25.2823 21.5849C25.0673 22.0237 24.6336 22.7274 24.4311 22.9662L24.3623 23.0474L18.6586 17.3424L12.9536 11.6387L13.0348 11.5699C13.2736 11.3674 13.9773 10.9337 14.4161 10.7187C15.8552 10.006 17.4746 9.73997 19.0661 9.95491ZM17.3498 18.6687L23.0498 24.3699L22.9661 24.4362C22.53 24.7579 22.0675 25.0423 21.5836 25.2862C20.8001 25.6687 19.9623 25.9284 19.0998 26.0562C18.5698 26.1374 17.4298 26.1374 16.8998 26.0562C14.4648 25.6862 12.4098 24.3574 11.1161 22.3149C10.7978 21.7873 10.5324 21.2296 10.3236 20.6499C9.83252 19.2071 9.75075 17.6564 10.0873 16.1699C10.3456 15.0953 10.8109 14.0814 11.4573 13.1849C11.5448 13.0662 11.6236 12.9687 11.6336 12.9687C11.6436 12.9687 14.2148 15.5337 17.3498 18.6687Z" fill="#6D2E3D"/>
</g>
<defs>
<clipPath id="clip0_499_80145">
<rect width="20" height="20" fill="white" transform="translate(8 8)"/>
</clipPath>
</defs>
</svg>
