<svg width="32" height="32" viewBox="0 0 32 32" fill="none" xmlns="http://www.w3.org/2000/svg">
<path d="M6.03817 24.8204C7.45484 23.7693 8.99817 22.9391 10.6682 22.33C12.3379 21.7211 14.1151 21.4166 15.9998 21.4166C17.8846 21.4166 19.6618 21.7211 21.3315 22.33C23.0015 22.9391 24.5448 23.7693 25.9615 24.8204C26.9976 23.6815 27.8186 22.3632 28.4244 20.8654C29.0303 19.3676 29.3332 17.7458 29.3332 16C29.3332 12.3055 28.0346 9.15968 25.4373 6.56246C22.8401 3.96524 19.6943 2.66663 15.9998 2.66663C12.3054 2.66663 9.15956 3.96524 6.56234 6.56246C3.96512 9.15968 2.6665 12.3055 2.6665 16C2.6665 17.7458 2.96942 19.3676 3.57525 20.8654C4.18109 22.3632 5.00206 23.6815 6.03817 24.8204ZM16.0003 17.25C14.4786 17.25 13.1954 16.7277 12.1507 15.6833C11.1057 14.6386 10.5832 13.3554 10.5832 11.8337C10.5832 10.312 11.1054 9.02885 12.1498 7.98413C13.1946 6.93913 14.4778 6.41663 15.9994 6.41663C17.5211 6.41663 18.8043 6.93885 19.849 7.98329C20.894 9.02801 21.4165 10.3112 21.4165 11.8329C21.4165 13.3545 20.8943 14.6377 19.8498 15.6825C18.8051 16.7275 17.5219 17.25 16.0003 17.25ZM15.9998 31.8333C13.8012 31.8333 11.7387 31.4198 9.81234 30.5929C7.88595 29.7659 6.21025 28.6398 4.78525 27.2145C3.35998 25.7895 2.23387 24.1138 1.40692 22.1875C0.579976 20.2611 0.166504 18.1986 0.166504 16C0.166504 13.8013 0.579976 11.7388 1.40692 9.81246C2.23387 7.88607 3.35998 6.21038 4.78525 4.78538C6.21025 3.3601 7.88595 2.23399 9.81234 1.40704C11.7387 0.580099 13.8012 0.166626 15.9998 0.166626C18.1984 0.166626 20.2609 0.580099 22.1873 1.40704C24.1137 2.23399 25.7894 3.3601 27.2144 4.78538C28.6397 6.21038 29.7658 7.88607 30.5928 9.81246C31.4197 11.7388 31.8332 13.8013 31.8332 16C31.8332 18.1986 31.4197 20.2611 30.5928 22.1875C29.7658 24.1138 28.6397 25.7895 27.2144 27.2145C25.7894 28.6398 24.1137 29.7659 22.1873 30.5929C20.2609 31.4198 18.1984 31.8333 15.9998 31.8333ZM15.9998 29.3333C17.504 29.3333 18.9543 29.0913 20.3507 28.6075C21.7471 28.1233 22.9869 27.4465 24.0703 26.577C22.9869 25.7393 21.7632 25.0865 20.399 24.6187C19.0346 24.1507 17.5682 23.9166 15.9998 23.9166C14.4315 23.9166 12.9625 24.1479 11.5928 24.6104C10.223 25.0732 9.00192 25.7287 7.92942 26.577C9.01275 27.4465 10.2526 28.1233 11.649 28.6075C13.0454 29.0913 14.4957 29.3333 15.9998 29.3333ZM15.9998 14.75C16.829 14.75 17.5223 14.4711 18.0798 13.9133C18.6376 13.3558 18.9165 12.6625 18.9165 11.8333C18.9165 11.0041 18.6376 10.3108 18.0798 9.75329C17.5223 9.19552 16.829 8.91663 15.9998 8.91663C15.1707 8.91663 14.4773 9.19552 13.9198 9.75329C13.3621 10.3108 13.0832 11.0041 13.0832 11.8333C13.0832 12.6625 13.3621 13.3558 13.9198 13.9133C14.4773 14.4711 15.1707 14.75 15.9998 14.75Z" fill="white"/>
</svg>
