<svg width="20" height="20" viewBox="0 0 20 20" fill="none" xmlns="http://www.w3.org/2000/svg">
<path d="M5.83317 6.87435C6.44096 6.87435 7.02385 6.63291 7.45362 6.20314C7.88339 5.77336 8.12484 5.19047 8.12484 4.58268C8.12484 3.97489 7.88339 3.392 7.45362 2.96223C7.02385 2.53246 6.44096 2.29102 5.83317 2.29102C5.22538 2.29102 4.64249 2.53246 4.21272 2.96223C3.78295 3.392 3.5415 3.97489 3.5415 4.58268C3.5415 5.19047 3.78295 5.77336 4.21272 6.20314C4.64249 6.63291 5.22538 6.87435 5.83317 6.87435ZM5.83317 6.87435V13.1243M5.83317 6.87435C5.83317 9.29102 7.7915 11.2493 10.2082 11.2493H11.8748M5.83317 13.1243C5.22538 13.1243 4.64249 13.3658 4.21272 13.7956C3.78295 14.2253 3.5415 14.8082 3.5415 15.416C3.5415 16.0238 3.78295 16.6067 4.21272 17.0365C4.64249 17.4662 5.22538 17.7077 5.83317 17.7077C6.44096 17.7077 7.02385 17.4662 7.45362 17.0365C7.88339 16.6067 8.12484 16.0238 8.12484 15.416C8.12484 14.8082 7.88339 14.2253 7.45362 13.7956C7.02385 13.3658 6.44096 13.1243 5.83317 13.1243ZM11.8748 11.2493C11.8748 11.8571 12.1163 12.44 12.5461 12.8698C12.9758 13.2996 13.5587 13.541 14.1665 13.541C14.7743 13.541 15.3572 13.2996 15.787 12.8698C16.2167 12.44 16.4582 11.8571 16.4582 11.2493C16.4582 10.6416 16.2167 10.0587 15.787 9.6289C15.3572 9.19912 14.7743 8.95768 14.1665 8.95768C13.5587 8.95768 12.9758 9.19912 12.5461 9.6289C12.1163 10.0587 11.8748 10.6416 11.8748 11.2493Z" stroke="#471923" stroke-width="1.25" stroke-linecap="round" stroke-linejoin="round"/>
</svg>
