<svg width="18" height="18" viewBox="0 0 18 18" fill="none" xmlns="http://www.w3.org/2000/svg">
<path d="M3.75 15.75C3.3375 15.75 2.9845 15.6033 2.691 15.3097C2.3975 15.0162 2.2505 14.663 2.25 14.25V3.75C2.25 3.3375 2.397 2.9845 2.691 2.691C2.985 2.3975 3.338 2.2505 3.75 2.25H14.25C14.6625 2.25 15.0157 2.397 15.3097 2.691C15.6038 2.985 15.7505 3.338 15.75 3.75V14.25C15.75 14.6625 15.6033 15.0157 15.3097 15.3097C15.0162 15.6038 14.663 15.7505 14.25 15.75H3.75ZM7.5 14.25V9.75H3.75V14.25H7.5ZM9 14.25H14.25V9.75H9V14.25ZM3.75 8.25H14.25V3.75H3.75V8.25Z" fill="#471923"/>
</svg>
