<svg width="35" height="35" viewBox="0 0 35 35" fill="none" xmlns="http://www.w3.org/2000/svg">
<path d="M0 17.5C0 7.83502 7.83502 0 17.5 0C27.165 0 35 7.83502 35 17.5C35 27.165 27.165 35 17.5 35C7.83502 35 0 27.165 0 17.5Z" fill="#F3D8D9"/>
<g clip-path="url(#clip0_499_69162)">
<path fill-rule="evenodd" clip-rule="evenodd" d="M9.375 10H25.625L26.25 10.625V17.5038C25.863 17.2133 25.4435 16.9687 25 16.775V11.25H10V22.5H16.25C16.25 23.8523 16.6886 25.1681 17.5 26.25H12.5V25H16.25V23.75H9.375L8.75 23.125V10.625L9.375 10Z" fill="#6D2E3D"/>
<path fill-rule="evenodd" clip-rule="evenodd" d="M19.7227 18.3414C20.2686 17.9726 20.882 17.7153 21.5276 17.5842C22.1733 17.4532 22.8385 17.4511 23.485 17.578C24.1314 17.7049 24.7465 17.9583 25.2947 18.3236C25.8429 18.6889 26.3136 19.159 26.6796 19.7068C27.0455 20.2547 27.2996 20.8694 27.4273 21.5157C27.5549 22.1621 27.5535 22.8272 27.4233 23.4731C27.293 24.1189 27.0364 24.7326 26.6682 25.2789C26.3 25.8252 25.8274 26.2933 25.2777 26.6564C24.175 27.3848 22.8288 27.647 21.5333 27.3857C20.2379 27.1243 19.0986 26.3608 18.3644 25.2619C17.6303 24.163 17.3611 22.8182 17.6156 21.5214C17.8701 20.2246 18.6277 19.0813 19.7227 18.3414ZM22.3852 24.5789L25.3689 20.6014L24.3689 19.8514L21.7727 23.3127L20.1464 22.0114L19.3652 22.9864L21.4952 24.6914L22.3864 24.5789H22.3852Z" fill="#6D2E3D"/>
</g>
<defs>
<clipPath id="clip0_499_69162">
<rect width="20" height="20" fill="white" transform="translate(7.5 7.5)"/>
</clipPath>
</defs>
</svg>
