<svg width="14" height="15" viewBox="0 0 14 15" fill="none" xmlns="http://www.w3.org/2000/svg">
<path d="M5.03333 1.18798C5.30384 0.959999 5.64623 0.834961 6 0.834961C6.35377 0.834961 6.69616 0.959999 6.96667 1.18798L11.4667 4.98265C11.8047 5.26798 12 5.68732 12 6.12932V7.51465C11.6882 7.31503 11.3522 7.15618 11 7.04198V6.12998C10.9999 6.05719 10.984 5.98529 10.9532 5.91931C10.9225 5.85333 10.8777 5.79486 10.822 5.74798L6.322 1.95332C6.23186 1.87744 6.11782 1.83583 6 1.83583C5.88218 1.83583 5.76814 1.87744 5.678 1.95332L1.178 5.74665C1.12231 5.79353 1.07753 5.852 1.04679 5.91798C1.01604 5.98396 1.00007 6.05586 1 6.12865V12.3353C1 12.4273 1.07467 12.502 1.16667 12.502H5.54333C5.65774 12.8542 5.81681 13.1902 6.01667 13.502H1.16667C0.857363 13.502 0.560718 13.3792 0.341944 13.1605C0.123171 12.9419 0.000176745 12.6453 0 12.336V6.12932C0 5.68732 0.195333 5.26798 0.533333 4.98265L5.03333 1.18798ZM13.3333 11.1667C13.3333 10.1942 12.947 9.26156 12.2594 8.57393C11.5718 7.88629 10.6391 7.49998 9.66667 7.49998C8.69421 7.49998 7.76158 7.88629 7.07394 8.57393C6.38631 9.26156 6 10.1942 6 11.1667C6 12.1391 6.38631 13.0717 7.07394 13.7594C7.76158 14.447 8.69421 14.8333 9.66667 14.8333C10.6391 14.8333 11.5718 14.447 12.2594 13.7594C12.947 13.0717 13.3333 12.1391 13.3333 11.1667ZM10 11.5L10.0007 13.1687C10.0007 13.2571 9.96555 13.3418 9.90304 13.4044C9.84052 13.4669 9.75574 13.502 9.66733 13.502C9.57893 13.502 9.49414 13.4669 9.43163 13.4044C9.36912 13.3418 9.334 13.2571 9.334 13.1687V11.5H7.664C7.57559 11.5 7.49081 11.4649 7.4283 11.4024C7.36579 11.3398 7.33067 11.2551 7.33067 11.1667C7.33067 11.0782 7.36579 10.9935 7.4283 10.9309C7.49081 10.8684 7.57559 10.8333 7.664 10.8333H9.33333V9.16665C9.33333 9.07825 9.36845 8.99346 9.43096 8.93095C9.49348 8.86844 9.57826 8.83332 9.66667 8.83332C9.75507 8.83332 9.83986 8.86844 9.90237 8.93095C9.96488 8.99346 10 9.07825 10 9.16665V10.8333H11.6647C11.7531 10.8333 11.8379 10.8684 11.9004 10.9309C11.9629 10.9935 11.998 11.0782 11.998 11.1667C11.998 11.2551 11.9629 11.3398 11.9004 11.4024C11.8379 11.4649 11.7531 11.5 11.6647 11.5H10Z" fill="#6D2E3D"/>
</svg>
