<svg width="35" height="35" viewBox="0 0 35 35" fill="none" xmlns="http://www.w3.org/2000/svg">
<path d="M0 17.5C0 7.83502 7.83502 0 17.5 0C27.165 0 35 7.83502 35 17.5C35 27.165 27.165 35 17.5 35C7.83502 35 0 27.165 0 17.5Z" fill="#F3D8D9"/>
<g clip-path="url(#clip0_499_80549)">
<path d="M12.8332 17.5013L16.8332 20.8346L22.1665 14.168M17.4998 26.8346C16.2742 26.8346 15.0605 26.5932 13.9281 26.1242C12.7958 25.6551 11.7669 24.9676 10.9002 24.101C10.0335 23.2343 9.34601 22.2054 8.87696 21.073C8.40792 19.9406 8.1665 18.727 8.1665 17.5013C8.1665 16.2756 8.40792 15.062 8.87696 13.9296C9.34601 12.7972 10.0335 11.7683 10.9002 10.9016C11.7669 10.035 12.7958 9.34747 13.9281 8.87843C15.0605 8.40938 16.2742 8.16797 17.4998 8.16797C19.9752 8.16797 22.3492 9.1513 24.0995 10.9016C25.8498 12.652 26.8332 15.0259 26.8332 17.5013C26.8332 19.9767 25.8498 22.3506 24.0995 24.101C22.3492 25.8513 19.9752 26.8346 17.4998 26.8346Z" stroke="#6D2E3D" stroke-width="1.33333"/>
</g>
<defs>
<clipPath id="clip0_499_80549">
<rect width="20" height="20" fill="white" transform="translate(7.5 7.5)"/>
</clipPath>
</defs>
</svg>
