<svg width="20" height="20" viewBox="0 0 20 20" fill="none" xmlns="http://www.w3.org/2000/svg">
<path d="M7.5 15C7.00555 15 6.5222 14.8534 6.11108 14.5787C5.69995 14.304 5.37952 13.9135 5.1903 13.4567C5.00108 12.9999 4.95157 12.4972 5.04804 12.0123C5.1445 11.5273 5.3826 11.0819 5.73223 10.7322C6.08187 10.3826 6.52732 10.1445 7.01228 10.048C7.49723 9.95157 7.9999 10.0011 8.45671 10.1903C8.91353 10.3795 9.30397 10.7 9.57868 11.1111C9.85338 11.5222 10 12.0055 10 12.5C9.99934 13.1628 9.73573 13.7983 9.26704 14.267C8.79834 14.7357 8.16284 14.9993 7.5 15ZM7.5 11.25C7.25277 11.25 7.0111 11.3233 6.80554 11.4607C6.59998 11.598 6.43976 11.7932 6.34515 12.0216C6.25054 12.2501 6.22579 12.5014 6.27402 12.7439C6.32225 12.9863 6.4413 13.2091 6.61612 13.3839C6.79093 13.5587 7.01366 13.6778 7.25614 13.726C7.49861 13.7742 7.74995 13.7495 7.97836 13.6549C8.20676 13.5602 8.40199 13.4 8.53934 13.1945C8.67669 12.9889 8.75 12.7472 8.75 12.5C8.75 12.1685 8.61831 11.8505 8.38388 11.6161C8.14946 11.3817 7.83152 11.25 7.5 11.25Z" fill="black"/>
<path d="M18.7501 3.75C18.7495 3.08716 18.4859 2.45166 18.0172 1.98296C17.5485 1.51427 16.913 1.25066 16.2501 1.25C15.8453 1.25286 15.4474 1.35524 15.0914 1.54812L4.84827 6.84812C3.93842 7.27405 3.14475 7.9132 2.53462 8.71132C1.92449 9.50944 1.51591 10.443 1.34357 11.4327C1.17122 12.4224 1.24018 13.4391 1.54461 14.3965C1.84903 15.3539 2.37994 16.2237 3.09226 16.9321C3.80458 17.6405 4.67729 18.1666 5.63633 18.4658C6.59537 18.7649 7.61242 18.8283 8.60118 18.6505C9.58994 18.4727 10.5212 18.059 11.316 17.4445C12.1107 16.83 12.7455 16.0328 13.1664 15.1206L18.4726 4.87063C18.6524 4.52427 18.7475 4.14022 18.7501 3.75ZM16.2501 2.5C16.4974 2.5 16.739 2.57331 16.9446 2.71066C17.1502 2.84801 17.3104 3.04324 17.405 3.27165C17.4996 3.50005 17.5244 3.75139 17.4761 3.99386C17.4279 4.23634 17.3088 4.45907 17.134 4.63388C16.9592 4.8087 16.7365 4.92775 16.494 4.97598C16.2515 5.02421 16.0002 4.99946 15.7718 4.90485C15.5434 4.81024 15.3482 4.65002 15.2108 4.44446C15.0735 4.2389 15.0001 3.99723 15.0001 3.75C15.0001 3.41848 15.1318 3.10054 15.3663 2.86612C15.6007 2.6317 15.9186 2.5 16.2501 2.5ZM13.7626 3.63C13.7601 3.67062 13.7501 3.70875 13.7501 3.75C13.7508 4.41284 14.0144 5.04834 14.4831 5.51704C14.9518 5.98573 15.5873 6.24934 16.2501 6.25C16.2908 6.25 16.3283 6.24 16.3676 6.23812L13.6601 11.4644C13.4416 10.1834 12.8299 9.00206 11.91 8.08422C10.99 7.16638 9.80729 6.55746 8.52577 6.34188L13.7626 3.63ZM7.50015 17.5C6.51124 17.5 5.54454 17.2068 4.72229 16.6573C3.90005 16.1079 3.25919 15.327 2.88075 14.4134C2.50231 13.4998 2.40329 12.4945 2.59622 11.5245C2.78915 10.5546 3.26535 9.66373 3.96461 8.96447C4.66387 8.2652 5.55479 7.789 6.52469 7.59607C7.4946 7.40315 8.49993 7.50216 9.41356 7.8806C10.3272 8.25904 11.1081 8.8999 11.6575 9.72215C12.2069 10.5444 12.5001 11.5111 12.5001 12.5C12.4985 13.8256 11.9712 15.0964 11.0339 16.0337C10.0965 16.971 8.82572 17.4983 7.50015 17.5Z" fill="black"/>
</svg>
