<svg width="12" height="14" viewBox="0 0 12 14" fill="none" xmlns="http://www.w3.org/2000/svg">
<path d="M9 5.22727H3.6V4.04545H9V5.22727ZM3 4.04545H1.8V5.22727H3V4.04545ZM3 2.27273H1.8V3.45455H3V2.27273ZM4.8 2.27273H3.6V3.45455H4.8V2.27273ZM6.6 9.95455V11.1364H7.2C7.53 11.1364 7.8 11.4023 7.8 11.7273H12V12.9091H7.8C7.8 13.2341 7.53 13.5 7.2 13.5H4.8C4.47 13.5 4.2 13.2341 4.2 12.9091H0V11.7273H4.2C4.2 11.4023 4.47 11.1364 4.8 11.1364H5.4V9.95455H1.2C0.534 9.95455 0 9.42864 0 8.77273V1.68182C0 1.36838 0.126428 1.06778 0.351472 0.846147C0.576515 0.624513 0.88174 0.5 1.2 0.5H10.8C11.466 0.5 12 1.02591 12 1.68182V8.77273C12 9.42864 11.466 9.95455 10.8 9.95455H6.6ZM10.8 8.77273V1.68182H1.2V8.77273H10.8ZM5.4 3.45455H10.2V2.27273H5.4V3.45455ZM1.8 7H5.4V5.81818H1.8V7ZM6.6 8.18182H10.2V7H6.6V8.18182Z" fill="white"/>
</svg>
