<svg width="20" height="20" viewBox="0 0 20 20" fill="none" xmlns="http://www.w3.org/2000/svg">
<path d="M19.9907 13.75V20H12.4907V13.75H13.7407V12.5C13.7407 12.1549 13.8058 11.8327 13.936 11.5332C14.0662 11.2337 14.2453 10.9668 14.4731 10.7324C14.701 10.498 14.9647 10.319 15.2641 10.1953C15.5636 10.0716 15.8891 10.0065 16.2407 10C16.5858 10 16.908 10.0651 17.2075 10.1953C17.507 10.3255 17.7739 10.5046 18.0083 10.7324C18.2427 10.9603 18.4217 11.224 18.5454 11.5234C18.6691 11.8229 18.7342 12.1484 18.7407 12.5V13.75H19.9907ZM14.9907 13.75H17.4907V12.5C17.4907 12.3242 17.4581 12.1615 17.393 12.0117C17.3279 11.862 17.24 11.7318 17.1294 11.6211C17.0187 11.5104 16.8852 11.4193 16.729 11.3477C16.5727 11.276 16.41 11.2435 16.2407 11.25C16.0649 11.25 15.9022 11.2826 15.7524 11.3477C15.6027 11.4128 15.4725 11.5007 15.3618 11.6113C15.2511 11.722 15.16 11.8555 15.0884 12.0117C15.0167 12.168 14.9842 12.3307 14.9907 12.5V13.75ZM18.7407 15H13.7407V18.75H18.7407V15ZM14.9907 6.875C14.9907 7.2526 14.9289 7.61068 14.8052 7.94922C14.6815 8.28776 14.5024 8.59375 14.268 8.86719C14.0337 9.14062 13.7635 9.37175 13.4575 9.56055C13.1515 9.74935 12.8097 9.8763 12.4321 9.94141C12.3605 10.3125 12.2335 10.6543 12.0512 10.9668C11.869 11.2793 11.6378 11.5495 11.3579 11.7773C11.0779 12.0052 10.7719 12.181 10.4399 12.3047C10.1079 12.4284 9.74981 12.4935 9.3657 12.5H5.6157C5.40737 12.5 5.2088 12.5326 5.02 12.5977C4.83119 12.6628 4.65867 12.7539 4.50242 12.8711C4.34617 12.9883 4.20945 13.1283 4.09226 13.291C3.97507 13.4538 3.88718 13.6361 3.82859 13.8379C4.18015 13.9225 4.50242 14.0592 4.79539 14.248C5.08836 14.4368 5.34226 14.668 5.55711 14.9414C5.77195 15.2148 5.93796 15.5143 6.05515 15.8398C6.17234 16.1654 6.23419 16.5104 6.2407 16.875C6.2407 17.3047 6.15932 17.7083 5.99656 18.0859C5.8338 18.4635 5.60919 18.7956 5.32273 19.082C5.03627 19.3685 4.70424 19.5931 4.32664 19.7559C3.94903 19.9186 3.54539 20 3.1157 20C2.68601 20 2.28237 19.9186 1.90476 19.7559C1.52716 19.5931 1.19838 19.3717 0.918434 19.0918C0.638486 18.8118 0.413877 18.4798 0.244606 18.0957C0.0753348 17.7116 -0.00604539 17.3047 0.00046503 16.875C0.00046503 16.5039 0.062314 16.1523 0.186012 15.8203C0.30971 15.4883 0.478981 15.1823 0.693824 14.9023C0.908668 14.6224 1.17234 14.3913 1.48484 14.209C1.79734 14.0267 2.13263 13.8965 2.4907 13.8184V6.18164C2.12612 6.11003 1.79083 5.97982 1.48484 5.79102C1.17885 5.60221 0.918434 5.37109 0.70359 5.09766C0.488746 4.82422 0.31622 4.52148 0.186012 4.18945C0.0558036 3.85742 -0.00604539 3.5026 0.00046503 3.125C0.00046503 2.69531 0.0818452 2.29167 0.244606 1.91406C0.407366 1.53646 0.62872 1.20768 0.908668 0.927734C1.18862 0.647786 1.52065 0.423177 1.90476 0.253906C2.28888 0.0846354 2.69252 0 3.1157 0C3.54539 0 3.94903 0.0813802 4.32664 0.244141C4.70424 0.406901 5.03302 0.63151 5.31296 0.917969C5.59291 1.20443 5.81752 1.53646 5.98679 1.91406C6.15606 2.29167 6.2407 2.69531 6.2407 3.125C6.2407 3.49609 6.17885 3.85091 6.05515 4.18945C5.93145 4.52799 5.75893 4.83073 5.53757 5.09766C5.31622 5.36458 5.05255 5.5957 4.74656 5.79102C4.44057 5.98633 4.10528 6.11654 3.7407 6.18164V11.8945C4.01414 11.6862 4.31036 11.5267 4.62937 11.416C4.94838 11.3053 5.27716 11.25 5.6157 11.25H9.3657C9.57403 11.25 9.7726 11.2174 9.9614 11.1523C10.1502 11.0872 10.3227 10.9961 10.479 10.8789C10.6352 10.7617 10.7719 10.6217 10.8891 10.459C11.0063 10.2962 11.0942 10.1139 11.1528 9.91211C10.8012 9.82747 10.479 9.69075 10.186 9.50195C9.89304 9.31315 9.63914 9.08529 9.42429 8.81836C9.20945 8.55143 9.04343 8.25195 8.92625 7.91992C8.80906 7.58789 8.74721 7.23958 8.7407 6.875C8.7407 6.44531 8.82208 6.04167 8.98484 5.66406C9.1476 5.28646 9.36895 4.95768 9.6489 4.67773C9.92885 4.39779 10.2609 4.17318 10.645 4.00391C11.0291 3.83464 11.436 3.75 11.8657 3.75C12.2954 3.75 12.699 3.83138 13.0766 3.99414C13.4542 4.1569 13.783 4.38151 14.063 4.66797C14.3429 4.95443 14.5675 5.28646 14.7368 5.66406C14.9061 6.04167 14.9907 6.44531 14.9907 6.875ZM1.2407 3.125C1.2407 3.38542 1.28953 3.62956 1.38718 3.85742C1.48484 4.08529 1.6183 4.28385 1.78757 4.45312C1.95685 4.6224 2.15541 4.75586 2.38328 4.85352C2.61114 4.95117 2.85528 5 3.1157 5C3.37612 5 3.62026 4.95117 3.84812 4.85352C4.07599 4.75586 4.27455 4.6224 4.44382 4.45312C4.6131 4.28385 4.74656 4.08529 4.84421 3.85742C4.94187 3.62956 4.9907 3.38542 4.9907 3.125C4.9907 2.86458 4.94187 2.62044 4.84421 2.39258C4.74656 2.16471 4.6131 1.96615 4.44382 1.79688C4.27455 1.6276 4.07599 1.49414 3.84812 1.39648C3.62026 1.29883 3.37612 1.25 3.1157 1.25C2.85528 1.25 2.61114 1.29883 2.38328 1.39648C2.15541 1.49414 1.95685 1.6276 1.78757 1.79688C1.6183 1.96615 1.48484 2.16471 1.38718 2.39258C1.28953 2.62044 1.2407 2.86458 1.2407 3.125ZM4.9907 16.875C4.9907 16.6146 4.94187 16.3704 4.84421 16.1426C4.74656 15.9147 4.6131 15.7161 4.44382 15.5469C4.27455 15.3776 4.07599 15.2441 3.84812 15.1465C3.62026 15.0488 3.37612 15 3.1157 15C2.85528 15 2.61114 15.0488 2.38328 15.1465C2.15541 15.2441 1.95685 15.3776 1.78757 15.5469C1.6183 15.7161 1.48484 15.9147 1.38718 16.1426C1.28953 16.3704 1.2407 16.6146 1.2407 16.875C1.2407 17.1354 1.28953 17.3796 1.38718 17.6074C1.48484 17.8353 1.6183 18.0339 1.78757 18.2031C1.95685 18.3724 2.15541 18.5059 2.38328 18.6035C2.61114 18.7012 2.85528 18.75 3.1157 18.75C3.37612 18.75 3.62026 18.7012 3.84812 18.6035C4.07599 18.5059 4.27455 18.3724 4.44382 18.2031C4.6131 18.0339 4.74656 17.8353 4.84421 17.6074C4.94187 17.3796 4.9907 17.1354 4.9907 16.875ZM11.8657 8.75C12.1261 8.75 12.3703 8.70117 12.5981 8.60352C12.826 8.50586 13.0246 8.3724 13.1938 8.20312C13.3631 8.03385 13.4966 7.83529 13.5942 7.60742C13.6919 7.37956 13.7407 7.13542 13.7407 6.875C13.7407 6.61458 13.6919 6.37044 13.5942 6.14258C13.4966 5.91471 13.3631 5.71615 13.1938 5.54688C13.0246 5.3776 12.826 5.24414 12.5981 5.14648C12.3703 5.04883 12.1261 5 11.8657 5C11.6053 5 11.3611 5.04883 11.1333 5.14648C10.9054 5.24414 10.7068 5.3776 10.5376 5.54688C10.3683 5.71615 10.2348 5.91471 10.1372 6.14258C10.0395 6.37044 9.9907 6.61458 9.9907 6.875C9.9907 7.13542 10.0395 7.37956 10.1372 7.60742C10.2348 7.83529 10.3683 8.03385 10.5376 8.20312C10.7068 8.3724 10.9054 8.50586 11.1333 8.60352C11.3611 8.70117 11.6053 8.75 11.8657 8.75Z" fill="black"/>
</svg>
