<svg width="20" height="23" viewBox="0 0 20 23" fill="none" xmlns="http://www.w3.org/2000/svg">
<path fill-rule="evenodd" clip-rule="evenodd" d="M14.2969 5.57202C13.8869 5.57202 13.5469 5.23202 13.5469 4.82202V3.59802C12.7729 3.57202 11.8639 3.57202 10.7969 3.57202H8.79688C7.72888 3.57202 6.82088 3.57202 6.04688 3.59802V4.82202C6.04688 5.23202 5.70687 5.57202 5.29688 5.57202C4.88688 5.57202 4.54688 5.23202 4.54688 4.82202V3.70602C3.60188 3.82902 2.95288 4.06602 2.49688 4.52202C1.89488 5.12402 1.67487 6.06202 1.59387 7.57202H17.9999C17.9189 6.06202 17.6979 5.12402 17.0969 4.52202C16.6409 4.06602 15.9919 3.82902 15.0469 3.70602V4.82202C15.0469 5.23202 14.7069 5.57202 14.2969 5.57202ZM18.0409 9.07202C18.0462 9.60069 18.0482 10.184 18.0469 10.822V11.822C18.0469 12.232 18.3869 12.572 18.7969 12.572C19.2069 12.572 19.5469 12.232 19.5469 11.822V10.822C19.5469 6.84202 19.5469 4.85202 18.1569 3.46202C17.3849 2.69002 16.4269 2.34702 15.0469 2.19402V1.32202C15.0469 0.912021 14.7069 0.572021 14.2969 0.572021C13.8869 0.572021 13.5469 0.912021 13.5469 1.32202V2.09702C12.7509 2.07202 11.8419 2.07202 10.7969 2.07202H8.79688C7.75087 2.07202 6.84288 2.07202 6.04688 2.09702V1.32202C6.04688 0.912021 5.70687 0.572021 5.29688 0.572021C4.88688 0.572021 4.54688 0.912021 4.54688 1.32202V2.19402C3.16687 2.34702 2.20887 2.69002 1.43687 3.46202C0.0468749 4.85202 0.046875 6.85202 0.046875 10.822V12.822C0.046875 16.802 0.0468749 18.792 1.43687 20.182C2.82687 21.572 4.81687 21.572 8.79688 21.572C9.20687 21.572 9.54688 21.232 9.54688 20.822C9.54688 20.412 9.20687 20.072 8.79688 20.072C5.23688 20.072 3.44688 20.072 2.49688 19.122C1.54688 18.172 1.54688 16.382 1.54688 12.822V10.822C1.54621 10.1847 1.54788 9.60135 1.55188 9.07202H18.0409ZM14.7969 22.072C12.1769 22.072 10.0469 19.942 10.0469 17.322C10.0469 14.702 12.1769 12.572 14.7969 12.572C17.4169 12.572 19.5469 14.702 19.5469 17.322C19.5469 19.942 17.4169 22.072 14.7969 22.072ZM14.7969 14.072C13.0069 14.072 11.5469 15.532 11.5469 17.322C11.5469 19.112 13.0069 20.572 14.7969 20.572C16.5869 20.572 18.0469 19.112 18.0469 17.322C18.0469 15.532 16.5869 14.072 14.7969 14.072ZM15.2669 18.852C15.4169 19.002 15.6069 19.072 15.7969 19.072C15.9869 19.072 16.1769 19.002 16.3269 18.852C16.6169 18.562 16.6169 18.082 16.3269 17.792L15.5469 17.012V15.322C15.5469 14.912 15.2069 14.572 14.7969 14.572C14.3869 14.572 14.0469 14.912 14.0469 15.322V17.322C14.0469 17.522 14.1269 17.712 14.2669 17.852L15.2669 18.852Z" fill="#6D2E3D"/>
</svg>
