<svg width="35" height="35" viewBox="0 0 35 35" fill="none" xmlns="http://www.w3.org/2000/svg">
<path d="M0 17.5C0 7.83502 7.83502 0 17.5 0C27.165 0 35 7.83502 35 17.5C35 27.165 27.165 35 17.5 35C7.83502 35 0 27.165 0 17.5Z" fill="#F3D8D9"/>
<path fill-rule="evenodd" clip-rule="evenodd" d="M17.4998 9.16406C22.1022 9.16406 25.8332 12.895 25.8332 17.4974C25.8332 22.0998 22.1022 25.8307 17.4998 25.8307C12.8975 25.8307 9.1665 22.0998 9.1665 17.4974C9.1665 12.895 12.8975 9.16406 17.4998 9.16406ZM10.8332 17.4974C10.8332 21.1793 13.8179 24.1641 17.4998 24.1641C19.0404 24.1641 20.459 23.6415 21.5879 22.7639L12.2333 13.4094C11.3557 14.5383 10.8332 15.9568 10.8332 17.4974ZM17.4998 10.8307C15.9592 10.8307 14.5407 11.3533 13.4118 12.2309L22.7664 21.5854C23.6439 20.4565 24.1665 19.038 24.1665 17.4974C24.1665 13.8155 21.1817 10.8307 17.4998 10.8307Z" fill="#6D2E3D"/>
</svg>
