<svg width="36" height="36" viewBox="0 0 36 36" fill="none" xmlns="http://www.w3.org/2000/svg">
<path d="M0.666992 18C0.666992 8.33502 8.50201 0.5 18.167 0.5C27.832 0.5 35.667 8.33502 35.667 18C35.667 27.665 27.832 35.5 18.167 35.5C8.50201 35.5 0.666992 27.665 0.666992 18Z" fill="white"/>
<path fill-rule="evenodd" clip-rule="evenodd" d="M13.699 11.434C13.5481 10.6492 12.8614 10.082 12.0623 10.082H10.6673C10.2071 10.082 9.83398 10.4551 9.83398 10.9154C9.83398 11.3756 10.2071 11.7487 10.6673 11.7487L12.0623 11.7487L13.6257 19.8782C13.9275 21.4477 15.3008 22.582 16.899 22.582H22.0734C23.5877 22.582 24.9116 21.5614 25.297 20.097L26.3397 16.1349C26.7568 14.5497 25.5612 12.9987 23.922 12.9987H13.9999L13.699 11.434ZM14.3204 14.6654L15.2623 19.5634C15.4133 20.3482 16.0999 20.9154 16.899 20.9154H22.0734C22.8305 20.9154 23.4925 20.405 23.6852 19.6729L24.7279 15.7108C24.8669 15.1824 24.4684 14.6654 23.922 14.6654H14.3204Z" fill="#6D2E3D"/>
<path d="M15.459 25.9154C14.7686 25.9154 14.209 25.3557 14.209 24.6654C14.209 23.975 14.7686 23.4154 15.459 23.4154C16.1493 23.4154 16.709 23.975 16.709 24.6654C16.709 25.3557 16.1493 25.9154 15.459 25.9154Z" fill="#6D2E3D"/>
<path d="M22.7506 25.9154C22.0603 25.9154 21.5006 25.3557 21.5006 24.6654C21.5006 23.975 22.0603 23.4154 22.7506 23.4154C23.441 23.4154 24.0006 23.975 24.0006 24.6654C24.0006 25.3557 23.441 25.9154 22.7506 25.9154Z" fill="#6D2E3D"/>
</svg>
