<svg width="36" height="36" viewBox="0 0 36 36" fill="none" xmlns="http://www.w3.org/2000/svg">
<path d="M0.333984 18C0.333984 8.33502 8.169 0.5 17.834 0.5C27.499 0.5 35.334 8.33502 35.334 18C35.334 27.665 27.499 35.5 17.834 35.5C8.169 35.5 0.333984 27.665 0.333984 18Z" fill="#F3D8D9"/>
<path fill-rule="evenodd" clip-rule="evenodd" d="M13.366 11.434C13.2151 10.6492 12.5284 10.082 11.7293 10.082H10.3343C9.87407 10.082 9.50098 10.4551 9.50098 10.9154C9.50098 11.3756 9.87407 11.7487 10.3343 11.7487L11.7293 11.7487L13.2927 19.8782C13.5945 21.4477 14.9678 22.582 16.566 22.582H21.7404C23.2547 22.582 24.5786 21.5614 24.964 20.097L26.0067 16.1349C26.4238 14.5497 25.2282 12.9987 23.589 12.9987H13.6669L13.366 11.434ZM13.9874 14.6654L14.9293 19.5634C15.0802 20.3482 15.7669 20.9154 16.566 20.9154H21.7404C22.4975 20.9154 23.1595 20.405 23.3522 19.6729L24.3949 15.7108C24.5339 15.1824 24.1354 14.6654 23.589 14.6654H13.9874Z" fill="#6D2E3D"/>
<path d="M15.126 25.9154C14.4356 25.9154 13.876 25.3557 13.876 24.6654C13.876 23.975 14.4356 23.4154 15.126 23.4154C15.8163 23.4154 16.376 23.975 16.376 24.6654C16.376 25.3557 15.8163 25.9154 15.126 25.9154Z" fill="#6D2E3D"/>
<path d="M22.4176 25.9154C21.7273 25.9154 21.1676 25.3557 21.1676 24.6654C21.1676 23.975 21.7273 23.4154 22.4176 23.4154C23.108 23.4154 23.6676 23.975 23.6676 24.6654C23.6676 25.3557 23.108 25.9154 22.4176 25.9154Z" fill="#6D2E3D"/>
</svg>
