<svg width="25" height="24" viewBox="0 0 25 24" fill="none" xmlns="http://www.w3.org/2000/svg">
<path d="M12.7505 8.93947V17.9995M17.7505 8.93947V17.9995M7.75049 8.93947V17.9995M13.1975 3.10547L20.9615 7.01347C21.9055 7.48847 21.5695 8.92047 20.5145 8.92047H4.98649C3.93149 8.92047 3.59549 7.48847 4.53949 7.01347L12.3035 3.10547C12.4423 3.03611 12.5953 3 12.7505 3C12.9057 3 13.0587 3.03611 13.1975 3.10547ZM20.2505 20.9995H5.25049C4.85266 20.9995 4.47113 20.8414 4.18983 20.5601C3.90852 20.2788 3.75049 19.8973 3.75049 19.4995C3.75049 19.1016 3.90852 18.7201 4.18983 18.4388C4.47113 18.1575 4.85266 17.9995 5.25049 17.9995H20.2505C20.6483 17.9995 21.0298 18.1575 21.3111 18.4388C21.5925 18.7201 21.7505 19.1016 21.7505 19.4995C21.7505 19.8973 21.5925 20.2788 21.3111 20.5601C21.0298 20.8414 20.6483 20.9995 20.2505 20.9995Z" stroke="#6D2E3D" stroke-width="1.5" stroke-linecap="round" stroke-linejoin="round"/>
</svg>
