<svg width="20" height="21" viewBox="0 0 20 21" fill="none" xmlns="http://www.w3.org/2000/svg">
<path d="M10 1.75C5.125 1.75 1.25 5.625 1.25 10.5C1.25 15.375 5.125 19.25 10 19.25C14.875 19.25 18.75 15.375 18.75 10.5C18.75 5.625 14.875 1.75 10 1.75ZM10 18C5.875 18 2.5 14.625 2.5 10.5C2.5 6.375 5.875 3 10 3C14.125 3 17.5 6.375 17.5 10.5C17.5 14.625 14.125 18 10 18Z" fill="#6D2E3D"/>
<path d="M13.375 14.875L10 11.5L6.625 14.875L5.625 13.875L9 10.5L5.625 7.125L6.625 6.125L10 9.5L13.375 6.125L14.375 7.125L11 10.5L14.375 13.875L13.375 14.875Z" fill="#6D2E3D"/>
</svg>
