<svg width="35" height="35" viewBox="0 0 35 35" fill="none" xmlns="http://www.w3.org/2000/svg">
<path d="M0 17.5C0 7.83502 7.83502 0 17.5 0C27.165 0 35 7.83502 35 17.5C35 27.165 27.165 35 17.5 35C7.83502 35 0 27.165 0 17.5Z" fill="#F3D8D9"/>
<g clip-path="url(#clip0_499_68758)">
<path d="M22.0605 13.3105L22.9395 14.1895L15.625 21.5039L12.0605 17.9395L12.9395 17.0605L15.625 19.7461L22.0605 13.3105ZM17.5 7.5C18.418 7.5 19.3034 7.61719 20.1562 7.85156C21.0091 8.08594 21.8066 8.42122 22.5488 8.85742C23.291 9.29362 23.9648 9.81445 24.5703 10.4199C25.1758 11.0254 25.6966 11.7025 26.1328 12.4512C26.569 13.1999 26.9043 13.9974 27.1387 14.8438C27.373 15.6901 27.4935 16.5755 27.5 17.5C27.5 18.418 27.3828 19.3034 27.1484 20.1562C26.9141 21.0091 26.5788 21.8066 26.1426 22.5488C25.7064 23.291 25.1855 23.9648 24.5801 24.5703C23.9746 25.1758 23.2975 25.6966 22.5488 26.1328C21.8001 26.569 21.0026 26.9043 20.1562 27.1387C19.3099 27.373 18.4245 27.4935 17.5 27.5C16.582 27.5 15.6966 27.3828 14.8438 27.1484C13.9909 26.9141 13.1934 26.5788 12.4512 26.1426C11.709 25.7064 11.0352 25.1855 10.4297 24.5801C9.82422 23.9746 9.30339 23.2975 8.86719 22.5488C8.43099 21.8001 8.0957 21.0059 7.86133 20.166C7.62695 19.3262 7.50651 18.4375 7.5 17.5C7.5 16.582 7.61719 15.6966 7.85156 14.8438C8.08594 13.9909 8.42122 13.1934 8.85742 12.4512C9.29362 11.709 9.81445 11.0352 10.4199 10.4297C11.0254 9.82422 11.7025 9.30339 12.4512 8.86719C13.1999 8.43099 13.9941 8.0957 14.834 7.86133C15.6738 7.62695 16.5625 7.50651 17.5 7.5ZM17.5 26.25C18.3008 26.25 19.0723 26.1458 19.8145 25.9375C20.5566 25.7292 21.2533 25.4362 21.9043 25.0586C22.5553 24.681 23.1478 24.222 23.6816 23.6816C24.2155 23.1413 24.6712 22.5521 25.0488 21.9141C25.4264 21.276 25.7227 20.5794 25.9375 19.8242C26.1523 19.069 26.2565 18.2943 26.25 17.5C26.25 16.6992 26.1458 15.9277 25.9375 15.1855C25.7292 14.4434 25.4362 13.7467 25.0586 13.0957C24.681 12.4447 24.222 11.8522 23.6816 11.3184C23.1413 10.7845 22.5521 10.3288 21.9141 9.95117C21.276 9.57357 20.5794 9.27734 19.8242 9.0625C19.069 8.84766 18.2943 8.74349 17.5 8.75C16.6992 8.75 15.9277 8.85417 15.1855 9.0625C14.4434 9.27083 13.7467 9.5638 13.0957 9.94141C12.4447 10.319 11.8522 10.778 11.3184 11.3184C10.7845 11.8587 10.3288 12.4479 9.95117 13.0859C9.57357 13.724 9.27734 14.4206 9.0625 15.1758C8.84766 15.931 8.74349 16.7057 8.75 17.5C8.75 18.3008 8.85417 19.0723 9.0625 19.8145C9.27083 20.5566 9.5638 21.2533 9.94141 21.9043C10.319 22.5553 10.778 23.1478 11.3184 23.6816C11.8587 24.2155 12.4479 24.6712 13.0859 25.0488C13.724 25.4264 14.4206 25.7227 15.1758 25.9375C15.931 26.1523 16.7057 26.2565 17.5 26.25Z" fill="#6D2E3D"/>
</g>
<defs>
<clipPath id="clip0_499_68758">
<rect width="20" height="20" fill="white" transform="translate(7.5 7.5)"/>
</clipPath>
</defs>
</svg>
