<svg width="20" height="20" viewBox="0 0 20 20" fill="none" xmlns="http://www.w3.org/2000/svg">
<path d="M18.5969 13.3406C18.5382 13.273 18.4658 13.2187 18.3844 13.1815C18.303 13.1443 18.2145 13.1251 18.125 13.125H16.875V11.875C16.875 11.1862 16.3144 10.625 15.625 10.625H13.125C12.4356 10.625 11.875 11.1862 11.875 11.875V13.125H10.625C10.5354 13.125 10.4469 13.1442 10.3654 13.1814C10.2839 13.2186 10.2113 13.2729 10.1527 13.3406C10.094 13.4083 10.0505 13.4878 10.0253 13.5738C10 13.6597 9.99353 13.7501 10.0063 13.8388L10.6313 18.2137C10.6526 18.3626 10.7269 18.4988 10.8406 18.5973C10.9542 18.6958 11.0996 18.75 11.25 18.75H17.5C17.6504 18.75 17.7958 18.6958 17.9094 18.5973C18.0231 18.4988 18.0974 18.3626 18.1187 18.2137L18.7437 13.8388C18.7564 13.75 18.7498 13.6597 18.7245 13.5737C18.6992 13.4878 18.6556 13.4083 18.5969 13.3406ZM13.125 11.875H15.625V13.125H13.125V11.875ZM16.9581 17.5H11.7919L11.3456 14.375H17.4044L16.9581 17.5ZM6.25 12.5H7.5V18.75H6.25V12.5Z" fill="black"/>
<path d="M10.4875 11.1719L9.29625 9.68188L8.395 7.42875C8.25654 7.08025 8.01643 6.78146 7.70589 6.57124C7.39535 6.36102 7.02875 6.24909 6.65375 6.25H3.125C2.09125 6.25 1.25 7.09125 1.25 8.125V12.5C1.25 13.1894 1.81062 13.75 2.5 13.75H3.125V18.75H4.375V12.5H2.5V8.125C2.5 7.95924 2.56585 7.80027 2.68306 7.68306C2.80027 7.56585 2.95924 7.5 3.125 7.5H6.65375C6.91062 7.5 7.13875 7.65437 7.23375 7.89312L8.26188 10.3906L9.51188 11.9531L10.4875 11.1719ZM2.5 3.125C2.5 1.74625 3.62125 0.625 5 0.625C6.37875 0.625 7.5 1.74625 7.5 3.125C7.5 4.50375 6.37875 5.625 5 5.625C3.62125 5.625 2.5 4.50375 2.5 3.125ZM3.75 3.125C3.75 3.81437 4.31063 4.375 5 4.375C5.68937 4.375 6.25 3.81437 6.25 3.125C6.25 2.43562 5.68937 1.875 5 1.875C4.31063 1.875 3.75 2.43562 3.75 3.125Z" fill="black"/>
</svg>
