<svg width="14" height="14" viewBox="0 0 14 14" fill="none" xmlns="http://www.w3.org/2000/svg">
<path d="M1.75 13.75C1.3375 13.75 0.9845 13.6033 0.691 13.3097C0.3975 13.0162 0.2505 12.663 0.25 12.25V1.75C0.25 1.3375 0.397 0.9845 0.691 0.691C0.985 0.3975 1.338 0.2505 1.75 0.25H12.25C12.6625 0.25 13.0157 0.397 13.3097 0.691C13.6038 0.985 13.7505 1.338 13.75 1.75V12.25C13.75 12.6625 13.6033 13.0157 13.3097 13.3097C13.0162 13.6038 12.663 13.7505 12.25 13.75H1.75ZM5.5 12.25V7.75H1.75V12.25H5.5ZM7 12.25H12.25V7.75H7V12.25ZM1.75 6.25H12.25V1.75H1.75V6.25Z" fill="black"/>
</svg>
