<svg width="12" height="12" viewBox="0 0 12 12" fill="none" xmlns="http://www.w3.org/2000/svg">
<path d="M3.78947 7.66667C3.99886 7.66667 4.19966 7.57887 4.34772 7.42259C4.49577 7.26631 4.57895 7.05435 4.57895 6.83333C4.57895 6.61232 4.49577 6.40036 4.34772 6.24408C4.19966 6.0878 3.99886 6 3.78947 6C3.58009 6 3.37929 6.0878 3.23123 6.24408C3.08318 6.40036 3 6.61232 3 6.83333C3 7.05435 3.08318 7.26631 3.23123 7.42259C3.37929 7.57887 3.58009 7.66667 3.78947 7.66667ZM3.78947 10C3.99886 10 4.19966 9.9122 4.34772 9.75592C4.49577 9.59964 4.57895 9.38768 4.57895 9.16667C4.57895 8.94565 4.49577 8.73369 4.34772 8.57741C4.19966 8.42113 3.99886 8.33333 3.78947 8.33333C3.58009 8.33333 3.37929 8.42113 3.23123 8.57741C3.08318 8.73369 3 8.94565 3 9.16667C3 9.38768 3.08318 9.59964 3.23123 9.75592C3.37929 9.9122 3.58009 10 3.78947 10ZM6.78947 6.83333C6.78947 7.05435 6.7063 7.26631 6.55824 7.42259C6.41019 7.57887 6.20938 7.66667 6 7.66667C5.79062 7.66667 5.58981 7.57887 5.44176 7.42259C5.2937 7.26631 5.21053 7.05435 5.21053 6.83333C5.21053 6.61232 5.2937 6.40036 5.44176 6.24408C5.58981 6.0878 5.79062 6 6 6C6.20938 6 6.41019 6.0878 6.55824 6.24408C6.7063 6.40036 6.78947 6.61232 6.78947 6.83333ZM6 10C6.20938 10 6.41019 9.9122 6.55824 9.75592C6.7063 9.59964 6.78947 9.38768 6.78947 9.16667C6.78947 8.94565 6.7063 8.73369 6.55824 8.57741C6.41019 8.42113 6.20938 8.33333 6 8.33333C5.79062 8.33333 5.58981 8.42113 5.44176 8.57741C5.2937 8.73369 5.21053 8.94565 5.21053 9.16667C5.21053 9.38768 5.2937 9.59964 5.44176 9.75592C5.58981 9.9122 5.79062 10 6 10ZM9 6.83333C9 7.05435 8.91682 7.26631 8.76877 7.42259C8.62071 7.57887 8.41991 7.66667 8.21053 7.66667C8.00114 7.66667 7.80034 7.57887 7.65228 7.42259C7.50423 7.26631 7.42105 7.05435 7.42105 6.83333C7.42105 6.61232 7.50423 6.40036 7.65228 6.24408C7.80034 6.0878 8.00114 6 8.21053 6C8.41991 6 8.62071 6.0878 8.76877 6.24408C8.91682 6.40036 9 6.61232 9 6.83333Z" fill="#494949"/>
<path fill-rule="evenodd" clip-rule="evenodd" d="M3.41935 0.375C3.54769 0.375 3.67076 0.426129 3.7615 0.517139C3.85225 0.60815 3.90323 0.731586 3.90323 0.860294V1.34559H8.09677V0.860294C8.09677 0.731586 8.14775 0.60815 8.2385 0.517139C8.32924 0.426129 8.45231 0.375 8.58065 0.375C8.70898 0.375 8.83205 0.426129 8.92279 0.517139C9.01354 0.60815 9.06452 0.731586 9.06452 0.860294V1.35076C9.16258 1.35335 9.25398 1.3581 9.33871 1.365C9.58387 1.38441 9.81355 1.42841 10.031 1.53971C10.3649 1.71032 10.6363 1.98258 10.8065 2.31747C10.9174 2.53553 10.9613 2.76588 10.9806 3.01176C11 3.24794 11 3.53588 11 3.88206V8.83853C11 9.18471 11 9.47265 10.9806 9.70882C10.9613 9.95471 10.9174 10.1851 10.8065 10.4031C10.6365 10.7379 10.3653 11.0102 10.0316 11.1809C9.81355 11.2922 9.58387 11.3362 9.33871 11.3556C9.10322 11.375 8.81613 11.375 8.47161 11.375H3.52903C3.18387 11.375 2.89677 11.375 2.66129 11.3556C2.41613 11.3362 2.18645 11.2922 1.96903 11.1809C1.63532 11.0106 1.36388 10.7388 1.19355 10.4044C1.08258 10.1857 1.03871 9.95535 1.01935 9.70947C1 9.4733 1 9.18535 1 8.83982V3.88206C1 3.53588 1 3.24794 1.01935 3.01176C1.03871 2.76588 1.08258 2.53553 1.19355 2.31747C1.36366 1.98258 1.63513 1.71032 1.96903 1.53971C2.18645 1.42841 2.41613 1.38441 2.66129 1.365C2.74602 1.3581 2.83742 1.35335 2.93548 1.35076V0.860294C2.93548 0.796564 2.948 0.733459 2.97232 0.67458C2.99663 0.615702 3.03227 0.562203 3.07721 0.517139C3.12214 0.472076 3.17548 0.436329 3.23419 0.411941C3.29289 0.387552 3.35581 0.375 3.41935 0.375ZM2.93548 2.47794V2.32135C2.87024 2.32337 2.80506 2.32703 2.74 2.33235C2.55484 2.34724 2.46645 2.37441 2.40839 2.40418C2.2564 2.48176 2.13284 2.60568 2.05548 2.75812C2.02581 2.81635 1.99871 2.905 1.98387 3.09071C1.96839 3.28224 1.96774 3.53071 1.96774 3.90147V4.25735H10.0323V3.90147C10.0323 3.53135 10.0323 3.28224 10.0161 3.09071C10.0013 2.905 9.97419 2.81635 9.94452 2.75812C9.86716 2.60568 9.7436 2.48176 9.59161 2.40418C9.53355 2.37441 9.44516 2.34724 9.25935 2.33235C9.19451 2.32704 9.12954 2.32338 9.06452 2.32135V2.47794C9.06452 2.60665 9.01354 2.73009 8.92279 2.8211C8.83205 2.91211 8.70898 2.96324 8.58065 2.96324C8.45231 2.96324 8.32924 2.91211 8.2385 2.8211C8.14775 2.73009 8.09677 2.60665 8.09677 2.47794V2.31618H3.90323V2.47794C3.90323 2.60665 3.85225 2.73009 3.7615 2.8211C3.67076 2.91211 3.54769 2.96324 3.41935 2.96324C3.29102 2.96324 3.16795 2.91211 3.07721 2.8211C2.98646 2.73009 2.93548 2.60665 2.93548 2.47794ZM10.0323 4.90441H1.96774V8.81912C1.96774 9.18923 1.96774 9.43835 1.98387 9.62924C1.99871 9.81559 2.02581 9.90423 2.05548 9.96247C2.1329 10.1152 2.25613 10.2388 2.40839 10.3164C2.46645 10.3462 2.55484 10.3734 2.74 10.3882C2.93097 10.4038 3.17871 10.4044 3.54839 10.4044H8.45161C8.82064 10.4044 9.06903 10.4044 9.25935 10.3882C9.44516 10.3734 9.53355 10.3462 9.59161 10.3164C9.7436 10.2388 9.86716 10.1149 9.94452 9.96247C9.97419 9.90423 10.0013 9.81559 10.0161 9.62924C10.0316 9.43835 10.0323 9.18923 10.0323 8.81912V4.90441Z" fill="#494949"/>
<path fill-rule="evenodd" clip-rule="evenodd" d="M5 3.5C5 3.36739 5.03512 3.24021 5.09763 3.14645C5.16014 3.05268 5.24493 3 5.33333 3H6.66667C6.75507 3 6.83986 3.05268 6.90237 3.14645C6.96488 3.24021 7 3.36739 7 3.5C7 3.63261 6.96488 3.75978 6.90237 3.85355C6.83986 3.94732 6.75507 4 6.66667 4H5.33333C5.24493 4 5.16014 3.94732 5.09763 3.85355C5.03512 3.75978 5 3.63261 5 3.5Z" fill="#494949"/>
</svg>
