<svg width="20" height="21" viewBox="0 0 20 21" fill="none" xmlns="http://www.w3.org/2000/svg">
<path fill-rule="evenodd" clip-rule="evenodd" d="M5.64484 5.83333L6.3215 17.2067C6.33169 17.3762 6.40618 17.5354 6.52976 17.6518C6.65334 17.7683 6.8167 17.8332 6.9865 17.8333H13.0132C13.183 17.8332 13.3463 17.7683 13.4699 17.6518C13.5935 17.5354 13.668 17.3762 13.6782 17.2067L14.3548 5.83333H5.64484ZM15.3573 5.83333L14.6765 17.2658C14.6512 17.6899 14.465 18.0883 14.1558 18.3796C13.8467 18.6709 13.438 18.8332 13.0132 18.8333H6.9865C6.56171 18.8332 6.15298 18.6709 5.84383 18.3796C5.53468 18.0883 5.34845 17.6899 5.32317 17.2658L4.64234 5.83333H2.9165V5.25C2.9165 5.13949 2.9604 5.03351 3.03854 4.95537C3.11668 4.87723 3.22266 4.83333 3.33317 4.83333H16.6665C16.777 4.83333 16.883 4.87723 16.9611 4.95537C17.0393 5.03351 17.0832 5.13949 17.0832 5.25V5.83333H15.3573ZM11.6665 3C11.777 3 11.883 3.0439 11.9611 3.12204C12.0393 3.20018 12.0832 3.30616 12.0832 3.41667V4H7.9165V3.41667C7.9165 3.30616 7.9604 3.20018 8.03854 3.12204C8.11668 3.0439 8.22266 3 8.33317 3H11.6665ZM7.9165 8H8.9165L9.33317 15.5H8.33317L7.9165 8ZM11.0832 8H12.0832L11.6665 15.5H10.6665L11.0832 8Z" fill="#6D2E3D"/>
</svg>
