<svg width="35" height="35" viewBox="0 0 35 35" fill="none" xmlns="http://www.w3.org/2000/svg">
<path d="M0 17.5C0 7.83502 7.83502 0 17.5 0C27.165 0 35 7.83502 35 17.5C35 27.165 27.165 35 17.5 35C7.83502 35 0 27.165 0 17.5Z" fill="#F3D8D9"/>
<path fill-rule="evenodd" clip-rule="evenodd" d="M17.5002 10.0026C16.5152 10.0026 15.54 10.1966 14.63 10.5735C13.7201 10.9504 12.8933 11.5029 12.1969 12.1993C11.5004 12.8957 10.948 13.7225 10.5711 14.6325C10.1942 15.5424 10.0002 16.5177 10.0002 17.5026C10.0002 18.4875 10.1942 19.4628 10.5711 20.3727C10.948 21.2827 11.5004 22.1095 12.1969 22.8059C12.8933 23.5023 13.7201 24.0548 14.63 24.4317C15.54 24.8086 16.5152 25.0026 17.5002 25.0026C19.4893 25.0026 21.3969 24.2124 22.8035 22.8059C24.21 21.3994 25.0002 19.4917 25.0002 17.5026C25.0002 15.5135 24.21 13.6058 22.8035 12.1993C21.3969 10.7928 19.4893 10.0026 17.5002 10.0026ZM8.3335 17.5026C8.3335 12.4401 12.4377 8.33594 17.5002 8.33594C22.5627 8.33594 26.6668 12.4401 26.6668 17.5026C26.6668 22.5651 22.5627 26.6693 17.5002 26.6693C12.4377 26.6693 8.3335 22.5651 8.3335 17.5026Z" fill="#6D2E3D"/>
<path fill-rule="evenodd" clip-rule="evenodd" d="M22.1733 15.0065L15.735 21.4448L12.5 17.584L13.7592 16.4923L15.8225 19.0006L20.995 13.8281L22.1733 15.0065Z" fill="#6D2E3D"/>
</svg>
