<svg width="14" height="14" viewBox="0 0 14 14" fill="none" xmlns="http://www.w3.org/2000/svg">
<path d="M7.3 0V1.34667C10.2267 1.70667 12.3 4.36667 11.94 7.29333C11.6333 9.72 9.72667 11.6467 7.3 11.9333V13.2667C10.9667 12.9 13.6333 9.64667 13.2667 5.98C12.9667 2.81333 10.4533 0.313333 7.3 0ZM5.96667 0.02C4.66667 0.146667 3.42667 0.646667 2.41333 1.48667L3.36667 2.47333C4.11333 1.87333 5.01333 1.48667 5.96667 1.35333V0.02ZM1.47333 2.42667C0.640296 3.43854 0.127396 4.67554 0 5.98H1.33333C1.46 5.03333 1.83333 4.13333 2.42667 3.38L1.47333 2.42667ZM8.96667 4.31333L5.71333 7.56667L4.3 6.15333L3.59333 6.86L5.71333 8.98L9.67333 5.02L8.96667 4.31333ZM0.00666666 7.31333C0.14 8.62 0.653333 9.85333 1.48 10.8667L2.42667 9.91333C1.8379 9.15976 1.46257 8.26175 1.34 7.31333H0.00666666ZM3.36667 10.8933L2.41333 11.8067C3.42331 12.6483 4.65957 13.1725 5.96667 13.3133V11.98C5.01825 11.8574 4.12024 11.4821 3.36667 10.8933Z" fill="#348C00"/>
</svg>
