<svg width="32" height="32" viewBox="0 0 32 32" fill="none" xmlns="http://www.w3.org/2000/svg">
<rect width="32" height="32" rx="8" fill="#F9EAEA"/>
<path d="M13.6641 23.5C13.2057 23.5 12.8135 23.3369 12.4874 23.0108C12.1613 22.6847 11.998 22.2922 11.9974 21.8333V20.1667H10.3307C9.8724 20.1667 9.48017 20.0036 9.15406 19.6775C8.82795 19.3514 8.66462 18.9589 8.66406 18.5V15.1667C8.66406 14.4583 8.90712 13.8647 9.39323 13.3858C9.87934 12.9069 10.4696 12.6672 11.1641 12.6667H22.8307C23.5391 12.6667 24.133 12.9064 24.6124 13.3858C25.0918 13.8653 25.3313 14.4589 25.3307 15.1667V18.5C25.3307 18.9583 25.1677 19.3508 24.8416 19.6775C24.5155 20.0042 24.123 20.1672 23.6641 20.1667H21.9974V21.8333C21.9974 22.2917 21.8343 22.6842 21.5082 23.0108C21.1821 23.3375 20.7896 23.5006 20.3307 23.5H13.6641ZM21.9974 11.8333H11.9974V10.1667C11.9974 9.70833 12.1607 9.31611 12.4874 8.99C12.8141 8.66389 13.2063 8.50056 13.6641 8.5H20.3307C20.7891 8.5 21.1816 8.66333 21.5082 8.99C21.8349 9.31667 21.998 9.70889 21.9974 10.1667V11.8333ZM21.9974 16.4167C22.2335 16.4167 22.4316 16.3367 22.5916 16.1767C22.7516 16.0167 22.8313 15.8189 22.8307 15.5833C22.8302 15.3478 22.7502 15.15 22.5907 14.99C22.4313 14.83 22.2335 14.75 21.9974 14.75C21.7613 14.75 21.5635 14.83 21.4041 14.99C21.2446 15.15 21.1646 15.3478 21.1641 15.5833C21.1635 15.8189 21.2435 16.0169 21.4041 16.1775C21.5646 16.3381 21.7624 16.4178 21.9974 16.4167ZM13.6641 21.8333H20.3307V18.5H13.6641V21.8333Z" fill="#471923"/>
</svg>
