<svg width="25" height="25" viewBox="0 0 25 25" fill="none" xmlns="http://www.w3.org/2000/svg">
<path d="M12.5 14.25L16.125 17.875C16.3542 18.1042 16.6458 18.2188 17 18.2188C17.3542 18.2188 17.6458 18.1042 17.875 17.875C18.1042 17.6458 18.2188 17.3542 18.2188 17C18.2188 16.6458 18.1042 16.3542 17.875 16.125L14.25 12.5L17.875 8.875C18.1042 8.64583 18.2188 8.35417 18.2188 8C18.2188 7.64583 18.1042 7.35417 17.875 7.125C17.6458 6.89583 17.3542 6.78125 17 6.78125C16.6458 6.78125 16.3542 6.89583 16.125 7.125L12.5 10.75L8.875 7.125C8.64583 6.89583 8.35417 6.78125 8 6.78125C7.64583 6.78125 7.35417 6.89583 7.125 7.125C6.89583 7.35417 6.78125 7.64583 6.78125 8C6.78125 8.35417 6.89583 8.64583 7.125 8.875L10.75 12.5L7.125 16.125C6.89583 16.3542 6.78125 16.6458 6.78125 17C6.78125 17.3542 6.89583 17.6458 7.125 17.875C7.35417 18.1042 7.64583 18.2188 8 18.2188C8.35417 18.2188 8.64583 18.1042 8.875 17.875L12.5 14.25ZM12.5 25C10.7708 25 9.14583 24.6717 7.625 24.015C6.10417 23.3583 4.78125 22.4679 3.65625 21.3438C2.53125 20.2196 1.64083 18.8967 0.985002 17.375C0.329168 15.8533 0.000834915 14.2283 1.58228e-06 12.5C-0.000831751 10.7717 0.327502 9.14667 0.985002 7.625C1.6425 6.10333 2.53292 4.78042 3.65625 3.65625C4.77958 2.53208 6.1025 1.64167 7.625 0.985C9.1475 0.328333 10.7725 0 12.5 0C14.2275 0 15.8525 0.328333 17.375 0.985C18.8975 1.64167 20.2204 2.53208 21.3438 3.65625C22.4671 4.78042 23.3579 6.10333 24.0162 7.625C24.6746 9.14667 25.0025 10.7717 25 12.5C24.9975 14.2283 24.6692 15.8533 24.015 17.375C23.3608 18.8967 22.4704 20.2196 21.3438 21.3438C20.2171 22.4679 18.8942 23.3587 17.375 24.0162C15.8558 24.6737 14.2308 25.0017 12.5 25Z" fill="#6D2E3D"/>
</svg>
