<svg width="25" height="25" viewBox="0 0 25 25" fill="none" xmlns="http://www.w3.org/2000/svg">
<path d="M18.7199 21.25H6.27994C5.93316 21.2359 5.59256 21.1535 5.27765 21.0075C4.96274 20.8616 4.67969 20.655 4.4447 20.3996C4.20971 20.1442 4.02739 19.8449 3.90818 19.519C3.78896 19.193 3.73519 18.8468 3.74994 18.5V15.5C3.74994 15.3011 3.82896 15.1103 3.96961 14.9697C4.11027 14.829 4.30103 14.75 4.49994 14.75C4.69886 14.75 4.88962 14.829 5.03027 14.9697C5.17093 15.1103 5.24994 15.3011 5.24994 15.5V18.5C5.22412 18.7969 5.31359 19.0924 5.49977 19.3251C5.68596 19.5579 5.95459 19.71 6.24994 19.75H18.7199C19.0153 19.71 19.2839 19.5579 19.4701 19.3251C19.6563 19.0924 19.7458 18.7969 19.7199 18.5V15.5C19.7199 15.3011 19.799 15.1103 19.9396 14.9697C20.0803 14.829 20.271 14.75 20.4699 14.75C20.6689 14.75 20.8596 14.829 21.0003 14.9697C21.1409 15.1103 21.2199 15.3011 21.2199 15.5V18.5C21.2499 19.1954 21.004 19.8744 20.5358 20.3894C20.0676 20.9045 19.415 21.2137 18.7199 21.25Z" fill="#6D2E3D"/>
<path d="M12.4998 16.2498C12.4013 16.2503 12.3037 16.2311 12.2127 16.1933C12.1216 16.1555 12.0391 16.1 11.9698 16.0298L7.96985 12.0298C7.83737 11.8877 7.76524 11.6996 7.76867 11.5053C7.7721 11.311 7.85081 11.1256 7.98822 10.9882C8.12564 10.8508 8.31102 10.7721 8.50532 10.7687C8.69963 10.7652 8.88767 10.8374 9.02985 10.9698L12.4998 14.4398L15.9698 10.9698C16.112 10.8374 16.3001 10.7652 16.4944 10.7687C16.6887 10.7721 16.8741 10.8508 17.0115 10.9882C17.1489 11.1256 17.2276 11.311 17.231 11.5053C17.2344 11.6996 17.1623 11.8877 17.0298 12.0298L13.0298 16.0298C12.9606 16.1 12.8781 16.1555 12.787 16.1933C12.696 16.2311 12.5984 16.2503 12.4998 16.2498Z" fill="#6D2E3D"/>
<path d="M12.5 16.25C12.3019 16.2474 12.1126 16.1676 11.9725 16.0275C11.8324 15.8874 11.7526 15.6981 11.75 15.5V4.5C11.75 4.30109 11.829 4.11032 11.9697 3.96967C12.1103 3.82902 12.3011 3.75 12.5 3.75C12.6989 3.75 12.8897 3.82902 13.0303 3.96967C13.171 4.11032 13.25 4.30109 13.25 4.5V15.5C13.2474 15.6981 13.1676 15.8874 13.0275 16.0275C12.8874 16.1676 12.6981 16.2474 12.5 16.25Z" fill="#6D2E3D"/>
</svg>
