<svg width="13" height="14" viewBox="0 0 13 14" fill="none" xmlns="http://www.w3.org/2000/svg">
<path d="M8.98203 3.10534L10.3934 4.51667M9.88936 1.86201L6.07136 5.68001C5.8735 5.87657 5.73886 6.12775 5.6847 6.40134L5.33203 8.16667L7.09736 7.81334C7.3707 7.75867 7.62136 7.62467 7.8187 7.42734L11.6367 3.60934C11.7514 3.49461 11.8424 3.3584 11.9045 3.2085C11.9666 3.05859 11.9986 2.89793 11.9986 2.73567C11.9986 2.57342 11.9666 2.41275 11.9045 2.26285C11.8424 2.11294 11.7514 1.97674 11.6367 1.86201C11.522 1.74728 11.3858 1.65627 11.2359 1.59417C11.086 1.53208 10.9253 1.50012 10.763 1.50012C10.6008 1.50012 10.4401 1.53208 10.2902 1.59417C10.1403 1.65627 10.0041 1.74728 9.88936 1.86201Z" stroke="#6D2E3D" stroke-width="1.2" stroke-linecap="round" stroke-linejoin="round"/>
<path d="M10.666 9.50004V11.5C10.666 11.8537 10.5255 12.1928 10.2755 12.4428C10.0254 12.6929 9.6863 12.8334 9.33268 12.8334H1.99935C1.64573 12.8334 1.30659 12.6929 1.05654 12.4428C0.806491 12.1928 0.666016 11.8537 0.666016 11.5V4.16671C0.666016 3.81309 0.806491 3.47395 1.05654 3.2239C1.30659 2.97385 1.64573 2.83337 1.99935 2.83337H3.99935" stroke="#6D2E3D" stroke-width="1.2" stroke-linecap="round" stroke-linejoin="round"/>
</svg>
