<svg width="25" height="24" viewBox="0 0 25 24" fill="none" xmlns="http://www.w3.org/2000/svg">
<path d="M10.8337 3.25C8.73771 3.25 7.00471 4.91 7.00471 7C7.00471 9.09 8.73771 10.75 10.8337 10.75C12.4837 10.75 13.9087 9.721 14.4407 8.264C14.6935 8.80332 15.1211 9.24143 15.6541 9.50729C16.1872 9.77314 16.7944 9.85116 17.3773 9.72868C17.9602 9.60621 18.4846 9.29042 18.8656 8.83253C19.2465 8.37464 19.4616 7.8015 19.476 7.20603C19.4904 6.61056 19.3033 6.02769 18.9449 5.55193C18.5865 5.07617 18.0779 4.73541 17.5016 4.58491C16.9253 4.43442 16.315 4.483 15.7698 4.7228C15.2246 4.96259 14.7763 5.37952 14.4977 5.906C14.0177 4.36 12.5477 3.25 10.8337 3.25ZM8.50471 7C8.50471 5.776 9.52871 4.75 10.8337 4.75C12.1387 4.75 13.1627 5.776 13.1627 7C13.1627 8.224 12.1387 9.25 10.8337 9.25C9.52871 9.25 8.50471 8.224 8.50471 7ZM15.1907 7.143C15.1907 6.70725 15.3638 6.28935 15.6719 5.98122C15.9801 5.6731 16.398 5.5 16.8337 5.5C17.2695 5.5 17.6874 5.6731 17.9955 5.98122C18.3036 6.28935 18.4767 6.70725 18.4767 7.143C18.4767 7.57875 18.3036 7.99665 17.9955 8.30478C17.6874 8.6129 17.2695 8.786 16.8337 8.786C16.398 8.786 15.9801 8.6129 15.6719 8.30478C15.3638 7.99665 15.1907 7.57875 15.1907 7.143ZM9.11871 11.707C8.71571 11.446 8.13471 11.245 7.52271 11.413C7.35938 11.4583 7.19671 11.5067 7.03471 11.558L6.05071 11.874C4.81771 12.268 3.86271 13.247 3.54071 14.487L3.52971 14.527L3.10971 17.479C2.94271 18.659 3.59471 19.88 4.88971 20.18C6.08671 20.458 8.01571 20.75 10.8337 20.75C13.6517 20.75 15.5797 20.458 16.7787 20.18C18.0717 19.88 18.7247 18.66 18.5577 17.479L18.1377 14.528L18.1277 14.487C17.8047 13.247 16.8497 12.268 15.6167 11.874L14.6327 11.558C14.4707 11.5067 14.308 11.4583 14.1447 11.413C13.5327 11.245 12.9517 11.446 12.5487 11.707C12.1787 11.947 11.5747 12.236 10.8337 12.236C10.0937 12.236 9.48871 11.947 9.11871 11.707ZM7.92071 12.858C7.98471 12.841 8.12271 12.848 8.30471 12.965C8.81671 13.297 9.70471 13.735 10.8337 13.735C11.9627 13.735 12.8507 13.297 13.3637 12.965C13.5437 12.848 13.6827 12.841 13.7467 12.858C13.89 12.898 14.0327 12.9407 14.1747 12.986L15.1597 13.301C15.9097 13.541 16.4677 14.121 16.6657 14.825L17.0717 17.689C17.1467 18.216 16.8657 18.619 16.4387 18.719C15.3617 18.969 13.5477 19.249 10.8337 19.249C8.11971 19.249 6.30571 18.969 5.22871 18.719C4.80171 18.619 4.52071 18.216 4.59471 17.689L5.00171 14.825C5.10707 14.4662 5.2998 14.1392 5.56264 13.8732C5.82547 13.6072 6.1502 13.4106 6.50771 13.301L7.49271 12.986C7.63471 12.9407 7.77738 12.898 7.92071 12.858Z" fill="#6D2E3D"/>
<path d="M19.017 10.2978C18.8594 10.2585 18.6948 10.2563 18.5362 10.2913C18.3776 10.3264 18.2293 10.3978 18.103 10.4998C17.833 10.7098 17.355 10.9998 16.834 10.9998C16.7014 10.9998 16.5742 11.0525 16.4804 11.1463C16.3867 11.24 16.334 11.3672 16.334 11.4998C16.334 11.6324 16.3867 11.7596 16.4804 11.8534C16.5742 11.9471 16.7014 11.9998 16.834 11.9998C17.692 11.9998 18.39 11.5428 18.717 11.2898C18.7291 11.2784 18.7439 11.2701 18.76 11.2658H18.764C18.898 11.3012 19.031 11.3405 19.163 11.3838L19.848 11.6088C20.374 11.7818 20.773 12.2028 20.914 12.7228L21.197 14.7718C21.253 15.1748 21.041 15.4768 20.737 15.5488C20.5137 15.6035 20.2427 15.6568 19.924 15.7088C19.8591 15.7193 19.7969 15.7425 19.741 15.777C19.6851 15.8116 19.6365 15.8568 19.5981 15.9101C19.5597 15.9634 19.5321 16.0237 19.517 16.0877C19.5019 16.1516 19.4995 16.218 19.51 16.2828C19.5205 16.3477 19.5437 16.4099 19.5782 16.4658C19.6127 16.5217 19.6579 16.5703 19.7112 16.6087C19.7645 16.6472 19.8249 16.6747 19.8888 16.6898C19.9528 16.705 20.0191 16.7073 20.084 16.6968C20.4253 16.6402 20.72 16.5818 20.968 16.5218C21.863 16.3088 22.301 15.4518 22.188 14.6348L21.897 12.5288L21.89 12.5018C21.7805 12.0736 21.5644 11.6801 21.2619 11.3579C20.9595 11.0357 20.5804 10.7952 20.16 10.6588L19.475 10.4338C19.3237 10.3839 19.171 10.3386 19.017 10.2978Z" fill="#6D2E3D"/>
</svg>
