<svg width="32" height="32" viewBox="0 0 32 32" fill="none" xmlns="http://www.w3.org/2000/svg">
<rect width="32" height="32" rx="8" fill="#F9EAEA"/>
<g clip-path="url(#clip0_499_80795)">
<path d="M19.9974 15.9979C19.9974 17.5867 18.653 18.8747 16.9946 18.8747C15.3362 18.8747 13.9918 17.5867 13.9918 15.9979C13.9918 14.409 15.3362 13.121 16.9946 13.121C18.653 13.121 19.9974 14.409 19.9974 15.9979ZM17 10.0078C15.2829 10.0154 13.5031 10.4334 11.8183 11.2338C10.5673 11.8525 9.34817 12.7254 8.2899 13.8028C7.77013 14.3528 7.10718 15.1491 7 15.9988C7.01267 16.7348 7.80217 17.6433 8.2899 18.1949C9.28228 19.23 10.4697 20.0785 11.8183 20.7645C13.3895 21.527 15.1285 21.966 17 21.9905C18.7187 21.9827 20.4981 21.5599 22.1811 20.7645C23.4321 20.1458 24.6518 19.2723 25.7101 18.1949C26.2299 17.6449 26.8928 16.8485 27 15.9988C26.9873 15.2628 26.1978 14.3543 25.7101 13.8027C24.7177 12.7676 23.5297 11.9198 22.1811 11.2337C20.6107 10.4718 18.8674 10.0358 17 10.0078ZM16.9987 11.4953C19.6007 11.4953 21.71 13.5118 21.71 15.9995C21.71 18.4871 19.6007 20.5036 16.9987 20.5036C14.3968 20.5036 12.2875 18.487 12.2875 15.9995C12.2875 13.5118 14.3968 11.4953 16.9987 11.4953Z" fill="#471923"/>
</g>
<defs>
<clipPath id="clip0_499_80795">
<rect width="20" height="20" fill="white" transform="translate(7 6)"/>
</clipPath>
</defs>
</svg>
