<svg width="20" height="18" viewBox="0 0 20 18" fill="none" xmlns="http://www.w3.org/2000/svg">
<path d="M2.08762 2.08712C2.51152 1.6632 3.01477 1.32693 3.56863 1.09751C4.12249 0.868083 4.71612 0.75 5.31562 0.75C5.91511 0.75 6.50874 0.868083 7.0626 1.09751C7.61646 1.32693 8.11971 1.6632 8.54362 2.08712L10.0006 3.54412L11.4576 2.08712C12.3139 1.231 13.4751 0.750086 14.686 0.75018C15.8968 0.750274 17.058 1.23136 17.9141 2.08762C18.7702 2.94387 19.2511 4.10514 19.251 5.31597C19.251 6.5268 18.7699 7.688 17.9136 8.54412L16.4566 10.0001L16.4696 10.0131L10.0136 16.4701L10.0006 16.4571L9.98762 16.4701L3.53162 10.0131L3.54462 10.0001L2.08762 8.54412C1.66355 8.1202 1.32715 7.61688 1.09764 7.06293C0.868129 6.50898 0.75 5.91523 0.75 5.31561C0.75 4.716 0.868129 4.12225 1.09764 3.5683C1.32715 3.01435 1.66355 2.51104 2.08762 2.08712Z" stroke="#6D2E3D" stroke-width="1.5" stroke-linejoin="round"/>
</svg>
