<svg width="14" height="12" viewBox="0 0 14 12" fill="none" xmlns="http://www.w3.org/2000/svg">
<path d="M2.3333 0.666626H11.6666C11.8555 0.666626 12.014 0.730626 12.142 0.858626C12.27 0.986626 12.3337 1.14485 12.3333 1.33329C12.3329 1.52174 12.2689 1.68018 12.1413 1.80863C12.0137 1.93707 11.8555 2.00085 11.6666 1.99996H2.3333C2.14441 1.99996 1.98619 1.93596 1.85863 1.80796C1.73108 1.67996 1.66708 1.52174 1.66663 1.33329C1.66619 1.14485 1.73019 0.986626 1.85863 0.858626C1.98708 0.730626 2.1453 0.666626 2.3333 0.666626ZM2.3333 11.3333C2.14441 11.3333 1.98619 11.2693 1.85863 11.1413C1.73108 11.0133 1.66708 10.8551 1.66663 10.6666V7.33329H1.54997C1.33886 7.33329 1.16663 7.25263 1.0333 7.09129C0.899967 6.92996 0.855523 6.74396 0.899967 6.53329L1.56663 3.19996C1.59997 3.0444 1.67775 2.91663 1.79997 2.81663C1.92219 2.71663 2.06108 2.66663 2.21663 2.66663H11.7833C11.9389 2.66663 12.0777 2.71663 12.2 2.81663C12.3222 2.91663 12.4 3.0444 12.4333 3.19996L13.1 6.53329C13.1444 6.7444 13.1 6.9304 12.9666 7.09129C12.8333 7.25218 12.6611 7.33285 12.45 7.33329H12.3333V10.6666C12.3333 10.8555 12.2693 11.014 12.1413 11.142C12.0133 11.27 11.8551 11.3337 11.6666 11.3333C11.4782 11.3328 11.32 11.2688 11.192 11.1413C11.064 11.0137 11 10.8555 11 10.6666V7.33329H8.3333V10.6666C8.3333 10.8555 8.2693 11.014 8.1413 11.142C8.0133 11.27 7.85508 11.3337 7.66663 11.3333H2.3333ZM2.99997 9.99996H6.99997V7.33329H2.99997V9.99996ZM2.36663 5.99996H11.6333L11.2333 3.99996H2.76663L2.36663 5.99996Z" fill="#6D2E3D"/>
</svg>
