<svg width="20" height="21" viewBox="0 0 20 21" fill="none" xmlns="http://www.w3.org/2000/svg">
<g clip-path="url(#clip0_499_81741)">
<path d="M16.875 7.375V4.875C16.875 4.54348 16.7433 4.22554 16.5089 3.99112C16.2745 3.7567 15.9565 3.625 15.625 3.625H6.875V2.375C6.875 2.04348 6.7433 1.72554 6.50888 1.49112C6.27446 1.2567 5.95652 1.125 5.625 1.125H1.875C1.54348 1.125 1.22554 1.2567 0.991117 1.49112C0.756696 1.72554 0.625 2.04348 0.625 2.375V14.7083C0.629704 15.0487 0.756813 15.376 0.983069 15.6304C1.20933 15.8847 1.5196 16.0491 1.85711 16.0934C2.19463 16.1377 2.53681 16.059 2.82106 15.8717C3.1053 15.6844 3.31259 15.401 3.405 15.0733L5.36417 8.27833C5.43937 8.01779 5.59727 7.78878 5.81403 7.62583C6.03079 7.46289 6.29466 7.37485 6.56583 7.375H18.125C18.3166 7.37493 18.5057 7.41892 18.6776 7.50355C18.8495 7.58819 18.9996 7.71121 19.1164 7.86311C19.2332 8.01502 19.3135 8.19174 19.3511 8.37962C19.3887 8.5675 19.3826 8.76151 19.3333 8.94667L17.5 15.1967C17.4291 15.463 17.2722 15.6984 17.0536 15.8662C16.8351 16.0341 16.5672 16.1251 16.2917 16.125H2.03917M9.375 16.125V19.875M4.375 19.875H14.375M0.625 19.875H1.875M16.875 19.875H18.125" stroke="#6D2E3D" stroke-width="1.25" stroke-linecap="round" stroke-linejoin="round"/>
</g>
<defs>
<clipPath id="clip0_499_81741">
<rect width="20" height="20" fill="white" transform="translate(0 0.5)"/>
</clipPath>
</defs>
</svg>
