<svg width="36" height="36" viewBox="0 0 36 36" fill="none" xmlns="http://www.w3.org/2000/svg">
<path d="M0.666504 18C0.666504 8.33502 8.50152 0.5 18.1665 0.5C27.8315 0.5 35.6665 8.33502 35.6665 18C35.6665 27.665 27.8315 35.5 18.1665 35.5C8.50152 35.5 0.666504 27.665 0.666504 18Z" fill="#F3D8D9"/>
<path d="M20.4613 16.3333C21.2663 16.3333 21.9197 16.9867 21.9197 17.7917V21.7492C21.9197 22.7439 21.5245 23.698 20.8211 24.4014C20.1177 25.1048 19.1636 25.5 18.1688 25.5C17.1741 25.5 16.22 25.1048 15.5166 24.4014C14.8132 23.698 14.418 22.7439 14.418 21.7492V17.7917C14.418 16.9867 15.0705 16.3333 15.8763 16.3333H20.4613ZM20.4613 17.5833H15.8763C15.8211 17.5833 15.7681 17.6053 15.729 17.6444C15.69 17.6834 15.668 17.7364 15.668 17.7917V21.7492C15.668 22.4124 15.9315 23.0485 16.4005 23.5175C16.8695 23.9865 17.5056 24.25 18.1688 24.25C18.8321 24.25 19.4682 23.9865 19.9372 23.5175C20.4062 23.0485 20.6697 22.4124 20.6697 21.7492V17.7917C20.6697 17.7364 20.6477 17.6834 20.6087 17.6444C20.5696 17.6053 20.5166 17.5833 20.4613 17.5833ZM11.2913 16.3333H14.1088C13.8149 16.6885 13.6354 17.1242 13.5938 17.5833H11.2913C11.2361 17.5833 11.1831 17.6053 11.144 17.6444C11.105 17.6834 11.083 17.7364 11.083 17.7917V20.4992C11.0828 20.8141 11.154 21.125 11.2913 21.4085C11.4285 21.692 11.6283 21.9406 11.8755 22.1358C12.1227 22.3309 12.4109 22.4675 12.7185 22.5352C13.0261 22.6029 13.345 22.6 13.6513 22.5267C13.7222 22.9467 13.8513 23.3475 14.0288 23.72C13.7533 23.795 13.4658 23.8328 13.1663 23.8333C12.7285 23.8333 12.295 23.7471 11.8905 23.5795C11.4861 23.412 11.1186 23.1663 10.809 22.8567C10.4995 22.5471 10.254 22.1795 10.0865 21.775C9.91904 21.3705 9.8329 20.937 9.83301 20.4992V17.7917C9.83301 16.9867 10.4863 16.3333 11.2913 16.3333ZM22.2288 16.3333H25.0413C25.8463 16.3333 26.4997 16.9867 26.4997 17.7917V20.5C26.4998 21.011 26.3824 21.5151 26.1567 21.9735C25.9309 22.4319 25.6028 22.8323 25.1976 23.1436C24.7925 23.455 24.3212 23.6691 23.8202 23.7693C23.3191 23.8695 22.8017 23.8532 22.308 23.7217C22.4863 23.3483 22.6155 22.9475 22.6872 22.5275C22.8411 22.5642 23.0008 22.5828 23.1663 22.5833C23.7189 22.5833 24.2488 22.3638 24.6395 21.9731C25.0302 21.5824 25.2497 21.0525 25.2497 20.5V17.7917C25.2497 17.7364 25.2277 17.6834 25.1887 17.6444C25.1496 17.6053 25.0966 17.5833 25.0413 17.5833H22.7438C22.7023 17.1242 22.5228 16.6885 22.2288 16.3333ZM18.1663 10.5C18.8294 10.5 19.4653 10.7634 19.9341 11.2322C20.4029 11.7011 20.6663 12.337 20.6663 13C20.6663 13.663 20.4029 14.2989 19.9341 14.7678C19.4653 15.2366 18.8294 15.5 18.1663 15.5C17.5033 15.5 16.8674 15.2366 16.3986 14.7678C15.9297 14.2989 15.6663 13.663 15.6663 13C15.6663 12.337 15.9297 11.7011 16.3986 11.2322C16.8674 10.7634 17.5033 10.5 18.1663 10.5ZM23.583 11.3333C24.1355 11.3333 24.6654 11.5528 25.0561 11.9435C25.4468 12.3342 25.6663 12.8641 25.6663 13.4167C25.6663 13.9692 25.4468 14.4991 25.0561 14.8898C24.6654 15.2805 24.1355 15.5 23.583 15.5C23.0305 15.5 22.5006 15.2805 22.1099 14.8898C21.7192 14.4991 21.4997 13.9692 21.4997 13.4167C21.4997 12.8641 21.7192 12.3342 22.1099 11.9435C22.5006 11.5528 23.0305 11.3333 23.583 11.3333ZM12.7497 11.3333C13.3022 11.3333 13.8321 11.5528 14.2228 11.9435C14.6135 12.3342 14.833 12.8641 14.833 13.4167C14.833 13.9692 14.6135 14.4991 14.2228 14.8898C13.8321 15.2805 13.3022 15.5 12.7497 15.5C12.1971 15.5 11.6672 15.2805 11.2765 14.8898C10.8858 14.4991 10.6663 13.9692 10.6663 13.4167C10.6663 12.8641 10.8858 12.3342 11.2765 11.9435C11.6672 11.5528 12.1971 11.3333 12.7497 11.3333ZM18.1663 11.75C17.8348 11.75 17.5169 11.8817 17.2825 12.1161C17.048 12.3505 16.9163 12.6685 16.9163 13C16.9163 13.3315 17.048 13.6495 17.2825 13.8839C17.5169 14.1183 17.8348 14.25 18.1663 14.25C18.4979 14.25 18.8158 14.1183 19.0502 13.8839C19.2846 13.6495 19.4163 13.3315 19.4163 13C19.4163 12.6685 19.2846 12.3505 19.0502 12.1161C18.8158 11.8817 18.4979 11.75 18.1663 11.75ZM23.583 12.5833C23.362 12.5833 23.15 12.6711 22.9938 12.8274C22.8375 12.9837 22.7497 13.1957 22.7497 13.4167C22.7497 13.6377 22.8375 13.8496 22.9938 14.0059C23.15 14.1622 23.362 14.25 23.583 14.25C23.804 14.25 24.016 14.1622 24.1723 14.0059C24.3285 13.8496 24.4163 13.6377 24.4163 13.4167C24.4163 13.1957 24.3285 12.9837 24.1723 12.8274C24.016 12.6711 23.804 12.5833 23.583 12.5833ZM12.7497 12.5833C12.5287 12.5833 12.3167 12.6711 12.1604 12.8274C12.0041 12.9837 11.9163 13.1957 11.9163 13.4167C11.9163 13.6377 12.0041 13.8496 12.1604 14.0059C12.3167 14.1622 12.5287 14.25 12.7497 14.25C12.9707 14.25 13.1826 14.1622 13.3389 14.0059C13.4952 13.8496 13.583 13.6377 13.583 13.4167C13.583 13.1957 13.4952 12.9837 13.3389 12.8274C13.1826 12.6711 12.9707 12.5833 12.7497 12.5833Z" fill="#6D2E3D"/>
</svg>
