<svg width="20" height="20" viewBox="0 0 20 20" fill="none" xmlns="http://www.w3.org/2000/svg">
<path fill-rule="evenodd" clip-rule="evenodd" d="M14.1667 9.16668C16.0083 9.16668 17.5 10.6583 17.5 12.5V17.5H2.5V14.1667C2.5 12.325 3.99168 10.8333 5.83332 10.8333H8.78332C9.35832 9.83332 10.4333 9.16668 11.6667 9.16668H14.1667ZM14.1667 10.8333H11.6667C10.75 10.8333 10 11.5833 10 12.5V15.8333H15.8333V12.5C15.8333 11.5833 15.0833 10.8333 14.1667 10.8333ZM8.33332 12.5H5.83332C4.91668 12.5 4.16668 13.25 4.16668 14.1667V15.8333H8.33332V12.5ZM6.66668 5C8.045 5 9.16668 6.12168 9.16668 7.5C9.16668 8.87832 8.045 10 6.66668 10C5.28832 10 4.16668 8.87832 4.16668 7.5C4.16668 6.12168 5.28832 5 6.66668 5ZM6.66668 6.5625C6.15 6.5625 5.72918 6.9825 5.72918 7.5C5.72918 8.0175 6.15 8.4375 6.66668 8.4375C7.18336 8.4375 7.60418 8.0175 7.60418 7.5C7.60418 6.9825 7.18332 6.5625 6.66668 6.5625ZM12.9167 2.5C14.525 2.5 15.8333 3.80832 15.8333 5.41668C15.8333 7.02504 14.525 8.33332 12.9167 8.33332C11.3083 8.33332 10 7.025 10 5.41668C10 3.80832 11.3083 2.5 12.9167 2.5ZM12.9167 4.16668C12.2275 4.16668 11.6667 4.7275 11.6667 5.41668C11.6667 6.10582 12.2275 6.66668 12.9167 6.66668C13.6058 6.66668 14.1667 6.10582 14.1667 5.41668C14.1667 4.7275 13.6058 4.16668 12.9167 4.16668Z" fill="#471923"/>
</svg>
