<svg width="35" height="35" viewBox="0 0 35 35" fill="none" xmlns="http://www.w3.org/2000/svg">
<path d="M0 17.5C0 7.83502 7.83502 0 17.5 0C27.165 0 35 7.83502 35 17.5C35 27.165 27.165 35 17.5 35C7.83502 35 0 27.165 0 17.5Z" fill="#F3D8D9"/>
<path d="M21.2985 23.957H21.9393V21.232H21.2977L21.2985 23.957ZM23.061 23.957H23.7027V21.232H23.061V23.957ZM13.141 14.7737H21.8593V13.9404H13.141V14.7737ZM22.5002 25.9295C21.5718 25.9295 20.7843 25.6059 20.1377 24.9587C19.4904 24.3115 19.1668 23.5237 19.1668 22.5954C19.1668 21.667 19.4904 20.8793 20.1377 20.232C20.7849 19.5848 21.5724 19.2615 22.5002 19.262C23.4279 19.2626 24.2157 19.5859 24.8635 20.232C25.5113 20.8781 25.8346 21.6659 25.8335 22.5954C25.8335 23.5231 25.5102 24.3106 24.8635 24.9579C24.2157 25.6051 23.4279 25.9295 22.5002 25.9295ZM10.8335 24.8062V12.1787C10.8335 11.8054 10.9646 11.4876 11.2268 11.2254C11.4891 10.9631 11.8068 10.832 12.1802 10.832H22.821C23.1932 10.832 23.5107 10.9631 23.7735 11.2254C24.0357 11.4876 24.1668 11.8054 24.1668 12.1787V17.132C24.0313 17.082 23.8968 17.0393 23.7635 17.0037C23.6296 16.9681 23.4863 16.9404 23.3335 16.9204V12.1787C23.3335 12.0504 23.2802 11.9326 23.1735 11.8254C23.0668 11.7181 22.9491 11.6648 22.8202 11.6654H12.1802C12.0518 11.6654 11.9341 11.7187 11.8268 11.8254C11.7196 11.932 11.6663 12.0498 11.6668 12.1787V23.3737H16.9535C16.9913 23.6015 17.0402 23.8243 17.1002 24.042C17.1607 24.2598 17.2449 24.4676 17.3527 24.6654L17.3243 24.6937L16.3785 24.0054L15.2568 24.8062L14.1352 24.0054L13.0135 24.8062L11.891 24.0054L10.8335 24.8062ZM13.1418 21.0562H17.066C17.0971 20.9034 17.1354 20.7604 17.181 20.627C17.2266 20.4937 17.2799 20.359 17.341 20.2229H13.1418V21.0562ZM13.1418 17.9154H19.2335C19.5057 17.7004 19.7974 17.5212 20.1085 17.3779C20.4196 17.234 20.7521 17.1354 21.106 17.082H13.141L13.1418 17.9154Z" fill="#6D2E3D"/>
</svg>
