<svg width="22" height="18" viewBox="0 0 22 18" fill="none" xmlns="http://www.w3.org/2000/svg">
<path d="M4.16797 4C4.16797 3.33696 4.43136 2.70107 4.9002 2.23223C5.36904 1.76339 6.00493 1.5 6.66797 1.5C7.33101 1.5 7.96689 1.76339 8.43574 2.23223C8.90458 2.70107 9.16797 3.33696 9.16797 4C9.16797 4.66304 8.90458 5.29893 8.43574 5.76777C7.96689 6.23661 7.33101 6.5 6.66797 6.5C6.00493 6.5 5.36904 6.23661 4.9002 5.76777C4.43136 5.29893 4.16797 4.66304 4.16797 4ZM6.66797 0C5.6071 0 4.58969 0.421427 3.83954 1.17157C3.0894 1.92172 2.66797 2.93913 2.66797 4C2.66797 5.06087 3.0894 6.07828 3.83954 6.82843C4.58969 7.57857 5.6071 8 6.66797 8C7.72883 8 8.74625 7.57857 9.4964 6.82843C10.2465 6.07828 10.668 5.06087 10.668 4C10.668 2.93913 10.2465 1.92172 9.4964 1.17157C8.74625 0.421427 7.72883 0 6.66797 0ZM14.168 5C14.168 4.60218 14.326 4.22064 14.6073 3.93934C14.8886 3.65804 15.2701 3.5 15.668 3.5C16.0658 3.5 16.4473 3.65804 16.7286 3.93934C17.0099 4.22064 17.168 4.60218 17.168 5C17.168 5.39782 17.0099 5.77936 16.7286 6.06066C16.4473 6.34196 16.0658 6.5 15.668 6.5C15.2701 6.5 14.8886 6.34196 14.6073 6.06066C14.326 5.77936 14.168 5.39782 14.168 5ZM15.668 2C14.8723 2 14.1093 2.31607 13.5466 2.87868C12.984 3.44129 12.668 4.20435 12.668 5C12.668 5.79565 12.984 6.55871 13.5466 7.12132C14.1093 7.68393 14.8723 8 15.668 8C16.4636 8 17.2267 7.68393 17.7893 7.12132C18.3519 6.55871 18.668 5.79565 18.668 5C18.668 4.20435 18.3519 3.44129 17.7893 2.87868C17.2267 2.31607 16.4636 2 15.668 2ZM10.418 10C10.719 10 11.006 10.06 11.269 10.166C10.96 10.285 10.6778 10.4643 10.4386 10.6933C10.1995 10.9223 10.0083 11.1965 9.87597 11.5H2.91797C2.71906 11.5 2.52829 11.579 2.38764 11.7197C2.24699 11.8603 2.16797 12.0511 2.16797 12.25V12.507L2.17497 12.587C2.18197 12.661 2.19797 12.775 2.22997 12.916C2.29597 13.197 2.42797 13.572 2.68897 13.945C3.18197 14.65 4.24597 15.5 6.66797 15.5C8.07497 15.5 9.02297 15.213 9.66797 14.835V16.496C8.87697 16.808 7.89097 17 6.66797 17C3.83997 17 2.27797 15.975 1.45997 14.805C1.03249 14.1905 0.765087 13.479 0.681969 12.735C0.67494 12.6665 0.670271 12.5978 0.667969 12.529V12.251C0.667838 11.9554 0.725939 11.6628 0.838953 11.3897C0.951967 11.1166 1.11768 10.8684 1.32663 10.6594C1.53557 10.4503 1.78365 10.2845 2.0567 10.1714C2.32975 10.0582 2.62241 10 2.91797 10H10.418ZM10.668 12.5C10.668 12.1022 10.826 11.7206 11.1073 11.4393C11.3886 11.158 11.7701 11 12.168 11H20.168C20.5658 11 20.9473 11.158 21.2286 11.4393C21.5099 11.7206 21.668 12.1022 21.668 12.5V16.5C21.668 16.8978 21.5099 17.2794 21.2286 17.5607C20.9473 17.842 20.5658 18 20.168 18H12.168C11.7701 18 11.3886 17.842 11.1073 17.5607C10.826 17.2794 10.668 16.8978 10.668 16.5V12.5ZM11.668 13V14C12.1984 14 12.7071 13.7893 13.0822 13.4142C13.4573 13.0391 13.668 12.5304 13.668 12H12.668C12.668 12.2652 12.5626 12.5196 12.3751 12.7071C12.1875 12.8946 11.9332 13 11.668 13ZM20.668 14V13C20.4028 13 20.1484 12.8946 19.9609 12.7071C19.7733 12.5196 19.668 12.2652 19.668 12H18.668C18.668 12.5304 18.8787 13.0391 19.2538 13.4142C19.6288 13.7893 20.1375 14 20.668 14ZM18.668 17H19.668C19.668 16.7348 19.7733 16.4804 19.9609 16.2929C20.1484 16.1054 20.4028 16 20.668 16V15C20.1375 15 19.6288 15.2107 19.2538 15.5858C18.8787 15.9609 18.668 16.4696 18.668 17ZM11.668 15V16C11.9332 16 12.1875 16.1054 12.3751 16.2929C12.5626 16.4804 12.668 16.7348 12.668 17H13.668C13.668 16.4696 13.4573 15.9609 13.0822 15.5858C12.7071 15.2107 12.1984 15 11.668 15ZM16.168 16.25C16.6321 16.25 17.0772 16.0656 17.4054 15.7374C17.7336 15.4092 17.918 14.9641 17.918 14.5C17.918 14.0359 17.7336 13.5908 17.4054 13.2626C17.0772 12.9344 16.6321 12.75 16.168 12.75C15.7038 12.75 15.2587 12.9344 14.9305 13.2626C14.6023 13.5908 14.418 14.0359 14.418 14.5C14.418 14.9641 14.6023 15.4092 14.9305 15.7374C15.2587 16.0656 15.7038 16.25 16.168 16.25Z" fill="white"/>
</svg>
