<svg width="25" height="24" viewBox="0 0 25 24" fill="none" xmlns="http://www.w3.org/2000/svg">
<path d="M6.16797 7C6.16797 6.33696 6.43136 5.70107 6.9002 5.23223C7.36904 4.76339 8.00493 4.5 8.66797 4.5C9.33101 4.5 9.96689 4.76339 10.4357 5.23223C10.9046 5.70107 11.168 6.33696 11.168 7C11.168 7.66304 10.9046 8.29893 10.4357 8.76777C9.96689 9.23661 9.33101 9.5 8.66797 9.5C8.00493 9.5 7.36904 9.23661 6.9002 8.76777C6.43136 8.29893 6.16797 7.66304 6.16797 7ZM8.66797 3C7.6071 3 6.58969 3.42143 5.83954 4.17157C5.0894 4.92172 4.66797 5.93913 4.66797 7C4.66797 8.06087 5.0894 9.07828 5.83954 9.82843C6.58969 10.5786 7.6071 11 8.66797 11C9.72883 11 10.7463 10.5786 11.4964 9.82843C12.2465 9.07828 12.668 8.06087 12.668 7C12.668 5.93913 12.2465 4.92172 11.4964 4.17157C10.7463 3.42143 9.72883 3 8.66797 3ZM16.168 8C16.168 7.60218 16.326 7.22064 16.6073 6.93934C16.8886 6.65804 17.2701 6.5 17.668 6.5C18.0658 6.5 18.4473 6.65804 18.7286 6.93934C19.0099 7.22064 19.168 7.60218 19.168 8C19.168 8.39782 19.0099 8.77936 18.7286 9.06066C18.4473 9.34196 18.0658 9.5 17.668 9.5C17.2701 9.5 16.8886 9.34196 16.6073 9.06066C16.326 8.77936 16.168 8.39782 16.168 8ZM17.668 5C16.8723 5 16.1093 5.31607 15.5466 5.87868C14.984 6.44129 14.668 7.20435 14.668 8C14.668 8.79565 14.984 9.55871 15.5466 10.1213C16.1093 10.6839 16.8723 11 17.668 11C18.4636 11 19.2267 10.6839 19.7893 10.1213C20.3519 9.55871 20.668 8.79565 20.668 8C20.668 7.20435 20.3519 6.44129 19.7893 5.87868C19.2267 5.31607 18.4636 5 17.668 5ZM12.418 13C12.719 13 13.006 13.06 13.269 13.166C12.96 13.285 12.6778 13.4643 12.4386 13.6933C12.1995 13.9223 12.0083 14.1965 11.876 14.5H4.91797C4.71906 14.5 4.52829 14.579 4.38764 14.7197C4.24699 14.8603 4.16797 15.0511 4.16797 15.25V15.507L4.17497 15.587C4.18197 15.661 4.19797 15.775 4.22997 15.916C4.29597 16.197 4.42797 16.572 4.68897 16.945C5.18197 17.65 6.24597 18.5 8.66797 18.5C10.075 18.5 11.023 18.213 11.668 17.835V19.496C10.877 19.808 9.89097 20 8.66797 20C5.83997 20 4.27797 18.975 3.45997 17.805C3.03249 17.1905 2.76509 16.479 2.68197 15.735C2.67494 15.6665 2.67027 15.5978 2.66797 15.529V15.251C2.66784 14.9554 2.72594 14.6628 2.83895 14.3897C2.95197 14.1166 3.11768 13.8684 3.32663 13.6594C3.53557 13.4503 3.78365 13.2845 4.0567 13.1714C4.32975 13.0582 4.62241 13 4.91797 13H12.418ZM12.668 15.5C12.668 15.1022 12.826 14.7206 13.1073 14.4393C13.3886 14.158 13.7701 14 14.168 14H22.168C22.5658 14 22.9473 14.158 23.2286 14.4393C23.5099 14.7206 23.668 15.1022 23.668 15.5V19.5C23.668 19.8978 23.5099 20.2794 23.2286 20.5607C22.9473 20.842 22.5658 21 22.168 21H14.168C13.7701 21 13.3886 20.842 13.1073 20.5607C12.826 20.2794 12.668 19.8978 12.668 19.5V15.5ZM13.668 16V17C14.1984 17 14.7071 16.7893 15.0822 16.4142C15.4573 16.0391 15.668 15.5304 15.668 15H14.668C14.668 15.2652 14.5626 15.5196 14.3751 15.7071C14.1875 15.8946 13.9332 16 13.668 16ZM22.668 17V16C22.4028 16 22.1484 15.8946 21.9609 15.7071C21.7733 15.5196 21.668 15.2652 21.668 15H20.668C20.668 15.5304 20.8787 16.0391 21.2538 16.4142C21.6288 16.7893 22.1375 17 22.668 17ZM20.668 20H21.668C21.668 19.7348 21.7733 19.4804 21.9609 19.2929C22.1484 19.1054 22.4028 19 22.668 19V18C22.1375 18 21.6288 18.2107 21.2538 18.5858C20.8787 18.9609 20.668 19.4696 20.668 20ZM13.668 18V19C13.9332 19 14.1875 19.1054 14.3751 19.2929C14.5626 19.4804 14.668 19.7348 14.668 20H15.668C15.668 19.4696 15.4573 18.9609 15.0822 18.5858C14.7071 18.2107 14.1984 18 13.668 18ZM18.168 19.25C18.6321 19.25 19.0772 19.0656 19.4054 18.7374C19.7336 18.4092 19.918 17.9641 19.918 17.5C19.918 17.0359 19.7336 16.5908 19.4054 16.2626C19.0772 15.9344 18.6321 15.75 18.168 15.75C17.7038 15.75 17.2587 15.9344 16.9305 16.2626C16.6023 16.5908 16.418 17.0359 16.418 17.5C16.418 17.9641 16.6023 18.4092 16.9305 18.7374C17.2587 19.0656 17.7038 19.25 18.168 19.25Z" fill="#6D2E3D"/>
</svg>
