<svg width="16" height="16" viewBox="0 0 16 16" fill="none" xmlns="http://www.w3.org/2000/svg">
<path d="M10.8374 5.41836C11.3655 5.41836 11.7936 4.99023 11.7936 4.46211C11.7936 3.93399 11.3655 3.50586 10.8374 3.50586C10.3092 3.50586 9.8811 3.93399 9.8811 4.46211C9.8811 4.99023 10.3092 5.41836 10.8374 5.41836Z" fill="white"/>
<path d="M10.1999 1.91211C11.9594 1.91211 13.3874 3.34011 13.3874 5.09961V10.1996C13.3874 11.9591 11.9594 13.3871 10.1999 13.3871H5.09985C3.34035 13.3871 1.91235 11.9591 1.91235 10.1996V5.09961C1.91235 3.34011 3.34035 1.91211 5.09985 1.91211H7.64985H10.1999Z" stroke="white" stroke-width="1.275" stroke-linecap="round" stroke-linejoin="round"/>
<path d="M7.64985 5.09961C9.05873 5.09961 10.1999 6.24073 10.1999 7.64961C10.1999 9.05848 9.05873 10.1996 7.64985 10.1996C6.24098 10.1996 5.09985 9.05848 5.09985 7.64961C5.09985 6.24073 6.24098 5.09961 7.64985 5.09961Z" stroke="white" stroke-width="1.275" stroke-linecap="round" stroke-linejoin="round"/>
</svg>
