<svg width="34" height="34" viewBox="0 0 34 34" fill="none" xmlns="http://www.w3.org/2000/svg">
<path d="M16.6667 19L21.5 23.8333C21.8056 24.1389 22.1944 24.2917 22.6667 24.2917C23.1389 24.2917 23.5278 24.1389 23.8333 23.8333C24.1389 23.5278 24.2917 23.1389 24.2917 22.6667C24.2917 22.1944 24.1389 21.8056 23.8333 21.5L19 16.6667L23.8333 11.8333C24.1389 11.5278 24.2917 11.1389 24.2917 10.6667C24.2917 10.1944 24.1389 9.80556 23.8333 9.5C23.5278 9.19444 23.1389 9.04167 22.6667 9.04167C22.1944 9.04167 21.8056 9.19444 21.5 9.5L16.6667 14.3333L11.8333 9.5C11.5278 9.19444 11.1389 9.04167 10.6667 9.04167C10.1944 9.04167 9.80556 9.19444 9.5 9.5C9.19445 9.80556 9.04167 10.1944 9.04167 10.6667C9.04167 11.1389 9.19445 11.5278 9.5 11.8333L14.3333 16.6667L9.5 21.5C9.19445 21.8056 9.04167 22.1944 9.04167 22.6667C9.04167 23.1389 9.19445 23.5278 9.5 23.8333C9.80556 24.1389 10.1944 24.2917 10.6667 24.2917C11.1389 24.2917 11.5278 24.1389 11.8333 23.8333L16.6667 19ZM16.6667 33.3333C14.3611 33.3333 12.1944 32.8956 10.1667 32.02C8.13889 31.1444 6.375 29.9572 4.875 28.4583C3.375 26.9594 2.18778 25.1956 1.31334 23.1667C0.438891 21.1378 0.00111322 18.9711 2.1097e-06 16.6667C-0.001109 14.3622 0.436669 12.1956 1.31334 10.1667C2.19 8.13778 3.37722 6.37389 4.875 4.875C6.37278 3.37611 8.13667 2.18889 10.1667 1.31333C12.1967 0.437778 14.3633 0 16.6667 0C18.97 0 21.1367 0.437778 23.1667 1.31333C25.1967 2.18889 26.9606 3.37611 28.4583 4.875C29.9561 6.37389 31.1439 8.13778 32.0217 10.1667C32.8994 12.1956 33.3367 14.3622 33.3333 16.6667C33.33 18.9711 32.8922 21.1378 32.02 23.1667C31.1478 25.1956 29.9606 26.9594 28.4583 28.4583C26.9561 29.9572 25.1922 31.145 23.1667 32.0217C21.1411 32.8983 18.9744 33.3356 16.6667 33.3333Z" fill="black"/>
</svg>
