<svg width="60" height="32" viewBox="0 0 60 32" fill="none" xmlns="http://www.w3.org/2000/svg">
<rect width="60" height="32" rx="16" fill="#FFEFEF"/>
<path d="M22.6926 10.3846H37.308C38.0832 10.3846 38.8267 10.6926 39.3749 11.2408C39.9231 11.7889 40.2311 12.5324 40.2311 13.3077V17.6923C40.2311 18.4676 39.9231 19.2111 39.3749 19.7592C38.8267 20.3074 38.0832 20.6154 37.308 20.6154H22.6926C21.9174 20.6154 21.1739 20.3074 20.6257 19.7592C20.0775 19.2111 19.7695 18.4676 19.7695 17.6923V13.3077C19.7695 12.5324 20.0775 11.7889 20.6257 11.2408C21.1739 10.6926 21.9174 10.3846 22.6926 10.3846ZM22.6926 11.8462C22.305 11.8462 21.9332 12.0001 21.6591 12.2742C21.3851 12.5483 21.2311 12.9201 21.2311 13.3077V17.6923C21.2311 18.0799 21.3851 18.4517 21.6591 18.7258C21.9332 18.9999 22.305 19.1538 22.6926 19.1538H37.308C37.6956 19.1538 38.0674 18.9999 38.3415 18.7258C38.6155 18.4517 38.7695 18.0799 38.7695 17.6923V13.3077C38.7695 12.9201 38.6155 12.5483 38.3415 12.2742C38.0674 12.0001 37.6956 11.8462 37.308 11.8462H22.6926ZM19.7695 6.73077C19.7695 6.53696 19.8465 6.35108 19.9836 6.21404C20.1206 6.07699 20.3065 6 20.5003 6H39.5003C39.6941 6 39.88 6.07699 40.017 6.21404C40.1541 6.35108 40.2311 6.53696 40.2311 6.73077C40.2311 6.92458 40.1541 7.11046 40.017 7.2475C39.88 7.38455 39.6941 7.46154 39.5003 7.46154H20.5003C20.3065 7.46154 20.1206 7.38455 19.9836 7.2475C19.8465 7.11046 19.7695 6.92458 19.7695 6.73077ZM19.7695 24.2692C19.7695 24.0754 19.8465 23.8895 19.9836 23.7525C20.1206 23.6155 20.3065 23.5385 20.5003 23.5385H39.5003C39.6941 23.5385 39.88 23.6155 40.017 23.7525C40.1541 23.8895 40.2311 24.0754 40.2311 24.2692C40.2311 24.463 40.1541 24.6489 40.017 24.786C39.88 24.923 39.6941 25 39.5003 25H20.5003C20.3065 25 20.1206 24.923 19.9836 24.786C19.8465 24.6489 19.7695 24.463 19.7695 24.2692Z" fill="black"/>
</svg>
