<svg width="41" height="40" viewBox="0 0 41 40" fill="none" xmlns="http://www.w3.org/2000/svg">
<rect x="2.66699" y="2" width="36" height="36" rx="18" fill="#ECF6DC"/>
<rect x="2.66699" y="2" width="36" height="36" rx="18" stroke="#ECF6DC" stroke-width="4"/>
<rect width="24" height="24" transform="translate(8.66699 8)" fill="#ECF6DC"/>
<path fill-rule="evenodd" clip-rule="evenodd" d="M24.667 18C24.667 20.2091 22.8761 22 20.667 22C18.4579 22 16.667 20.2091 16.667 18C16.667 15.7909 18.4579 14 20.667 14C22.8761 14 24.667 15.7909 24.667 18ZM22.667 18C22.667 19.1046 21.7716 20 20.667 20C19.5624 20 18.667 19.1046 18.667 18C18.667 16.8954 19.5624 16 20.667 16C21.7716 16 22.667 16.8954 22.667 18Z" fill="#9FD24E"/>
<path fill-rule="evenodd" clip-rule="evenodd" d="M28.667 18C28.6669 24.8707 22.7662 28.791 21.1002 29.7609C20.8282 29.9192 20.5058 29.9192 20.2338 29.7609C18.5678 28.791 12.667 24.8707 12.667 18C12.667 14 15.667 10 20.667 10C25.667 10 28.667 14 28.667 18ZM14.667 18C14.667 14.9372 16.9318 12 20.667 12C24.4022 12 26.667 14.9372 26.667 18C26.667 21.2825 25.0347 23.8038 23.2527 25.5858C22.3672 26.4714 21.4763 27.1401 20.8076 27.5859C20.7594 27.618 20.7125 27.6489 20.667 27.6785C20.6214 27.6489 20.5745 27.618 20.5264 27.5859C19.8577 27.1401 18.9668 26.4714 18.0812 25.5858C16.2992 23.8038 14.667 21.2825 14.667 18Z" fill="#9FD24E"/>
</svg>
