<svg width="403" height="229" viewBox="0 0 403 229" fill="none" xmlns="http://www.w3.org/2000/svg">
<path d="M84.0494 220.198C63.2371 218.898 43.9668 205.823 32.225 188.078C14.5581 161.376 7.52768 118.042 28.647 91.2578C49.0948 65.326 86.5339 62.8878 115.474 73.3088C135.802 80.6287 153.643 96.2286 161.821 116.677C180.924 164.453 133.994 221.716 85.8344 220.282C85.2376 220.262 84.6421 220.235 84.0494 220.198Z" fill="#D3DFEB"/>
<path d="M270.601 222.709C243.795 221.036 218.974 204.195 203.852 181.339C181.097 146.948 172.042 91.1325 199.244 56.6342C225.58 23.2332 273.801 20.0924 311.076 33.5158C337.26 42.9437 360.239 63.0364 370.77 89.3751C395.375 150.909 334.929 224.664 272.899 222.816C272.131 222.793 271.366 222.757 270.601 222.709Z" fill="#F8E6C7"/>
<path d="M174.106 196.814C173.805 196.814 173.558 196.568 173.552 196.258C173.545 195.946 173.788 195.686 174.094 195.679C175.55 195.647 177.034 195.582 178.502 195.478C178.827 195.449 179.074 195.69 179.092 196.004C179.114 196.316 178.885 196.59 178.58 196.609C177.092 196.716 175.589 196.784 174.115 196.816C174.112 196.814 174.11 196.814 174.106 196.814ZM169.663 196.801C169.659 196.801 169.655 196.801 169.648 196.801C168.174 196.761 166.674 196.683 165.186 196.568C164.882 196.546 164.652 196.273 164.676 195.96C164.698 195.647 164.983 195.372 165.269 195.437C166.739 195.55 168.222 195.626 169.68 195.665C169.984 195.673 170.227 195.934 170.218 196.249C170.207 196.557 169.962 196.801 169.663 196.801ZM182.964 196.19C182.688 196.19 182.447 195.978 182.415 195.689C182.378 195.376 182.597 195.094 182.9 195.058C184.374 194.88 185.845 194.665 187.271 194.422C187.569 194.361 187.857 194.576 187.906 194.887C187.958 195.195 187.755 195.489 187.452 195.539C186.011 195.79 184.521 196.005 183.029 196.184C183.007 196.187 182.985 196.19 182.964 196.19ZM160.807 196.123C160.786 196.123 160.762 196.12 160.738 196.119C159.248 195.928 157.761 195.702 156.319 195.446C156.018 195.393 155.817 195.1 155.869 194.79C155.918 194.485 156.191 194.263 156.508 194.328C157.932 194.579 159.401 194.804 160.875 194.991C161.178 195.03 161.395 195.313 161.356 195.626C161.321 195.912 161.084 196.123 160.807 196.123ZM191.719 194.697C191.464 194.697 191.235 194.515 191.179 194.249C191.113 193.943 191.304 193.641 191.602 193.575C193.057 193.252 194.499 192.894 195.889 192.508C196.192 192.426 196.489 192.605 196.567 192.907C196.647 193.211 196.472 193.522 196.178 193.602C194.769 193.993 193.309 194.357 191.835 194.683C191.798 194.691 191.758 194.697 191.719 194.697ZM152.063 194.575C152.024 194.575 151.983 194.571 151.941 194.561C150.455 194.217 148.996 193.845 147.604 193.452C147.31 193.367 147.136 193.055 147.216 192.753C147.299 192.453 147.597 192.278 147.897 192.356C149.272 192.744 150.714 193.112 152.183 193.452C152.481 193.52 152.669 193.824 152.602 194.131C152.545 194.394 152.315 194.575 152.063 194.575ZM200.298 192.337C200.065 192.337 199.847 192.183 199.771 191.942C199.678 191.645 199.838 191.323 200.13 191.229C201.512 190.774 202.919 190.273 204.309 189.736C204.595 189.625 204.914 189.774 205.022 190.068C205.127 190.362 204.983 190.689 204.697 190.8C203.29 191.341 201.867 191.849 200.467 192.311C200.411 192.327 200.354 192.337 200.298 192.337ZM143.498 192.159C143.442 192.159 143.383 192.15 143.325 192.13C141.917 191.657 140.498 191.141 139.115 190.597C138.828 190.486 138.685 190.158 138.795 189.866C138.906 189.573 139.221 189.421 139.508 189.537C140.879 190.074 142.277 190.584 143.669 191.052C143.959 191.149 144.116 191.468 144.022 191.768C143.948 192.008 143.732 192.159 143.498 192.159ZM208.629 189.125C208.416 189.125 208.211 188.996 208.121 188.784C207.999 188.495 208.129 188.16 208.408 188.036C209.752 187.439 211.102 186.8 212.422 186.133C212.694 185.998 213.027 186.111 213.163 186.392C213.297 186.674 213.184 187.013 212.911 187.152C211.574 187.826 210.209 188.474 208.848 189.078C208.777 189.108 208.703 189.125 208.629 189.125ZM135.215 188.907C135.139 188.907 135.065 188.892 134.993 188.858C133.635 188.245 132.277 187.593 130.954 186.917C130.679 186.777 130.569 186.437 130.706 186.157C130.845 185.874 131.174 185.766 131.447 185.902C132.755 186.569 134.097 187.215 135.437 187.821C135.719 187.947 135.843 188.282 135.72 188.569C135.631 188.781 135.428 188.907 135.215 188.907ZM216.609 185.103C216.414 185.103 216.226 184.996 216.124 184.81C215.977 184.535 216.072 184.19 216.34 184.038C217.645 183.299 218.926 182.529 220.155 181.746C220.414 181.582 220.754 181.661 220.918 181.93C221.079 182.195 220.999 182.546 220.74 182.713C219.497 183.503 218.198 184.284 216.879 185.031C216.792 185.081 216.7 185.103 216.609 185.103ZM127.281 184.85C127.188 184.85 127.096 184.828 127.012 184.777C125.734 184.046 124.443 183.26 123.172 182.443C122.913 182.277 122.834 181.927 122.997 181.66C123.159 181.395 123.507 181.319 123.761 181.48C125.017 182.286 126.292 183.062 127.552 183.787C127.818 183.94 127.913 184.285 127.765 184.559C127.662 184.746 127.473 184.85 127.281 184.85ZM224.171 180.305C223.996 180.305 223.822 180.219 223.714 180.058C223.54 179.8 223.606 179.446 223.857 179.268C225.048 178.43 226.252 177.535 227.438 176.611C227.679 176.422 228.025 176.471 228.213 176.719C228.397 176.97 228.349 177.324 228.108 177.515C226.91 178.449 225.691 179.353 224.484 180.204C224.39 180.272 224.279 180.305 224.171 180.305ZM119.762 180.026C119.651 180.026 119.542 179.993 119.447 179.924C118.236 179.061 117.024 178.152 115.842 177.22C115.601 177.03 115.555 176.672 115.741 176.425C115.929 176.174 116.278 176.125 116.517 176.32C117.682 177.241 118.88 178.139 120.077 178.993C120.328 179.171 120.391 179.526 120.216 179.783C120.109 179.941 119.937 180.026 119.762 180.026ZM231.242 174.789C231.085 174.789 230.929 174.721 230.819 174.588C230.623 174.345 230.652 173.989 230.886 173.786C232.01 172.819 233.126 171.81 234.201 170.789C234.425 170.578 234.78 170.594 234.983 170.821C235.19 171.051 235.178 171.411 234.953 171.624C233.863 172.658 232.734 173.675 231.599 174.656C231.496 174.744 231.368 174.789 231.242 174.789ZM112.726 174.474C112.598 174.474 112.471 174.43 112.367 174.338C111.234 173.351 110.112 172.326 109.031 171.291C108.808 171.078 108.795 170.718 109.006 170.488C109.213 170.258 109.564 170.251 109.788 170.462C110.856 171.485 111.965 172.499 113.086 173.474C113.316 173.675 113.347 174.036 113.148 174.275C113.04 174.404 112.883 174.474 112.726 174.474ZM237.764 168.602C237.624 168.602 237.483 168.549 237.374 168.44C237.158 168.218 237.154 167.86 237.368 167.635C238.394 166.565 239.41 165.453 240.386 164.33C240.589 164.093 240.94 164.075 241.167 164.283C241.397 164.491 241.416 164.852 241.213 165.084C240.227 166.223 239.198 167.349 238.159 168.433C238.049 168.544 237.906 168.602 237.764 168.602ZM106.241 168.258C106.095 168.258 105.954 168.201 105.843 168.086C104.788 166.972 103.765 165.839 102.806 164.72C102.603 164.485 102.627 164.126 102.855 163.919C103.082 163.711 103.432 163.73 103.636 163.97C104.585 165.072 105.594 166.193 106.639 167.294C106.851 167.519 106.845 167.877 106.625 168.097C106.52 168.205 106.38 168.258 106.241 168.258ZM243.672 161.805C243.549 161.805 243.425 161.763 243.323 161.679C243.086 161.482 243.048 161.125 243.241 160.881C244.172 159.696 245.08 158.489 245.932 157.293C246.118 157.039 246.466 156.988 246.706 157.169C246.953 157.355 247.007 157.71 246.828 157.963C245.963 159.174 245.047 160.396 244.102 161.594C243.995 161.734 243.832 161.805 243.672 161.805ZM100.362 161.426C100.201 161.426 100.041 161.353 99.9298 161.214C99.0046 160.025 98.0928 158.797 97.221 157.562C97.0421 157.308 97.0955 156.954 97.3438 156.77C97.5855 156.584 97.9366 156.641 98.1155 156.896C98.9779 158.117 99.8778 159.329 100.794 160.503C100.985 160.747 100.944 161.105 100.707 161.301C100.607 161.386 100.484 161.426 100.362 161.426ZM248.92 154.461C248.814 154.461 248.708 154.429 248.616 154.368C248.361 154.195 248.288 153.842 248.458 153.58C249.247 152.358 250.036 151.067 250.804 149.745C250.96 149.474 251.3 149.39 251.562 149.548C251.826 149.708 251.911 150.057 251.754 150.326C250.976 151.664 250.178 152.969 249.383 154.205C249.274 154.373 249.099 154.461 248.92 154.461ZM95.149 154.044C94.9701 154.044 94.7925 153.954 94.6857 153.787C93.8767 152.523 93.0836 151.209 92.3267 149.883C92.1731 149.612 92.2612 149.267 92.5256 149.107C92.7832 148.945 93.125 149.038 93.2826 149.311C94.0302 150.619 94.8139 151.917 95.6109 153.166C95.7791 153.428 95.7084 153.781 95.4507 153.951C95.3599 154.013 95.2531 154.044 95.149 154.044ZM253.447 146.638C253.359 146.638 253.27 146.616 253.188 146.571C252.918 146.425 252.816 146.081 252.959 145.804C253.646 144.475 254.31 143.114 254.928 141.758C255.06 141.472 255.392 141.357 255.665 141.485C255.941 141.618 256.06 141.958 255.93 142.241C255.303 143.612 254.631 144.989 253.934 146.336C253.836 146.529 253.643 146.638 253.447 146.638ZM90.6512 146.177C90.4522 146.177 90.26 146.066 90.1598 145.873C89.475 144.53 88.8088 143.144 88.1813 141.754C88.0518 141.467 88.1733 141.131 88.4496 140.999C88.7247 140.868 89.0544 140.991 89.1853 141.274C89.8061 142.65 90.4656 144.021 91.1425 145.345C91.2826 145.622 91.1798 145.966 90.9088 146.112C90.8261 146.156 90.7366 146.177 90.6512 146.177ZM257.215 138.41C257.144 138.41 257.072 138.397 257.005 138.368C256.722 138.249 256.586 137.916 256.702 137.627C257.249 136.26 257.783 134.838 258.287 133.397C258.392 133.1 258.713 132.949 258.994 133.053C259.281 133.16 259.434 133.483 259.329 133.779C258.819 135.239 258.281 136.679 257.727 138.058C257.639 138.277 257.434 138.41 257.215 138.41ZM86.9143 137.891C86.6954 137.891 86.4884 137.758 86.4017 137.536C85.8476 136.139 85.3162 134.693 84.8196 133.239C84.7208 132.942 84.8717 132.619 85.1587 132.513C85.4444 132.42 85.7635 132.567 85.8663 132.861C86.3549 134.298 86.8809 135.727 87.427 137.109C87.5418 137.399 87.4056 137.729 87.1226 137.847C87.0545 137.879 86.9837 137.891 86.9143 137.891ZM260.192 129.826C260.14 129.826 260.086 129.819 260.032 129.801C259.739 129.711 259.574 129.396 259.662 129.093C260.084 127.654 260.479 126.185 260.835 124.725C260.909 124.424 261.201 124.221 261.506 124.313C261.802 124.388 261.984 124.696 261.907 125C261.548 126.478 261.149 127.965 260.721 129.421C260.651 129.669 260.43 129.826 260.192 129.826ZM83.9812 129.285C83.7409 129.285 83.5206 129.125 83.4512 128.88C83.0293 127.418 82.6381 125.929 82.2883 124.45C82.2176 124.146 82.3991 123.84 82.6969 123.765C82.9892 123.692 83.291 123.879 83.3644 124.184C83.7102 125.644 84.0947 127.114 84.5099 128.556C84.598 128.858 84.4298 129.173 84.1374 129.262C84.084 129.278 84.0333 129.285 83.9812 129.285ZM262.345 120.99C262.311 120.99 262.275 120.986 262.237 120.979C261.937 120.919 261.742 120.62 261.803 120.312C262.084 118.861 262.34 117.36 262.56 115.849C262.603 115.541 262.865 115.319 263.189 115.373C263.492 115.419 263.699 115.708 263.654 116.018C263.431 117.546 263.174 119.065 262.889 120.534C262.837 120.804 262.606 120.99 262.345 120.99ZM81.8811 120.432C81.6195 120.432 81.3885 120.243 81.3391 119.971C81.0574 118.482 80.8118 116.96 80.6022 115.451C80.5594 115.14 80.769 114.852 81.0708 114.81C81.3752 114.749 81.6528 114.981 81.6956 115.29C81.9025 116.781 82.1495 118.285 82.4245 119.757C82.4832 120.063 82.2857 120.363 81.9853 120.42C81.9506 120.431 81.9158 120.432 81.8811 120.432ZM263.651 111.98C263.634 111.98 263.614 111.98 263.595 111.977C263.292 111.946 263.069 111.666 263.1 111.354C263.247 109.853 263.359 108.335 263.432 106.84C263.447 106.528 263.736 106.306 264.014 106.301C264.319 106.319 264.555 106.584 264.54 106.898C264.464 108.41 264.349 109.948 264.202 111.47C264.173 111.762 263.933 111.98 263.651 111.98ZM80.6302 111.414C80.3471 111.414 80.1068 111.195 80.0788 110.899C79.9386 109.375 79.8345 107.838 79.7677 106.327C79.7544 106.012 79.9907 105.747 80.2951 105.732C80.6088 105.715 80.8598 105.961 80.8745 106.273C80.9399 107.766 81.0427 109.288 81.1816 110.792C81.2096 111.104 80.9866 111.383 80.6823 111.411C80.6636 111.414 80.6475 111.414 80.6302 111.414ZM264.11 102.881C263.806 102.881 263.556 102.626 263.556 102.312V101.935C263.556 100.41 263.522 98.8851 263.451 97.4057C263.436 97.0934 263.671 96.8263 263.978 96.8113C264.26 96.8263 264.543 97.04 264.558 97.3523C264.627 98.8495 264.663 100.392 264.663 101.935V102.312C264.663 102.626 264.415 102.881 264.11 102.881ZM80.223 102.316C79.9159 102.316 79.6689 102.061 79.6689 101.748C79.6716 100.233 79.7103 98.6892 79.7838 97.1606C79.7984 96.8483 80.0107 96.6387 80.3658 96.6209C80.6702 96.6359 80.9065 96.9044 80.8919 97.2181C80.8184 98.7262 80.7797 100.252 80.777 101.748C80.777 102.064 80.5274 102.316 80.223 102.316ZM263.688 93.4047C263.405 93.4047 263.165 93.1856 263.137 92.8925C262.997 91.3885 262.819 89.8763 262.61 88.3942C262.564 88.0833 262.774 87.7957 263.077 87.7505C263.387 87.7011 263.66 87.9217 263.704 88.2299C263.917 89.7297 264.098 91.2625 264.241 92.7815C264.269 93.0938 264.046 93.3719 263.744 93.402C263.723 93.4047 263.706 93.4047 263.688 93.4047ZM80.6636 93.213C80.6462 93.213 80.6289 93.213 80.6102 93.2102C80.3058 93.1787 80.0828 92.9021 80.1135 92.5898C80.2577 91.068 80.4419 89.538 80.6555 88.0408C80.6983 87.7327 80.976 87.5108 81.283 87.5614C81.5861 87.6053 81.7957 87.8943 81.7503 88.2052C81.538 89.6845 81.3591 91.1981 81.2163 92.7021C81.1869 92.9938 80.9453 93.213 80.6636 93.213ZM262.417 84.3905C262.158 84.3905 261.925 84.2015 261.875 83.9316C261.592 82.4373 261.272 80.9483 260.924 79.506C260.853 79.2019 261.032 78.8937 261.329 78.8184C261.612 78.7403 261.923 78.9294 262 79.2348C262.349 80.6922 262.674 82.2003 262.959 83.7138C263.018 84.022 262.823 84.3193 262.523 84.3795C262.486 84.3878 262.452 84.3905 262.417 84.3905ZM81.9532 84.2015C81.9185 84.2015 81.8825 84.1974 81.8451 84.1905C81.5474 84.1302 81.3498 83.8316 81.4099 83.5235C81.7022 82.0058 82.028 80.5004 82.3778 79.0499C82.4512 78.7486 82.7369 78.5513 83.048 78.6376C83.3444 78.7129 83.5233 79.0198 83.4498 79.3252C83.1067 80.7566 82.7836 82.2441 82.4939 83.7453C82.4432 84.0152 82.2122 84.2015 81.9532 84.2015ZM260.3 75.542C260.062 75.542 259.842 75.3817 259.77 75.1366C259.344 73.6709 258.886 72.2217 258.406 70.8287C258.304 70.5342 258.454 70.2096 258.743 70.1055C259.025 69.9973 259.347 70.1548 259.448 70.452C259.934 71.8629 260.4 73.3285 260.83 74.8133C260.918 75.1133 260.753 75.4297 260.458 75.5187C260.407 75.5351 260.352 75.542 260.3 75.542ZM84.0867 75.3598C84.0346 75.3598 83.9812 75.353 83.9291 75.3352C83.6354 75.2461 83.4685 74.9297 83.5566 74.6297C83.9785 73.1819 84.4458 71.7149 84.9451 70.2712C85.0439 69.9767 85.3576 69.8165 85.65 69.9247C85.9397 70.0288 86.0906 70.3534 85.9878 70.6479C85.4965 72.0766 85.0346 73.5244 84.6167 74.953C84.5446 75.1996 84.3243 75.3598 84.0867 75.3598ZM257.351 66.94C257.132 66.94 256.925 66.8072 256.838 66.5853C256.279 65.1772 255.683 63.7773 255.069 62.4268C254.94 62.1432 255.061 61.8063 255.338 61.672C255.613 61.5392 255.941 61.6611 256.073 61.9473C256.695 63.3143 257.297 64.7307 257.864 66.1593C257.978 66.4497 257.842 66.7798 257.559 66.8976C257.492 66.9263 257.42 66.94 257.351 66.94ZM87.0465 66.7729C86.9771 66.7729 86.9063 66.7592 86.8369 66.7305C86.5539 66.6113 86.419 66.2798 86.5338 65.9894C87.1026 64.5677 87.7033 63.1596 88.3241 61.7994C88.4563 61.5159 88.7821 61.394 89.0598 61.5241C89.3388 61.657 89.4576 61.9939 89.3281 62.2788C88.7167 63.6225 88.1199 65.0156 87.5592 66.4195C87.4697 66.6401 87.2654 66.7729 87.0465 66.7729ZM253.598 58.6641C253.399 58.6641 253.207 58.5531 253.107 58.36C252.423 57.0273 251.7 55.6931 250.953 54.3987C250.8 54.1275 250.887 53.7796 251.15 53.6221C251.418 53.4577 251.753 53.5509 251.908 53.8221C252.661 55.1329 253.394 56.4821 254.087 57.8327C254.227 58.1093 254.124 58.4531 253.853 58.5997C253.773 58.6435 253.685 58.6641 253.598 58.6641ZM90.798 58.5353C90.7099 58.5353 90.6231 58.5148 90.539 58.4682C90.2693 58.3217 90.1665 57.9779 90.3094 57.7012C91.0009 56.3574 91.7339 55.011 92.4882 53.7056C92.6417 53.4331 92.9808 53.344 93.2452 53.5057C93.5095 53.6659 93.595 54.0138 93.4401 54.2823C92.6965 55.5726 91.9715 56.9026 91.2866 58.2326C91.1865 58.4244 90.9969 58.5353 90.798 58.5353ZM249.086 50.8073C248.907 50.8073 248.729 50.7169 248.622 50.5498C247.82 49.2964 246.975 48.0404 246.11 46.8227C245.931 46.5679 245.984 46.2132 246.231 46.0283C246.482 45.842 246.825 45.9022 247.005 46.1529C247.881 47.3884 248.736 48.6568 249.547 49.9279C249.716 50.1895 249.645 50.5402 249.387 50.7128C249.295 50.7758 249.19 50.8073 249.086 50.8073ZM95.3145 50.7032C95.2091 50.7032 95.1049 50.6717 95.0101 50.61C94.7551 50.4374 94.683 50.084 94.8526 49.8224C95.663 48.5582 96.5201 47.2912 97.3972 46.0584C97.5788 45.805 97.9246 45.7529 98.1716 45.9337C98.4185 46.12 98.4719 46.4748 98.293 46.7282C97.4266 47.9459 96.5802 49.1965 95.7791 50.4484C95.671 50.6114 95.4934 50.7032 95.3145 50.7032ZM243.859 43.434C243.697 43.434 243.537 43.3614 243.426 43.2217C242.516 42.0588 241.556 40.8945 240.577 39.7617C240.376 39.5261 240.396 39.1672 240.625 38.959C240.856 38.7508 241.205 38.7755 241.408 39.0083C242.398 40.1548 243.369 41.3328 244.291 42.5135C244.482 42.7573 244.445 43.1148 244.205 43.3121C244.103 43.3943 243.979 43.434 243.859 43.434ZM100.541 43.349C100.418 43.349 100.294 43.3066 100.193 43.223C99.9552 43.0258 99.9178 42.6683 100.11 42.4245C101.063 41.2136 102.034 40.0384 102.999 38.9262C103.202 38.6906 103.555 38.6714 103.78 38.8796C104.01 39.0878 104.028 39.4453 103.826 39.6809C102.874 40.7794 101.914 41.9437 100.971 43.1395C100.862 43.2792 100.701 43.349 100.541 43.349ZM237.964 36.6154C237.819 36.6154 237.677 36.5579 237.569 36.4442C236.553 35.3772 235.492 34.3129 234.411 33.2787C234.186 33.0664 234.173 32.7062 234.382 32.4774C234.589 32.2473 234.941 32.2336 235.163 32.4487C236.26 33.491 237.334 34.569 238.361 35.6498C238.575 35.8744 238.571 36.236 238.353 36.4524C238.243 36.562 238.103 36.6154 237.964 36.6154ZM106.437 36.5401C106.297 36.5401 106.158 36.4867 106.05 36.3784C105.831 36.1593 105.827 35.7991 106.042 35.5758C107.071 34.4951 108.15 33.4171 109.243 32.3747C109.47 32.1665 109.816 32.1747 110.026 32.4062C110.232 32.635 110.22 32.9938 109.995 33.2089C108.913 34.2376 107.851 35.3032 106.832 36.3702C106.725 36.4825 106.58 36.5401 106.437 36.5401ZM231.464 30.4091C231.339 30.4091 231.212 30.3653 231.108 30.2763C229.981 29.3024 228.825 28.3463 227.668 27.4368C227.427 27.2464 227.381 26.8889 227.567 26.641C227.751 26.3931 228.097 26.3438 228.343 26.5369C229.512 27.4546 230.682 28.4216 231.822 29.4079C232.055 29.6092 232.086 29.9694 231.889 30.2092C231.776 30.3406 231.622 30.4091 231.464 30.4091ZM112.949 30.3407C112.792 30.3407 112.636 30.2722 112.526 30.1393C112.33 29.8996 112.359 29.5407 112.593 29.338C113.734 28.3504 114.907 27.3834 116.08 26.467C116.322 26.2739 116.67 26.3246 116.854 26.5739C117.04 26.8218 116.995 27.1793 116.75 27.3683C115.594 28.2751 114.435 29.2312 113.306 30.2078C113.202 30.2954 113.075 30.3407 112.949 30.3407ZM224.418 24.874C224.309 24.874 224.199 24.8425 224.103 24.7727C222.906 23.9234 221.669 23.0879 220.419 22.2893C220.16 22.1236 220.08 21.7729 220.242 21.5058C220.402 21.2387 220.744 21.1593 221.003 21.3237C222.267 22.1332 223.523 22.9783 224.734 23.8385C224.985 24.0166 225.048 24.3713 224.873 24.6288C224.766 24.7891 224.592 24.874 224.418 24.874ZM120.008 24.8055C119.833 24.8055 119.659 24.7206 119.551 24.559C119.378 24.3001 119.44 23.9481 119.694 23.7686C120.93 22.8961 122.189 22.0496 123.436 21.2552C123.695 21.0894 124.037 21.1716 124.197 21.4387C124.359 21.7045 124.28 22.0551 124.02 22.2208C122.787 23.0057 121.542 23.8426 120.32 24.7055C120.227 24.774 120.116 24.8055 120.008 24.8055ZM216.889 20.0635C216.798 20.0635 216.705 20.0402 216.619 19.9909C215.339 19.2581 214.027 18.5499 212.72 17.8856C212.447 17.7459 212.335 17.4048 212.471 17.1254C212.605 16.8446 212.936 16.7309 213.212 16.8679C214.535 17.5404 215.863 18.2582 217.16 18.9992C217.426 19.1526 217.521 19.4978 217.374 19.7718C217.272 19.958 217.084 20.0635 216.889 20.0635ZM127.563 19.995C127.368 19.995 127.18 19.8895 127.078 19.7033C126.931 19.4293 127.026 19.0828 127.295 18.9307C128.596 18.1883 129.93 17.4706 131.257 16.7994C131.529 16.6624 131.864 16.7789 131.998 17.0569C132.132 17.3391 132.019 17.6788 131.746 17.8171C130.436 18.4815 129.118 19.1896 127.83 19.9238C127.746 19.9717 127.654 19.995 127.563 19.995ZM208.951 16.0228C208.877 16.0228 208.801 16.0077 208.731 15.9748C207.397 15.3776 206.024 14.8023 204.653 14.2654C204.368 14.1545 204.223 13.8257 204.333 13.534C204.444 13.2395 204.765 13.0943 205.046 13.2052C206.434 13.7476 207.821 14.3284 209.171 14.9338C209.453 15.0585 209.58 15.3941 209.458 15.6817C209.367 15.8954 209.165 16.0228 208.951 16.0228ZM135.533 15.9543C135.32 15.9543 135.115 15.8269 135.025 15.6132C134.903 15.3242 135.031 14.9914 135.312 14.8653C136.687 14.2544 138.083 13.6723 139.462 13.1367C139.741 13.0258 140.067 13.1724 140.174 13.4669C140.282 13.7613 140.139 14.0873 139.853 14.1983C138.489 14.7256 137.11 15.3009 135.752 15.9064C135.683 15.9392 135.607 15.9543 135.533 15.9543ZM200.659 12.7875C200.603 12.7875 200.544 12.7792 200.488 12.7601C199.102 12.2971 197.679 11.8601 196.257 11.4629C195.961 11.3807 195.789 11.0684 195.869 10.7657C195.951 10.4658 196.26 10.2877 196.547 10.3671C197.987 10.7698 199.429 11.2123 200.83 11.6807C201.122 11.778 201.28 12.0985 201.185 12.3971C201.109 12.6354 200.892 12.7875 200.659 12.7875ZM143.857 12.7258C143.624 12.7258 143.406 12.5724 143.33 12.3327C143.237 12.0341 143.397 11.715 143.686 11.6191C145.104 11.1493 146.546 10.7109 147.972 10.3165C148.272 10.2384 148.571 10.4137 148.65 10.7164C148.73 11.0191 148.555 11.3314 148.262 11.4122C146.852 11.8026 145.427 12.2368 144.028 12.6998C143.972 12.7162 143.913 12.7258 143.857 12.7258ZM192.093 10.3932C192.054 10.3932 192.013 10.3891 191.974 10.3795C190.54 10.0548 189.081 9.76308 187.639 9.51105C187.339 9.45763 187.136 9.1645 187.188 8.85494C187.237 8.54538 187.503 8.33581 187.826 8.3906C189.285 8.64537 190.762 8.94124 192.213 9.26997C192.511 9.33709 192.699 9.6398 192.635 9.94662C192.578 10.2124 192.348 10.3932 192.093 10.3932ZM152.43 10.3493C152.175 10.3493 151.945 10.1685 151.889 9.90279C151.824 9.59734 152.012 9.29326 152.311 9.22751C153.757 8.90288 155.233 8.60976 156.699 8.35636C156.997 8.30705 157.285 8.51251 157.335 8.82207C157.387 9.13163 157.184 9.42476 156.881 9.47681C155.435 9.7261 153.977 10.0165 152.549 10.337C152.507 10.3438 152.468 10.3493 152.43 10.3493ZM183.342 8.86042C183.32 8.86042 183.299 8.85905 183.275 8.85631C181.829 8.67688 180.35 8.53031 178.88 8.42073C178.576 8.39745 178.346 8.12624 178.37 7.81257C178.391 7.50027 178.606 7.27016 178.963 7.28659C180.449 7.39891 181.944 7.54684 183.41 7.72902C183.713 7.76737 183.929 8.04954 183.892 8.36184C183.856 8.64811 183.618 8.86042 183.342 8.86042ZM161.184 8.83576C160.907 8.83576 160.667 8.62346 160.635 8.33444C160.598 8.02351 160.814 7.74135 161.12 7.70436C162.588 7.52493 164.084 7.37974 165.569 7.27153C165.876 7.23728 166.138 7.48384 166.16 7.79888C166.181 8.11118 165.953 8.38375 165.647 8.40567C164.178 8.51251 162.7 8.65496 161.249 8.83166C161.226 8.8344 161.205 8.83576 161.184 8.83576ZM174.484 8.20021C174.48 8.20021 174.476 8.20021 174.47 8.20021C173 8.16186 171.521 8.15912 170.055 8.19473C170.051 8.19473 170.047 8.19473 170.042 8.19473C169.742 8.19473 169.495 7.94818 169.488 7.63999C169.481 7.32632 169.724 7.06606 170.029 7.05921C171.512 7.02497 173.008 7.02771 174.496 7.0647C174.803 7.07291 175.043 7.33316 175.036 7.64683C175.028 7.95502 174.784 8.20021 174.484 8.20021Z" fill="white"/>
<path d="M236.523 92.7665C242.887 92.7665 248.047 84.517 248.047 74.3407C248.047 64.1645 242.887 55.915 236.523 55.915C230.158 55.915 224.999 64.1645 224.999 74.3407C224.999 84.517 230.158 92.7665 236.523 92.7665Z" fill="white"/>
<path d="M265.672 59.3228C269.693 59.3228 272.952 54.1108 272.952 47.6814C272.952 41.2521 269.693 36.04 265.672 36.04C261.651 36.04 258.392 41.2521 258.392 47.6814C258.392 54.1108 261.651 59.3228 265.672 59.3228Z" fill="white"/>
<path d="M363.417 92.2695C365.362 91.3395 366.842 89.5807 367.836 87.6302C371.059 81.313 369.415 73.4452 366.123 67.1663C362.832 60.8861 358.053 55.5469 354.576 49.3735C353.762 47.9256 352.994 46.4039 351.778 45.2916C350.562 44.1794 348.75 43.563 347.274 44.2698C345.051 45.3341 344.872 48.4557 345.045 50.9665C345.591 58.863 346.372 66.7417 347.386 74.5903C347.989 79.268 348.75 84.1305 351.416 87.974C354.085 91.8175 359.249 94.2625 363.417 92.2695Z" fill="#7CA594"/>
<path d="M396.243 83.6011C396.631 80.4795 396.444 76.7976 393.993 74.906C390.874 72.4994 386.135 74.8088 384.175 78.2715C382.215 81.7342 382.043 85.9173 381.132 89.8101C379.261 97.8094 374.226 104.642 371.571 112.404C369.268 119.136 368.819 126.364 368.392 133.486C368.248 135.874 368.197 138.55 369.766 140.322C370.435 141.077 371.34 141.579 372.285 141.897C376.254 143.23 380.768 141.285 383.474 138.021C386.18 134.757 387.353 130.428 387.849 126.174C388.346 121.92 388.244 117.608 388.784 113.359C390.073 103.186 394.978 93.7755 396.243 83.6011Z" fill="#7CA594"/>
<path d="M334.326 74.3683C333.168 73.678 331.792 73.2616 330.482 73.5492C329.429 73.7807 328.503 74.4519 327.793 75.2819C325.725 77.6982 325.459 81.2965 326.238 84.4112C327.016 87.526 328.688 90.3107 330.169 93.1447C331.868 96.3923 333.34 99.7578 334.839 103.107C336.422 106.642 338.264 110.41 341.65 112.162C344.156 113.459 347.292 113.38 349.733 111.959C352.175 110.539 353.849 107.819 354.051 104.945C354.307 101.3 352.341 97.8662 349.996 95.1157C347.652 92.3653 344.852 90.0039 342.857 86.9781C340.025 82.6854 338.695 76.9708 334.326 74.3683Z" fill="#7CA594"/>
<path d="M353.381 166.701C352.727 168.73 350.766 170.005 348.815 170.754C344.965 172.233 340.697 172.303 336.658 171.52C328.823 169.999 321.633 165.226 317.071 158.514C316.026 156.976 315.078 155.176 315.336 153.319C315.583 151.538 316.924 150.078 318.481 149.251C320.038 148.423 321.801 148.123 323.53 147.836C327.833 147.118 332.223 146.4 336.529 147.095C344.339 148.355 351.161 154.632 353.229 162.462C353.596 163.847 353.82 165.338 353.381 166.701Z" fill="#7CA594"/>
<path d="M393.494 144.767C388.387 149.264 381.728 151.397 376.043 155.091C373.401 156.809 370.87 159.006 369.741 161.999C367.971 166.7 370.664 172.636 375.309 174.274C376.517 174.7 377.833 174.862 379.082 174.581C381.005 174.15 382.567 172.735 383.918 171.265C389.658 165.013 393.228 156.894 399.168 150.842C400.356 149.631 401.66 148.475 402.418 146.942C403.178 145.41 403.241 143.351 402.058 142.133C400.89 140.931 398.921 140.968 397.421 141.685C395.925 142.406 394.75 143.662 393.494 144.767Z" fill="#7CA594"/>
<path d="M361.143 199.497L361.096 199.495C360.914 199.468 360.787 199.294 360.814 199.109C367.401 151.867 365.409 104.34 354.89 57.8535C354.849 57.6699 354.961 57.4878 355.14 57.4439C355.32 57.4069 355.499 57.5165 355.539 57.7001C366.076 104.27 368.073 151.88 361.472 199.205C361.448 199.375 361.305 199.497 361.143 199.497Z" fill="#37374F"/>
<path d="M364.814 132.811C364.678 132.811 364.553 132.728 364.502 132.588C361.514 124.235 357.263 116.469 351.864 109.505C350.465 107.701 348.958 105.905 347.497 104.168C342.931 98.7347 338.209 93.1161 336.009 86.2331C335.952 86.0537 336.046 85.8619 336.221 85.803C336.395 85.7469 336.583 85.8414 336.64 86.0208C338.799 92.7736 343.477 98.3416 348.002 103.723C349.465 105.466 350.979 107.264 352.385 109.08C357.826 116.103 362.115 123.932 365.127 132.354C365.189 132.529 365.101 132.728 364.929 132.791C364.89 132.806 364.852 132.811 364.814 132.811Z" fill="#37374F"/>
<path d="M363.049 181.51L363.016 181.509C362.852 181.492 362.725 181.355 362.718 181.186C362.473 175.567 359.226 169.926 353.809 165.71C348.931 161.913 343.088 159.677 337.436 157.514C332.711 155.706 328.817 154.959 326.19 155.358C326.008 155.391 325.839 155.258 325.813 155.07C325.786 154.884 325.911 154.711 326.094 154.684C328.87 154.258 332.77 155 337.668 156.873C343.367 159.055 349.256 161.309 354.213 165.169C359.284 169.117 362.509 174.3 363.239 179.588C366.438 172.004 380.274 158.188 394.373 148.743C394.527 148.635 394.732 148.683 394.833 148.842C394.933 148.999 394.891 149.212 394.737 149.315C379.767 159.342 365.111 174.267 363.372 181.255C363.334 181.406 363.2 181.51 363.049 181.51Z" fill="#37374F"/>
<path d="M363.999 172.373L363.931 172.366C363.751 172.327 363.637 172.148 363.675 171.963C366.63 157.412 370.685 142.734 375.089 130.635C377.007 125.375 379.053 120.066 381.033 114.933C384.057 107.096 387.182 98.9943 389.906 90.8923C389.965 90.7143 390.16 90.6211 390.329 90.6814C390.503 90.7417 390.595 90.9362 390.535 91.1156C387.806 99.2299 384.679 107.342 381.654 115.186C379.675 120.316 377.63 125.619 375.716 130.874C371.32 142.944 367.277 157.585 364.326 172.103C364.291 172.262 364.154 172.373 363.999 172.373Z" fill="#37374F"/>
<path d="M360.506 86.0726C360.448 86.0726 360.389 86.0576 360.34 86.0275C357.393 84.2838 354.435 82.4072 351.547 80.4526C351.394 80.3485 351.352 80.1362 351.452 79.9787C351.555 79.8225 351.761 79.7842 351.914 79.8814C354.678 81.7539 357.507 83.5523 360.331 85.2344L364.814 72.7177C364.878 72.5396 365.067 72.4465 365.24 72.515C365.413 72.5807 365.5 72.7766 365.437 72.9519L360.818 85.8494C360.785 85.9439 360.711 86.0179 360.618 86.0521C360.582 86.0672 360.543 86.0726 360.506 86.0726Z" fill="#37374F"/>
<path d="M357.763 69.9898C357.703 69.9898 357.642 69.9734 357.59 69.9405C354.231 67.8298 351.307 65.1396 348.897 61.9454C348.785 61.7974 348.812 61.5824 348.956 61.4673C349.103 61.3495 349.312 61.3783 349.422 61.5276C351.694 64.5396 354.434 67.0942 357.568 69.1242C358.252 66.8052 359.011 64.478 359.83 62.1988C359.894 62.0207 360.084 61.9276 360.256 61.996C360.429 62.0618 360.516 62.2577 360.453 62.433C359.588 64.8396 358.791 67.2997 358.081 69.746C358.05 69.8488 357.978 69.9296 357.881 69.9679C357.845 69.983 357.805 69.9898 357.763 69.9898Z" fill="#37374F"/>
<path d="M355.185 57.926C355.11 57.926 355.037 57.8999 354.977 57.8506C352.535 55.8357 350.257 53.5743 348.209 51.1307C348.089 50.9855 348.104 50.7718 348.243 50.6499C348.384 50.5253 348.591 50.5444 348.711 50.6842C350.643 52.9881 352.78 55.129 355.069 57.0493C355.346 56.4247 355.552 55.7933 355.764 55.1317C355.878 54.7769 355.994 54.4181 356.125 54.0537C356.183 53.8866 356.36 53.7962 356.528 53.8428C356.696 53.8907 356.798 54.0647 356.763 54.2386L356.711 54.5016C356.699 54.577 356.661 54.6427 356.609 54.6906C356.536 54.9125 356.465 55.1303 356.396 55.3454C356.13 56.1672 355.88 56.9425 355.481 57.741C355.435 57.8328 355.35 57.8986 355.254 57.9191L355.185 57.926Z" fill="#37374F"/>
<path d="M348.559 105.259H348.558C345.445 105.232 342.311 104.976 339.238 104.495C339.056 104.468 338.931 104.294 338.96 104.107C338.987 103.922 339.162 103.781 339.338 103.822C342.269 104.28 345.259 104.532 348.228 104.576L348.234 98.0969C348.234 97.9079 348.382 97.7559 348.566 97.7559C348.75 97.7559 348.899 97.9079 348.899 98.0969L348.893 104.92C348.893 105.011 348.857 105.098 348.796 105.161C348.73 105.225 348.648 105.259 348.559 105.259Z" fill="#37374F"/>
<path d="M342.745 98.2359C342.69 98.2359 342.634 98.2236 342.585 98.1935C338.949 96.1361 335.5 93.6939 332.333 90.9298C332.194 90.8065 332.175 90.5928 332.295 90.449C332.417 90.3079 332.628 90.2901 332.764 90.4106C335.763 93.0282 339.017 95.3554 342.446 97.336C342.563 95.443 342.641 93.5405 342.673 91.6694C342.674 91.4831 342.825 91.3338 343.005 91.3338H343.011C343.195 91.3352 343.34 91.4913 343.338 91.6804C343.304 93.7405 343.215 95.8389 343.077 97.9195C343.071 98.0346 343.004 98.1387 342.904 98.1962C342.854 98.2236 342.801 98.2359 342.745 98.2359Z" fill="#37374F"/>
<path d="M374.011 135.136C373.965 135.136 373.919 135.126 373.874 135.107C373.752 135.051 373.676 134.926 373.679 134.789L374.094 115.314C374.098 115.128 374.246 114.981 374.426 114.981H374.433C374.617 114.986 374.763 115.14 374.758 115.329L374.36 134L384.63 124.274C384.761 124.145 384.973 124.153 385.099 124.294C385.224 124.431 385.215 124.648 385.079 124.775L374.233 135.048C374.173 135.104 374.093 135.136 374.011 135.136Z" fill="#37374F"/>
<path d="M379.85 119.084C379.785 119.084 379.718 119.063 379.661 119.025C379.574 118.963 379.522 118.862 379.518 118.754L378.996 101.099C378.99 100.91 379.133 100.753 379.316 100.747C379.518 100.708 379.651 100.888 379.659 101.077L380.169 118.268L384.225 116.816C384.399 116.754 384.587 116.85 384.648 117.027C384.708 117.205 384.618 117.398 384.443 117.461L379.958 119.066C379.924 119.078 379.888 119.084 379.85 119.084Z" fill="#37374F"/>
<path d="M384.961 105.498H384.96C384.776 105.498 384.628 105.344 384.63 105.155L384.733 84.719C384.733 84.5299 384.883 84.3806 385.066 84.3806H385.067C385.251 84.3806 385.399 84.534 385.397 84.723L385.294 105.16C385.294 105.347 385.143 105.498 384.961 105.498Z" fill="#37374F"/>
<path d="M382.458 167.557H382.438L373.366 167.023C373.277 167.017 373.193 166.975 373.134 166.905C373.075 166.835 373.047 166.743 373.054 166.65L373.68 159.481C373.696 159.295 373.817 159.174 374.042 159.171C374.223 159.189 374.359 159.355 374.343 159.543L373.748 166.36L382.478 166.873C382.659 166.884 382.801 167.046 382.79 167.234C382.78 167.419 382.633 167.557 382.458 167.557Z" fill="#37374F"/>
<path d="M378.91 161.458C378.814 161.458 378.72 161.416 378.656 161.339C378.572 161.236 378.554 161.094 378.61 160.97L381.323 155.085C381.397 154.915 381.595 154.838 381.764 154.923C381.93 155.004 381.999 155.207 381.922 155.376L379.527 160.575L391.227 157.042C391.412 156.987 391.589 157.093 391.641 157.272C391.693 157.453 391.592 157.643 391.417 157.697L379.005 161.443C378.973 161.455 378.942 161.458 378.91 161.458Z" fill="#37374F"/>
<path d="M323.534 161.674C323.445 161.674 323.356 161.639 323.291 161.565C323.166 161.428 323.174 161.212 323.308 161.085C326.019 158.486 332.971 156.87 335.137 156.418L329.147 150.668C329.014 150.539 329.006 150.324 329.131 150.187C329.258 150.046 329.466 150.04 329.6 150.171L336.065 156.377C336.157 156.464 336.194 156.599 336.157 156.723C336.121 156.847 336.021 156.94 335.897 156.962C335.806 156.98 326.78 158.689 323.759 161.585C323.696 161.643 323.616 161.674 323.534 161.674Z" fill="#37374F"/>
<path d="M332.085 166.059C332.001 166.059 331.917 166.027 331.853 165.961C331.721 165.83 331.719 165.614 331.847 165.481C332.049 165.268 336.763 160.385 342.356 159.054L339.082 151.519C339.007 151.346 339.082 151.145 339.25 151.068C339.424 150.996 339.616 151.07 339.69 151.241L343.13 159.159C343.171 159.254 343.169 159.362 343.123 159.455C343.077 159.547 342.991 159.613 342.894 159.633C337.322 160.776 332.373 165.905 332.323 165.956C332.257 166.026 332.17 166.059 332.085 166.059Z" fill="#37374F"/>
<path d="M379.486 195.625H344.81L345.483 223.874H378.813L379.486 195.625Z" fill="#615DA7"/>
<path d="M349.033 199.315H348.304C348.103 199.315 347.938 199.484 347.938 199.69V220.234C347.938 220.441 348.103 220.609 348.304 220.609H349.033C349.235 220.609 349.399 220.441 349.399 220.234V199.69C349.399 199.484 349.233 199.315 349.033 199.315Z" fill="#F0D9D3"/>
<path d="M354.352 199.315H353.623C353.421 199.315 353.257 199.484 353.257 199.69V220.234C353.257 220.441 353.421 220.609 353.623 220.609H354.352C354.553 220.609 354.717 220.441 354.717 220.234V199.69C354.717 199.484 354.552 199.315 354.352 199.315Z" fill="#F0D9D3"/>
<path d="M359.46 199.315H358.732C358.53 199.315 358.366 199.484 358.366 199.69V220.234C358.366 220.441 358.53 220.609 358.732 220.609H359.46C359.662 220.609 359.826 220.441 359.826 220.234V199.69C359.826 199.484 359.662 199.315 359.46 199.315Z" fill="#F0D9D3"/>
<path d="M364.779 199.315H364.05C363.849 199.315 363.685 199.484 363.685 199.69V220.234C363.685 220.441 363.849 220.609 364.05 220.609H364.779C364.981 220.609 365.145 220.441 365.145 220.234V199.69C365.145 199.484 364.981 199.315 364.779 199.315Z" fill="#F0D9D3"/>
<path d="M370.201 199.315H369.472C369.271 199.315 369.106 199.484 369.106 199.69V220.234C369.106 220.441 369.271 220.609 369.472 220.609H370.201C370.403 220.609 370.567 220.441 370.567 220.234V199.69C370.567 199.484 370.403 199.315 370.201 199.315Z" fill="#F0D9D3"/>
<path d="M375.522 199.315H374.793C374.591 199.315 374.427 199.484 374.427 199.69V220.234C374.427 220.441 374.591 220.609 374.793 220.609H375.522C375.724 220.609 375.888 220.441 375.888 220.234V199.69C375.888 199.484 375.724 199.315 375.522 199.315Z" fill="#F0D9D3"/>
<path d="M288.258 77.8755C288.21 77.8755 288.158 77.8632 288.113 77.8399L284.983 76.151L281.854 77.8399C281.745 77.8947 281.618 77.8865 281.526 77.8153C281.428 77.7441 281.381 77.6235 281.402 77.503L281.997 73.9266L279.467 71.394C279.382 71.309 279.351 71.183 279.387 71.0666C279.423 70.9502 279.52 70.8666 279.641 70.8488L283.14 70.3269L284.704 67.0738C284.811 66.8546 285.157 66.8546 285.264 67.0738L286.829 70.3269L290.328 70.8488C290.447 70.8666 290.544 70.9502 290.581 71.0666C290.617 71.183 290.587 71.309 290.501 71.394L287.971 73.9266L288.567 77.503C288.587 77.6221 288.54 77.7441 288.443 77.8153C288.387 77.855 288.324 77.8755 288.258 77.8755ZM284.983 75.4703C285.032 75.4703 285.084 75.4826 285.129 75.5059L287.845 76.9715L287.327 73.8691C287.309 73.765 287.341 73.6595 287.416 73.5869L289.613 71.3885L286.578 70.9351C286.475 70.92 286.388 70.8556 286.341 70.7598L284.983 67.9367L283.626 70.7598C283.579 70.8543 283.492 70.92 283.389 70.9351L280.354 71.3885L282.551 73.5869C282.626 73.6595 282.658 73.765 282.64 73.8691L282.122 76.9715L284.838 75.5059C284.883 75.4826 284.935 75.4703 284.983 75.4703Z" fill="#3C251D"/>
<path d="M244.466 17.5464C244.269 17.5464 244.102 17.393 244.08 17.1917C243.673 13.2975 241.693 10.0964 239.154 9.22802C238.996 9.17323 238.89 9.02119 238.89 8.85134C238.89 8.68013 238.995 8.52808 239.154 8.47467C241.693 7.60488 243.675 4.40518 244.08 0.511012C244.102 0.30966 244.267 0.15625 244.466 0.15625C244.664 0.15625 244.831 0.30966 244.852 0.511012C245.259 4.40518 247.239 7.60625 249.778 8.47467C249.937 8.52945 250.043 8.6815 250.043 8.85134C250.043 9.02256 249.936 9.1746 249.778 9.22802C247.239 10.0964 245.258 13.2975 244.852 17.1917C244.831 17.393 244.664 17.5464 244.466 17.5464ZM240.258 8.85134C242.213 9.90467 243.739 12.1332 244.468 14.9576C245.196 12.1332 246.721 9.90467 248.677 8.85134C246.722 7.79801 245.196 5.56808 244.468 2.74505C243.737 5.56808 242.213 7.79665 240.258 8.85134Z" fill="white"/>
<path d="M208.105 41.0454H199.738C199.578 41.0454 199.447 40.9111 199.447 40.7468V32.1626C199.447 31.9982 199.577 31.864 199.738 31.864H208.105C208.265 31.864 208.396 31.9969 208.396 32.1626V40.7468C208.396 40.9125 208.267 41.0454 208.105 41.0454ZM200.029 40.4482H207.814V32.4612H200.029V40.4482Z" fill="white"/>
<path d="M203.315 39.1385C203.235 39.1385 203.157 39.1042 203.102 39.044L200.814 36.5497C200.703 36.4291 200.71 36.2401 200.826 36.1278C200.944 36.0141 201.127 36.021 201.237 36.1401L203.289 38.3769L207.014 33.3034C207.113 33.1705 207.295 33.1459 207.421 33.2445C207.55 33.3431 207.575 33.5308 207.479 33.6623L203.546 39.0179C203.494 39.0892 203.415 39.1316 203.329 39.1357L203.315 39.1385Z" fill="white"/>
<path d="M393.334 191.717H384.967C384.807 191.717 384.676 191.583 384.676 191.418V182.834C384.676 182.67 384.807 182.536 384.967 182.536H393.334C393.496 182.536 393.625 182.669 393.625 182.834V191.418C393.625 191.583 393.494 191.717 393.334 191.717ZM385.258 191.12H393.043V183.133H385.258V191.12Z" fill="white"/>
<path d="M388.543 189.809C388.463 189.809 388.385 189.775 388.33 189.714L386.042 187.22C385.931 187.1 385.938 186.911 386.054 186.798C386.172 186.685 386.355 186.691 386.465 186.811L388.517 189.047L392.242 183.974C392.341 183.841 392.523 183.816 392.649 183.915C392.778 184.014 392.803 184.201 392.707 184.333L388.774 189.688C388.722 189.76 388.643 189.802 388.557 189.806L388.543 189.809Z" fill="white"/>
<path d="M26.4704 94.6262H18.1035C17.9433 94.6262 17.8125 94.4933 17.8125 94.3276V85.7434C17.8125 85.5791 17.9433 85.4448 18.1035 85.4448H26.4704C26.6306 85.4448 26.7614 85.5777 26.7614 85.7434V94.3276C26.7614 94.4919 26.6306 94.6262 26.4704 94.6262ZM18.3946 94.029H26.1793V86.042H18.3946V94.029Z" fill="#3C251D"/>
<path d="M21.6794 92.7178C21.5993 92.7178 21.5219 92.6836 21.4672 92.6233L19.1789 90.129C19.068 90.0085 19.0747 89.8195 19.1909 89.7071C19.3084 89.5934 19.4913 89.6003 19.6021 89.7195L21.6541 91.9563L25.3789 86.8827C25.4777 86.7499 25.6592 86.7252 25.7861 86.8238C25.9142 86.9225 25.9396 87.1101 25.8435 87.2416L21.9104 92.5973C21.8583 92.6685 21.7796 92.711 21.6941 92.7151L21.6794 92.7178Z" fill="#3C251D"/>
<path d="M29.6577 141.076C28.1037 140.643 24.4603 140.494 22.0518 140.442C21.9397 140.279 21.8315 140.128 21.7274 139.991C21.1921 139.285 20.5259 138.37 19.8076 137.319L27.2733 136.342L18.1601 134.779C14.8599 129.411 11.6651 122.294 15.1349 119.023C17.7943 116.516 22.22 118.259 26.527 122.187L26.7926 132.286L29.408 125.162C31.2824 127.332 33.0434 129.849 34.524 132.531L33.1702 139.794L35.7335 134.894C35.7763 134.984 35.8216 135.075 35.8644 135.167C36.1688 135.824 36.4518 136.484 36.7175 137.146L33.6775 145.878L37.8643 140.362C38.3049 141.769 38.6653 143.162 38.9524 144.518L35.6414 151.414L39.4811 147.537C40.3622 153.921 39.5385 158.906 37.8523 159.507C32.7043 161.345 26.5323 147.844 22.9263 141.824C25.7459 141.388 29.6577 141.076 29.6577 141.076Z" fill="#7CA594"/>
<path d="M39.5883 198.064H39.5803C39.4374 198.06 39.3253 197.938 39.3306 197.791C39.336 197.587 39.8914 177.125 36.6111 159.569C33.3362 142.046 18.3555 122.691 18.2046 122.498C18.1152 122.384 18.1339 122.217 18.2447 122.125C18.3555 122.035 18.5184 122.053 18.6078 122.167C18.76 122.361 33.8195 141.818 37.1184 159.469C40.4107 177.083 39.854 197.602 39.8473 197.806C39.842 197.95 39.7271 198.064 39.5883 198.064Z" fill="#242433"/>
<path d="M47.4753 154.872L44.0923 152.02C43.9815 151.117 43.888 150.172 43.8119 149.196L48.7276 151.809L43.653 146.496C43.5222 143.344 43.5676 139.972 43.8066 136.638L51.1788 141.58L44.2712 131.997C44.7999 127.95 45.6423 124.164 46.8318 121.157L51.6193 125.55C50.9785 121.254 50.3537 118.272 49.813 116.206C50.9665 115.058 52.2922 114.439 53.8022 114.529C58.8287 114.83 60.6991 122.238 60.4561 131.107C58.5617 134.196 55.4657 139.125 54.5124 139.946L60.0222 136.928C58.5884 148.986 53.925 161.486 48.3378 161.881C46.7197 161.994 45.4661 159.458 44.653 155.509L47.4753 154.872Z" fill="#7CA594"/>
<path d="M43.6635 200.481C43.5327 200.481 43.4205 200.38 43.4072 200.243C42.2604 188.497 43.6061 182.446 45.8343 172.418C46.5099 169.377 47.2762 165.928 48.0866 161.828C51.5604 144.255 53.5897 119.784 53.6097 119.539C53.6217 119.394 53.7472 119.286 53.8887 119.298C54.0303 119.31 54.1357 119.439 54.1237 119.584C54.1037 119.83 52.0704 144.329 48.5912 161.934C47.7795 166.04 47.0132 169.491 46.3363 172.536C44.044 182.85 42.7824 188.531 43.9198 200.189C43.9345 200.334 43.8304 200.465 43.6889 200.48L43.6635 200.481Z" fill="#242433"/>
<path d="M62.3645 159.61C62.2924 161.77 62.2003 165.867 62.2003 165.867L67.2561 158.646C75.4761 158.284 83.1888 162.085 82.7816 167.592L73.0236 164.265L79.9873 171.104C77.8792 171.784 73.9728 172.28 66.6714 172.228C66.4444 172.227 66.2295 172.232 66.0092 172.235L60.486 168.007L63.6488 172.356C62.2683 172.483 61.0508 172.701 59.9761 172.976L55.8641 169.924L58.426 173.436C52.9723 175.302 51.8215 178.396 50.1927 175.628C48.2382 172.31 54.4302 162.655 62.3645 159.61Z" fill="#7CA594"/>
<path d="M44.4998 200.338L44.4785 200.337C44.3356 200.324 44.2301 200.197 44.2421 200.052C44.2542 199.898 45.5278 184.576 50.3474 175.302C55.2003 165.963 66.4135 164.836 72.4373 164.229L72.6763 164.206C72.8165 164.182 72.9446 164.297 72.958 164.443C72.9713 164.588 72.8685 164.718 72.7257 164.732L72.4867 164.756C66.559 165.352 55.5247 166.462 50.8013 175.551C46.0311 184.73 44.7668 199.943 44.7548 200.096C44.7455 200.232 44.6333 200.338 44.4998 200.338Z" fill="#242433"/>
<path d="M21.2226 159.61C21.2947 161.77 21.3868 165.867 21.3868 165.867L16.3309 158.646C8.11093 158.284 0.398283 162.085 0.805476 167.592L10.5634 164.265L3.59976 171.104C5.70782 171.784 9.61421 172.28 16.9157 172.228C17.1426 172.227 17.3576 172.232 17.5778 172.235L23.101 168.007L19.9382 172.356C21.3187 172.483 22.5363 172.701 23.611 172.976L27.723 169.924L25.161 173.436C30.6147 175.302 31.7655 178.396 33.3943 175.628C35.3502 172.31 29.1568 162.655 21.2226 159.61Z" fill="#7CA594"/>
<path d="M39.0866 200.338C38.9531 200.338 38.841 200.234 38.8303 200.095C38.8183 199.943 37.554 184.73 32.7838 175.551C28.0617 166.461 17.0274 165.352 11.0984 164.756L10.8594 164.731C10.7179 164.718 10.6138 164.588 10.6271 164.442C10.6405 164.296 10.7673 164.181 10.9088 164.205L11.1478 164.229C17.1716 164.834 28.3861 165.963 33.2377 175.302C38.0573 184.578 39.3309 199.898 39.343 200.052C39.355 200.197 39.2495 200.325 39.1066 200.336L39.0866 200.338Z" fill="#242433"/>
<path d="M52.6616 190.56L51.671 187.263C52.0568 186.692 52.4894 186.126 52.9607 185.585L54.7056 188.942L53.8925 184.602C56.0206 182.55 58.7201 181.164 61.4009 181.929L57.7869 187.752L64.2766 183.68C64.4222 183.821 64.5677 183.969 64.7105 184.128C72.2163 192.415 52.1957 194.713 50.1984 193.327C49.2385 192.661 49.7712 190.379 51.1877 188.012L52.6616 190.56Z" fill="#7CA594"/>
<path d="M46.7747 201.587C46.6478 201.587 46.537 201.491 46.5197 201.358C45.9175 196.889 48.1538 194.197 49.2272 192.904C50.4381 191.447 57.0693 188.439 57.351 188.312C57.4805 188.251 57.634 188.313 57.6915 188.447C57.7489 188.582 57.6901 188.738 57.5593 188.797C57.4912 188.827 50.7558 191.883 49.6197 193.248C48.5943 194.484 46.4596 197.052 47.0297 201.286C47.0497 201.431 46.9509 201.564 46.8094 201.584L46.7747 201.587Z" fill="#242433"/>
<path d="M56.3235 195.099H31.3926V201.289C31.3926 208.312 33.3124 215.193 36.9331 221.153H50.7843C54.405 215.193 56.3248 208.312 56.3248 201.289V195.099H56.3235Z" fill="#E17660"/>
<path d="M52.3257 223.519H35.3891C34.321 223.519 33.4546 222.63 33.4546 221.534V220.322H54.2602V221.534C54.2602 222.631 53.3937 223.519 52.3257 223.519Z" fill="#E17660"/>
<path d="M54.2398 213.74C51.0303 214.429 47.4497 214.853 44.299 213.626C43.3444 213.256 42.4419 212.74 41.4846 212.196C40.8465 211.833 40.2083 211.472 39.5501 211.147C37.2765 210.031 34.776 209.45 32.2554 209.35C32.4223 210.129 32.6078 210.905 32.8228 211.672C34.8174 211.83 36.7812 212.335 38.5822 213.219C39.2004 213.522 39.7998 213.863 40.3979 214.206C41.3818 214.766 42.3992 215.345 43.5073 215.775C45.2428 216.451 47.0492 216.704 48.8475 216.704C50.3495 216.704 51.838 216.518 53.2772 216.26C53.6297 215.431 53.9488 214.59 54.2398 213.74Z" fill="#F8E6C7"/>
<path d="M31.3926 201.286C31.3926 201.637 31.4193 201.983 31.4286 202.333C32.5447 202.175 33.6942 202.079 34.8397 202.011C36.5152 201.915 38.411 201.8 39.9904 202.403C40.8381 202.73 41.6245 203.266 42.4602 203.835C43.1024 204.272 43.7446 204.709 44.4308 205.071C47.5054 206.686 51.3344 206.82 56.0752 205.474C56.1646 204.659 56.2287 203.839 56.2661 203.018C51.7269 204.442 48.1703 204.456 45.4521 203.029C44.842 202.705 44.2692 202.314 43.6978 201.923C42.798 201.31 41.8648 200.673 40.7781 200.255C38.7528 199.474 36.606 199.604 34.7089 199.719C33.6021 199.785 32.4887 199.871 31.3939 200.014V201.286H31.3926Z" fill="#F8E6C7"/>
<path d="M318.859 26.427H311.58H310.858H302.394L297.824 32.1347L311.67 48.5099L323.414 32.1155L318.859 26.427ZM305.969 31.7484H299.091L302.488 27.5036L305.969 31.7484ZM311.268 27.1872L315.611 31.7484H307.388L311.198 27.1872H311.268ZM316.014 32.5086L311.615 46.7443L307.216 32.5086H316.014ZM306.438 32.5086L310.652 46.1485L299.12 32.5086H306.438ZM316.791 32.5086H322.213L312.678 45.8198L316.791 32.5086ZM316.93 31.7484L318.778 27.5228L322.161 31.7484H316.93ZM318.111 27.1872L316.284 31.3676L312.304 27.1872H318.111ZM306.677 31.4306L303.199 27.1872H310.222L306.677 31.4306Z" fill="white"/>
<path d="M135.529 215.379L153.297 170.734H104.235L83.0542 223.954H87.8097H132.116H177.665C177.665 219.219 173.922 215.379 169.307 215.379H135.529Z" fill="#7F7877"/>
<path d="M95.6743 192.244H144.736L153.297 170.734H104.235L95.6743 192.244Z" fill="#3C251D"/>
<path d="M193.711 63.2605H53.4628C49.0277 63.2605 45.5913 67.0876 46.1227 71.4337L58.715 174.509C59.1635 178.176 62.3143 180.935 66.0564 180.935H206.305C210.74 180.935 214.176 177.108 213.646 172.761L201.054 69.6859C200.604 66.0178 197.452 63.2605 193.711 63.2605Z" fill="#7F7877"/>
<path d="M65.1976 174.508L52.6053 71.4325C52.074 67.0863 55.5118 63.2593 59.9468 63.2593H53.4624C49.0274 63.2593 45.5909 67.0863 46.1209 71.4325L58.7132 174.508C59.1618 178.175 62.3125 180.933 66.0534 180.933H72.5378C68.7969 180.933 65.6462 178.175 65.1976 174.508Z" fill="#3C251D"/>
<path d="M71.3105 173.841H209.313L195.826 67.4014H57.8237L71.3105 173.841Z" fill="white"/>
<path d="M174.279 118.385H196.045L193.918 101.597H172.152L174.279 118.385Z" fill="#A6BFD5"/>
<path d="M135.529 215.542H100.561C100.322 215.542 100.129 215.344 100.129 215.099C100.129 214.853 100.322 214.655 100.561 214.655H135.529C135.768 214.655 135.962 214.853 135.962 215.099C135.961 215.344 135.768 215.542 135.529 215.542Z" fill="#CCB8C6"/>
<path d="M210.689 81.2489H72.4008L57.6577 67.3337H195.946L210.689 81.2489Z" fill="#F2F2F2"/>
<path d="M88.1265 67.23L102.87 81.1465H72.4008L57.6577 67.23H88.1265Z" fill="#E17660"/>
<path d="M142.38 67.2302L157.123 81.1468H126.654L111.911 67.2302H142.38Z" fill="#E17660"/>
<path d="M196.191 67.2302L210.934 81.1468H180.465L165.722 67.2302H196.191Z" fill="#E17660"/>
<path d="M78.348 95.0142H96.9667C100.252 95.0142 102.917 92.2815 102.917 88.9092V81.136H72.3989V88.9092C72.3989 92.2815 75.0624 95.0142 78.348 95.0142Z" fill="#D14431"/>
<path d="M132.603 95.0142H151.222C154.507 95.0142 157.172 92.2815 157.172 88.9092V81.136H126.654V88.9092C126.654 92.2815 129.317 95.0142 132.603 95.0142Z" fill="#D14431"/>
<path d="M186.415 95.0142H205.034C208.32 95.0142 210.984 92.2815 210.984 88.9092V81.136H180.466V88.9092C180.465 92.2815 183.128 95.0142 186.415 95.0142Z" fill="#D14431"/>
<path d="M162.974 95.0142H174.663C177.948 95.0142 180.613 92.2815 180.613 88.9092V81.136H157.024V88.9092C157.024 92.2815 159.687 95.0142 162.974 95.0142Z" fill="#DED8D8"/>
<path d="M108.794 95.0142H120.851C124.136 95.0142 126.801 92.2815 126.801 88.9092V81.136H102.843V88.9092C102.843 92.2815 105.508 95.0142 108.794 95.0142Z" fill="#DED8D8"/>
<path d="M169.304 103.644H139.524C138.912 103.644 138.417 103.136 138.417 102.508C138.417 101.881 138.912 101.373 139.524 101.373H169.304C169.915 101.373 170.41 101.881 170.41 102.508C170.41 103.136 169.916 103.644 169.304 103.644Z" fill="#D3DFEB"/>
<path d="M169.379 109.493H156.541C155.93 109.493 155.435 108.985 155.435 108.357C155.435 107.73 155.93 107.222 156.541 107.222H169.379C169.991 107.222 170.486 107.73 170.486 108.357C170.486 108.985 169.991 109.493 169.379 109.493Z" fill="#D3DFEB"/>
<path d="M153.123 109.414H144.764C144.153 109.414 143.657 108.905 143.657 108.278C143.657 107.651 144.153 107.143 144.764 107.143H153.123C153.734 107.143 154.23 107.651 154.23 108.278C154.23 108.905 153.734 109.414 153.123 109.414Z" fill="#D3DFEB"/>
<path d="M151.594 112.876H162.476C163.473 112.876 164.29 113.713 164.29 114.737V115.536C164.29 116.559 163.474 117.397 162.476 117.397H151.594C150.596 117.397 149.779 116.56 149.779 115.536V114.737C149.779 113.714 150.596 112.876 151.594 112.876Z" fill="#7CA594"/>
<path d="M111.326 118.385H133.091L130.965 101.597H109.199L111.326 118.385Z" fill="#A6BFD5"/>
<path d="M106.351 103.644H76.5711C75.9597 103.644 75.4644 103.136 75.4644 102.508C75.4644 101.881 75.9597 101.373 76.5711 101.373H106.351C106.962 101.373 107.458 101.881 107.458 102.508C107.458 103.136 106.962 103.644 106.351 103.644Z" fill="#D3DFEB"/>
<path d="M106.425 109.493H93.5872C92.9758 109.493 92.4805 108.985 92.4805 108.357C92.4805 107.73 92.9758 107.222 93.5872 107.222H106.425C107.037 107.222 107.532 107.73 107.532 108.357C107.532 108.985 107.038 109.493 106.425 109.493Z" fill="#D3DFEB"/>
<path d="M90.1709 109.414H81.8148C81.2033 109.414 80.708 108.905 80.708 108.278C80.708 107.651 81.2033 107.143 81.8148 107.143H90.1709C90.7824 107.143 91.2777 107.651 91.2777 108.278C91.2777 108.905 90.7824 109.414 90.1709 109.414Z" fill="#D3DFEB"/>
<path d="M88.641 112.876H99.5231C100.52 112.876 101.337 113.713 101.337 114.737V115.536C101.337 116.559 100.522 117.397 99.5231 117.397H88.641C87.6437 117.397 86.8267 116.56 86.8267 115.536V114.737C86.8267 113.714 87.6437 112.876 88.641 112.876Z" fill="#7CA594"/>
<path d="M114.866 142.89H136.631L134.503 126.104H112.738L114.866 142.89Z" fill="#A6BFD5"/>
<path d="M109.891 128.149H80.1112C79.4997 128.149 79.0044 127.641 79.0044 127.013C79.0044 126.386 79.4997 125.878 80.1112 125.878H109.891C110.502 125.878 110.998 126.386 110.998 127.013C110.998 127.641 110.502 128.149 109.891 128.149Z" fill="#D3DFEB"/>
<path d="M109.966 133.993H97.1278C96.5163 133.993 96.021 133.485 96.021 132.858C96.021 132.231 96.5163 131.722 97.1278 131.722H109.966C110.577 131.722 111.072 132.231 111.072 132.858C111.072 133.485 110.579 133.993 109.966 133.993Z" fill="#D3DFEB"/>
<path d="M93.7083 133.915H85.3494C84.738 133.915 84.2427 133.407 84.2427 132.78C84.2427 132.152 84.738 131.644 85.3494 131.644H93.7083C94.3197 131.644 94.815 132.152 94.815 132.78C94.815 133.407 94.3197 133.915 93.7083 133.915Z" fill="#D3DFEB"/>
<path d="M92.1786 137.378H103.061C104.058 137.378 104.875 138.215 104.875 139.24V140.038C104.875 141.061 104.059 141.9 103.061 141.9H92.1786C91.1813 141.9 90.3643 141.063 90.3643 140.038V139.24C90.3643 138.215 91.1813 137.378 92.1786 137.378Z" fill="#7CA594"/>
<path d="M176.933 144.1H198.699L196.572 127.313H174.807L176.933 144.1Z" fill="#A6BFD5"/>
<path d="M171.956 129.36H142.176C141.565 129.36 141.069 128.852 141.069 128.225C141.069 127.597 141.565 127.089 142.176 127.089H171.956C172.567 127.089 173.063 127.597 173.063 128.225C173.063 128.852 172.569 129.36 171.956 129.36Z" fill="#D3DFEB"/>
<path d="M172.034 135.204H159.194C158.582 135.204 158.087 134.696 158.087 134.068C158.087 133.441 158.582 132.933 159.194 132.933H172.034C172.646 132.933 173.141 133.441 173.141 134.068C173.141 134.696 172.646 135.204 172.034 135.204Z" fill="#D3DFEB"/>
<path d="M155.776 135.128H147.42C146.809 135.128 146.313 134.62 146.313 133.992C146.313 133.365 146.809 132.857 147.42 132.857H155.776C156.388 132.857 156.883 133.365 156.883 133.992C156.883 134.62 156.388 135.128 155.776 135.128Z" fill="#D3DFEB"/>
<path d="M154.248 138.59H165.13C166.127 138.59 166.944 139.427 166.944 140.451V141.25C166.944 142.273 166.129 143.111 165.13 143.111H154.248C153.251 143.111 152.434 142.274 152.434 141.25V140.451C152.434 139.428 153.249 138.59 154.248 138.59Z" fill="#7CA594"/>
<path d="M180.177 168.606H201.943L199.815 151.818H178.05L180.177 168.606Z" fill="#A6BFD5"/>
<path d="M175.201 153.864H145.421C144.81 153.864 144.314 153.355 144.314 152.728C144.314 152.101 144.81 151.593 145.421 151.593H175.201C175.813 151.593 176.308 152.101 176.308 152.728C176.308 153.355 175.813 153.864 175.201 153.864Z" fill="#D3DFEB"/>
<path d="M175.277 159.71H162.436C161.825 159.71 161.33 159.201 161.33 158.574C161.33 157.947 161.825 157.438 162.436 157.438H175.277C175.888 157.438 176.384 157.947 176.384 158.574C176.384 159.201 175.888 159.71 175.277 159.71Z" fill="#D3DFEB"/>
<path d="M159.019 159.632H150.663C150.051 159.632 149.556 159.123 149.556 158.496C149.556 157.869 150.051 157.361 150.663 157.361H159.019C159.631 157.361 160.126 157.869 160.126 158.496C160.126 159.123 159.631 159.632 159.019 159.632Z" fill="#D3DFEB"/>
<path d="M157.491 163.093H168.373C169.37 163.093 170.188 163.93 170.188 164.955V165.753C170.188 166.776 169.372 167.615 168.373 167.615H157.491C156.494 167.615 155.677 166.778 155.677 165.753V164.955C155.677 163.93 156.494 163.093 157.491 163.093Z" fill="#7CA594"/>
<path d="M118.404 168.606H140.17L138.043 151.818H116.277L118.404 168.606Z" fill="#A6BFD5"/>
<path d="M113.429 153.864H83.6463C83.0349 153.864 82.5396 153.355 82.5396 152.728C82.5396 152.101 83.0349 151.593 83.6463 151.593H113.428C114.039 151.593 114.534 152.101 114.534 152.728C114.534 153.355 114.04 153.864 113.429 153.864Z" fill="#D3DFEB"/>
<path d="M113.503 159.71H100.662C100.051 159.71 99.5557 159.201 99.5557 158.574C99.5557 157.947 100.051 157.438 100.662 157.438H113.503C114.115 157.438 114.61 157.947 114.61 158.574C114.61 159.201 114.115 159.71 113.503 159.71Z" fill="#D3DFEB"/>
<path d="M97.2461 159.632H88.89C88.2785 159.632 87.7832 159.123 87.7832 158.496C87.7832 157.869 88.2785 157.361 88.89 157.361H97.2461C97.8576 157.361 98.3529 157.869 98.3529 158.496C98.3529 159.123 97.8589 159.632 97.2461 159.632Z" fill="#D3DFEB"/>
<path d="M95.7172 163.093H106.599C107.597 163.093 108.414 163.93 108.414 164.955V165.753C108.414 166.776 107.598 167.615 106.599 167.615H95.7172C94.7199 167.615 93.9028 166.778 93.9028 165.753V164.955C93.9042 163.93 94.7199 163.093 95.7172 163.093Z" fill="#7CA594"/>
<path d="M84.4805 51.028H74.4248C74.2753 51.028 74.1351 50.9458 74.059 50.8116L69.0311 41.8768C68.9577 41.7439 68.9577 41.5782 69.0311 41.4439L74.059 32.5091C74.1351 32.3763 74.2739 32.2927 74.4248 32.2927H84.4805C84.63 32.2927 84.7702 32.3749 84.8463 32.5091L89.8741 41.4439C89.9475 41.5768 89.9475 41.7425 89.8741 41.8768L84.8463 50.8116C84.7688 50.9444 84.63 51.028 84.4805 51.028ZM74.6678 50.1623H84.2375L89.021 41.6604L84.2375 33.1584H74.6678L69.8843 41.6604L74.6678 50.1623Z" fill="white"/>
<path d="M82.1709 46.922H76.7359C76.5863 46.922 76.4462 46.8398 76.3701 46.7056L73.6532 41.8772C73.5798 41.7444 73.5798 41.5786 73.6532 41.4444L76.3701 36.6161C76.4462 36.4832 76.585 36.3997 76.7359 36.3997H82.1709C82.3204 36.3997 82.4606 36.4818 82.5367 36.6161L85.2536 41.4444C85.327 41.5773 85.327 41.743 85.2536 41.8772L82.5367 46.7056C82.4606 46.8398 82.3204 46.922 82.1709 46.922ZM76.9788 46.0577H81.9266L84.4005 41.6608L81.9266 37.264H76.9788L74.505 41.6608L76.9788 46.0577Z" fill="white"/>
<path d="M82.1705 37.2643C82.097 37.2643 82.0223 37.2437 81.9555 37.204C81.7553 37.0821 81.6912 36.815 81.8087 36.6109L84.129 32.6167C84.2478 32.4113 84.5081 32.3469 84.7071 32.4661C84.9073 32.588 84.9714 32.8537 84.8539 33.0592L82.5336 37.0533C82.4535 37.1889 82.3133 37.2643 82.1705 37.2643Z" fill="white"/>
<path d="M76.7343 37.2648C76.5901 37.2648 76.45 37.1895 76.3712 37.0498L74.1924 33.2337C74.0749 33.0282 74.143 32.7639 74.3432 32.6433C74.5408 32.5214 74.7985 32.5899 74.9186 32.7981L77.0975 36.6142C77.215 36.8197 77.1469 37.084 76.9466 37.2046C76.8798 37.247 76.8064 37.2648 76.7343 37.2648Z" fill="white"/>
<path d="M74.0181 42.0942H69.3975C69.1652 42.0942 68.9756 41.8997 68.9756 41.6614C68.9756 41.423 69.1652 41.2285 69.3975 41.2285H74.0181C74.2504 41.2285 74.44 41.423 74.44 41.6614C74.44 41.8997 74.2491 42.0942 74.0181 42.0942Z" fill="white"/>
<path d="M89.3356 42.0942H84.8872C84.6549 42.0942 84.4653 41.8997 84.4653 41.6614C84.4653 41.423 84.6549 41.2285 84.8872 41.2285H89.3356C89.5679 41.2285 89.7575 41.423 89.7575 41.6614C89.7575 41.8997 89.5679 42.0942 89.3356 42.0942Z" fill="white"/>
<path d="M84.481 51.0271C84.3368 51.0271 84.1953 50.949 84.1152 50.8107L81.8042 46.7042C81.6894 46.4987 81.7575 46.233 81.9591 46.1138C82.1553 45.996 82.4143 46.0645 82.5345 46.2727L84.8455 50.3792C84.9603 50.5847 84.8922 50.8504 84.6906 50.9696C84.6252 51.0079 84.5531 51.0271 84.481 51.0271Z" fill="white"/>
<path d="M74.4857 50.8826C74.4136 50.8826 74.3415 50.8635 74.2734 50.8237C74.0732 50.7032 74.0051 50.4388 74.1225 50.2334L76.3721 46.2721C76.4869 46.0666 76.7446 45.9954 76.9475 46.1173C77.1478 46.2379 77.2159 46.5022 77.0984 46.7077L74.8488 50.669C74.7714 50.8046 74.6299 50.8826 74.4857 50.8826Z" fill="white"/>
<path d="M282.902 120.595H190.115C189.694 120.595 189.354 120.944 189.354 121.375V191.214C189.354 191.646 189.694 191.995 190.115 191.995H282.902C283.322 191.995 283.663 191.646 283.663 191.214V121.375C283.664 120.944 283.322 120.595 282.902 120.595Z" fill="#F0D9D3"/>
<path d="M278.298 194.001H194.716C190.677 194.001 187.399 190.63 187.399 186.494V126.101C187.399 121.964 190.677 118.593 194.716 118.593H278.298C282.338 118.593 285.615 121.964 285.615 126.101V186.494C285.615 190.632 282.338 194.001 278.298 194.001ZM194.716 122.598C192.826 122.598 191.301 124.171 191.301 126.102V186.495C191.301 188.426 192.826 189.999 194.716 189.999H278.298C280.188 189.999 281.713 188.426 281.713 186.495V126.102C281.713 124.171 280.188 122.598 278.298 122.598H194.716Z" fill="#D14431"/>
<g opacity="0.72">
<path d="M269.397 127.962H202.492C198.365 127.962 195.02 131.394 195.02 135.628V178.991C195.02 183.225 198.365 186.658 202.492 186.658H269.397C273.524 186.658 276.869 183.225 276.869 178.991V135.628C276.869 131.394 273.524 127.962 269.397 127.962Z" fill="#F0D9D3"/>
</g>
<path d="M281.377 180.125H191.156C190.856 180.125 190.611 180.375 190.611 180.683V198.575C190.611 198.839 190.82 199.053 191.077 199.053H281.456C281.713 199.053 281.921 198.839 281.921 198.575V180.683C281.921 180.375 281.677 180.125 281.377 180.125Z" fill="#E8E8E8"/>
<path d="M279.767 193.104H192.978C190.512 193.104 188.513 195.155 188.513 197.685V219.598C188.513 222.413 190.737 224.695 193.481 224.695H279.263C282.006 224.695 284.23 222.413 284.23 219.598V197.685C284.23 195.155 282.232 193.104 279.767 193.104Z" fill="#E17660"/>
<mask id="mask0_157_48984" style="mask-type:luminance" maskUnits="userSpaceOnUse" x="243" y="110" width="8" height="8">
<path d="M244.893 117.711L250.559 114.675L249.914 111.928L245.872 110.047L243.192 111.245L244.893 117.711Z" fill="white"/>
</mask>
<g mask="url(#mask0_157_48984)">
<path d="M244.911 117.705L250.577 114.67L249.931 111.922L245.889 110.04L243.21 111.24L244.911 117.705Z" fill="#615DA7"/>
</g>
<mask id="mask1_157_48984" style="mask-type:luminance" maskUnits="userSpaceOnUse" x="243" y="110" width="8" height="8">
<path d="M244.893 117.711L250.559 114.675L249.914 111.928L245.872 110.047L243.192 111.245L244.893 117.711Z" fill="white"/>
</mask>
<g mask="url(#mask1_157_48984)">
<g opacity="0.24">
<path d="M250.578 114.672L243.117 111.199L244.691 118.263L250.632 114.696L250.578 114.672Z" fill="black"/>
</g>
</g>
<mask id="mask2_157_48984" style="mask-type:luminance" maskUnits="userSpaceOnUse" x="243" y="110" width="8" height="8">
<path d="M244.893 117.711L250.559 114.675L249.914 111.928L245.872 110.047L243.192 111.245L244.893 117.711Z" fill="white"/>
</mask>
<g mask="url(#mask2_157_48984)">
<g opacity="0.24">
<path d="M244.912 117.707L248.177 113.566L250.795 114.785L244.912 117.707Z" fill="black"/>
</g>
</g>
<mask id="mask3_157_48984" style="mask-type:luminance" maskUnits="userSpaceOnUse" x="243" y="110" width="8" height="8">
<path d="M244.893 117.711L250.559 114.675L249.914 111.928L245.872 110.047L243.192 111.245L244.893 117.711Z" fill="white"/>
</mask>
<g mask="url(#mask3_157_48984)">
<path d="M244.907 117.704L245.792 112.457L243.172 111.238L244.907 117.704Z" fill="#615DA7"/>
</g>
<mask id="mask4_157_48984" style="mask-type:luminance" maskUnits="userSpaceOnUse" x="243" y="110" width="8" height="8">
<path d="M244.893 117.711L250.559 114.675L249.914 111.928L245.872 110.047L243.192 111.245L244.893 117.711Z" fill="white"/>
</mask>
<g mask="url(#mask4_157_48984)">
<g opacity="0.09">
<path d="M248.177 113.566L249.933 111.922L250.632 114.695C250.632 114.696 248.185 113.589 248.177 113.566Z" fill="black"/>
</g>
</g>
<mask id="mask5_157_48984" style="mask-type:luminance" maskUnits="userSpaceOnUse" x="243" y="110" width="8" height="8">
<path d="M244.893 117.711L250.559 114.675L249.914 111.928L245.872 110.047L243.192 111.245L244.893 117.711Z" fill="white"/>
</mask>
<g mask="url(#mask5_157_48984)">
<g opacity="0.24">
<path d="M245.79 112.451L245.886 110.026L243.126 111.212C243.126 111.212 245.769 112.459 245.79 112.451Z" fill="black"/>
</g>
</g>
<mask id="mask6_157_48984" style="mask-type:luminance" maskUnits="userSpaceOnUse" x="243" y="110" width="8" height="8">
<path d="M244.893 117.711L250.559 114.675L249.914 111.928L245.872 110.047L243.192 111.245L244.893 117.711Z" fill="white"/>
</mask>
<g mask="url(#mask6_157_48984)">
<path d="M248.177 113.566L247.853 110.802L245.79 112.451L248.177 113.566Z" fill="white"/>
</g>
<path d="M247.21 117.769L249 116.641L250.222 114.931L248.401 116.362L246.167 117.443L247.21 117.769Z" fill="#EEBE80"/>
<path d="M243.355 115.974L243.003 113.849L243.453 111.78L243.603 114.127L244.282 116.564L243.355 115.974Z" fill="#EEBE80"/>
<path d="M245.721 116.931L246.688 113.287L244.658 116.53L245.721 116.931Z" fill="#EEBE80"/>
<mask id="mask7_157_48984" style="mask-type:luminance" maskUnits="userSpaceOnUse" x="217" y="111" width="8" height="8">
<path d="M223.36 118.601L217.474 116.042L217.902 113.251L221.785 111.042L224.549 112.017L223.36 118.601Z" fill="white"/>
</mask>
<g mask="url(#mask7_157_48984)">
<path d="M223.341 118.599L217.455 116.04L217.884 113.248L221.766 111.04L224.53 112.014L223.341 118.599Z" fill="#615DA7"/>
</g>
<mask id="mask8_157_48984" style="mask-type:luminance" maskUnits="userSpaceOnUse" x="217" y="111" width="8" height="8">
<path d="M223.36 118.601L217.474 116.042L217.902 113.251L221.785 111.042L224.549 112.017L223.36 118.601Z" fill="white"/>
</mask>
<g mask="url(#mask8_157_48984)">
<g opacity="0.24">
<path d="M217.456 116.039L224.62 111.963L223.604 119.135L217.404 116.069L217.456 116.039Z" fill="black"/>
</g>
</g>
<mask id="mask9_157_48984" style="mask-type:luminance" maskUnits="userSpaceOnUse" x="217" y="111" width="8" height="8">
<path d="M223.36 118.601L217.474 116.042L217.902 113.251L221.785 111.042L224.549 112.017L223.36 118.601Z" fill="white"/>
</mask>
<g mask="url(#mask9_157_48984)">
<g opacity="0.24">
<path d="M223.342 118.597L219.762 114.74L217.247 116.171L223.342 118.597Z" fill="black"/>
</g>
</g>
<mask id="mask10_157_48984" style="mask-type:luminance" maskUnits="userSpaceOnUse" x="217" y="111" width="8" height="8">
<path d="M223.36 118.601L217.474 116.042L217.902 113.251L221.785 111.042L224.549 112.017L223.36 118.601Z" fill="white"/>
</mask>
<g mask="url(#mask10_157_48984)">
<g opacity="0.57">
<path d="M223.345 118.595L222.05 113.438L224.566 112.006L223.345 118.595Z" fill="white"/>
</g>
</g>
<mask id="mask11_157_48984" style="mask-type:luminance" maskUnits="userSpaceOnUse" x="217" y="111" width="8" height="8">
<path d="M223.36 118.601L217.474 116.042L217.902 113.251L221.785 111.042L224.549 112.017L223.36 118.601Z" fill="white"/>
</mask>
<g mask="url(#mask11_157_48984)">
<g opacity="0.09">
<path d="M219.762 114.74L217.884 113.247L217.403 116.069C217.403 116.069 219.756 114.763 219.762 114.74Z" fill="black"/>
</g>
</g>
<mask id="mask12_157_48984" style="mask-type:luminance" maskUnits="userSpaceOnUse" x="217" y="111" width="8" height="8">
<path d="M223.36 118.601L217.474 116.042L217.902 113.251L221.785 111.042L224.549 112.017L223.36 118.601Z" fill="white"/>
</mask>
<g mask="url(#mask12_157_48984)">
<g opacity="0.24">
<path d="M222.053 113.43L221.768 111.022L224.611 111.977C224.611 111.976 222.075 113.437 222.053 113.43Z" fill="black"/>
</g>
</g>
<mask id="mask13_157_48984" style="mask-type:luminance" maskUnits="userSpaceOnUse" x="217" y="111" width="8" height="8">
<path d="M223.36 118.601L217.474 116.042L217.902 113.251L221.785 111.042L224.549 112.017L223.36 118.601Z" fill="white"/>
</mask>
<g mask="url(#mask13_157_48984)">
<path d="M219.761 114.74L219.867 111.957L222.052 113.43C222.052 113.432 219.749 114.737 219.761 114.74Z" fill="white"/>
</g>
<path d="M221.054 118.85L219.181 117.873L217.83 116.269L219.758 117.546L222.069 118.437L221.054 118.85Z" fill="#EEBE80"/>
<path d="M224.757 116.744L224.941 114.596L224.33 112.57L224.364 114.925L223.878 117.408L224.757 116.744Z" fill="#EEBE80"/>
<path d="M222.472 117.893L221.224 114.34L223.499 117.405L222.472 117.893Z" fill="#EEBE80"/>
<mask id="mask14_157_48984" style="mask-type:luminance" maskUnits="userSpaceOnUse" x="223" y="99" width="22" height="20">
<path d="M234.605 118.381L244.243 104.63L239.645 99.0605L228.19 99.5331L223.367 105.491L234.605 118.381Z" fill="white"/>
</mask>
<g mask="url(#mask14_157_48984)">
<path d="M234.643 118.348L244.281 104.596L239.683 99.0278L228.228 99.5004L223.404 105.459L234.643 118.348Z" fill="#615DA7"/>
</g>
<mask id="mask15_157_48984" style="mask-type:luminance" maskUnits="userSpaceOnUse" x="223" y="99" width="22" height="20">
<path d="M234.605 118.381L244.243 104.63L239.645 99.0605L228.19 99.5331L223.367 105.491L234.605 118.381Z" fill="white"/>
</mask>
<g mask="url(#mask15_157_48984)">
<g opacity="0.24">
<path d="M244.281 104.598L223.143 105.471L234.764 119.895L244.434 104.592L244.281 104.598Z" fill="black"/>
</g>
</g>
<mask id="mask16_157_48984" style="mask-type:luminance" maskUnits="userSpaceOnUse" x="223" y="99" width="22" height="20">
<path d="M234.605 118.381L244.243 104.63L239.645 99.0605L228.19 99.5331L223.367 105.491L234.605 118.381Z" fill="white"/>
</mask>
<g mask="url(#mask16_157_48984)">
<g opacity="0.24">
<path d="M234.643 118.348L237.492 104.908L244.912 104.602L234.643 118.348Z" fill="black"/>
</g>
</g>
<mask id="mask17_157_48984" style="mask-type:luminance" maskUnits="userSpaceOnUse" x="223" y="99" width="22" height="20">
<path d="M234.605 118.381L244.243 104.63L239.645 99.0605L228.19 99.5331L223.367 105.491L234.605 118.381Z" fill="white"/>
</mask>
<g mask="url(#mask17_157_48984)">
<path d="M234.627 118.348L230.734 105.187L223.312 105.494L234.627 118.348Z" fill="#615DA7"/>
</g>
<mask id="mask18_157_48984" style="mask-type:luminance" maskUnits="userSpaceOnUse" x="223" y="99" width="22" height="20">
<path d="M234.605 118.381L244.243 104.63L239.645 99.0605L228.19 99.5331L223.367 105.491L234.605 118.381Z" fill="white"/>
</mask>
<g mask="url(#mask18_157_48984)">
<g opacity="0.09">
<path d="M237.493 104.909L239.684 99.0278L244.435 104.59C244.435 104.592 237.537 104.952 237.493 104.909Z" fill="black"/>
</g>
</g>
<mask id="mask19_157_48984" style="mask-type:luminance" maskUnits="userSpaceOnUse" x="223" y="99" width="22" height="20">
<path d="M234.605 118.381L244.243 104.63L239.645 99.0605L228.19 99.5331L223.367 105.491L234.605 118.381Z" fill="white"/>
</mask>
<g mask="url(#mask19_157_48984)">
<g opacity="0.24">
<path d="M230.726 105.177L228.204 99.4705L223.177 105.492C223.177 105.492 230.684 105.221 230.726 105.177Z" fill="black"/>
</g>
</g>
<mask id="mask20_157_48984" style="mask-type:luminance" maskUnits="userSpaceOnUse" x="223" y="99" width="22" height="20">
<path d="M234.605 118.381L244.243 104.63L239.645 99.0605L228.19 99.5331L223.367 105.491L234.605 118.381Z" fill="white"/>
</mask>
<g mask="url(#mask20_157_48984)">
<g opacity="0.57">
<path d="M237.492 104.907L233.618 98.9126L230.726 105.175C230.726 105.175 237.515 104.882 237.492 104.907Z" fill="white"/>
</g>
</g>
<path d="M236.569 180.935C218.719 181.672 203.612 167.373 202.893 149.059C202.175 130.745 216.112 115.245 233.963 114.508C251.814 113.772 266.921 128.07 267.64 146.385C268.358 164.7 254.42 180.198 236.569 180.935ZM234.275 122.479C220.71 123.039 210.116 134.819 210.663 148.737C211.209 162.655 222.691 173.524 236.256 172.963C249.822 172.403 260.416 160.623 259.87 146.704C259.324 132.786 247.842 121.919 234.275 122.479Z" fill="#EEBE80"/>
<path d="M240.016 115.755L242.87 111.021L243.753 105.62L241.171 111.091L237.238 116.244L240.016 115.755Z" fill="#EEBE80"/>
<path d="M229.089 116.205L225.873 111.722L224.57 106.412L227.573 111.651L231.896 116.463L229.089 116.205Z" fill="#EEBE80"/>
<path d="M235.632 115.593L233.737 106.033L232.727 115.93L235.632 115.593Z" fill="#EEBE80"/>
<path d="M262.776 147.333C262.151 131.421 249.072 119.04 233.562 119.681C218.051 120.322 205.985 133.741 206.609 149.654C207.233 165.566 220.313 177.947 235.822 177.307C251.333 176.665 263.399 163.246 262.776 147.333ZM236.255 172.964C222.689 173.524 211.208 162.655 210.662 148.737C210.116 134.819 220.708 123.04 234.274 122.479C247.839 121.919 259.322 132.787 259.868 146.705C260.414 160.622 249.82 172.404 236.255 172.964Z" fill="#E89F27"/>
<g opacity="0.6">
<path d="M263.497 138.82C263.076 138.838 262.677 138.571 262.537 138.14C255.316 116.057 233.356 118.256 233.129 118.282C232.603 118.331 232.117 117.946 232.057 117.398C232 116.851 232.386 116.359 232.919 116.299C233.148 116.281 256.665 113.917 264.379 137.506C264.55 138.028 264.275 138.594 263.766 138.768C263.677 138.799 263.585 138.816 263.497 138.82Z" fill="white"/>
</g>
<g opacity="0.6">
<path d="M248.198 175.576C248.114 175.152 248.305 174.704 248.697 174.494C268.775 163.622 263.12 141.742 263.058 141.516C262.926 140.991 263.217 140.436 263.735 140.288C264.252 140.142 264.789 140.453 264.931 140.983C264.985 141.213 271.051 164.644 249.604 176.258C249.128 176.515 248.541 176.328 248.291 175.841C248.246 175.755 248.216 175.666 248.198 175.576Z" fill="white"/>
</g>
<path d="M285.928 149.729L268.352 157.503C266.907 158.143 266.469 160.028 267.478 161.266L279.386 175.882C279.948 176.573 280.708 177.066 281.557 177.291L318.727 187.139C320.972 187.733 323.261 186.349 323.842 184.046L328.74 164.586C329.32 162.284 327.97 159.935 325.726 159.339L288.642 149.514C287.738 149.274 286.783 149.349 285.928 149.729ZM274.585 160.987C274.286 162.177 273.103 162.892 271.943 162.585C270.783 162.278 270.086 161.065 270.385 159.874C270.684 158.684 271.867 157.969 273.027 158.276C274.187 158.583 274.884 159.798 274.585 160.987Z" fill="white"/>
<path d="M272.164 159.811C272.035 159.693 268.694 157.196 266.712 155.81C266.636 156.144 266.525 156.536 266.381 156.965C267.626 157.819 269.911 159.459 270.586 160.021C268.9 160.566 265.307 161.612 262.247 161.738C260.054 161.829 258.575 161.442 257.852 160.592C257.3 159.938 257.073 159.003 257.371 157.706C257.728 156.144 257.78 155.794 258.81 155.07C258.989 154.603 259.163 154.025 259.232 153.488C258.003 153.818 256.847 155.007 256.3 157.396C255.917 159.07 256.129 160.4 256.933 161.348C257.905 162.494 259.71 163.022 262.294 162.915C266.625 162.735 271.75 160.877 271.967 160.797C272.162 160.726 272.305 160.56 272.346 160.359C272.386 160.156 272.318 159.949 272.164 159.811Z" fill="#686868"/>
<path d="M325.725 159.338L288.639 149.513C287.737 149.274 286.784 149.35 285.928 149.728L280.103 152.305C280.419 155.911 278.637 159.73 274.633 160.662C274.623 160.77 274.612 160.878 274.585 160.986C274.286 162.176 273.103 162.891 271.943 162.585C270.99 162.333 269.911 160.941 269.88 159.979C268.638 159.568 268.075 159.369 267.302 158.445C266.79 159.29 266.794 160.425 267.479 161.266L279.386 175.882C279.948 176.572 280.708 177.066 281.557 177.29L318.726 187.139C320.971 187.733 323.26 186.348 323.84 184.046L328.738 164.586C329.319 162.282 327.969 159.933 325.725 159.338Z" fill="white"/>
<path d="M242.549 93.5281C242.549 93.5281 242.654 97.7414 239.221 97.8838C239.221 97.8838 242.868 98.6619 243.003 102.089C243.003 102.089 243.516 98.0181 246.151 97.6798C246.228 97.6688 242.708 97.5962 242.549 93.5281Z" fill="#F2F2E7"/>
<path d="M239.226 102.042C239.226 102.042 239.292 104.662 237.157 104.749C237.157 104.749 239.425 105.233 239.508 107.364C239.508 107.364 239.827 104.833 241.465 104.623C241.514 104.617 239.325 104.571 239.226 102.042Z" fill="white"/>
<path d="M211.611 124.246C211.611 124.246 211.716 128.459 208.283 128.602C208.283 128.602 211.93 129.38 212.065 132.807C212.065 132.807 212.578 128.736 215.213 128.398C215.29 128.387 211.77 128.314 211.611 124.246Z" fill="white"/>
<path d="M208.289 132.762C208.289 132.762 208.354 135.382 206.22 135.47C206.22 135.47 208.488 135.953 208.571 138.085C208.571 138.085 208.89 135.553 210.528 135.344C210.577 135.337 208.389 135.292 208.289 132.762Z" fill="white"/>
<path d="M255.54 161.301C255.54 161.301 255.645 165.514 252.211 165.656C252.211 165.656 255.859 166.434 255.994 169.861C255.994 169.861 256.506 165.791 259.142 165.452C259.219 165.441 255.7 165.369 255.54 161.301Z" fill="white"/>
<path d="M252.217 169.814C252.217 169.814 252.282 172.434 250.147 172.522C250.147 172.522 252.416 173.005 252.499 175.137C252.499 175.137 252.818 172.605 254.456 172.396C254.505 172.389 252.317 172.344 252.217 169.814Z" fill="white"/>
<path d="M238.784 198.432L165.902 198.51L165.927 223.772L238.81 223.694L238.784 198.432Z" fill="#EEBE80"/>
<g opacity="0.56">
<path d="M184.861 198.491L170.58 198.506L170.605 223.515L184.886 223.5L184.861 198.491Z" fill="white"/>
</g>
<path d="M234.844 198.184L213.669 198.207L213.694 223.469L234.87 223.446L234.844 198.184Z" fill="#EEBE80"/>
<path d="M209.585 211.25C210.074 207.568 207.561 204.176 203.972 203.674C200.383 203.172 197.077 205.751 196.588 209.433C196.099 213.115 198.612 216.507 202.201 217.009C205.79 217.511 209.096 214.932 209.585 211.25Z" fill="#3C5B4E"/>
<path d="M208.468 212.762C209.78 209.716 208.437 206.155 205.467 204.809C202.497 203.463 199.027 204.841 197.715 207.888C196.403 210.935 197.747 214.496 200.716 215.842C203.686 217.188 207.157 215.809 208.468 212.762Z" fill="#7CA594"/>
<g opacity="0.68">
<path d="M207.244 206.071L198.945 206.08L198.954 214.594L207.252 214.586L207.244 206.071Z" fill="white"/>
</g>
<g opacity="0.22">
<path d="M208.952 210.339L203.079 204.324L197.216 210.351L203.09 216.365L208.952 210.339Z" fill="white"/>
</g>
<path d="M226.312 212.935C227.723 210.537 226.973 207.419 224.636 205.971C222.298 204.522 219.259 205.292 217.848 207.69C216.436 210.088 217.187 213.206 219.524 214.654C221.861 216.102 224.9 215.332 226.312 212.935Z" fill="#3C5B4E"/>
<path d="M225.96 212.491C227.136 210.289 226.35 207.526 224.203 206.319C222.057 205.113 219.364 205.92 218.188 208.122C217.012 210.324 217.799 213.087 219.945 214.293C222.091 215.499 224.784 214.692 225.96 212.491Z" fill="#7CA594"/>
<g opacity="0.68">
<path d="M225.198 207.1L218.943 207.107L218.95 213.524L225.204 213.518L225.198 207.1Z" fill="white"/>
</g>
<g opacity="0.22">
<path d="M226.482 210.318L222.055 205.784L217.637 210.327L222.064 214.86L226.482 210.318Z" fill="white"/>
</g>
<path d="M186.406 213.939C188.336 211.958 188.336 208.747 186.406 206.766C184.475 204.785 181.345 204.785 179.414 206.766C177.484 208.747 177.484 211.958 179.414 213.939C181.345 215.92 184.475 215.92 186.406 213.939Z" fill="#3C5B4E"/>
<path d="M186.927 212.316C187.981 210.05 187.045 207.336 184.837 206.254C182.628 205.173 179.983 206.133 178.929 208.399C177.875 210.665 178.81 213.379 181.019 214.46C183.228 215.542 185.873 214.582 186.927 212.316Z" fill="#7CA594"/>
<g opacity="0.68">
<path d="M186.036 207.141L179.782 207.147L179.788 213.564L186.043 213.558L186.036 207.141Z" fill="white"/>
</g>
<g opacity="0.22">
<path d="M187.323 210.354L182.896 205.821L178.478 210.363L182.905 214.896L187.323 210.354Z" fill="white"/>
</g>
<path d="M388.406 228.09H21.6398C20.4169 228.09 19.4263 227.074 19.4263 225.819C19.4263 224.565 20.4169 223.548 21.6398 223.548H388.406C389.629 223.548 390.62 224.565 390.62 225.819C390.62 227.074 389.629 228.09 388.406 228.09Z" fill="white"/>
<path d="M289.72 164.712C289.284 164.44 288.851 164.132 288.429 163.782C288.006 163.434 287.647 163.043 287.348 162.611C287.048 162.18 286.838 161.697 286.715 161.163C286.59 160.626 286.614 160.031 286.781 159.375C286.938 158.763 287.193 158.236 287.552 157.799C287.907 157.362 288.321 157.015 288.784 156.759C289.252 156.506 289.751 156.337 290.282 156.258C290.814 156.182 291.344 156.189 291.871 156.284L292.252 154.789L293.25 155.058L292.878 156.511C293.38 156.647 293.812 156.815 294.175 157.019C294.539 157.223 294.852 157.452 295.115 157.707C295.377 157.96 295.601 158.23 295.785 158.516C295.974 158.803 296.135 159.085 296.271 159.366L294.843 160.078C294.681 159.501 294.376 159.029 293.936 158.659C293.496 158.29 293.025 158.044 292.519 157.925L291.062 163.634C291.529 163.96 291.983 164.306 292.424 164.673C292.863 165.043 293.24 165.457 293.555 165.916C293.87 166.373 294.089 166.88 294.211 167.44C294.337 167.999 294.31 168.626 294.131 169.328C293.981 169.926 293.731 170.441 293.39 170.876C293.049 171.31 292.643 171.656 292.172 171.91C291.698 172.163 291.177 172.326 290.608 172.404C290.039 172.477 289.452 172.458 288.842 172.34L288.469 173.794L287.471 173.526L287.831 172.112C286.871 171.795 286.062 171.307 285.405 170.651C284.749 169.996 284.292 169.304 284.03 168.578L285.518 167.995C285.66 168.354 285.845 168.685 286.066 168.988C286.285 169.289 286.512 169.556 286.75 169.789C286.99 170.022 287.232 170.213 287.485 170.363C287.736 170.514 287.971 170.618 288.197 170.678L289.72 164.712ZM291.515 157.674C291.13 157.601 290.768 157.601 290.425 157.667C290.079 157.736 289.766 157.863 289.483 158.044C289.197 158.226 288.953 158.46 288.746 158.746C288.54 159.035 288.389 159.363 288.294 159.734C288.201 160.107 288.184 160.444 288.246 160.75C288.312 161.059 288.431 161.345 288.606 161.613C288.783 161.882 289.003 162.135 289.269 162.374C289.533 162.613 289.827 162.842 290.141 163.065L291.515 157.674ZM289.201 170.928C289.465 170.999 289.77 171.034 290.111 171.034C290.453 171.034 290.786 170.963 291.114 170.823C291.436 170.681 291.739 170.462 292.015 170.162C292.29 169.862 292.495 169.45 292.632 168.922C292.831 168.199 292.73 167.529 292.332 166.91C291.931 166.294 291.369 165.75 290.643 165.28L289.201 170.928Z" fill="#A6BFD5"/>
<path d="M301.311 167.822C300.874 167.553 300.445 167.242 300.02 166.892C299.598 166.544 299.238 166.153 298.937 165.721C298.64 165.291 298.429 164.807 298.306 164.273C298.183 163.736 298.207 163.141 298.373 162.485C298.53 161.873 298.785 161.347 299.143 160.909C299.499 160.475 299.911 160.125 300.378 159.87C300.845 159.616 301.344 159.447 301.874 159.369C302.408 159.291 302.936 159.298 303.462 159.394L303.845 157.899L304.844 158.168L304.474 159.621C304.976 159.757 305.408 159.925 305.771 160.129C306.135 160.333 306.446 160.564 306.71 160.817C306.974 161.07 307.195 161.34 307.383 161.626C307.571 161.913 307.731 162.196 307.868 162.476L306.44 163.189C306.276 162.613 305.972 162.137 305.533 161.768C305.093 161.399 304.622 161.153 304.115 161.033L302.658 166.742C303.125 167.068 303.581 167.415 304.023 167.782C304.462 168.152 304.837 168.566 305.153 169.024C305.467 169.482 305.685 169.989 305.809 170.549C305.934 171.108 305.909 171.738 305.731 172.436C305.578 173.035 305.33 173.553 304.99 173.987C304.649 174.421 304.243 174.765 303.769 175.018C303.295 175.273 302.774 175.438 302.206 175.513C301.637 175.588 301.049 175.566 300.439 175.448L300.067 176.903L299.068 176.635L299.429 175.224C298.469 174.905 297.662 174.417 297.005 173.76C296.349 173.105 295.889 172.416 295.63 171.687L297.116 171.104C297.26 171.463 297.445 171.794 297.664 172.098C297.884 172.399 298.114 172.667 298.349 172.899C298.589 173.13 298.833 173.323 299.085 173.473C299.334 173.627 299.57 173.728 299.794 173.788L301.311 167.822ZM303.105 160.784C302.722 160.713 302.362 160.711 302.016 160.777C301.673 160.846 301.359 160.973 301.073 161.154C300.79 161.336 300.543 161.57 300.336 161.857C300.131 162.146 299.98 162.473 299.885 162.846C299.79 163.215 299.774 163.554 299.837 163.859C299.903 164.167 300.021 164.454 300.198 164.722C300.373 164.991 300.593 165.244 300.86 165.482C301.125 165.722 301.415 165.951 301.732 166.174L303.105 160.784ZM300.792 174.038C301.056 174.109 301.363 174.145 301.704 174.146C302.045 174.143 302.376 174.075 302.702 173.934C303.028 173.792 303.33 173.572 303.606 173.272C303.881 172.975 304.088 172.56 304.224 172.032C304.423 171.309 304.322 170.639 303.924 170.02C303.523 169.404 302.96 168.86 302.234 168.39L300.792 174.038Z" fill="#A6BFD5"/>
<path d="M312.9 170.934C312.465 170.666 312.034 170.355 311.612 170.007C311.189 169.656 310.83 169.266 310.529 168.836C310.232 168.406 310.021 167.922 309.897 167.385C309.774 166.848 309.796 166.254 309.963 165.598C310.12 164.985 310.376 164.459 310.735 164.022C311.09 163.585 311.503 163.238 311.97 162.983C312.437 162.728 312.934 162.56 313.467 162.481C313.998 162.403 314.527 162.413 315.054 162.506L315.434 161.012L316.436 161.28L316.066 162.733C316.568 162.869 316.995 163.039 317.361 163.243C317.724 163.447 318.038 163.676 318.301 163.931C318.563 164.184 318.785 164.452 318.971 164.737C319.159 165.024 319.321 165.307 319.457 165.589L318.028 166.302C317.867 165.725 317.561 165.252 317.121 164.88C316.68 164.511 316.209 164.265 315.704 164.146L314.248 169.857C314.715 170.181 315.169 170.527 315.609 170.896C316.049 171.268 316.425 171.681 316.74 172.138C317.055 172.596 317.274 173.102 317.397 173.664C317.522 174.223 317.496 174.85 317.32 175.549C317.166 176.147 316.918 176.665 316.576 177.099C316.234 177.533 315.828 177.877 315.357 178.131C314.883 178.384 314.362 178.55 313.794 178.625C313.225 178.701 312.638 178.68 312.027 178.561L311.655 180.015L310.654 179.75L311.014 178.336C310.057 178.018 309.248 177.531 308.591 176.875C307.934 176.219 307.475 175.528 307.216 174.802L308.702 174.216C308.849 174.575 309.03 174.908 309.25 175.209C309.469 175.51 309.698 175.777 309.935 176.012C310.173 176.242 310.417 176.434 310.671 176.584C310.922 176.738 311.157 176.842 311.38 176.899L312.9 170.934ZM314.695 163.898C314.312 163.825 313.954 163.822 313.605 163.89C313.262 163.958 312.949 164.084 312.666 164.266C312.38 164.448 312.136 164.683 311.929 164.972C311.723 165.258 311.572 165.588 311.477 165.959C311.383 166.329 311.367 166.667 311.429 166.973C311.495 167.281 311.614 167.567 311.788 167.836C311.966 168.104 312.184 168.358 312.452 168.596C312.716 168.836 313.007 169.066 313.321 169.288L314.695 163.898ZM312.384 177.15C312.648 177.221 312.95 177.257 313.292 177.258C313.635 177.255 313.969 177.187 314.294 177.047C314.619 176.905 314.922 176.683 315.198 176.384C315.473 176.087 315.677 175.672 315.812 175.145C316.014 174.421 315.911 173.752 315.515 173.135C315.114 172.519 314.552 171.972 313.826 171.503L312.384 177.15Z" fill="#A6BFD5"/>
</svg>
