<svg width="100" height="100" viewBox="0 0 100 100" fill="none" xmlns="http://www.w3.org/2000/svg">
<path fill-rule="evenodd" clip-rule="evenodd" d="M64.6616 66.6032C56.5236 75.4732 51.7666 85.7182 51.7666 97.3442H51.6156C51.6156 84.9442 46.2936 74.1022 37.0256 64.8342C27.7576 55.5662 16.9236 50.4152 4.51562 50.4152V50.3492C16.9236 50.3492 27.7576 44.7702 37.0256 35.4792C46.2936 26.1892 51.6586 15.3552 51.6586 2.99219H51.7246C51.7246 14.9212 56.7436 25.4082 65.3206 34.4382C64.0946 35.4802 62.9866 36.6582 62.0206 37.9482C59.2326 35.5892 55.6286 34.1672 51.6956 34.1672C42.8646 34.1672 35.6956 41.3362 35.6956 50.1672C35.6956 58.9972 42.8646 66.1672 51.6956 66.1672C55.3606 66.1672 58.7386 64.9322 61.4376 62.8572C62.3656 64.2272 63.4486 65.4842 64.6616 66.6032Z" fill="black"/>
<path fill-rule="evenodd" clip-rule="evenodd" d="M68.9633 37.9492C76.7933 44.8422 85.6753 49.6962 95.6123 50.3682C95.6133 50.8572 95.6133 50.3172 95.6123 50.3902C85.3383 51.0702 76.2513 55.7192 68.2243 63.0472C66.9503 61.9012 65.8563 60.5592 64.9883 59.0682C66.6973 56.5222 67.6943 53.4602 67.6943 50.1672C67.6943 47.1422 66.8523 44.3112 65.3913 41.8972C66.3633 40.3962 67.5713 39.0622 68.9633 37.9492Z" fill="black"/>
<path fill-rule="evenodd" clip-rule="evenodd" d="M44.1383 64.269C39.1143 61.569 35.6953 56.264 35.6953 50.166C35.6953 41.336 42.8633 34.168 51.6933 34.168C55.6273 34.168 59.2323 35.591 62.0193 37.95C60.3063 37.722 58.5373 38.554 57.4013 39.552C55.7203 38.685 53.2203 38.047 50.7553 38.177C43.4453 38.508 37.6563 44.506 37.6563 52.215C37.6563 57.35 40.2613 61.842 44.1383 64.269Z" fill="#282627"/>
</svg>
