<svg width="35" height="35" viewBox="0 0 35 35" fill="none" xmlns="http://www.w3.org/2000/svg">
<path d="M0 17.5C0 7.83502 7.83502 0 17.5 0C27.165 0 35 7.83502 35 17.5C35 27.165 27.165 35 17.5 35C7.83502 35 0 27.165 0 17.5Z" fill="#F3D8D9"/>
<path d="M12.5 24.1667C11.8056 24.1667 11.2153 23.9236 10.7292 23.4375C10.2431 22.9514 10 22.3611 10 21.6667V15C10 14.7639 10.08 14.5661 10.24 14.4067C10.4 14.2472 10.5978 14.1672 10.8333 14.1667H24.1667C24.4028 14.1667 24.6008 14.2467 24.7608 14.4067C24.9208 14.5667 25.0006 14.7644 25 15V21.6667C25 22.3611 24.7569 22.9514 24.2708 23.4375C23.7847 23.9236 23.1944 24.1667 22.5 24.1667H12.5ZM11.6667 15.8333V21.6667C11.6667 21.9028 11.7467 22.1008 11.9067 22.2608C12.0667 22.4208 12.2644 22.5006 12.5 22.5H22.5C22.7361 22.5 22.9342 22.42 23.0942 22.26C23.2542 22.1 23.3339 21.9022 23.3333 21.6667V15.8333H11.6667ZM15 11.6667V10.8333C15 10.5972 15.08 10.3994 15.24 10.24C15.4 10.0806 15.5978 10.0006 15.8333 10H19.1667C19.4028 10 19.6008 10.08 19.7608 10.24C19.9208 10.4 20.0006 10.5978 20 10.8333V11.6667H24.1667C24.4028 11.6667 24.6008 11.7467 24.7608 11.9067C24.9208 12.0667 25.0006 12.2644 25 12.5C24.9994 12.7356 24.9194 12.9336 24.76 13.0942C24.6006 13.2547 24.4028 13.3344 24.1667 13.3333H10.8333C10.5972 13.3333 10.3994 13.2533 10.24 13.0933C10.0806 12.9333 10.0006 12.7356 10 12.5C9.99945 12.2644 10.0794 12.0667 10.24 11.9067C10.4006 11.7467 10.5983 11.6667 10.8333 11.6667H15Z" fill="#6D2E3D"/>
</svg>
