<svg width="16" height="18" viewBox="0 0 16 18" fill="none" xmlns="http://www.w3.org/2000/svg">
<path d="M3.83332 5.87508C4.44111 5.87508 5.02401 5.63364 5.45378 5.20387C5.88355 4.7741 6.12499 4.1912 6.12499 3.58341C6.12499 2.97563 5.88355 2.39273 5.45378 1.96296C5.02401 1.53319 4.44111 1.29175 3.83332 1.29175C3.22554 1.29175 2.64264 1.53319 2.21287 1.96296C1.7831 2.39273 1.54166 2.97563 1.54166 3.58341C1.54166 4.1912 1.7831 4.7741 2.21287 5.20387C2.64264 5.63364 3.22554 5.87508 3.83332 5.87508ZM3.83332 5.87508V12.1251M3.83332 5.87508C3.83332 8.29175 5.79166 10.2501 8.20832 10.2501H9.87499M3.83332 12.1251C3.22554 12.1251 2.64264 12.3665 2.21287 12.7963C1.7831 13.2261 1.54166 13.809 1.54166 14.4167C1.54166 15.0245 1.7831 15.6074 2.21287 16.0372C2.64264 16.467 3.22554 16.7084 3.83332 16.7084C4.44111 16.7084 5.02401 16.467 5.45378 16.0372C5.88355 15.6074 6.12499 15.0245 6.12499 14.4167C6.12499 13.809 5.88355 13.2261 5.45378 12.7963C5.02401 12.3665 4.44111 12.1251 3.83332 12.1251ZM9.87499 10.2501C9.87499 10.8579 10.1164 11.4408 10.5462 11.8705C10.976 12.3003 11.5589 12.5417 12.1667 12.5417C12.7744 12.5417 13.3573 12.3003 13.7871 11.8705C14.2169 11.4408 14.4583 10.8579 14.4583 10.2501C14.4583 9.64229 14.2169 9.0594 13.7871 8.62963C13.3573 8.19986 12.7744 7.95841 12.1667 7.95841C11.5589 7.95841 10.976 8.19986 10.5462 8.62963C10.1164 9.0594 9.87499 9.64229 9.87499 10.2501Z" stroke="black" stroke-width="1.25" stroke-linecap="round" stroke-linejoin="round"/>
</svg>
