<svg width="61" height="60" viewBox="0 0 61 60" fill="none" xmlns="http://www.w3.org/2000/svg">
<rect x="0.75" width="60" height="60" rx="8" fill="white"/>
<path d="M24.5634 29.5664L29.5686 24.5474L25.0696 20.0325L23.3056 21.7947C23.101 21.9992 22.8527 22.111 22.5605 22.13C22.2683 22.149 22.0002 22.0372 21.7562 21.7947C21.5137 21.5521 21.3924 21.2913 21.3924 21.0122C21.3924 20.7332 21.5137 20.4723 21.7562 20.2298L23.505 18.4808L19.2273 14.2027L14.209 19.2216L24.5634 29.5664ZM41.731 46.7491L46.7494 41.7302L42.4739 37.452L40.712 39.201C40.4987 39.4143 40.2474 39.5283 39.9582 39.5429C39.6689 39.5575 39.403 39.4435 39.1605 39.201C38.918 38.9584 38.7975 38.6998 38.7989 38.4251C38.8004 38.1504 38.9209 37.8918 39.1605 37.6493L40.9093 35.8872L36.4388 31.4293L31.4314 36.4351L41.731 46.7491ZM15.1403 47.6302C14.6319 47.6302 14.2097 47.4622 13.8737 47.1261C13.5376 46.7901 13.3696 46.3678 13.3696 45.8593V41.4387C13.3696 41.2035 13.4105 40.9836 13.4924 40.779C13.5742 40.5744 13.71 40.3772 13.9 40.1872L22.9988 31.0874L12.5939 20.6396C12.198 20.2437 12 19.7717 12 19.2238C12 18.6759 12.198 18.2032 12.5939 17.8058L17.8117 12.5896C18.2076 12.1936 18.6795 11.9971 19.2273 12C19.7752 12.003 20.2471 12.2031 20.643 12.6006L31.1465 23.0483L40.9356 13.2449C41.1766 13.0038 41.4308 12.8299 41.6982 12.7233C41.9655 12.6166 42.2504 12.5633 42.5528 12.5633C42.8552 12.5633 43.1401 12.6166 43.4075 12.7233C43.6748 12.8299 43.9298 13.0038 44.1723 13.2449L47.7487 16.9642C47.9912 17.2053 48.1592 17.4595 48.2527 17.7269C48.3462 17.9943 48.3922 18.2792 48.3908 18.5817C48.3893 18.8841 48.3426 19.1603 48.2505 19.4101C48.1585 19.66 47.9919 19.9054 47.7509 20.1465L38.0429 29.9083L48.4083 40.356C48.8028 40.752 49 41.2239 49 41.7718C49 42.3198 48.8028 42.7917 48.4083 43.1877L43.1905 48.4039C42.7946 48.8013 42.3227 49 41.7749 49C41.227 49 40.7551 48.802 40.3592 48.4061L29.9105 37.9999L20.8117 47.0998C20.6218 47.2898 20.4246 47.4256 20.22 47.5075C20.0155 47.5893 19.7956 47.6302 19.5604 47.6302H15.1403ZM15.5611 45.4385H19.3457L40.8654 23.9294L37.0655 20.1334L15.5611 41.6535V45.4385ZM38.9918 22.0182L37.0677 20.1334L40.8632 23.9315L38.9918 22.0182Z" fill="#6D2E3D"/>
</svg>
