<svg width="36" height="37" viewBox="0 0 36 37" fill="none" xmlns="http://www.w3.org/2000/svg">
<rect y="0.0996094" width="36" height="36" rx="8" fill="#F8E7E8"/>
<path fill-rule="evenodd" clip-rule="evenodd" d="M25.75 18.0996C25.75 17.9007 25.671 17.7099 25.5303 17.5693C25.3897 17.4286 25.1989 17.3496 25 17.3496H11C10.8011 17.3496 10.6103 17.4286 10.4697 17.5693C10.329 17.7099 10.25 17.9007 10.25 18.0996C10.25 18.2985 10.329 18.4893 10.4697 18.6299C10.6103 18.7706 10.8011 18.8496 11 18.8496H25C25.1989 18.8496 25.3897 18.7706 25.5303 18.6299C25.671 18.4893 25.75 18.2985 25.75 18.0996ZM25.75 13.0996C25.75 12.9007 25.671 12.7099 25.5303 12.5693C25.3897 12.4286 25.1989 12.3496 25 12.3496H11C10.8011 12.3496 10.6103 12.4286 10.4697 12.5693C10.329 12.7099 10.25 12.9007 10.25 13.0996C10.25 13.2985 10.329 13.4893 10.4697 13.6299C10.6103 13.7706 10.8011 13.8496 11 13.8496H25C25.1989 13.8496 25.3897 13.7706 25.5303 13.6299C25.671 13.4893 25.75 13.2985 25.75 13.0996ZM25.75 23.0996C25.75 22.9007 25.671 22.7099 25.5303 22.5693C25.3897 22.4286 25.1989 22.3496 25 22.3496H11C10.8011 22.3496 10.6103 22.4286 10.4697 22.5693C10.329 22.7099 10.25 22.9007 10.25 23.0996C10.25 23.2985 10.329 23.4893 10.4697 23.6299C10.6103 23.7706 10.8011 23.8496 11 23.8496H25C25.1989 23.8496 25.3897 23.7706 25.5303 23.6299C25.671 23.4893 25.75 23.2985 25.75 23.0996Z" fill="#6D2E3D"/>
</svg>
