<svg width="16" height="16" viewBox="0 0 16 16" fill="none" xmlns="http://www.w3.org/2000/svg">
<path d="M14 3.83333C14 3.3471 13.8068 2.88079 13.463 2.53697C13.1192 2.19315 12.6529 2 12.1667 2H3.83333C3.3471 2 2.88079 2.19315 2.53697 2.53697C2.19315 2.88079 2 3.3471 2 3.83333V8.01467C2.40958 7.75276 2.86032 7.56165 3.33333 7.44933V3.83333C3.33333 3.70073 3.38601 3.57355 3.47978 3.47978C3.57355 3.38601 3.70072 3.33333 3.83333 3.33333H12.1667C12.2993 3.33333 12.4265 3.38601 12.5202 3.47978C12.614 3.57355 12.6667 3.70073 12.6667 3.83333V12.1667C12.6667 12.4427 12.4427 12.6667 12.1667 12.6667H8.55067C8.43733 13.1467 8.244 13.5967 7.98533 14H12.1667C12.6529 14 13.1192 13.8068 13.463 13.463C13.8068 13.1192 14 12.6529 14 12.1667V3.83333ZM0.666666 11.6667C0.666666 10.6942 1.05297 9.76158 1.74061 9.07394C2.42824 8.38631 3.36087 8 4.33333 8C5.30579 8 6.23842 8.38631 6.92606 9.07394C7.61369 9.76158 8 10.6942 8 11.6667C8 12.6391 7.61369 13.5718 6.92606 14.2594C6.23842 14.947 5.30579 15.3333 4.33333 15.3333C3.36087 15.3333 2.42824 14.947 1.74061 14.2594C1.05297 13.5718 0.666666 12.6391 0.666666 11.6667ZM4 12L3.99933 13.6687C3.99933 13.7571 4.03445 13.8419 4.09696 13.9044C4.15948 13.9669 4.24426 14.002 4.33267 14.002C4.42107 14.002 4.50586 13.9669 4.56837 13.9044C4.63088 13.8419 4.666 13.7571 4.666 13.6687V12H6.336C6.42441 12 6.50919 11.9649 6.5717 11.9024C6.63421 11.8399 6.66933 11.7551 6.66933 11.6667C6.66933 11.5783 6.63421 11.4935 6.5717 11.431C6.50919 11.3685 6.42441 11.3333 6.336 11.3333H4.66667V9.66667C4.66667 9.57826 4.63155 9.49348 4.56904 9.43096C4.50652 9.36845 4.42174 9.33333 4.33333 9.33333C4.24493 9.33333 4.16014 9.36845 4.09763 9.43096C4.03512 9.49348 4 9.57826 4 9.66667V11.3333H2.33533C2.24693 11.3333 2.16214 11.3685 2.09963 11.431C2.03712 11.4935 2.002 11.5783 2.002 11.6667C2.002 11.7551 2.03712 11.8399 2.09963 11.9024C2.16214 11.9649 2.24693 12 2.33533 12H4Z" fill="black"/>
</svg>
