<svg width="35" height="35" viewBox="0 0 35 35" fill="none" xmlns="http://www.w3.org/2000/svg">
<path d="M0 17.5C0 7.83502 7.83502 0 17.5 0C27.165 0 35 7.83502 35 17.5C35 27.165 27.165 35 17.5 35C7.83502 35 0 27.165 0 17.5Z" fill="#F3D8D9"/>
<path d="M15.9785 9.10938V13.6879C15.9785 14.4779 15.3399 15.0851 14.5499 15.1079C12.5671 15.1651 9.64851 15.7008 9.64851 19.2651" stroke="#6D2E3D" stroke-width="1.42857" stroke-linecap="round" stroke-linejoin="round"/>
<path d="M9.82263 23.3901C9.66897 20.9314 9.61321 18.4675 9.65549 16.0044C9.66423 14.89 10.0347 13.8086 10.7112 12.923C11.7455 11.5915 12.6855 10.6515 14.1041 9.55582C14.5588 9.20764 15.1129 9.01392 15.6855 9.00297C16.2902 8.99016 16.895 8.98396 17.4998 8.9844C19.4383 8.9844 21.0026 9.04154 22.6198 9.1544C23.2852 9.19827 23.9119 9.48311 24.3826 9.95561C24.8533 10.4281 25.1356 11.0559 25.1769 11.7215C25.298 13.6639 25.3581 15.6097 25.3569 17.5558C25.3569 19.5558 25.2955 21.5073 25.1769 23.3901C25.0912 24.7673 23.9969 25.863 22.6198 25.9573C20.9157 26.0751 19.2079 26.1318 17.4998 26.1273C15.5612 26.1273 13.9969 26.0701 12.3798 25.9573C11.7143 25.9134 11.0876 25.6285 10.617 25.156C10.1463 24.6835 9.86391 24.0557 9.82263 23.3901Z" stroke="#6D2E3D" stroke-width="1.42857" stroke-linecap="round" stroke-linejoin="round"/>
</svg>
