<svg width="35" height="35" viewBox="0 0 35 35" fill="none" xmlns="http://www.w3.org/2000/svg">
<path d="M0 17.5C0 7.83502 7.83502 0 17.5 0C27.165 0 35 7.83502 35 17.5C35 27.165 27.165 35 17.5 35C7.83502 35 0 27.165 0 17.5Z" fill="#F3D8D9"/>
<path d="M17.5003 22.6767C18.2598 22.6767 18.8984 22.3983 19.4162 21.8417C19.9339 21.285 20.1928 20.6178 20.1928 19.84V16.025H19.3595V19.8392C19.3595 20.3831 19.1812 20.8528 18.8245 21.2483C18.4678 21.6439 18.0264 21.8422 17.5003 21.8433C16.9781 21.8433 16.5375 21.6453 16.1787 21.2492C15.8203 20.8536 15.6412 20.3839 15.6412 19.84V15.2883C15.6412 15.0672 15.7095 14.8756 15.8462 14.7133C15.9828 14.5522 16.155 14.4717 16.3628 14.4717C16.5728 14.4717 16.7456 14.5522 16.8812 14.7133C17.0167 14.8744 17.0842 15.0661 17.0837 15.2883V19.84H17.917V15.2883C17.917 14.8439 17.7689 14.4578 17.4728 14.13C17.1767 13.8022 16.8064 13.6383 16.362 13.6383C15.9175 13.6383 15.5475 13.8022 15.252 14.13C14.9564 14.4578 14.8084 14.8439 14.8078 15.2883V19.84C14.8078 20.6178 15.0675 21.285 15.587 21.8417C16.1059 22.3983 16.7437 22.6767 17.5003 22.6767ZM11.667 25V10H19.7753L23.3337 13.5583V25H11.667ZM12.5003 24.1667H22.5003V13.975H19.3587V10.8333H12.5003V24.1667Z" fill="#6D2E3D"/>
</svg>
