<svg width="30" height="30" viewBox="0 0 30 30" fill="none" xmlns="http://www.w3.org/2000/svg">
<rect width="30" height="30" rx="15" fill="#CCCCCC"/>
<g clip-path="url(#clip0_750_64811)">
<path d="M21.8847 18.6794C21.8535 18.5685 21.7804 18.4741 21.6809 18.4161C21.5814 18.358 21.4633 18.3409 21.3514 18.3682L20.2447 18.666C20.8503 17.7734 21.2175 16.7406 21.3114 15.666C21.4022 14.6606 21.2552 13.648 20.8822 12.7099C20.5093 11.7719 19.921 10.9347 19.1647 10.266C19.0773 10.1937 18.9655 10.1576 18.8523 10.165C18.7391 10.1725 18.633 10.2229 18.5558 10.306C18.4781 10.3945 18.4387 10.5101 18.4462 10.6276C18.4537 10.7451 18.5075 10.8548 18.5958 10.9327C19.2475 11.5079 19.7545 12.2286 20.0757 13.0362C20.3969 13.8439 20.5233 14.7159 20.4447 15.5816C20.3684 16.4933 20.0626 17.3709 19.5558 18.1327L19.4447 17.0171C19.4531 16.9515 19.4467 16.8848 19.426 16.8219C19.4053 16.7591 19.3709 16.7016 19.3251 16.6538C19.2794 16.6059 19.2235 16.5689 19.1617 16.5454C19.0998 16.5219 19.0335 16.5125 18.9675 16.5179C18.9015 16.5233 18.8376 16.5434 18.7804 16.5767C18.7232 16.6099 18.6741 16.6556 18.6368 16.7102C18.5995 16.7649 18.5748 16.8272 18.5647 16.8926C18.5545 16.958 18.5591 17.0248 18.5781 17.0882L18.8003 19.9505L21.5781 19.2127C21.6881 19.1805 21.7814 19.107 21.8386 19.0077C21.8957 18.9083 21.9123 18.7906 21.8847 18.6794Z" fill="black"/>
<path d="M8.91557 14.5877C8.97489 14.6252 9.04159 14.6494 9.11112 14.6588C9.22711 14.674 9.34443 14.6429 9.43761 14.5722C9.5308 14.5014 9.59234 14.3968 9.6089 14.281C9.79254 12.9251 10.4816 11.6886 11.5382 10.8191C12.5947 9.94964 13.9407 9.5114 15.3067 9.59213L14.3111 10.2721C14.2407 10.3252 14.1876 10.398 14.1587 10.4813C14.1298 10.5647 14.1263 10.6547 14.1487 10.74C14.1711 10.8253 14.2183 10.902 14.2845 10.9604C14.3506 11.0187 14.4326 11.0561 14.52 11.0677C14.6201 11.0768 14.7204 11.0518 14.8045 10.9966L17.1733 9.36991L15.1467 7.33436C15.1106 7.2791 15.0627 7.23256 15.0064 7.19812C14.9501 7.16369 14.8869 7.14222 14.8212 7.13528C14.7556 7.12834 14.6893 7.13609 14.627 7.15799C14.5648 7.17988 14.5082 7.21536 14.4613 7.26185C14.4145 7.30835 14.3786 7.36468 14.3563 7.42677C14.3339 7.48886 14.3257 7.55515 14.3322 7.62082C14.3386 7.68649 14.3597 7.7499 14.3937 7.80644C14.4277 7.86298 14.4739 7.91123 14.5289 7.94769L15.2845 8.70325C13.707 8.62782 12.1587 9.14652 10.945 10.1569C9.73137 11.1674 8.94062 12.5961 8.7289 14.161C8.7175 14.2424 8.72892 14.3254 8.76187 14.4008C8.79483 14.4761 8.84803 14.5408 8.91557 14.5877Z" fill="black"/>
<path d="M16.6574 20.3048C15.9634 20.5265 15.2313 20.6037 14.5063 20.5315C13.6233 20.4449 12.7747 20.1448 12.0337 19.657C11.2927 19.1692 10.6815 18.5083 10.253 17.7315L11.3596 18.1448C11.4616 18.1625 11.5666 18.144 11.6565 18.0926C11.7463 18.0411 11.8154 17.9599 11.8517 17.863C11.8881 17.766 11.8895 17.6594 11.8556 17.5616C11.8217 17.4637 11.7548 17.3808 11.6663 17.327L9.6263 16.5715L8.97297 16.3359L8.47964 19.1582C8.46253 19.2709 8.48944 19.386 8.5548 19.4795C8.62016 19.5729 8.71896 19.6377 8.83075 19.6604H8.9063C9.01091 19.6623 9.11283 19.6272 9.19413 19.5614C9.27542 19.4955 9.33089 19.4031 9.35075 19.3004L9.53741 18.2337C10.0401 19.1143 10.7462 19.8618 11.5966 20.4138C12.4471 20.9659 13.4174 21.3064 14.4263 21.407C15.2698 21.4908 16.1216 21.4 16.9285 21.1404C17.0313 21.0978 17.1143 21.0183 17.1613 20.9175C17.2083 20.8167 17.2158 20.702 17.1823 20.5959C17.1488 20.4899 17.0768 20.4002 16.9804 20.3447C16.8841 20.2892 16.7704 20.2718 16.6619 20.2959L16.6574 20.3048Z" fill="black"/>
<path d="M16.7773 12.7812H13.2218C13.1039 12.7812 12.9909 12.8281 12.9075 12.9114C12.8242 12.9948 12.7773 13.1078 12.7773 13.2257V16.7813C12.7773 16.8991 12.8242 17.0122 12.9075 17.0955C12.9909 17.1789 13.1039 17.2257 13.2218 17.2257H16.7773C16.8952 17.2257 17.0083 17.1789 17.0916 17.0955C17.175 17.0122 17.2218 16.8991 17.2218 16.7813V13.2257C17.2218 13.1078 17.175 12.9948 17.0916 12.9114C17.0083 12.8281 16.8952 12.7812 16.7773 12.7812ZM16.3329 16.3368H13.6662V13.6701H16.3329V16.3368Z" fill="black"/>
</g>
<defs>
<clipPath id="clip0_750_64811">
<rect width="16" height="16" fill="white" transform="translate(7 7)"/>
</clipPath>
</defs>
</svg>
