<svg width="20" height="20" viewBox="0 0 26 26" fill="none" xmlns="http://www.w3.org/2000/svg">
<path fill-rule="evenodd" clip-rule="evenodd" d="M8.52336 2.0625C8.87336 1.325 9.62711 0.8125 10.5009 0.8125H15.5009C16.3734 0.8125 17.1271 1.325 17.4784 2.0625C18.3321 2.07 18.9984 2.10875 19.5934 2.34125C20.3036 2.61909 20.9214 3.09126 21.3759 3.70375C21.8346 4.32 22.0496 5.1125 22.3459 6.20125L22.3921 6.37125L23.1296 9.08C23.6213 9.3281 24.0524 9.68147 24.3921 10.115C25.1696 11.1113 25.3071 12.2975 25.1696 13.6575C25.0346 14.9775 24.6196 16.64 24.0996 18.7212L24.0659 18.8525C23.7371 20.1687 23.4696 21.2375 23.1534 22.0713C22.8209 22.9412 22.4009 23.6537 21.7071 24.195C21.0146 24.7362 20.2209 24.97 19.2971 25.0825C18.4109 25.1875 17.3096 25.1875 15.9534 25.1875H10.0484C8.69211 25.1875 7.58961 25.1875 6.70461 25.0813C5.77961 24.9713 4.98711 24.7362 4.29336 24.1938C3.60086 23.6537 3.18086 22.9412 2.84836 22.0713C2.53086 21.2375 2.26461 20.1687 1.93586 18.8525L1.90211 18.7212C1.38211 16.64 0.965856 14.9775 0.832106 13.6588C0.694606 12.2963 0.832105 11.1113 1.60836 10.115C1.96211 9.6625 2.38586 9.3275 2.87086 9.08L3.60836 6.37125L3.65586 6.20125C3.95211 5.1125 4.16711 4.32 4.62586 3.7025C5.08052 3.09048 5.69823 2.61875 6.40836 2.34125C7.00336 2.10875 7.66836 2.06875 8.52336 2.0625ZM8.52461 3.94125C7.69711 3.95 7.36586 3.98125 7.09086 4.08875C6.70831 4.23835 6.37562 4.49264 6.13086 4.8225C5.91086 5.11875 5.78086 5.5325 5.41836 6.86625L4.97586 8.48625C6.27336 8.3125 7.94836 8.3125 10.0284 8.3125H15.9721C18.0534 8.3125 19.7284 8.3125 21.0246 8.48625L20.5834 6.865C20.2196 5.53125 20.0909 5.1175 19.8709 4.82125C19.6261 4.49139 19.2934 4.2371 18.9109 4.0875C18.6359 3.98 18.3034 3.94875 17.4759 3.94C17.2982 4.31333 17.0184 4.62866 16.6688 4.84945C16.3193 5.07024 15.9143 5.18746 15.5009 5.1875H10.5009C10.0874 5.18746 9.68244 5.07024 9.33289 4.84945C8.98334 4.62866 8.70352 4.31333 8.52586 3.94M10.5009 2.6875C10.418 2.6875 10.3385 2.72042 10.2799 2.77903C10.2213 2.83763 10.1884 2.91712 10.1884 3C10.1884 3.08288 10.2213 3.16237 10.2799 3.22097C10.3385 3.27958 10.418 3.3125 10.5009 3.3125H15.5009C15.5837 3.3125 15.6632 3.27958 15.7218 3.22097C15.7804 3.16237 15.8134 3.08288 15.8134 3C15.8134 2.91712 15.7804 2.83763 15.7218 2.77903C15.6632 2.72042 15.5837 2.6875 15.5009 2.6875H10.5009ZM5.12586 10.3575C3.98836 10.5225 3.43711 10.8225 3.08836 11.27C2.73836 11.7163 2.58211 12.3225 2.69836 13.4675C2.81711 14.6375 3.19836 16.1675 3.74086 18.3425C4.08836 19.7275 4.32836 20.6875 4.60336 21.405C4.86586 22.0975 5.12461 22.4638 5.44961 22.7175C5.77336 22.97 6.19086 23.1313 6.92836 23.22C7.69086 23.3113 8.67836 23.3125 10.1084 23.3125H15.8959C17.3246 23.3125 18.3146 23.3113 19.0759 23.22C19.8134 23.1325 20.2309 22.97 20.5546 22.7175C20.8796 22.4638 21.1371 22.0975 21.4021 21.405C21.6746 20.6875 21.9159 19.7275 22.2621 18.3425C22.8059 16.1675 23.1871 14.6375 23.3046 13.4675C23.4221 12.3225 23.2646 11.715 22.9159 11.2687C22.5671 10.8225 22.0159 10.5225 20.8771 10.3575C19.7146 10.19 18.1371 10.1875 15.8959 10.1875H10.1084C7.86711 10.1875 6.28961 10.19 5.12711 10.3575" fill="#6D2E3D"/>
</svg>
