<svg width="30" height="30" viewBox="0 0 30 30" fill="none" xmlns="http://www.w3.org/2000/svg">
<rect width="30" height="30" rx="15" fill="#F3D8D9"/>
<g clip-path="url(#clip0_750_64778)">
<path d="M11.2665 14.9979L14.4665 17.6646L18.7332 12.3313M14.9999 22.4646C14.0193 22.4646 13.0484 22.2715 12.1425 21.8962C11.2366 21.521 10.4135 20.971 9.72014 20.2776C9.0268 19.5843 8.4768 18.7612 8.10157 17.8553C7.72633 16.9494 7.5332 15.9785 7.5332 14.9979C7.5332 14.0174 7.72633 13.0464 8.10157 12.1405C8.4768 11.2346 9.0268 10.4115 9.72014 9.71819C10.4135 9.02484 11.2366 8.47485 12.1425 8.09962C13.0484 7.72438 14.0193 7.53125 14.9999 7.53125C16.9802 7.53125 18.8793 8.31791 20.2796 9.71819C21.6799 11.1185 22.4665 13.0176 22.4665 14.9979C22.4665 16.9782 21.6799 18.8774 20.2796 20.2776C18.8793 21.6779 16.9802 22.4646 14.9999 22.4646Z" stroke="#6D2E3D" stroke-width="1.06667"/>
</g>
<defs>
<clipPath id="clip0_750_64778">
<rect width="16" height="16" fill="white" transform="translate(7 7)"/>
</clipPath>
</defs>
</svg>
