<svg width="35" height="35" viewBox="0 0 35 35" fill="none" xmlns="http://www.w3.org/2000/svg">
<path d="M0 17.5C0 7.83502 7.83502 0 17.5 0C27.165 0 35 7.83502 35 17.5C35 27.165 27.165 35 17.5 35C7.83502 35 0 27.165 0 17.5Z" fill="#F3D8D9"/>
<path d="M19.251 9.81966C19.337 9.7306 19.3846 9.61132 19.3835 9.48751C19.3825 9.36371 19.3328 9.24527 19.2453 9.15772C19.1577 9.07017 19.0393 9.02051 18.9155 9.01944C18.7917 9.01836 18.6724 9.06595 18.5833 9.15197L17.5006 10.2347L16.4178 9.15197C16.3742 9.10687 16.3221 9.0709 16.2645 9.04615C16.2069 9.0214 16.145 9.00838 16.0823 9.00783C16.0196 9.00729 15.9574 9.01923 15.8994 9.04298C15.8413 9.06672 15.7886 9.10178 15.7443 9.14612C15.6999 9.19045 15.6649 9.24317 15.6411 9.30121C15.6174 9.35924 15.6054 9.42142 15.606 9.48412C15.6065 9.54681 15.6195 9.60878 15.6443 9.66639C15.669 9.724 15.705 9.7761 15.7501 9.81966L16.8329 10.9024L15.7501 11.9852C15.6641 12.0742 15.6165 12.1935 15.6176 12.3173C15.6187 12.4411 15.6683 12.5596 15.7559 12.6471C15.8434 12.7347 15.9619 12.7843 16.0857 12.7854C16.2095 12.7865 16.3287 12.7389 16.4178 12.6529L17.5006 11.5701L18.5833 12.6529C18.6719 12.7414 18.7921 12.7911 18.9173 12.7911C19.0426 12.791 19.1627 12.7412 19.2512 12.6526C19.3398 12.564 19.3895 12.4439 19.3895 12.3186C19.3894 12.1934 19.3396 12.0732 19.251 11.9847L18.1683 10.9024L19.251 9.81966ZM22.1985 21.3777C22.2181 21.4365 22.2259 21.4987 22.2215 21.5606C22.2171 21.6224 22.2005 21.6828 22.1728 21.7383C22.145 21.7938 22.1066 21.8432 22.0597 21.8838C22.0129 21.9245 21.9584 21.9555 21.8996 21.975L19.7747 22.6833C19.6558 22.7229 19.5261 22.7137 19.4141 22.6576C19.3021 22.6015 19.2169 22.5033 19.1773 22.3844C19.1378 22.2656 19.147 22.1359 19.2031 22.0239C19.2591 21.9118 19.3574 21.8267 19.4762 21.7871L21.6011 21.0788C21.66 21.0592 21.7221 21.0514 21.784 21.0558C21.8459 21.0602 21.9063 21.0767 21.9617 21.1045C22.0172 21.1323 22.0667 21.1707 22.1073 21.2175C22.1479 21.2644 22.1789 21.3188 22.1985 21.3777Z" fill="#6D2E3D"/>
<path fill-rule="evenodd" clip-rule="evenodd" d="M9.32368 18.6679L10.8895 19.1897V23.1779C10.8895 23.2761 10.9201 23.3718 10.9771 23.4518C11.034 23.5318 11.1145 23.592 11.2073 23.6241L17.3421 25.7476C17.4391 25.7821 17.5448 25.7839 17.6429 25.7528L17.6495 25.7509L17.6566 25.7486L23.7933 23.6241C23.8861 23.592 23.9666 23.5318 24.0235 23.4518C24.0805 23.3718 24.1111 23.2761 24.1111 23.1779V19.1897L25.6769 18.6679C25.7491 18.6439 25.8145 18.6028 25.8674 18.5481C25.9203 18.4933 25.9592 18.4266 25.9808 18.3536C26.0023 18.2806 26.0059 18.2035 25.9913 18.1288C25.9766 18.0541 25.9441 17.9841 25.8965 17.9247L24.0077 15.5637C23.9517 15.4939 23.877 15.4415 23.7924 15.4126L17.6547 13.2877C17.5547 13.2531 17.4459 13.2531 17.3459 13.2877L11.2082 15.4126C11.1236 15.4415 11.0489 15.4939 10.9929 15.5637L9.10411 17.9247C9.05653 17.9841 9.02402 18.0541 9.00935 18.1288C8.99467 18.2035 8.99827 18.2806 9.01984 18.3536C9.0414 18.4266 9.08029 18.4933 9.1332 18.5481C9.18611 18.6028 9.25146 18.6439 9.32368 18.6679ZM16.2343 20.6153L17.0281 19.482V24.6398L11.8339 22.8417V19.5042L15.6984 20.7924C15.7949 20.8244 15.8992 20.8245 15.9958 20.7925C16.0924 20.7605 16.176 20.6987 16.2343 20.6153ZM12.8052 15.8588L17.5003 17.4841L22.1954 15.8588L17.5003 14.2335L12.8052 15.8588ZM18.7663 20.6158L17.9725 19.4815V24.6398L23.1667 22.8417V19.5042L19.3022 20.7924C19.2057 20.8244 19.1014 20.8245 19.0048 20.7925C18.9082 20.7605 18.8246 20.6982 18.7663 20.6148M11.5222 16.4141L10.2648 17.9861L12.8671 18.8535L15.6625 19.7852L16.7547 18.2255L16.6909 18.2033L11.5222 16.4141ZM24.7358 17.9861L23.4784 16.4136L18.2459 18.2255L19.3381 19.7852L24.7358 17.9861Z" fill="#6D2E3D"/>
</svg>
