<svg width="16" height="16" viewBox="0 0 16 16" fill="none" xmlns="http://www.w3.org/2000/svg">
<path d="M8.6667 1.35156V2.69823C11.5934 3.05823 13.6667 5.71823 13.3067 8.6449C13 11.0716 11.0934 12.9982 8.6667 13.2849V14.6182C12.3334 14.2516 15 10.9982 14.6334 7.33156C14.3334 4.1649 11.82 1.6649 8.6667 1.35156ZM7.33337 1.37156C6.03337 1.49823 4.79337 1.99823 3.78003 2.83823L4.73337 3.8249C5.48003 3.2249 6.38003 2.83823 7.33337 2.7049V1.37156ZM2.84003 3.77823C2.00699 4.79011 1.49409 6.0271 1.3667 7.33156H2.70003C2.8267 6.3849 3.20003 5.4849 3.79337 4.73156L2.84003 3.77823ZM10.3334 5.6649L7.08003 8.91823L5.6667 7.5049L4.96003 8.21156L7.08003 10.3316L11.04 6.37156L10.3334 5.6649ZM1.37337 8.6649C1.5067 9.97156 2.02003 11.2049 2.8467 12.2182L3.79337 11.2649C3.2046 10.5113 2.82927 9.61331 2.7067 8.6649H1.37337ZM4.73337 12.2449L3.78003 13.1582C4.79001 13.9998 6.02627 14.524 7.33337 14.6649V13.3316C6.38495 13.209 5.48694 12.8337 4.73337 12.2449Z" fill="#EC3900"/>
</svg>
