<svg width="35" height="35" viewBox="0 0 35 35" fill="none" xmlns="http://www.w3.org/2000/svg">
<path d="M0 17.5C0 7.83502 7.83502 0 17.5 0C27.165 0 35 7.83502 35 17.5C35 27.165 27.165 35 17.5 35C7.83502 35 0 27.165 0 17.5Z" fill="#F3D8D9"/>
<path d="M17.4998 21.6641V13.3307C16.3471 13.3307 15.3646 13.7371 14.5523 14.5499C13.7401 15.3627 13.3337 16.3452 13.3332 17.4974C13.3326 18.6496 13.739 19.6324 14.5523 20.4457C15.3657 21.2591 16.3482 21.6652 17.4998 21.6641ZM17.4998 25.8307C16.3471 25.8307 15.2637 25.6118 14.2498 25.1741C13.2359 24.7363 12.354 24.1427 11.604 23.3932C10.854 22.6438 10.2604 21.7618 9.82317 20.7474C9.38595 19.733 9.16706 18.6496 9.1665 17.4974C9.16595 16.3452 9.38484 15.2618 9.82317 14.2474C10.2615 13.233 10.8551 12.351 11.604 11.6016C12.3529 10.8521 13.2348 10.2585 14.2498 9.82073C15.2648 9.38295 16.3482 9.16406 17.4998 9.16406C18.6515 9.16406 19.7348 9.38295 20.7498 9.82073C21.7648 10.2585 22.6468 10.8521 23.3957 11.6016C24.1446 12.351 24.7384 13.233 25.1773 14.2474C25.6162 15.2618 25.8348 16.3452 25.8332 17.4974C25.8315 18.6496 25.6126 19.733 25.1765 20.7474C24.7404 21.7618 24.1468 22.6438 23.3957 23.3932C22.6446 24.1427 21.7626 24.7366 20.7498 25.1749C19.7371 25.6132 18.6537 25.8318 17.4998 25.8307ZM17.4998 24.1641C19.3609 24.1641 20.9373 23.5182 22.229 22.2266C23.5207 20.9349 24.1665 19.3585 24.1665 17.4974C24.1665 15.6363 23.5207 14.0599 22.229 12.7682C20.9373 11.4766 19.3609 10.8307 17.4998 10.8307C15.6387 10.8307 14.0623 11.4766 12.7707 12.7682C11.479 14.0599 10.8332 15.6363 10.8332 17.4974C10.8332 19.3585 11.479 20.9349 12.7707 22.2266C14.0623 23.5182 15.6387 24.1641 17.4998 24.1641Z" fill="#6D2E3D"/>
</svg>
