<svg width="20" height="20" viewBox="0 0 20 20" fill="none" xmlns="http://www.w3.org/2000/svg">
<path fill-rule="evenodd" clip-rule="evenodd" d="M17 4.66045e-09C17.7652 -4.26217e-05 18.5015 0.292325 19.0583 0.817284C19.615 1.34224 19.9501 2.06011 19.995 2.824L20 3V13C20 13.7652 19.7077 14.5015 19.1827 15.0583C18.6578 15.615 17.9399 15.9501 17.176 15.995L17 16H3C2.23479 16 1.49849 15.7077 0.941739 15.1827C0.384993 14.6578 0.0498925 13.9399 0.00500012 13.176L4.66045e-09 13V3C-4.26217e-05 2.23479 0.292325 1.49849 0.817284 0.941739C1.34224 0.384993 2.06011 0.0498925 2.824 0.00500012L3 4.66045e-09H17ZM18 6H2V13C2.00003 13.2449 2.08996 13.4813 2.25272 13.6644C2.41547 13.8474 2.63975 13.9643 2.883 13.993L3 14H17C17.2449 14 17.4813 13.91 17.6644 13.7473C17.8474 13.5845 17.9643 13.3603 17.993 13.117L18 13V6ZM12.707 7.464L14.535 9.293C14.7225 9.48053 14.8278 9.73484 14.8278 10C14.8278 10.2652 14.7225 10.5195 14.535 10.707L12.707 12.535C12.6148 12.6305 12.5044 12.7067 12.3824 12.7591C12.2604 12.8115 12.1292 12.8391 11.9964 12.8403C11.8636 12.8414 11.7319 12.8161 11.609 12.7658C11.4861 12.7155 11.3745 12.6413 11.2806 12.5474C11.1867 12.4535 11.1125 12.3419 11.0622 12.219C11.0119 12.0961 10.9866 11.9644 10.9877 11.8316C10.9889 11.6988 11.0165 11.5676 11.0689 11.4456C11.1213 11.3236 11.1975 11.2132 11.293 11.121L11.413 11H7C6.73478 11 6.48043 10.8946 6.29289 10.7071C6.10536 10.5196 6 10.2652 6 10C6 9.73478 6.10536 9.48043 6.29289 9.29289C6.48043 9.10536 6.73478 9 7 9H11.414L11.293 8.879C11.1054 8.69149 10.9999 8.43712 10.9998 8.17185C10.9997 7.90658 11.105 7.65214 11.2925 7.4645C11.48 7.27686 11.7344 7.17139 11.9996 7.1713C12.2649 7.1712 12.5194 7.27649 12.707 7.464ZM17 2H3C2.73478 2 2.48043 2.10536 2.29289 2.29289C2.10536 2.48043 2 2.73478 2 3V4H18V3C18 2.73478 17.8946 2.48043 17.7071 2.29289C17.5196 2.10536 17.2652 2 17 2Z" fill="white"/>
</svg>
