<svg width="36" height="35" viewBox="0 0 36 35" fill="none" xmlns="http://www.w3.org/2000/svg">
<path d="M0.333008 17.5C0.333008 7.83502 8.16803 0 17.833 0C27.498 0 35.333 7.83502 35.333 17.5C35.333 27.165 27.498 35 17.833 35C8.16803 35 0.333008 27.165 0.333008 17.5Z" fill="#F3D8D9"/>
<path d="M22.8332 9.9987H20.1832C19.8332 9.03203 18.9165 8.33203 17.8332 8.33203C16.7498 8.33203 15.8332 9.03203 15.4832 9.9987H12.8332C11.9165 9.9987 11.1665 10.7487 11.1665 11.6654V24.1654C11.1665 25.082 11.9165 25.832 12.8332 25.832H17.9248C17.4312 25.354 17.03 24.789 16.7415 24.1654H12.8332V11.6654H14.4998V12.4987C14.4998 13.4154 15.2498 14.1654 16.1665 14.1654H19.4998C20.4165 14.1654 21.1665 13.4154 21.1665 12.4987V11.6654H22.8332V15.8987C23.4248 15.982 23.9832 16.157 24.4998 16.3987V11.6654C24.4998 10.7487 23.7498 9.9987 22.8332 9.9987ZM17.8332 11.6654C17.3748 11.6654 16.9998 11.2904 16.9998 10.832C16.9998 10.3737 17.3748 9.9987 17.8332 9.9987C18.2915 9.9987 18.6665 10.3737 18.6665 10.832C18.6665 11.2904 18.2915 11.6654 17.8332 11.6654ZM21.9998 17.4987C19.6998 17.4987 17.8332 19.3654 17.8332 21.6654C17.8332 23.9654 19.6998 25.832 21.9998 25.832C24.2998 25.832 26.1665 23.9654 26.1665 21.6654C26.1665 19.3654 24.2998 17.4987 21.9998 17.4987ZM23.0748 23.332L21.6998 21.957C21.6213 21.8801 21.5764 21.7753 21.5748 21.6654V19.5904C21.5748 19.357 21.7582 19.1737 21.9915 19.1737C22.2248 19.1737 22.4082 19.357 22.4082 19.5904V21.4987L23.6582 22.7487C23.6971 22.7869 23.7281 22.8324 23.7493 22.8826C23.7706 22.9328 23.7817 22.9867 23.7819 23.0412C23.7822 23.0957 23.7717 23.1498 23.7509 23.2002C23.7302 23.2506 23.6997 23.2964 23.6611 23.335C23.6226 23.3735 23.5768 23.4041 23.5263 23.4248C23.4759 23.4455 23.4219 23.4561 23.3674 23.4558C23.3128 23.4555 23.2589 23.4444 23.2087 23.4232C23.1585 23.402 23.113 23.371 23.0748 23.332Z" fill="#6D2E3D"/>
</svg>
