<svg width="35" height="35" viewBox="0 0 35 35" fill="none" xmlns="http://www.w3.org/2000/svg">
<path d="M0 17.5C0 7.83502 7.83502 0 17.5 0C27.165 0 35 7.83502 35 17.5C35 27.165 27.165 35 17.5 35C7.83502 35 0 27.165 0 17.5Z" fill="white"/>
<path d="M22.5002 9.9987H19.8502C19.5002 9.03203 18.5835 8.33203 17.5002 8.33203C16.4168 8.33203 15.5002 9.03203 15.1502 9.9987H12.5002C11.5835 9.9987 10.8335 10.7487 10.8335 11.6654V24.1654C10.8335 25.082 11.5835 25.832 12.5002 25.832H17.5918C17.0982 25.354 16.697 24.789 16.4085 24.1654H12.5002V11.6654H14.1668V12.4987C14.1668 13.4154 14.9168 14.1654 15.8335 14.1654H19.1668C20.0835 14.1654 20.8335 13.4154 20.8335 12.4987V11.6654H22.5002V15.8987C23.0918 15.982 23.6502 16.157 24.1668 16.3987V11.6654C24.1668 10.7487 23.4168 9.9987 22.5002 9.9987ZM17.5002 11.6654C17.0418 11.6654 16.6668 11.2904 16.6668 10.832C16.6668 10.3737 17.0418 9.9987 17.5002 9.9987C17.9585 9.9987 18.3335 10.3737 18.3335 10.832C18.3335 11.2904 17.9585 11.6654 17.5002 11.6654ZM21.6668 17.4987C19.3668 17.4987 17.5002 19.3654 17.5002 21.6654C17.5002 23.9654 19.3668 25.832 21.6668 25.832C23.9668 25.832 25.8335 23.9654 25.8335 21.6654C25.8335 19.3654 23.9668 17.4987 21.6668 17.4987ZM22.7418 23.332L21.3668 21.957C21.2883 21.8801 21.2434 21.7753 21.2418 21.6654V19.5904C21.2418 19.357 21.4252 19.1737 21.6585 19.1737C21.8918 19.1737 22.0752 19.357 22.0752 19.5904V21.4987L23.3252 22.7487C23.3641 22.7869 23.3951 22.8324 23.4163 22.8826C23.4376 22.9328 23.4487 22.9867 23.4489 23.0412C23.4492 23.0957 23.4387 23.1498 23.4179 23.2002C23.3972 23.2506 23.3667 23.2964 23.3281 23.335C23.2896 23.3735 23.2438 23.4041 23.1933 23.4248C23.1429 23.4455 23.0889 23.4561 23.0344 23.4558C22.9798 23.4555 22.9259 23.4444 22.8757 23.4232C22.8255 23.402 22.78 23.371 22.7418 23.332Z" fill="#6D2E3D"/>
</svg>
