<svg width="18" height="17" viewBox="0 0 18 17" fill="none" xmlns="http://www.w3.org/2000/svg">
<path d="M16.436 4.59076L12.438 0.570762C11.686 -0.185238 10.375 -0.193238 9.608 0.564762C9.412 0.760762 9.258 1.00076 9.19 1.19376C8.537 2.55576 7.836 3.40876 6.936 3.92076L6.719 4.02576C5.751 4.51076 4.434 5.00476 2 5.00476C1.734 5.00543 1.47867 5.0561 1.234 5.15676C0.745022 5.36205 0.356388 5.75141 0.152 6.24076C-0.0472537 6.72957 -0.0472537 7.27695 0.152 7.76576C0.256 8.01476 0.402 8.23676 0.587 8.41676L3.822 11.6518L0 17.0048L5.352 13.1828L8.579 16.4098C8.765 16.5988 8.985 16.7488 9.235 16.8508C9.47728 16.9529 9.73756 17.0056 10.0005 17.0056C10.2634 17.0056 10.5237 16.9529 10.766 16.8508C11.009 16.7524 11.2297 16.6063 11.4152 16.4212C11.6007 16.236 11.7472 16.0155 11.846 15.7728C11.949 15.5308 12.001 15.2658 12.001 15.0048C12.001 12.5688 12.495 11.2528 12.979 10.2838C13.475 9.29176 14.348 8.53576 15.733 7.86976C16.005 7.76576 16.242 7.61343 16.444 7.41276C16.8148 7.03626 17.022 6.52858 17.0205 6.00012C17.019 5.47166 16.809 4.96516 16.436 4.59076ZM11.188 9.39176C10.369 11.0348 10 12.7618 9.993 14.9958L2 7.00476C4.139 7.00476 5.814 6.66976 7.396 5.92076L7.631 5.81576C9.03 5.11676 10.099 3.92276 11.019 1.98176L14.943 6.03276C13.08 6.92576 11.887 7.99276 11.188 9.39176Z" fill="#6D2E3D"/>
</svg>
