<svg width="36" height="35" viewBox="0 0 36 35" fill="none" xmlns="http://www.w3.org/2000/svg">
<path fill-rule="evenodd" clip-rule="evenodd" d="M12.5312 13.125C12.5312 11.6746 13.1074 10.2836 14.133 9.25801C15.1586 8.23242 16.5496 7.65625 18 7.65625C19.4504 7.65625 20.8414 8.23242 21.867 9.25801C22.8926 10.2836 23.4688 11.6746 23.4688 13.125C23.4688 14.5754 22.8926 15.9664 21.867 16.992C20.8414 18.0176 19.4504 18.5938 18 18.5938C16.5496 18.5938 15.1586 18.0176 14.133 16.992C13.1074 15.9664 12.5312 14.5754 12.5312 13.125ZM18 9.84375C17.1298 9.84375 16.2952 10.1895 15.6798 10.8048C15.0645 11.4202 14.7188 12.2548 14.7188 13.125C14.7188 13.9952 15.0645 14.8298 15.6798 15.4452C16.2952 16.0605 17.1298 16.4062 18 16.4062C18.8702 16.4062 19.7048 16.0605 20.3202 15.4452C20.9355 14.8298 21.2812 13.9952 21.2812 13.125C21.2812 12.2548 20.9355 11.4202 20.3202 10.8048C19.7048 10.1895 18.8702 9.84375 18 9.84375Z" fill="black"/>
<path fill-rule="evenodd" clip-rule="evenodd" d="M8.45653 11.8519C8.64908 9.51591 9.71309 7.33779 11.4373 5.75003C13.1615 4.16227 15.4197 3.28102 17.7636 3.28125H18.2361C20.58 3.28102 22.8383 4.16227 24.5624 5.75003C26.2866 7.33779 27.3506 9.51591 27.5432 11.8519C27.7564 14.4481 26.9545 17.0258 25.3061 19.0429L20.0634 25.4552C19.8134 25.7609 19.4985 26.0072 19.1417 26.1764C18.7848 26.3456 18.3948 26.4333 17.9999 26.4333C17.6049 26.4333 17.2149 26.3456 16.8581 26.1764C16.5012 26.0072 16.1864 25.7609 15.9363 25.4552L10.6936 19.0429C9.04559 17.0262 8.2437 14.4491 8.45653 11.8533M17.7636 5.47021C15.9688 5.46999 14.2396 6.14474 12.9193 7.36048C11.5991 8.57622 10.7843 10.244 10.6367 12.0327C10.4697 14.0644 11.097 16.0817 12.3867 17.6604L17.6294 24.0712C17.8205 24.3046 18.1792 24.3046 18.3703 24.0712L23.613 17.6604C24.9027 16.0817 25.53 14.0644 25.363 12.0327C25.2155 10.244 24.4007 8.57622 23.0804 7.36048C21.7601 6.14474 20.0309 5.46999 18.2361 5.47021H17.7636Z" fill="black"/>
<path d="M11.6852 23.8218C11.758 23.6927 11.8037 23.5502 11.8197 23.4029C11.8357 23.2555 11.8216 23.1065 11.7782 22.9648C11.7348 22.8231 11.6631 22.6917 11.5674 22.5786C11.4717 22.4654 11.354 22.3729 11.2215 22.3066C11.0889 22.2404 10.9443 22.2017 10.7964 22.193C10.6484 22.1844 10.5003 22.2058 10.3609 22.2562C10.2215 22.3065 10.0938 22.3846 9.98555 22.4858C9.87728 22.587 9.79069 22.7091 9.73106 22.8447L6.81439 28.6781C6.7312 28.8447 6.69194 29.0298 6.70033 29.2159C6.70872 29.402 6.76449 29.5828 6.86235 29.7413C6.96021 29.8998 7.09692 30.0306 7.25952 30.1215C7.42212 30.2123 7.60522 30.2601 7.79147 30.2604H28.2081C28.3944 30.2601 28.5775 30.2123 28.7401 30.1215C28.9027 30.0306 29.0394 29.8998 29.1373 29.7413C29.2351 29.5828 29.2909 29.402 29.2993 29.2159C29.3077 29.0298 29.2684 28.8447 29.1852 28.6781L26.2686 22.8447C26.2089 22.7091 26.1223 22.587 26.0141 22.4858C25.9058 22.3846 25.7781 22.3065 25.6387 22.2562C25.4993 22.2058 25.3512 22.1844 25.2033 22.193C25.0553 22.2017 24.9107 22.2404 24.7782 22.3066C24.6456 22.3729 24.5279 22.4654 24.4322 22.5786C24.3365 22.6917 24.2648 22.8231 24.2214 22.9648C24.1781 23.1065 24.1639 23.2555 24.1799 23.4029C24.1959 23.5502 24.2416 23.6927 24.3144 23.8218L26.4392 28.0729H9.56189L11.6852 23.8218Z" fill="black"/>
</svg>
