<svg width="18" height="17" viewBox="0 0 18 17" fill="none" xmlns="http://www.w3.org/2000/svg">
<path d="M2.75022 12.6475C3.71991 14.1118 5.17273 15.1894 6.85543 15.6924C8.53813 16.1954 10.344 16.0919 11.9582 15.4C13.5724 14.7081 14.8926 13.4716 15.6887 11.9061C16.4848 10.3406 16.7062 8.54538 16.3144 6.83337M2.75022 12.6475H5.66689M2.75022 12.6475L2.75022 15.5834M15.2369 4.33337C14.2636 2.87412 12.8097 1.80215 11.1279 1.30387C9.44617 0.805586 7.64296 0.912512 6.03186 1.60605C4.42077 2.29959 3.10371 3.53588 2.30973 5.09991C1.51575 6.66395 1.29506 8.45681 1.68605 10.1667M15.2369 4.33337H12.3336M15.2369 4.33337V1.4167" stroke="#6D2E3D" stroke-width="1.25" stroke-linecap="round" stroke-linejoin="round"/>
</svg>
