<svg width="16" height="13" viewBox="0 0 16 13" fill="none" xmlns="http://www.w3.org/2000/svg">
<path d="M14.9699 7.08917C15.1261 6.93289 15.2139 6.72097 15.2139 6.5C15.2139 6.27903 15.1261 6.06711 14.9699 5.91083L10.2557 1.19667C10.1788 1.11708 10.0869 1.05359 9.98522 1.00992C9.88355 0.966242 9.7742 0.943254 9.66355 0.942292C9.5529 0.941331 9.44316 0.962416 9.34075 1.00432C9.23834 1.04622 9.14529 1.10809 9.06705 1.18634C8.98881 1.26458 8.92693 1.35763 8.88503 1.46004C8.84313 1.56245 8.82204 1.67219 8.823 1.78284C8.82396 1.89348 8.84695 2.00283 8.89063 2.1045C8.9343 2.20617 8.99779 2.29813 9.07738 2.375L12.369 5.66667L1.33321 5.66667C1.1122 5.66667 0.900236 5.75447 0.743957 5.91075C0.587676 6.06703 0.499879 6.27899 0.499879 6.5C0.499879 6.72101 0.587676 6.93298 0.743957 7.08926C0.900236 7.24554 1.1122 7.33333 1.33321 7.33333L12.369 7.33333L9.07738 10.625C8.92558 10.7822 8.84159 10.9927 8.84348 11.2112C8.84538 11.4297 8.93302 11.6387 9.08753 11.7932C9.24204 11.9477 9.45105 12.0353 9.66954 12.0372C9.88804 12.0391 10.0985 11.9551 10.2557 11.8033L14.9699 7.08917Z" fill="#6D2E3D"/>
</svg>
