<svg width="17" height="17" viewBox="0 0 17 17" fill="none" xmlns="http://www.w3.org/2000/svg">
<path d="M11.729 0.294792C11.542 0.10679 11.288 0.000754119 11.0228 4.00685e-06C10.7577 -0.000746105 10.5031 0.103851 10.315 0.290792C10.2157 0.39185 10.139 0.512856 10.09 0.645792C9.258 2.38179 8.342 3.36079 7.186 3.93879C5.889 4.57879 4.4 5.02379 2 5.02379C1.8027 5.02524 1.61015 5.08445 1.44612 5.19409C1.28209 5.30374 1.15377 5.45904 1.077 5.64079C1.0013 5.82357 0.981504 6.02469 1.02013 6.21871C1.05876 6.41274 1.15407 6.59095 1.294 6.73079L4.537 9.97379L0 16.0238L6.05 11.4868L9.292 14.7288C9.3853 14.8219 9.49609 14.8957 9.618 14.9458C9.74133 14.9971 9.86867 15.0231 10 15.0238C10.197 15.0248 10.26 14.9968 10.382 14.9458C10.5646 14.8703 10.7207 14.7425 10.8307 14.5784C10.9406 14.4143 10.9996 14.2213 11 14.0238C11 11.6238 11.444 10.1348 12.083 8.85779C12.66 7.70179 13.639 6.78579 15.376 5.95379C15.5086 5.90466 15.6292 5.82797 15.73 5.72879C15.9169 5.54073 16.0215 5.28613 16.0208 5.02096C16.02 4.7558 15.914 4.50179 15.726 4.31479L11.729 0.294792Z" fill="#6D2E3D"/>
</svg>
