<svg width="11" height="14" viewBox="0 0 11 14" fill="none" xmlns="http://www.w3.org/2000/svg">
<path d="M5.5 0.88916C5.5015 0.911539 5.71295 4.03476 6.98535 5.34912C8.16459 6.56678 11 7.00049 11 7.00049C10.9937 7.00145 8.16328 7.43457 6.98535 8.65088C5.71667 9.96117 5.50277 13.0699 5.5 13.1108C5.4972 13.0694 5.28329 9.96103 4.01465 8.65088C2.83541 7.43322 0 7.00049 0 7.00049C0 7.00049 2.83541 6.56678 4.01465 5.34912C5.28693 4.03499 5.49844 0.912411 5.5 0.88916ZM5.49902 5.53369C4.62152 5.53369 3.91016 6.24504 3.91016 7.12256C3.91022 8.00003 4.62156 8.71143 5.49902 8.71143C6.37648 8.71142 7.08783 8.00002 7.08789 7.12256C7.08789 6.24504 6.37652 5.5337 5.49902 5.53369Z" fill="white"/>
</svg>
