<svg width="60" height="32" viewBox="0 0 60 32" fill="none" xmlns="http://www.w3.org/2000/svg">
<rect width="60" height="32" rx="16" fill="#FFEFEF"/>
<path d="M36 23.5C37.4 23.5 38.1 23.5 38.635 23.227C39.1051 22.9874 39.4874 22.6051 39.727 22.135C40 21.6 40 20.9 40 19.5V12.5C40 11.1 40 10.4 39.727 9.865C39.4875 9.39451 39.1053 9.01189 38.635 8.772C38.1 8.5 37.4 8.5 36 8.5M24 23.5C22.6 23.5 21.9 23.5 21.365 23.227C20.8945 22.9875 20.5119 22.6053 20.272 22.135C20 21.6 20 20.9 20 19.5V12.5C20 11.1 20 10.4 20.272 9.865C20.5117 9.39435 20.8944 9.01172 21.365 8.772C21.9 8.5 22.6 8.5 24 8.5M24 12C24 9.172 24 7.757 24.879 6.879C25.757 6 27.172 6 30 6C32.828 6 34.243 6 35.121 6.879C36 7.757 36 9.172 36 12V20C36 22.828 36 24.243 35.121 25.121C34.243 26 32.828 26 30 26C27.172 26 25.757 26 24.879 25.121C24 24.243 24 22.828 24 20V12Z" stroke="black" stroke-width="1.5"/>
</svg>
