<svg width="35" height="36" viewBox="0 0 35 36" fill="none" xmlns="http://www.w3.org/2000/svg">
<path d="M0 18C0 8.33502 7.83502 0.5 17.5 0.5C27.165 0.5 35 8.33502 35 18C35 27.665 27.165 35.5 17.5 35.5C7.83502 35.5 0 27.665 0 18Z" fill="#F3D8D9"/>
<path d="M17.4992 14C18.0297 14 18.5384 13.7893 18.9134 13.4142C19.2885 13.0391 19.4992 12.5304 19.4992 12C19.4992 11.4696 19.2885 10.9609 18.9134 10.5858C18.5384 10.2107 18.0297 10 17.4992 10C16.9688 10 16.4601 10.2107 16.085 10.5858C15.7099 10.9609 15.4992 11.4696 15.4992 12C15.4992 12.5304 15.7099 13.0391 16.085 13.4142C16.4601 13.7893 16.9688 14 17.4992 14ZM17.4992 13C17.234 13 16.9797 12.8946 16.7921 12.7071C16.6046 12.5196 16.4992 12.2652 16.4992 12C16.4992 11.7348 16.6046 11.4804 16.7921 11.2929C16.9797 11.1054 17.234 11 17.4992 11C17.7644 11 18.0188 11.1054 18.2063 11.2929C18.3939 11.4804 18.4992 11.7348 18.4992 12C18.4992 12.2652 18.3939 12.5196 18.2063 12.7071C18.0188 12.8946 17.7644 13 17.4992 13ZM15.9992 16C15.8666 16 15.7394 16.0527 15.6457 16.1464C15.5519 16.2402 15.4992 16.3674 15.4992 16.5V17H14.4992V16.5C14.4992 16.1022 14.6573 15.7206 14.9386 15.4393C15.2199 15.158 15.6014 15 15.9992 15H18.9992C19.397 15 19.7786 15.158 20.0599 15.4393C20.3412 15.7206 20.4992 16.1022 20.4992 16.5V17H19.4992V16.5C19.4992 16.3674 19.4465 16.2402 19.3528 16.1464C19.259 16.0527 19.1318 16 18.9992 16H15.9992ZM14.4992 22.784V24.5C14.4992 24.8978 14.6573 25.2794 14.9386 25.5607C15.2199 25.842 15.6014 26 15.9992 26H18.9992C19.397 26 19.7786 25.842 20.0599 25.5607C20.3412 25.2794 20.4992 24.8978 20.4992 24.5V22.784C20.4992 22.7168 20.5128 22.6503 20.5391 22.5884C20.5653 22.5266 20.6038 22.4706 20.6522 22.424L24.3552 18.86C24.427 18.7908 24.4764 18.7018 24.4972 18.6043C24.518 18.5068 24.5092 18.4053 24.4719 18.3129C24.4346 18.2205 24.3705 18.1413 24.2879 18.0855C24.2053 18.0298 24.1079 18 24.0082 18H10.9902C10.8906 18.0002 10.7934 18.0301 10.7109 18.086C10.6284 18.1418 10.5645 18.221 10.5273 18.3134C10.4902 18.4058 10.4814 18.5072 10.5023 18.6045C10.5231 18.7019 10.5725 18.7909 10.6442 18.86L14.3462 22.424C14.3948 22.4706 14.4335 22.5264 14.4599 22.5883C14.4864 22.6502 14.4991 22.7167 14.4992 22.784ZM15.5002 24.5V22.784C15.5001 22.5823 15.4593 22.3827 15.3803 22.1971C15.3012 22.0116 15.1856 21.8438 15.0402 21.704L12.2292 19H22.7682L19.9582 21.703C19.8128 21.843 19.697 22.0108 19.618 22.1966C19.539 22.3823 19.4982 22.5821 19.4982 22.784V24.5C19.4982 24.6326 19.4455 24.7598 19.3518 24.8536C19.258 24.9473 19.1308 25 18.9982 25H15.9982C15.8656 25 15.7384 24.9473 15.6447 24.8536C15.5509 24.7598 15.4982 24.6326 15.4982 24.5" fill="#6D2E3D"/>
</svg>
