<svg width="21" height="19" viewBox="0 0 21 19" fill="none" xmlns="http://www.w3.org/2000/svg">
<path d="M3.28075 9.50096C3.4548 9.50096 3.62172 9.43182 3.74479 9.30875C3.86785 9.18568 3.93699 9.01876 3.93699 8.84472C3.93699 8.67067 3.86785 8.50375 3.74479 8.38069C3.62172 8.25762 3.4548 8.18848 3.28075 8.18848C3.10671 8.18848 2.93979 8.25762 2.81672 8.38069C2.69365 8.50375 2.62451 8.67067 2.62451 8.84472C2.62451 9.01876 2.69365 9.18568 2.81672 9.30875C2.93979 9.43182 3.10671 9.50096 3.28075 9.50096Z" fill="#6D2E3D"/>
<path d="M6.56241 0.3125C5.86623 0.3125 5.19856 0.589058 4.70628 1.08133C4.21401 1.57361 3.93745 2.24128 3.93745 2.93747V5.56243H2.62497C1.92878 5.56243 1.26111 5.83899 0.768835 6.33127C0.276558 6.82354 0 7.49121 0 8.1874L0 12.1248C0 12.821 0.276558 13.4887 0.768835 13.981C1.26111 14.4733 1.92878 14.7498 2.62497 14.7498H3.93745V16.0623C3.93745 16.7585 4.21401 17.4261 4.70628 17.9184C5.19856 18.4107 5.86623 18.6873 6.56241 18.6873H14.4373C15.1335 18.6873 15.8012 18.4107 16.2934 17.9184C16.7857 17.4261 17.0623 16.7585 17.0623 16.0623V14.7498H18.3748C19.0709 14.7498 19.7386 14.4733 20.2309 13.981C20.7232 13.4887 20.9997 12.821 20.9997 12.1248V8.1874C20.9997 7.49121 20.7232 6.82354 20.2309 6.33127C19.7386 5.83899 19.0709 5.56243 18.3748 5.56243H17.0623V2.93747C17.0623 2.24128 16.7857 1.57361 16.2934 1.08133C15.8012 0.589058 15.1335 0.3125 14.4373 0.3125H6.56241ZM5.24993 2.93747C5.24993 2.58937 5.38821 2.25554 5.63435 2.0094C5.88049 1.76326 6.21432 1.62498 6.56241 1.62498H14.4373C14.7854 1.62498 15.1192 1.76326 15.3654 2.0094C15.6115 2.25554 15.7498 2.58937 15.7498 2.93747V5.56243H5.24993V2.93747ZM6.56241 9.49988C5.86623 9.49988 5.19856 9.77644 4.70628 10.2687C4.21401 10.761 3.93745 11.4287 3.93745 12.1248V13.4373H2.62497C2.27687 13.4373 1.94304 13.299 1.6969 13.0529C1.45076 12.8068 1.31248 12.4729 1.31248 12.1248V8.1874C1.31248 7.8393 1.45076 7.50547 1.6969 7.25933C1.94304 7.01319 2.27687 6.87491 2.62497 6.87491H18.3748C18.7228 6.87491 19.0567 7.01319 19.3028 7.25933C19.549 7.50547 19.6872 7.8393 19.6872 8.1874V12.1248C19.6872 12.4729 19.549 12.8068 19.3028 13.0529C19.0567 13.299 18.7228 13.4373 18.3748 13.4373H17.0623V12.1248C17.0623 11.4287 16.7857 10.761 16.2934 10.2687C15.8012 9.77644 15.1335 9.49988 14.4373 9.49988H6.56241ZM15.7498 12.1248V16.0623C15.7498 16.4104 15.6115 16.7442 15.3654 16.9904C15.1192 17.2365 14.7854 17.3748 14.4373 17.3748H6.56241C6.21432 17.3748 5.88049 17.2365 5.63435 16.9904C5.38821 16.7442 5.24993 16.4104 5.24993 16.0623V12.1248C5.24993 11.7768 5.38821 11.4429 5.63435 11.1968C5.88049 10.9506 6.21432 10.8124 6.56241 10.8124H14.4373C14.7854 10.8124 15.1192 10.9506 15.3654 11.1968C15.6115 11.4429 15.7498 11.7768 15.7498 12.1248Z" fill="#6D2E3D"/>
</svg>
