<svg width="100" height="100" viewBox="0 0 100 100" fill="none" xmlns="http://www.w3.org/2000/svg">
<rect width="100" height="100" rx="50" fill="url(#paint0_linear_2174_67089)"/>
<g clip-path="url(#clip0_2174_67089)">
<path d="M54.671 43.2072C55.0972 41.9284 56.903 41.9284 57.3292 43.2072L59.8286 50.7131C60.3788 52.363 61.3057 53.8622 62.5359 55.0917C63.766 56.3212 65.2657 57.2473 66.916 57.7966L74.418 60.2959C75.6967 60.7222 75.6967 62.5279 74.418 62.9542L66.9121 65.4536C65.2621 66.0037 63.763 66.9306 62.5335 68.1608C61.3039 69.391 60.3779 70.8907 59.8286 72.5409L57.3292 80.0429C57.2374 80.3229 57.0594 80.5668 56.8207 80.7397C56.582 80.9125 56.2948 81.0056 56.0001 81.0056C55.7054 81.0056 55.4182 80.9125 55.1796 80.7397C54.9409 80.5668 54.7629 80.3229 54.671 80.0429L52.1716 72.5371C51.6219 70.8875 50.6956 69.3886 49.4661 68.1591C48.2366 66.9296 46.7377 66.0033 45.0881 65.4536L37.5822 62.9542C37.3022 62.8623 37.0584 62.6843 36.8855 62.4456C36.7127 62.2069 36.6196 61.9198 36.6196 61.6251C36.6196 61.3303 36.7127 61.0432 36.8855 60.8045C37.0584 60.5658 37.3022 60.3878 37.5822 60.2959L45.0881 57.7966C46.7377 57.2468 48.2366 56.3205 49.4661 55.091C50.6956 53.8615 51.6219 52.3626 52.1716 50.7131L54.671 43.2072ZM39.7019 23.4486C39.7574 23.2807 39.8645 23.1347 40.0078 23.0312C40.1511 22.9277 40.3233 22.872 40.5001 22.872C40.6769 22.872 40.8492 22.9277 40.9925 23.0312C41.1358 23.1347 41.2428 23.2807 41.2984 23.4486L42.798 27.9513C43.4684 29.9586 45.0416 31.5318 47.0489 32.2022L51.5516 33.7018C51.7194 33.7574 51.8655 33.8644 51.969 34.0077C52.0725 34.151 52.1282 34.3233 52.1282 34.5001C52.1282 34.6768 52.0725 34.8491 51.969 34.9924C51.8655 35.1357 51.7194 35.2427 51.5516 35.2983L47.0489 36.7979C46.0583 37.1267 45.1582 37.6822 44.4202 38.4202C43.6822 39.1581 43.1267 40.0583 42.798 41.0488L41.2984 45.5516C41.2428 45.7194 41.1358 45.8654 40.9925 45.9689C40.8492 46.0724 40.6769 46.1281 40.5001 46.1281C40.3233 46.1281 40.1511 46.0724 40.0078 45.9689C39.8645 45.8654 39.7574 45.7194 39.7019 45.5516L38.2022 41.0488C37.8735 40.0583 37.318 39.1581 36.58 38.4202C35.842 37.6822 34.9419 37.1267 33.9514 36.7979L29.4486 35.2983C29.2808 35.2427 29.1348 35.1357 29.0313 34.9924C28.9278 34.8491 28.8721 34.6768 28.8721 34.5001C28.8721 34.3233 28.9278 34.151 29.0313 34.0077C29.1348 33.8644 29.2808 33.7574 29.4486 33.7018L33.9514 32.2022C34.9419 31.8734 35.842 31.3179 36.58 30.58C37.318 29.842 37.8735 28.9419 38.2022 27.9513L39.7019 23.4486ZM67.0942 19.3837C67.1325 19.2733 67.2042 19.1777 67.2993 19.11C67.3945 19.0422 67.5083 19.0059 67.6251 19.0059C67.7419 19.0059 67.8558 19.0422 67.9509 19.11C68.0461 19.1777 68.1177 19.2733 68.156 19.3837L69.1557 22.3829C69.6014 23.7237 70.6515 24.7738 71.9922 25.2194L74.9915 26.2192C75.1018 26.2574 75.1975 26.3291 75.2652 26.4243C75.3329 26.5194 75.3693 26.6333 75.3693 26.7501C75.3693 26.8668 75.3329 26.9807 75.2652 27.0759C75.1975 27.171 75.1018 27.2427 74.9915 27.2809L71.9922 28.2807C71.3321 28.5016 70.7323 28.8727 70.24 29.365C69.7478 29.8572 69.3766 30.457 69.1557 31.1172L68.156 34.1164C68.1177 34.2268 68.0461 34.3224 67.9509 34.3902C67.8558 34.4579 67.7419 34.4943 67.6251 34.4943C67.5083 34.4943 67.3945 34.4579 67.2993 34.3902C67.2042 34.3224 67.1325 34.2268 67.0942 34.1164L66.0945 31.1172C65.8736 30.457 65.5024 29.8572 65.0102 29.365C64.518 28.8727 63.9181 28.5016 63.258 28.2807L60.2626 27.2809C60.1523 27.2427 60.0566 27.171 59.9889 27.0759C59.9212 26.9807 59.8848 26.8668 59.8848 26.7501C59.8848 26.6333 59.9212 26.5194 59.9889 26.4243C60.0566 26.3291 60.1523 26.2574 60.2626 26.2192L63.2619 25.2194C64.6026 24.7738 65.6527 23.7237 66.0984 22.3829L67.0942 19.3837Z" fill="white"/>
</g>
<defs>
<linearGradient id="paint0_linear_2174_67089" x1="-1.32013e-06" y1="1.84193" x2="114.849" y2="25.2254" gradientUnits="userSpaceOnUse">
<stop stop-color="#471923"/>
<stop offset="1" stop-color="#7F3242"/>
</linearGradient>
<clipPath id="clip0_2174_67089">
<rect width="62" height="62" fill="white" transform="translate(25 19)"/>
</clipPath>
</defs>
</svg>
