<svg width="20" height="20" viewBox="0 0 20 20" fill="none" xmlns="http://www.w3.org/2000/svg">
<path d="M11.4225 2.74417C11.2663 2.58788 11.0543 2.50005 10.8333 2.5H3.33333C3.11232 2.5 2.90036 2.5878 2.74408 2.74408C2.5878 2.90036 2.5 3.11232 2.5 3.33333V10.8333C2.5 11.055 2.5875 11.2667 2.74417 11.4225L9.41083 18.0892C9.48804 18.1668 9.57984 18.2284 9.68096 18.2705C9.78207 18.3125 9.89049 18.3342 10 18.3342C10.1095 18.3342 10.2179 18.3125 10.319 18.2705C10.4202 18.2284 10.512 18.1668 10.5892 18.0892L18.0892 10.5892C18.2454 10.4329 18.3332 10.221 18.3332 10C18.3332 9.77903 18.2454 9.56711 18.0892 9.41083L11.4225 2.74417ZM10 16.3217L4.16667 10.4883V4.16667H10.4883L16.3217 10L10 16.3217Z" fill="black"/>
<path d="M7.07985 8.33255C7.77251 8.33255 8.33402 7.77104 8.33402 7.07839C8.33402 6.38573 7.77251 5.82422 7.07985 5.82422C6.38719 5.82422 5.82568 6.38573 5.82568 7.07839C5.82568 7.77104 6.38719 8.33255 7.07985 8.33255Z" fill="black"/>
</svg>
