<svg width="35" height="35" viewBox="0 0 35 35" fill="none" xmlns="http://www.w3.org/2000/svg">
<path d="M0 17.5C0 7.83502 7.83502 0 17.5 0C27.165 0 35 7.83502 35 17.5C35 27.165 27.165 35 17.5 35C7.83502 35 0 27.165 0 17.5Z" fill="#F3D8D9"/>
<path d="M17.4998 18.668L19.9165 21.0846C20.0693 21.2374 20.2637 21.3138 20.4998 21.3138C20.7359 21.3138 20.9304 21.2374 21.0832 21.0846C21.2359 20.9319 21.3123 20.7374 21.3123 20.5013C21.3123 20.2652 21.2359 20.0707 21.0832 19.918L18.6665 17.5013L21.0832 15.0846C21.2359 14.9319 21.3123 14.7374 21.3123 14.5013C21.3123 14.2652 21.2359 14.0707 21.0832 13.918C20.9304 13.7652 20.7359 13.6888 20.4998 13.6888C20.2637 13.6888 20.0693 13.7652 19.9165 13.918L17.4998 16.3346L15.0832 13.918C14.9304 13.7652 14.7359 13.6888 14.4998 13.6888C14.2637 13.6888 14.0693 13.7652 13.9165 13.918C13.7637 14.0707 13.6873 14.2652 13.6873 14.5013C13.6873 14.7374 13.7637 14.9319 13.9165 15.0846L16.3332 17.5013L13.9165 19.918C13.7637 20.0707 13.6873 20.2652 13.6873 20.5013C13.6873 20.7374 13.7637 20.9319 13.9165 21.0846C14.0693 21.2374 14.2637 21.3138 14.4998 21.3138C14.7359 21.3138 14.9304 21.2374 15.0832 21.0846L17.4998 18.668ZM17.4998 25.8346C16.3471 25.8346 15.2637 25.6157 14.2498 25.178C13.2359 24.7402 12.354 24.1466 11.604 23.3971C10.854 22.6477 10.2604 21.7657 9.82317 20.7513C9.38595 19.7369 9.16706 18.6535 9.1665 17.5013C9.16595 16.3491 9.38484 15.2657 9.82317 14.2513C10.2615 13.2369 10.8551 12.3549 11.604 11.6055C12.3529 10.856 13.2348 10.2624 14.2498 9.82464C15.2648 9.38686 16.3482 9.16797 17.4998 9.16797C18.6515 9.16797 19.7348 9.38686 20.7498 9.82464C21.7648 10.2624 22.6468 10.856 23.3957 11.6055C24.1446 12.3549 24.7384 13.2369 25.1773 14.2513C25.6162 15.2657 25.8348 16.3491 25.8332 17.5013C25.8315 18.6535 25.6126 19.7369 25.1765 20.7513C24.7404 21.7657 24.1468 22.6477 23.3957 23.3971C22.6446 24.1466 21.7626 24.7405 20.7498 25.1788C19.7371 25.6171 18.6537 25.8357 17.4998 25.8346ZM17.4998 24.168C19.3609 24.168 20.9373 23.5221 22.229 22.2305C23.5207 20.9388 24.1665 19.3624 24.1665 17.5013C24.1665 15.6402 23.5207 14.0638 22.229 12.7721C20.9373 11.4805 19.3609 10.8346 17.4998 10.8346C15.6387 10.8346 14.0623 11.4805 12.7707 12.7721C11.479 14.0638 10.8332 15.6402 10.8332 17.5013C10.8332 19.3624 11.479 20.9388 12.7707 22.2305C14.0623 23.5221 15.6387 24.168 17.4998 24.168Z" fill="#6D2E3D"/>
</svg>
