<svg width="35" height="35" viewBox="0 0 35 35" fill="none" xmlns="http://www.w3.org/2000/svg">
<path d="M0 17.5C0 7.83502 7.83502 0 17.5 0C27.165 0 35 7.83502 35 17.5C35 27.165 27.165 35 17.5 35C7.83502 35 0 27.165 0 17.5Z" fill="#F3D8D9"/>
<path d="M25 12.5C25.1326 12.5 25.2598 12.5527 25.3536 12.6464C25.4473 12.7402 25.5 12.8674 25.5 13C25.5 13.1326 25.4473 13.2598 25.3536 13.3536C25.2598 13.4473 25.1326 13.5 25 13.5H10C9.86739 13.5 9.74021 13.4473 9.64645 13.3536C9.55268 13.2598 9.5 13.1326 9.5 13C9.5 12.8674 9.55268 12.7402 9.64645 12.6464C9.74021 12.5527 9.86739 12.5 10 12.5H25ZM25 15.5C25.1326 15.5 25.2598 15.5527 25.3536 15.6464C25.4473 15.7402 25.5 15.8674 25.5 16C25.5 16.1326 25.4473 16.2598 25.3536 16.3536C25.2598 16.4473 25.1326 16.5 25 16.5H10C9.86739 16.5 9.74021 16.4473 9.64645 16.3536C9.55268 16.2598 9.5 16.1326 9.5 16C9.5 15.8674 9.55268 15.7402 9.64645 15.6464C9.74021 15.5527 9.86739 15.5 10 15.5H25ZM17.757 18.5C17.5023 18.8084 17.282 19.1438 17.1 19.5H10C9.86739 19.5 9.74021 19.4473 9.64645 19.3536C9.55268 19.2598 9.5 19.1326 9.5 19C9.5 18.8674 9.55268 18.7402 9.64645 18.6464C9.74021 18.5527 9.86739 18.5 10 18.5H17.757ZM16.5 22C16.5 22.168 16.5073 22.3347 16.522 22.5H10C9.86739 22.5 9.74021 22.4473 9.64645 22.3536C9.55268 22.2598 9.5 22.1326 9.5 22C9.5 21.8674 9.55268 21.7402 9.64645 21.6464C9.74021 21.5527 9.86739 21.5 10 21.5H16.522C16.5077 21.6663 16.5004 21.8331 16.5 22ZM22 26.5C23.1935 26.5 24.3381 26.0259 25.182 25.182C26.0259 24.3381 26.5 23.1935 26.5 22C26.5 20.8065 26.0259 19.6619 25.182 18.818C24.3381 17.9741 23.1935 17.5 22 17.5C20.8065 17.5 19.6619 17.9741 18.818 18.818C17.9741 19.6619 17.5 20.8065 17.5 22C17.5 23.1935 17.9741 24.3381 18.818 25.182C19.6619 26.0259 20.8065 26.5 22 26.5ZM23.146 23.854L22 22.707L20.854 23.854C20.7601 23.9479 20.6328 24.0006 20.5 24.0006C20.3672 24.0006 20.2399 23.9479 20.146 23.854C20.0521 23.7601 19.9994 23.6328 19.9994 23.5C19.9994 23.3672 20.0521 23.2399 20.146 23.146L21.293 22L20.146 20.854C20.0521 20.7601 19.9994 20.6328 19.9994 20.5C19.9994 20.3672 20.0521 20.2399 20.146 20.146C20.2399 20.0521 20.3672 19.9994 20.5 19.9994C20.6328 19.9994 20.7601 20.0521 20.854 20.146L22 21.293L23.146 20.146C23.1925 20.0995 23.2477 20.0626 23.3084 20.0375C23.3692 20.0123 23.4343 19.9994 23.5 19.9994C23.5657 19.9994 23.6308 20.0123 23.6916 20.0375C23.7523 20.0626 23.8075 20.0995 23.854 20.146C23.9005 20.1925 23.9374 20.2477 23.9625 20.3084C23.9877 20.3692 24.0006 20.4343 24.0006 20.5C24.0006 20.5657 23.9877 20.6308 23.9625 20.6916C23.9374 20.7523 23.9005 20.8075 23.854 20.854L22.707 22L23.854 23.146C23.9005 23.1925 23.9374 23.2477 23.9625 23.3084C23.9877 23.3692 24.0006 23.4343 24.0006 23.5C24.0006 23.5657 23.9877 23.6308 23.9625 23.6916C23.9374 23.7523 23.9005 23.8075 23.854 23.854C23.8075 23.9005 23.7523 23.9374 23.6916 23.9625C23.6308 23.9877 23.5657 24.0006 23.5 24.0006C23.4343 24.0006 23.3692 23.9877 23.3084 23.9625C23.2477 23.9374 23.1925 23.9005 23.146 23.854Z" fill="#6D2E3D"/>
</svg>
