<svg width="50" height="48" viewBox="0 0 50 48" fill="none" xmlns="http://www.w3.org/2000/svg">
<path d="M15 15H35M15 25H30M40 2.5C41.9891 2.5 43.8968 3.29018 45.3033 4.6967C46.7098 6.10322 47.5 8.01088 47.5 10V30C47.5 31.9891 46.7098 33.8968 45.3033 35.3033C43.8968 36.7098 41.9891 37.5 40 37.5H27.5L15 45V37.5H10C8.01088 37.5 6.10322 36.7098 4.6967 35.3033C3.29018 33.8968 2.5 31.9891 2.5 30V10C2.5 8.01088 3.29018 6.10322 4.6967 4.6967C6.10322 3.29018 8.01088 2.5 10 2.5H40Z" stroke="#FF0000" stroke-width="5" stroke-linecap="round" stroke-linejoin="round"/>
</svg>
