<svg width="25" height="24" viewBox="0 0 25 24" fill="none" xmlns="http://www.w3.org/2000/svg">
<path d="M10.5 5H3.5C3.23478 5 2.98043 5.10536 2.79289 5.29289C2.60536 5.48043 2.5 5.73478 2.5 6V19C2.5 19.2652 2.60536 19.5196 2.79289 19.7071C2.98043 19.8946 3.23478 20 3.5 20H21.5C21.7652 20 22.0196 19.8946 22.2071 19.7071C22.3946 19.5196 22.5 19.2652 22.5 19V17.75" stroke="#6D2E3D" stroke-width="1.5" stroke-linecap="round" stroke-linejoin="round"/>
<path d="M5.5 11.5H9.5M5.5 15.5H17.5" stroke="#6D2E3D" stroke-width="1.5" stroke-linecap="round"/>
<path d="M17.5 11C19.1569 11 20.5 9.65685 20.5 8C20.5 6.34315 19.1569 5 17.5 5C15.8431 5 14.5 6.34315 14.5 8C14.5 9.65685 15.8431 11 17.5 11Z" stroke="#6D2E3D" stroke-width="1.5" stroke-linecap="round" stroke-linejoin="round"/>
<path d="M22.4996 14.2095C21.5231 12.301 19.4996 11 17.4996 11C15.4996 11 14.5031 11.5665 13.4746 12.5" stroke="#6D2E3D" stroke-width="1.5" stroke-linecap="round" stroke-linejoin="round"/>
</svg>
