<svg width="17" height="16" viewBox="0 0 17 16" fill="none" xmlns="http://www.w3.org/2000/svg">
<path d="M11.7295 3.00652L13.4937 4.77069M12.8637 1.45236L8.09116 6.22486C7.84383 6.47056 7.67553 6.78453 7.60783 7.12652L7.16699 9.33319L9.37366 8.89152C9.71533 8.82319 10.0287 8.65569 10.2753 8.40902L15.0478 3.63652C15.1912 3.49311 15.305 3.32285 15.3826 3.13547C15.4602 2.94809 15.5002 2.74726 15.5002 2.54444C15.5002 2.34162 15.4602 2.14079 15.3826 1.95341C15.305 1.76603 15.1912 1.59577 15.0478 1.45236C14.9044 1.30894 14.7342 1.19518 14.5468 1.11756C14.3594 1.03995 14.1586 1 13.9557 1C13.7529 1 13.5521 1.03995 13.3647 1.11756C13.1773 1.19518 13.0071 1.30894 12.8637 1.45236Z" stroke="#6D2E3D" stroke-width="1.2" stroke-linecap="round" stroke-linejoin="round"/>
<path d="M13.8335 11.0003V13.5003C13.8335 13.9424 13.6579 14.3663 13.3453 14.6788C13.0328 14.9914 12.6089 15.167 12.1668 15.167H3.00016C2.55814 15.167 2.13421 14.9914 1.82165 14.6788C1.50909 14.3663 1.3335 13.9424 1.3335 13.5003V4.33366C1.3335 3.89163 1.50909 3.46771 1.82165 3.15515C2.13421 2.84259 2.55814 2.66699 3.00016 2.66699H5.50016" stroke="#6D2E3D" stroke-width="1.2" stroke-linecap="round" stroke-linejoin="round"/>
</svg>
