<svg width="16" height="13" viewBox="0 0 16 13" fill="none" xmlns="http://www.w3.org/2000/svg">
<path d="M8.00016 9.41634C9.61099 9.41634 10.9168 8.11051 10.9168 6.49967C10.9168 4.88884 9.61099 3.58301 8.00016 3.58301C6.38933 3.58301 5.0835 4.88884 5.0835 6.49967C5.0835 8.11051 6.38933 9.41634 8.00016 9.41634Z" stroke="#6D2E3D" stroke-width="1.2"/>
<path d="M14.8236 5.61167C15.1469 6.005 15.3086 6.20083 15.3086 6.5C15.3086 6.79917 15.1469 6.995 14.8236 7.38833C13.6402 8.825 11.0302 11.5 8.00023 11.5C4.97023 11.5 2.36023 8.825 1.17689 7.38833C0.853561 6.995 0.691895 6.79917 0.691895 6.5C0.691895 6.20083 0.853561 6.005 1.17689 5.61167C2.36023 4.175 4.97023 1.5 8.00023 1.5C11.0302 1.5 13.6402 4.175 14.8236 5.61167Z" stroke="#6D2E3D" stroke-width="1.2"/>
</svg>
