<svg width="61" height="60" viewBox="0 0 61 60" fill="none" xmlns="http://www.w3.org/2000/svg">
<rect x="0.75" width="60" height="60" rx="8" fill="white"/>
<path d="M30.75 11L14.25 16.4286V32.7143C14.25 41.7096 21.6363 49 30.75 49C39.8637 49 47.25 41.7096 47.25 32.7143V16.4286L30.75 11ZM44.1562 32.7143C44.1562 40.0217 38.1535 45.9464 30.75 45.9464C23.3465 45.9464 17.3438 40.0217 17.3438 32.7143V18.7187L30.75 14.0536L44.1562 18.7187V32.7143Z" fill="#6D2E3D"/>
<path d="M24.862 28.5037C24.7202 28.3557 24.5517 28.2382 24.3661 28.1581C24.1806 28.0779 23.9816 28.0367 23.7807 28.0367C23.5797 28.0367 23.3807 28.0779 23.1952 28.1581C23.0096 28.2382 22.8411 28.3557 22.6993 28.5037C22.5569 28.6511 22.4439 28.8263 22.3668 29.0191C22.2897 29.212 22.25 29.4189 22.25 29.6277C22.25 29.8366 22.2897 30.0434 22.3668 30.2363C22.4439 30.4292 22.5569 30.6044 22.6993 30.7517L28.1973 36.4667L28.2865 36.5595C28.4206 36.6991 28.5799 36.8099 28.7552 36.8855C28.9305 36.9611 29.1185 37 29.3083 37C29.4981 37 29.6861 36.9611 29.8614 36.8855C30.0368 36.8099 30.1961 36.6991 30.3302 36.5595L39.8262 26.6886C39.9605 26.5492 40.0671 26.3836 40.1398 26.2013C40.2126 26.0191 40.25 25.8237 40.25 25.6264C40.25 25.4291 40.2126 25.2337 40.1398 25.0514C40.0671 24.8692 39.9605 24.7036 39.8262 24.5642L39.7072 24.4405C39.5731 24.3009 39.4138 24.1901 39.2385 24.1145C39.0632 24.0389 38.8752 24 38.6854 24C38.4956 24 38.3076 24.0389 38.1323 24.1145C37.9569 24.1901 37.7976 24.3009 37.6636 24.4405L29.3062 33.1234L24.862 28.5037Z" fill="#6D2E3D"/>
</svg>
