<svg width="20" height="20" viewBox="0 0 20 20" fill="none" xmlns="http://www.w3.org/2000/svg">
<path d="M6.39999 6.39999H13.6M6.39999 8.79998H13.6M10.6 11.2H13.6M10.6 13.6H13.6M4 15.64V4.36C4 4.26452 4.03793 4.17295 4.10544 4.10544C4.17295 4.03793 4.26452 4 4.36 4H15.64C15.7354 4 15.827 4.03793 15.8945 4.10544C15.962 4.17295 16 4.26452 16 4.36V15.64C16 15.7354 15.962 15.827 15.8945 15.8945C15.827 15.962 15.7354 16 15.64 16H4.36C4.26452 16 4.17295 15.962 4.10544 15.8945C4.03793 15.827 4 15.7354 4 15.64Z" stroke="black" stroke-linecap="round" stroke-linejoin="round"/>
<path d="M6.3999 13.5992V11.1992H8.1999V13.5992H6.3999Z" stroke="black" stroke-width="1.25" stroke-linecap="round" stroke-linejoin="round"/>
</svg>
