<svg width="14" height="12" viewBox="0 0 14 12" fill="none" xmlns="http://www.w3.org/2000/svg">
<path d="M5.49984 11.1667V3.16671C5.49984 2.54787 5.254 1.95438 4.81642 1.51679C4.37883 1.07921 3.78534 0.833374 3.1665 0.833374" stroke="white" stroke-linecap="round" stroke-linejoin="round"/>
<path d="M0.833252 4.83337H13.1666M9.33325 6.00004V3.66671M0.833252 3.50004C0.833252 2.7928 1.1142 2.11452 1.6143 1.61442C2.1144 1.11433 2.79267 0.833374 3.49992 0.833374H10.4999C11.2072 0.833374 11.8854 1.11433 12.3855 1.61442C12.8856 2.11452 13.1666 2.7928 13.1666 3.50004V9.83337C13.1666 10.187 13.0261 10.5261 12.7761 10.7762C12.526 11.0262 12.1869 11.1667 11.8333 11.1667H2.16659C1.81296 11.1667 1.47382 11.0262 1.22378 10.7762C0.973728 10.5261 0.833252 10.187 0.833252 9.83337V3.50004Z" stroke="white" stroke-linecap="round" stroke-linejoin="round"/>
</svg>
