<svg width="35" height="35" viewBox="0 0 35 35" fill="none" xmlns="http://www.w3.org/2000/svg">
<path d="M0 17.5C0 7.83502 7.83502 0 17.5 0C27.165 0 35 7.83502 35 17.5C35 27.165 27.165 35 17.5 35C7.83502 35 0 27.165 0 17.5Z" fill="#F3D8D9"/>
<path fill-rule="evenodd" clip-rule="evenodd" d="M13.033 10.9359C12.8821 10.1512 12.1954 9.58398 11.3963 9.58398H10.0013C9.54107 9.58398 9.16797 9.95708 9.16797 10.4173C9.16797 10.8776 9.54107 11.2507 10.0013 11.2507L11.3963 11.2507L12.9597 19.3801C13.2615 20.9496 14.6348 22.084 16.233 22.084H21.4074C22.9216 22.084 24.2456 21.0633 24.631 19.599L25.6736 15.6369C26.0908 14.0517 24.8951 12.5007 23.256 12.5007H13.3339L13.033 10.9359ZM13.6544 14.1673L14.5963 19.0654C14.7472 19.8501 15.4339 20.4173 16.233 20.4173H21.4074C22.1645 20.4173 22.8265 19.907 23.0192 19.1748L24.0619 15.2127C24.2009 14.6843 23.8024 14.1673 23.256 14.1673H13.6544Z" fill="#6D2E3D"/>
<path d="M14.7929 25.4173C14.1026 25.4173 13.5429 24.8577 13.5429 24.1673C13.5429 23.477 14.1026 22.9173 14.7929 22.9173C15.4833 22.9173 16.0429 23.477 16.0429 24.1673C16.0429 24.8577 15.4833 25.4173 14.7929 25.4173Z" fill="#6D2E3D"/>
<path d="M22.0846 25.4173C21.3943 25.4173 20.8346 24.8577 20.8346 24.1673C20.8346 23.477 21.3943 22.9173 22.0846 22.9173C22.775 22.9173 23.3346 23.477 23.3346 24.1673C23.3346 24.8577 22.775 25.4173 22.0846 25.4173Z" fill="#6D2E3D"/>
</svg>
