<svg width="17" height="15" viewBox="0 0 17 15" fill="none" xmlns="http://www.w3.org/2000/svg">
<path d="M6.45817 13.5417V3.54167C6.45817 2.76812 6.15088 2.02625 5.6039 1.47927C5.05692 0.932291 4.31505 0.625 3.5415 0.625" stroke="#6D2E3D" stroke-width="1.25" stroke-linecap="round" stroke-linejoin="round"/>
<path d="M0.625 5.625H16.0417M11.25 7.08333V4.16667M0.625 3.95833C0.625 3.07428 0.97619 2.22643 1.60131 1.60131C2.22643 0.976189 3.07428 0.625 3.95833 0.625H12.7083C13.5924 0.625 14.4402 0.976189 15.0654 1.60131C15.6905 2.22643 16.0417 3.07428 16.0417 3.95833V11.875C16.0417 12.317 15.8661 12.741 15.5535 13.0535C15.241 13.3661 14.817 13.5417 14.375 13.5417H2.29167C1.84964 13.5417 1.42572 13.3661 1.11316 13.0535C0.800595 12.741 0.625 12.317 0.625 11.875V3.95833Z" stroke="#6D2E3D" stroke-width="1.25" stroke-linecap="round" stroke-linejoin="round"/>
</svg>
