<svg width="16" height="17" viewBox="0 0 16 17" fill="none" xmlns="http://www.w3.org/2000/svg">
<path d="M7.76465 0.625977C7.76622 0.649437 8.04693 4.81477 9.74316 6.56641C11.3112 8.18553 15.0779 8.76282 15.0898 8.76465C15.0898 8.76465 11.3137 9.34119 9.74316 10.9629C8.05044 12.7107 7.7674 16.8624 7.76465 16.9033C7.76177 16.8606 7.47848 12.7104 5.78613 10.9629C4.21545 9.34134 0.439453 8.76465 0.439453 8.76465C0.439453 8.76465 4.21551 8.18803 5.78613 6.56641C7.48184 4.81549 7.76287 0.652504 7.76465 0.625977ZM7.76465 6.81055C6.59613 6.81064 5.64859 7.75826 5.64844 8.92676C5.64844 10.0954 6.59603 11.0429 7.76465 11.043C8.93334 11.043 9.88086 10.0955 9.88086 8.92676C9.8807 7.7582 8.93325 6.81055 7.76465 6.81055Z" fill="url(#paint0_linear_635_55079)"/>
<defs>
<linearGradient id="paint0_linear_635_55079" x1="0.439453" y1="0.925795" x2="17.3935" y2="4.03263" gradientUnits="userSpaceOnUse">
<stop stop-color="#471923"/>
<stop offset="1" stop-color="#7F3242"/>
</linearGradient>
</defs>
</svg>
