<svg width="18" height="18" viewBox="0 0 18 18" fill="none" xmlns="http://www.w3.org/2000/svg">
<path d="M15.75 15.1875L11.5312 10.9688M2.8125 7.3125C2.8125 7.97732 2.94345 8.63562 3.19786 9.24983C3.45227 9.86405 3.82518 10.4221 4.29527 10.8922C4.76537 11.3623 5.32345 11.7352 5.93767 11.9896C6.55188 12.2441 7.21018 12.375 7.875 12.375C8.53982 12.375 9.19812 12.2441 9.81233 11.9896C10.4265 11.7352 10.9846 11.3623 11.4547 10.8922C11.9248 10.4221 12.2977 9.86405 12.5521 9.24983C12.8066 8.63562 12.9375 7.97732 12.9375 7.3125C12.9375 5.96984 12.4041 4.68217 11.4547 3.73277C10.5053 2.78337 9.21766 2.25 7.875 2.25C6.53234 2.25 5.24467 2.78337 4.29527 3.73277C3.34587 4.68217 2.8125 5.96984 2.8125 7.3125Z" stroke="#2D2D2D" stroke-width="1.5" stroke-linecap="round" stroke-linejoin="round"/>
</svg>
