<svg width="25" height="24" viewBox="0 0 25 24" fill="none" xmlns="http://www.w3.org/2000/svg">
<path d="M16.499 13C16.499 12.8011 16.42 12.6103 16.2794 12.4697C16.1387 12.329 15.9479 12.25 15.749 12.25H9.74902C9.55011 12.25 9.35935 12.329 9.21869 12.4697C9.07804 12.6103 8.99902 12.8011 8.99902 13C8.99902 13.1989 9.07804 13.3897 9.21869 13.5303C9.35935 13.671 9.55011 13.75 9.74902 13.75H15.749C15.9479 13.75 16.1387 13.671 16.2794 13.5303C16.42 13.3897 16.499 13.1989 16.499 13ZM16.499 17C16.499 16.8011 16.42 16.6103 16.2794 16.4697C16.1387 16.329 15.9479 16.25 15.749 16.25H9.74902C9.55011 16.25 9.35935 16.329 9.21869 16.4697C9.07804 16.6103 8.99902 16.8011 8.99902 17C8.99902 17.1989 9.07804 17.3897 9.21869 17.5303C9.35935 17.671 9.55011 17.75 9.74902 17.75H15.749C15.9479 17.75 16.1387 17.671 16.2794 17.5303C16.42 17.3897 16.499 17.1989 16.499 17Z" fill="white"/>
<path fill-rule="evenodd" clip-rule="evenodd" d="M7.74902 2.25C7.01968 2.25 6.3202 2.53973 5.80448 3.05546C5.28875 3.57118 4.99902 4.27065 4.99902 5V19C4.99902 19.7293 5.28875 20.4288 5.80448 20.9445C6.3202 21.4603 7.01968 21.75 7.74902 21.75H17.749C18.4784 21.75 19.1778 21.4603 19.6936 20.9445C20.2093 20.4288 20.499 19.7293 20.499 19V7.968C20.499 7.587 20.375 7.217 20.145 6.913L17.147 2.945C16.9839 2.72912 16.7729 2.554 16.5307 2.43341C16.2885 2.31282 16.0216 2.25004 15.751 2.25H7.74902ZM6.49902 5C6.49902 4.31 7.05902 3.75 7.74902 3.75H14.999V8.147C14.999 8.561 15.335 8.897 15.749 8.897H18.999V19C18.999 19.69 18.439 20.25 17.749 20.25H7.74902C7.05902 20.25 6.49902 19.69 6.49902 19V5Z" fill="white"/>
</svg>
