<svg width="25" height="24" viewBox="0 0 25 24" fill="none" xmlns="http://www.w3.org/2000/svg">
<path d="M12.751 8.93947V17.9995M17.751 8.93947V17.9995M7.75098 8.93947V17.9995M13.198 3.10547L20.962 7.01347C21.906 7.48847 21.57 8.92047 20.515 8.92047H4.98698C3.93198 8.92047 3.59598 7.48847 4.53998 7.01347L12.304 3.10547C12.4428 3.03611 12.5958 3 12.751 3C12.9061 3 13.0592 3.03611 13.198 3.10547ZM20.251 20.9995H5.25098C4.85315 20.9995 4.47162 20.8414 4.19032 20.5601C3.90901 20.2788 3.75098 19.8973 3.75098 19.4995C3.75098 19.1016 3.90901 18.7201 4.19032 18.4388C4.47162 18.1575 4.85315 17.9995 5.25098 17.9995H20.251C20.6488 17.9995 21.0303 18.1575 21.3116 18.4388C21.5929 18.7201 21.751 19.1016 21.751 19.4995C21.751 19.8973 21.5929 20.2788 21.3116 20.5601C21.0303 20.8414 20.6488 20.9995 20.251 20.9995Z" stroke="white" stroke-width="1.5" stroke-linecap="round" stroke-linejoin="round"/>
</svg>
