<svg width="20" height="21" viewBox="0 0 20 21" fill="none" xmlns="http://www.w3.org/2000/svg">
<path d="M16.5836 11.0505C16.45 10.8984 16.3763 10.7029 16.3763 10.5005C16.3763 10.2981 16.45 10.1026 16.5836 9.95048L17.6502 8.75048C17.7678 8.61937 17.8408 8.4544 17.8587 8.27924C17.8767 8.10407 17.8387 7.92772 17.7502 7.77548L16.0836 4.89215C15.996 4.74008 15.8626 4.61955 15.7025 4.54772C15.5424 4.4759 15.3637 4.45645 15.1919 4.49215L13.6252 4.80882C13.4259 4.85001 13.2184 4.81681 13.0418 4.71548C12.8653 4.61416 12.7319 4.45172 12.6669 4.25882L12.1586 2.73382C12.1027 2.5683 11.9962 2.42454 11.8541 2.32285C11.712 2.22116 11.5416 2.1667 11.3669 2.16715H8.03357C7.85185 2.15766 7.67202 2.20792 7.52154 2.31024C7.37107 2.41257 7.25822 2.56133 7.20024 2.73382L6.73357 4.25882C6.66857 4.45172 6.53522 4.61416 6.35867 4.71548C6.18212 4.81681 5.97459 4.85001 5.77524 4.80882L4.16691 4.49215C4.00403 4.46913 3.83799 4.49483 3.6897 4.56602C3.5414 4.6372 3.41749 4.75067 3.33357 4.89215L1.66691 7.77548C1.57621 7.92602 1.53542 8.10139 1.55039 8.2765C1.56536 8.45162 1.63531 8.61752 1.75024 8.75048L2.80857 9.95048C2.94217 10.1026 3.01585 10.2981 3.01585 10.5005C3.01585 10.7029 2.94217 10.8984 2.80857 11.0505L1.75024 12.2505C1.63531 12.3834 1.56536 12.5493 1.55039 12.7245C1.53542 12.8996 1.57621 13.0749 1.66691 13.2255L3.33357 16.1088C3.42115 16.2609 3.5545 16.3814 3.71462 16.4532C3.87473 16.5251 4.05343 16.5445 4.22524 16.5088L5.79191 16.1921C5.99125 16.151 6.19878 16.1842 6.37533 16.2855C6.55188 16.3868 6.68524 16.5492 6.75024 16.7421L7.25857 18.2671C7.31656 18.4396 7.4294 18.5884 7.57988 18.6907C7.73035 18.793 7.91018 18.8433 8.09191 18.8338H11.4252C11.5999 18.8343 11.7704 18.7798 11.9124 18.6781C12.0545 18.5764 12.161 18.4327 12.2169 18.2671L12.7252 16.7421C12.7902 16.5492 12.9236 16.3868 13.1001 16.2855C13.2767 16.1842 13.4842 16.151 13.6836 16.1921L15.2502 16.5088C15.4221 16.5445 15.6008 16.5251 15.7609 16.4532C15.921 16.3814 16.0543 16.2609 16.1419 16.1088L17.8086 13.2255C17.8971 13.0732 17.935 12.8969 17.9171 12.7217C17.8991 12.5466 17.8261 12.3816 17.7086 12.2505L16.5836 11.0505ZM15.3419 12.1671L16.0086 12.9171L14.9419 14.7671L13.9586 14.5671C13.3584 14.4445 12.734 14.5464 12.2041 14.8537C11.6741 15.1609 11.2754 15.652 11.0836 16.2338L10.7669 17.1671H8.63357L8.33357 16.2171C8.14178 15.6354 7.74306 15.1442 7.21308 14.837C6.6831 14.5297 6.05876 14.4278 5.45857 14.5505L4.47524 14.7505L3.39191 12.9088L4.05857 12.1588C4.46853 11.7005 4.69518 11.1071 4.69518 10.4921C4.69518 9.87721 4.46853 9.28383 4.05857 8.82548L3.39191 8.07548L4.45857 6.24215L5.44191 6.44215C6.04209 6.56483 6.66643 6.46288 7.19641 6.15565C7.72639 5.84841 8.12512 5.35728 8.31691 4.77548L8.63357 3.83382H10.7669L11.0836 4.78382C11.2754 5.36561 11.6741 5.85675 12.2041 6.16398C12.734 6.47122 13.3584 6.57317 13.9586 6.45048L14.9419 6.25048L16.0086 8.10048L15.3419 8.85048C14.9365 9.30778 14.7127 9.89772 14.7127 10.5088C14.7127 11.1199 14.9365 11.7098 15.3419 12.1671ZM9.70024 7.16715C9.04097 7.16715 8.3965 7.36265 7.84834 7.72892C7.30017 8.09519 6.87293 8.61578 6.62064 9.22487C6.36835 9.83396 6.30234 10.5042 6.43095 11.1508C6.55957 11.7974 6.87704 12.3913 7.34322 12.8575C7.80939 13.3237 8.40333 13.6411 9.04994 13.7698C9.69654 13.8984 10.3668 13.8324 10.9759 13.5801C11.5849 13.3278 12.1055 12.9005 12.4718 12.3524C12.8381 11.8042 13.0336 11.1598 13.0336 10.5005C13.0336 9.61643 12.6824 8.76858 12.0573 8.14346C11.4321 7.51834 10.5843 7.16715 9.70024 7.16715ZM9.70024 12.1671C9.3706 12.1671 9.04837 12.0694 8.77429 11.8863C8.50021 11.7031 8.28659 11.4428 8.16044 11.1383C8.03429 10.8337 8.00129 10.4986 8.0656 10.1753C8.12991 9.85203 8.28864 9.55506 8.52173 9.32197C8.75481 9.08888 9.05179 8.93015 9.37509 8.86584C9.69839 8.80153 10.0335 8.83454 10.338 8.96068C10.6426 9.08683 10.9029 9.30045 11.086 9.57453C11.2692 9.84861 11.3669 10.1708 11.3669 10.5005C11.3669 10.9425 11.1913 11.3664 10.8787 11.679C10.5662 11.9916 10.1423 12.1671 9.70024 12.1671Z" fill="white"/>
</svg>
