<svg width="15" height="13" viewBox="0 0 15 13" fill="none" xmlns="http://www.w3.org/2000/svg">
<path d="M1.41683 0.75H8.75016C8.92697 0.75 9.09654 0.820238 9.22157 0.945262C9.34659 1.07029 9.41683 1.23986 9.41683 1.41667V8.75C9.41683 8.92681 9.34659 9.09638 9.22157 9.22141C9.09654 9.34643 8.92697 9.41667 8.75016 9.41667H1.41683C1.24002 9.41667 1.07045 9.34643 0.945425 9.22141C0.820401 9.09638 0.750164 8.92681 0.750164 8.75V1.41667C0.750164 1.23986 0.820401 1.07029 0.945425 0.945262C1.07045 0.820238 1.24002 0.75 1.41683 0.75ZM14.0835 9.41667H9.41683V4.75H11.7502L14.0835 6.904V9.41667Z" stroke="#1646FD" stroke-width="1.5" stroke-linejoin="round"/>
<path d="M9.41683 10.0859C9.41683 10.4396 9.55731 10.7787 9.80735 11.0287C10.0574 11.2788 10.3965 11.4193 10.7502 11.4193C11.1038 11.4193 11.4429 11.2788 11.693 11.0287C11.943 10.7787 12.0835 10.4396 12.0835 10.0859M2.0835 10.0859C2.0835 10.4396 2.22397 10.7787 2.47402 11.0287C2.72407 11.2788 3.06321 11.4193 3.41683 11.4193C3.77045 11.4193 4.10959 11.2788 4.35964 11.0287C4.60969 10.7787 4.75016 10.4396 4.75016 10.0859" stroke="#1646FD" stroke-width="1.5" stroke-linecap="round" stroke-linejoin="round"/>
</svg>
