<svg width="61" height="60" viewBox="0 0 61 60" fill="none" xmlns="http://www.w3.org/2000/svg">
<rect x="0.25" width="60" height="60" rx="8" fill="white"/>
<path d="M9.5 17.6094V20.2031H34.1406V39.6562H26.1571C25.5787 37.4269 23.5737 35.7656 21.1719 35.7656C18.7701 35.7656 16.7651 37.4269 16.1867 39.6562H14.6875V33.1719H12.0938V42.25H16.1867C16.7651 44.4793 18.7701 46.1406 21.1719 46.1406C23.5737 46.1406 25.5787 44.4793 26.1571 42.25H36.9367C37.5151 44.4793 39.5201 46.1406 41.9219 46.1406C44.3237 46.1406 46.3287 44.4793 46.9071 42.25H51V31.6727L50.9183 31.4691L48.3245 23.6878L48.0431 22.7969H36.7344V17.6094H9.5ZM10.7969 22.7969V25.3906H22.4688V22.7969H10.7969ZM36.7344 25.3906H46.1769L48.4062 32.0371V39.6562H46.9071C46.3287 37.4269 44.3237 35.7656 41.9219 35.7656C39.5201 35.7656 37.5151 37.4269 36.9367 39.6562H36.7344V25.3906ZM12.0938 27.9844V30.5781H19.875V27.9844H12.0938ZM21.1719 38.3594C22.6205 38.3594 23.7656 39.5045 23.7656 40.9531C23.7656 42.4017 22.6205 43.5469 21.1719 43.5469C19.7233 43.5469 18.5781 42.4017 18.5781 40.9531C18.5781 39.5045 19.7233 38.3594 21.1719 38.3594ZM41.9219 38.3594C43.3705 38.3594 44.5156 39.5045 44.5156 40.9531C44.5156 42.4017 43.3705 43.5469 41.9219 43.5469C40.4733 43.5469 39.3281 42.4017 39.3281 40.9531C39.3281 39.5045 40.4733 38.3594 41.9219 38.3594Z" fill="#6D2E3D"/>
</svg>
