<svg width="35" height="35" viewBox="0 0 35 35" fill="none" xmlns="http://www.w3.org/2000/svg">
<path d="M0 17.5C0 7.83502 7.83502 0 17.5 0C27.165 0 35 7.83502 35 17.5C35 27.165 27.165 35 17.5 35C7.83502 35 0 27.165 0 17.5Z" fill="#F3D8D9"/>
<path d="M10.0002 10.8359H19.1668C19.3878 10.8359 19.5998 10.9237 19.7561 11.08C19.9124 11.2363 20.0002 11.4483 20.0002 11.6693V20.8359C20.0002 21.057 19.9124 21.2689 19.7561 21.4252C19.5998 21.5815 19.3878 21.6693 19.1668 21.6693H10.0002C9.77915 21.6693 9.56719 21.5815 9.41091 21.4252C9.25463 21.2689 9.16683 21.057 9.16683 20.8359V11.6693C9.16683 11.4483 9.25463 11.2363 9.41091 11.08C9.56719 10.9237 9.77915 10.8359 10.0002 10.8359ZM25.8335 21.6693H20.0002V15.8359H22.9168L25.8335 18.5284V21.6693Z" stroke="#6D2E3D" stroke-width="2" stroke-linejoin="round"/>
<path d="M20.0002 22.5C20.0002 22.942 20.1758 23.366 20.4883 23.6785C20.8009 23.9911 21.2248 24.1667 21.6668 24.1667C22.1089 24.1667 22.5328 23.9911 22.8453 23.6785C23.1579 23.366 23.3335 22.942 23.3335 22.5M10.8335 22.5C10.8335 22.942 11.0091 23.366 11.3217 23.6785C11.6342 23.9911 12.0581 24.1667 12.5002 24.1667C12.9422 24.1667 13.3661 23.9911 13.6787 23.6785C13.9912 23.366 14.1668 22.942 14.1668 22.5" stroke="#6D2E3D" stroke-width="2" stroke-linecap="round" stroke-linejoin="round"/>
</svg>
