<svg width="21" height="20" viewBox="0 0 21 20" fill="none" xmlns="http://www.w3.org/2000/svg">
<path d="M0.5 15.6923L0.875 14.1923H5.86525L5.4905 15.6923H0.5ZM2.5 11.8077L2.875 10.3077H8.86525L8.4905 11.8077H2.5ZM17.5558 18.0095L18.0558 13.9905L18.7713 8.0865L19.0308 6.0155L17.5558 18.0095ZM5.27875 19.5C4.84425 19.5 4.47125 19.3554 4.15975 19.0663C3.84808 18.7773 3.69225 18.4218 3.69225 18H17.248C17.3378 18 17.4148 17.9712 17.4788 17.9135C17.5429 17.8558 17.5814 17.7821 17.5943 17.6923L18.9828 6.3615C18.9956 6.27183 18.9699 6.19175 18.9058 6.12125C18.8416 6.05075 18.7647 6.0155 18.675 6.0155H16.0308L15.7365 8.34225C15.7097 8.55508 15.6151 8.72308 15.4528 8.84625C15.2906 8.96925 15.1032 9.0205 14.8905 9C14.684 8.9795 14.5193 8.89075 14.3963 8.73375C14.2731 8.57658 14.225 8.39483 14.252 8.1885L14.5155 6.0155H10.0308L9.7365 8.327C9.70967 8.53983 9.61508 8.71033 9.45275 8.8385C9.29058 8.96667 9.10317 9.0205 8.8905 9C8.684 8.9795 8.51667 8.88817 8.3885 8.726C8.26033 8.56383 8.20967 8.3795 8.2365 8.173L8.5 6.0155H5.0865C5.14683 5.55767 5.34267 5.19067 5.674 4.9145C6.0055 4.63817 6.393 4.5 6.8365 4.5H8.68275L8.7115 4.25C8.84483 3.0705 9.25317 2.15067 9.9365 1.4905C10.6198 0.830167 11.5513 0.5 12.7308 0.5C13.7526 0.5 14.5953 0.883001 15.2588 1.649C15.9221 2.415 16.2263 3.31408 16.1713 4.34625L16.152 4.5H18.7213C19.2443 4.51033 19.6801 4.71167 20.0288 5.104C20.3776 5.49617 20.5167 5.95383 20.446 6.477L19.0328 17.8615C18.9724 18.3358 18.7643 18.7275 18.4085 19.0365C18.0528 19.3455 17.6378 19.5 17.1635 19.5H5.27875ZM10.1828 4.5H14.6673L14.6865 4.34625C14.7288 3.71292 14.5382 3.1635 14.1145 2.698C13.6907 2.23267 13.1653 2 12.5385 2C11.8525 2 11.3131 2.19842 10.9203 2.59525C10.5273 2.99208 10.291 3.54367 10.2115 4.25L10.1828 4.5Z" fill="#1C1B1F"/>
</svg>
