<svg width="35" height="35" viewBox="0 0 35 35" fill="none" xmlns="http://www.w3.org/2000/svg">
<path d="M0 17.5C0 7.83502 7.83502 0 17.5 0C27.165 0 35 7.83502 35 17.5C35 27.165 27.165 35 17.5 35C7.83502 35 0 27.165 0 17.5Z" fill="#F3D8D9"/>
<path d="M21.2498 13.125H23.8098C23.9646 13.1252 24.1139 13.1828 24.2287 13.2867C24.3435 13.3906 24.4156 13.5334 24.4311 13.6875L24.8123 17.5H23.5548L23.2423 14.375H21.2498V16.25C21.2498 16.4158 21.184 16.5747 21.0668 16.6919C20.9495 16.8092 20.7906 16.875 20.6248 16.875C20.4591 16.875 20.3001 16.8092 20.1829 16.6919C20.0657 16.5747 19.9998 16.4158 19.9998 16.25V14.375H14.9998V16.25C14.9998 16.4158 14.934 16.5747 14.8168 16.6919C14.6995 16.8092 14.5406 16.875 14.3748 16.875C14.2091 16.875 14.0501 16.8092 13.9329 16.6919C13.8157 16.5747 13.7498 16.4158 13.7498 16.25V14.375H11.7561L10.7561 24.375H17.4998V25.625H10.0648C9.97752 25.6249 9.89121 25.6065 9.81145 25.5711C9.73168 25.5356 9.66024 25.4838 9.60171 25.419C9.54318 25.3543 9.49887 25.278 9.47163 25.195C9.4444 25.1121 9.43483 25.0244 9.44356 24.9375L10.5686 13.6875C10.584 13.5334 10.6562 13.3906 10.7709 13.2867C10.8857 13.1828 11.035 13.1252 11.1898 13.125H13.7498V12.6888C13.7498 10.5213 15.4198 8.75 17.4998 8.75C19.5798 8.75 21.2498 10.5213 21.2498 12.6888V13.1262V13.125ZM19.9998 13.125V12.6888C19.9998 11.1962 18.8723 10 17.4998 10C16.1273 10 14.9998 11.1962 14.9998 12.6888V13.1262H19.9998V13.125ZM23.9336 22.425C23.9906 22.363 24.0595 22.3131 24.1363 22.2784C24.2131 22.2437 24.2961 22.2249 24.3803 22.2231C24.4646 22.2213 24.5483 22.2365 24.6265 22.2679C24.7047 22.2993 24.7757 22.3461 24.8354 22.4057C24.895 22.4652 24.9419 22.5362 24.9734 22.6143C25.0049 22.6925 25.0203 22.7762 25.0186 22.8604C25.0169 22.9447 24.9982 23.0277 24.9636 23.1045C24.929 23.1814 24.8793 23.2504 24.8173 23.3075L22.3173 25.8075C22.2001 25.9247 22.0412 25.9905 21.8754 25.9905C21.7097 25.9905 21.5508 25.9247 21.4336 25.8075L18.9336 23.3075C18.8739 23.2498 18.8263 23.1809 18.7935 23.1046C18.7607 23.0284 18.7435 22.9464 18.7428 22.8634C18.7421 22.7804 18.7579 22.6981 18.7893 22.6213C18.8207 22.5445 18.8671 22.4747 18.9258 22.416C18.9845 22.3573 19.0543 22.3109 19.1311 22.2795C19.2079 22.2481 19.2902 22.2322 19.3732 22.233C19.4562 22.2337 19.5382 22.2509 19.6144 22.2837C19.6907 22.3164 19.7597 22.3641 19.8173 22.4237L21.2498 23.8575V19.375C21.2498 19.2092 21.3157 19.0503 21.4329 18.9331C21.5501 18.8158 21.7091 18.75 21.8748 18.75C22.0406 18.75 22.1995 18.8158 22.3168 18.9331C22.434 19.0503 22.4998 19.2092 22.4998 19.375V23.8575L23.9336 22.4237V22.425Z" fill="#6D2E3D"/>
</svg>
