<svg width="61" height="60" viewBox="0 0 61 60" fill="none" xmlns="http://www.w3.org/2000/svg">
<rect x="0.25" width="60" height="60" rx="8" fill="white"/>
<path d="M17.3438 48.4375H43.1562M43.6541 33.1897C43.2252 32.7619 42.7163 32.4229 42.1563 32.1919C41.5963 31.961 40.9963 31.8427 40.3906 31.8438H20.1094C18.8869 31.8438 17.7145 32.3294 16.8501 33.1938C15.9856 34.0582 15.5 35.2307 15.5 36.4531V39.2188C15.5 39.7078 15.6943 40.1767 16.04 40.5225C16.3858 40.8683 16.8548 41.0625 17.3438 41.0625H43.1562C43.6452 41.0625 44.1142 40.8683 44.46 40.5225C44.8057 40.1767 45 39.7078 45 39.2188V36.4531C45 35.2363 44.5206 34.0563 43.6541 33.1897Z" stroke="#6D2E3D" stroke-width="2.5" stroke-linecap="round" stroke-linejoin="round"/>
<path d="M33.9375 31.8438V23.5469C33.9375 20.7812 35.7812 20.7812 35.7812 17.0938C35.7812 15.6268 35.1985 14.2199 34.1612 13.1826C33.1239 12.1453 31.717 11.5625 30.25 11.5625C27.1894 11.5625 24.7188 13.4062 24.7188 17.0938C24.7188 20.7812 26.5625 20.7812 26.5625 23.5469V31.8438" stroke="#6D2E3D" stroke-width="2.5" stroke-linecap="round" stroke-linejoin="round"/>
</svg>
