<svg width="15" height="15" viewBox="0 0 15 15" fill="none" xmlns="http://www.w3.org/2000/svg">
<path d="M9.04498 0.71637C9.12088 0.637786 9.16288 0.532535 9.16193 0.423286C9.16098 0.314038 9.11716 0.209532 9.03991 0.132279C8.96265 0.0550257 8.85815 0.0112052 8.7489 0.0102558C8.63965 0.00930647 8.5344 0.0513043 8.45582 0.127203L7.5004 1.08262L6.54498 0.127203C6.50655 0.0874076 6.46057 0.0556649 6.40974 0.0338279C6.3589 0.0119908 6.30423 0.000496489 6.2489 1.57321e-05C6.19358 -0.000465025 6.13871 0.0100773 6.0875 0.0310276C6.0363 0.051978 5.98977 0.0829168 5.95065 0.122039C5.91153 0.161161 5.88059 0.207682 5.85964 0.258889C5.83869 0.310096 5.82815 0.364963 5.82863 0.420287C5.82911 0.475612 5.8406 0.530287 5.86244 0.581122C5.88428 0.631957 5.91602 0.677934 5.95582 0.71637L6.91123 1.67179L5.95582 2.6272C5.87992 2.70579 5.83792 2.81104 5.83887 2.92029C5.83982 3.02954 5.88364 3.13404 5.96089 3.21129C6.03815 3.28855 6.14265 3.33237 6.2519 3.33332C6.36115 3.33427 6.4664 3.29227 6.54498 3.21637L7.5004 2.26095L8.45582 3.21637C8.534 3.2945 8.64002 3.33837 8.75055 3.33833C8.86108 3.33829 8.96706 3.29435 9.04519 3.21616C9.12332 3.13798 9.16719 3.03196 9.16715 2.92143C9.16711 2.8109 9.12317 2.70491 9.04498 2.62679L8.08957 1.67179L9.04498 0.71637Z" fill="black"/>
<path fill-rule="evenodd" clip-rule="evenodd" d="M0.285187 8.52627L1.66685 8.98668V12.5058C1.66686 12.5925 1.69387 12.677 1.74412 12.7475C1.79438 12.8181 1.86539 12.8713 1.94727 12.8996L7.3606 14.7733C7.44621 14.8038 7.53941 14.8054 7.62602 14.7779L7.63185 14.7763L7.6381 14.7742L13.0531 12.8996C13.135 12.8713 13.206 12.8181 13.2562 12.7475C13.3065 12.677 13.3335 12.5925 13.3335 12.5058V8.98668L14.7152 8.52627C14.7789 8.50507 14.8366 8.46878 14.8833 8.4205C14.93 8.37221 14.9643 8.31335 14.9833 8.24894C15.0023 8.18453 15.0055 8.11647 14.9926 8.05056C14.9796 7.98466 14.9509 7.92286 14.9089 7.87043L13.2423 5.7871C13.1928 5.72555 13.127 5.67932 13.0523 5.65377L7.63644 3.77877C7.54817 3.74822 7.4522 3.74822 7.36394 3.77877L1.9481 5.65377C1.87342 5.67932 1.80753 5.72555 1.7581 5.7871L0.0914368 7.87043C0.0494526 7.92286 0.0207643 7.98466 0.00781605 8.05056C-0.00513217 8.11647 -0.00195636 8.18453 0.0170728 8.24894C0.0361021 8.31335 0.0704205 8.37221 0.117104 8.4205C0.163788 8.46878 0.221454 8.50507 0.285187 8.52627ZM6.3831 10.2446L7.08352 9.2446V13.7958L2.50019 12.2092V9.26418L5.91019 10.4008C5.99537 10.4292 6.08742 10.4292 6.17264 10.401C6.25785 10.3727 6.33167 10.3182 6.3831 10.2446ZM3.35727 6.04752L7.50019 7.48168L11.6431 6.04752L7.50019 4.61335L3.35727 6.04752ZM8.61727 10.245L7.91685 9.24418V13.7958L12.5002 12.2092V9.26418L9.09019 10.4008C9.005 10.4292 8.91295 10.4292 8.82773 10.401C8.74252 10.3727 8.6687 10.3178 8.61727 10.2442M2.22519 6.53752L1.1156 7.9246L3.41185 8.69002L5.87852 9.5121L6.84227 8.13585L6.78602 8.11627L2.22519 6.53752ZM13.8848 7.9246L12.7752 6.5371L8.1581 8.13585L9.12185 9.5121L13.8848 7.9246Z" fill="black"/>
</svg>
