<svg width="35" height="35" viewBox="0 0 35 35" fill="none" xmlns="http://www.w3.org/2000/svg">
<path d="M0 17.5C0 7.83502 7.83502 0 17.5 0C27.165 0 35 7.83502 35 17.5C35 27.165 27.165 35 17.5 35C7.83502 35 0 27.165 0 17.5Z" fill="#F3D8D9"/>
<path d="M13.0692 11.6664C11.9317 11.718 11.2292 11.878 10.7325 12.3755C10 13.1089 10 14.2897 10 16.6505V20.8247C10 23.1855 10 24.3664 10.7325 25.0997C11.4642 25.833 12.6433 25.833 15 25.833H20C22.3567 25.833 23.5358 25.833 24.2675 25.0997C24.9992 24.3664 25 23.1855 25 20.8247V16.6497C25 14.2889 25 13.108 24.2675 12.3747C23.7708 11.8772 23.0675 11.7164 21.9308 11.6655" stroke="#6D2E3D" stroke-width="1.5" stroke-linejoin="round"/>
<path d="M13.3543 12.9498C12.9543 11.3832 12.7543 10.5998 13.0793 10.0248C13.1663 9.87168 13.2772 9.73329 13.4076 9.61484C13.8984 9.1665 14.7243 9.1665 16.3751 9.1665H18.6251C20.2759 9.1665 21.1018 9.1665 21.5926 9.61484C21.7234 9.734 21.8343 9.87317 21.9209 10.0257C22.2459 10.6007 22.0459 11.384 21.6459 12.9507C21.3259 14.199 21.1668 14.8232 20.7401 15.234C20.6234 15.3468 20.4954 15.4448 20.3559 15.5282C19.8443 15.8332 19.1859 15.8332 17.8701 15.8332H17.1301C15.8134 15.8332 15.1551 15.8332 14.6443 15.5282C14.5059 15.445 14.3774 15.3466 14.2609 15.2348C13.8334 14.8232 13.6734 14.199 13.3543 12.9498Z" stroke="#6D2E3D" stroke-width="1.5" stroke-linejoin="round"/>
<path d="M15.8335 22.4997H19.1668M17.0835 15.833L17.9168 13.333" stroke="#6D2E3D" stroke-width="1.5" stroke-linecap="round" stroke-linejoin="round"/>
</svg>
