<svg width="25" height="24" viewBox="0 0 25 24" fill="none" xmlns="http://www.w3.org/2000/svg">
<path d="M16.4995 13C16.4995 12.8011 16.4205 12.6103 16.2798 12.4697C16.1392 12.329 15.9484 12.25 15.7495 12.25H9.74951C9.5506 12.25 9.35983 12.329 9.21918 12.4697C9.07853 12.6103 8.99951 12.8011 8.99951 13C8.99951 13.1989 9.07853 13.3897 9.21918 13.5303C9.35983 13.671 9.5506 13.75 9.74951 13.75H15.7495C15.9484 13.75 16.1392 13.671 16.2798 13.5303C16.4205 13.3897 16.4995 13.1989 16.4995 13ZM16.4995 17C16.4995 16.8011 16.4205 16.6103 16.2798 16.4697C16.1392 16.329 15.9484 16.25 15.7495 16.25H9.74951C9.5506 16.25 9.35983 16.329 9.21918 16.4697C9.07853 16.6103 8.99951 16.8011 8.99951 17C8.99951 17.1989 9.07853 17.3897 9.21918 17.5303C9.35983 17.671 9.5506 17.75 9.74951 17.75H15.7495C15.9484 17.75 16.1392 17.671 16.2798 17.5303C16.4205 17.3897 16.4995 17.1989 16.4995 17Z" fill="#6D2E3D"/>
<path fill-rule="evenodd" clip-rule="evenodd" d="M7.74951 2.25C7.02017 2.25 6.32069 2.53973 5.80497 3.05546C5.28924 3.57118 4.99951 4.27065 4.99951 5V19C4.99951 19.7293 5.28924 20.4288 5.80497 20.9445C6.32069 21.4603 7.02017 21.75 7.74951 21.75H17.7495C18.4789 21.75 19.1783 21.4603 19.6941 20.9445C20.2098 20.4288 20.4995 19.7293 20.4995 19V7.968C20.4995 7.587 20.3755 7.217 20.1455 6.913L17.1475 2.945C16.9844 2.72912 16.7734 2.554 16.5312 2.43341C16.289 2.31282 16.0221 2.25004 15.7515 2.25H7.74951ZM6.49951 5C6.49951 4.31 7.05951 3.75 7.74951 3.75H14.9995V8.147C14.9995 8.561 15.3355 8.897 15.7495 8.897H18.9995V19C18.9995 19.69 18.4395 20.25 17.7495 20.25H7.74951C7.05951 20.25 6.49951 19.69 6.49951 19V5Z" fill="#6D2E3D"/>
</svg>
