<svg width="35" height="35" viewBox="0 0 35 35" fill="none" xmlns="http://www.w3.org/2000/svg">
<path d="M0 17.5C0 7.83502 7.83502 0 17.5 0C27.165 0 35 7.83502 35 17.5C35 27.165 27.165 35 17.5 35C7.83502 35 0 27.165 0 17.5Z" fill="#F3D8D9"/>
<g clip-path="url(#clip0_499_87715)">
<path d="M20.8335 19.1668H22.0835V21.5168L24.1168 22.6918L23.4918 23.7752L20.8335 22.2418V19.1668ZM21.6668 17.5002C20.5618 17.5002 19.502 17.9391 18.7206 18.7206C17.9391 19.502 17.5002 20.5618 17.5002 21.6668C17.5002 22.7719 17.9391 23.8317 18.7206 24.6131C19.502 25.3945 20.5618 25.8335 21.6668 25.8335C22.7719 25.8335 23.8317 25.3945 24.6131 24.6131C25.3945 23.8317 25.8335 22.7719 25.8335 21.6668C25.8335 20.5618 25.3945 19.502 24.6131 18.7206C23.8317 17.9391 22.7719 17.5002 21.6668 17.5002ZM21.6668 15.8335C23.2139 15.8335 24.6977 16.4481 25.7916 17.542C26.8856 18.636 27.5002 20.1197 27.5002 21.6668C27.5002 23.2139 26.8856 24.6977 25.7916 25.7916C24.6977 26.8856 23.2139 27.5002 21.6668 27.5002C19.3418 27.5002 17.3335 26.1335 16.3918 24.1668H8.3335V21.6668C8.3335 19.4502 12.7752 18.3335 15.0002 18.3335C15.5002 18.3335 16.1168 18.3918 16.7668 18.5002C17.2953 17.6812 18.0208 17.008 18.8768 16.5421C19.7329 16.0762 20.6922 15.8326 21.6668 15.8335ZM15.8335 21.6668C15.8335 21.0835 15.9168 20.5168 16.0752 20.0002C15.7252 19.9418 15.3585 19.9168 15.0002 19.9168C12.5252 19.9168 9.91683 21.1335 9.91683 21.6668V22.5835H15.9085C15.8594 22.2804 15.8343 21.9739 15.8335 21.6668ZM15.0002 10.8335C15.8842 10.8335 16.7321 11.1847 17.3572 11.8098C17.9823 12.4349 18.3335 13.2828 18.3335 14.1668C18.3335 15.0509 17.9823 15.8987 17.3572 16.5239C16.7321 17.149 15.8842 17.5002 15.0002 17.5002C14.1161 17.5002 13.2683 17.149 12.6431 16.5239C12.018 15.8987 11.6668 15.0509 11.6668 14.1668C11.6668 13.2828 12.018 12.4349 12.6431 11.8098C13.2683 11.1847 14.1161 10.8335 15.0002 10.8335ZM15.0002 12.4168C14.536 12.4168 14.0909 12.6012 13.7627 12.9294C13.4345 13.2576 13.2502 13.7027 13.2502 14.1668C13.2502 14.631 13.4345 15.0761 13.7627 15.4043C14.0909 15.7325 14.536 15.9168 15.0002 15.9168C15.4643 15.9168 15.9094 15.7325 16.2376 15.4043C16.5658 15.0761 16.7502 14.631 16.7502 14.1668C16.7502 13.7027 16.5658 13.2576 16.2376 12.9294C15.9094 12.6012 15.4643 12.4168 15.0002 12.4168Z" fill="#6D2E3D"/>
</g>
<defs>
<clipPath id="clip0_499_87715">
<rect width="20" height="20" fill="white" transform="translate(7.5 7.5)"/>
</clipPath>
</defs>
</svg>
