<svg width="35" height="35" viewBox="0 0 35 35" fill="none" xmlns="http://www.w3.org/2000/svg">
<path d="M0 17.5C0 7.83502 7.83502 0 17.5 0C27.165 0 35 7.83502 35 17.5C35 27.165 27.165 35 17.5 35C7.83502 35 0 27.165 0 17.5Z" fill="#F3D8D9"/>
<g clip-path="url(#clip0_499_69559)">
<path fill-rule="evenodd" clip-rule="evenodd" d="M21.875 25C24.9875 25 27.5 23.75 27.5 21.875V10C27.5 8.75 25 7.5 21.875 7.5C18.75 7.5 16.25 8.75 16.25 10V14.375C17.7125 14.9875 18.9625 16.0125 19.85 17.3125C20.4625 17.4325 21.1375 17.4987 21.875 17.4987C23.5125 17.4987 24.875 17.1725 25.85 16.6413C25.9884 16.5652 26.1232 16.4826 26.2537 16.3937V18.1187C26.2537 18.4125 26.02 18.8687 25.2513 19.2887C24.5063 19.695 23.3638 19.9937 21.8763 19.9937C21.5788 19.9937 21.2954 19.9825 21.0262 19.96C21.1263 20.3708 21.1929 20.7917 21.2262 21.2225C21.4371 21.2342 21.6538 21.24 21.8763 21.24C23.5138 21.24 24.8762 20.9137 25.8512 20.3825C25.9897 20.3064 26.1244 20.2238 26.255 20.135V21.86C26.255 22.155 26.0688 22.5925 25.2663 23.025C24.4763 23.45 23.2913 23.735 21.8788 23.735C21.5913 23.735 21.3129 23.7233 21.0437 23.7C20.9477 24.1155 20.8185 24.5226 20.6575 24.9175C21.0508 24.9617 21.4575 24.9838 21.8775 24.9838L21.875 25ZM25.25 15.55C26.0188 15.13 26.2525 14.6738 26.2525 14.38V12.655C26.1233 12.7433 25.9887 12.8258 25.8488 12.9025C24.8763 13.4338 23.5112 13.76 21.8737 13.76C20.2362 13.76 18.8738 13.4338 17.8988 12.9025C17.7603 12.8264 17.6256 12.7438 17.495 12.655V14.38C17.495 14.6738 17.7288 15.13 18.4975 15.5487C19.2425 15.955 20.385 16.2537 21.8725 16.2537C23.36 16.2537 24.4975 15.955 25.2475 15.5487L25.25 15.55ZM17.5 10.625C17.5 10.265 17.6562 9.91875 17.9475 9.7075C18.1062 9.5925 18.2788 9.4775 18.415 9.415C18.7563 9.2575 20.465 8.74875 21.8775 8.74875C23.29 8.74875 24.515 9.0325 25.34 9.415C25.495 9.48625 25.6663 9.5975 25.8175 9.7075C26.1063 9.91625 26.255 10.26 26.255 10.6163V10.6238C26.255 10.9175 26.0212 11.3737 25.2525 11.7937C24.5075 12.2 23.365 12.4988 21.8775 12.4988C20.39 12.4988 19.2525 12.1988 18.5025 11.7937C17.7338 11.375 17.5 10.9175 17.5 10.625Z" fill="#6D2E3D"/>
<path fill-rule="evenodd" clip-rule="evenodd" d="M18.75 21.875C18.75 24.9875 16.2375 27.5 13.125 27.5C10.0125 27.5 7.5 24.9875 7.5 21.875C7.5 18.7625 10.0125 16.25 13.125 16.25C16.2375 16.25 18.75 18.7625 18.75 21.875ZM17.5 21.875C17.5 24.2875 15.5375 26.25 13.125 26.25C10.7125 26.25 8.75 24.2875 8.75 21.875C8.75 19.4625 10.7125 17.5 13.125 17.5C15.5375 17.5 17.5 19.4625 17.5 21.875Z" fill="#6D2E3D"/>
</g>
<defs>
<clipPath id="clip0_499_69559">
<rect width="20" height="20" fill="white" transform="translate(7.5 7.5)"/>
</clipPath>
</defs>
</svg>
