<svg width="35" height="35" viewBox="0 0 35 35" fill="none" xmlns="http://www.w3.org/2000/svg">
<path d="M0 17.5C0 7.83502 7.83502 0 17.5 0C27.165 0 35 7.83502 35 17.5C35 27.165 27.165 35 17.5 35C7.83502 35 0 27.165 0 17.5Z" fill="#F3D8D9"/>
<path d="M17.5 16.25C16.7044 16.25 15.9413 15.9208 15.3787 15.3347C14.8161 14.7487 14.5 13.9538 14.5 13.125C14.5 12.2962 14.8161 11.5013 15.3787 10.9153C15.9413 10.3292 16.7044 10 17.5 10C18.2956 10 19.0587 10.3292 19.6213 10.9153C20.1839 11.5013 20.5 12.2962 20.5 13.125C20.5 13.9538 20.1839 14.7487 19.6213 15.3347C19.0587 15.9208 18.2956 16.25 17.5 16.25ZM17.5 11.25C16.504 11.25 15.7 12.0875 15.7 13.125C15.7 14.1625 16.504 15 17.5 15C18.496 15 19.3 14.1625 19.3 13.125C19.3 12.0875 18.496 11.25 17.5 11.25Z" fill="#6D2E3D"/>
<path d="M24.7 21.25C24.364 21.25 24.1 20.975 24.1 20.625C24.1 20.275 24.364 20 24.7 20C25.036 20 25.3 19.725 25.3 19.375C25.3 18.5462 24.9839 17.7513 24.4213 17.1653C23.8587 16.5792 23.0956 16.25 22.3 16.25H21.1C20.764 16.25 20.5 15.975 20.5 15.625C20.5 15.275 20.764 15 21.1 15C22.096 15 22.9 14.1625 22.9 13.125C22.9 12.0875 22.096 11.25 21.1 11.25C20.764 11.25 20.5 10.975 20.5 10.625C20.5 10.275 20.764 10 21.1 10C21.8956 10 22.6587 10.3292 23.2213 10.9153C23.7839 11.5013 24.1 12.2962 24.1 13.125C24.1 13.9 23.836 14.6 23.38 15.15C25.168 15.65 26.5 17.35 26.5 19.375C26.5 20.4125 25.696 21.25 24.7 21.25ZM10.3 21.25C9.304 21.25 8.5 20.4125 8.5 19.375C8.5 17.35 9.82 15.65 11.62 15.15C11.176 14.6 10.9 13.9 10.9 13.125C10.9 12.2962 11.2161 11.5013 11.7787 10.9153C12.3413 10.3292 13.1044 10 13.9 10C14.236 10 14.5 10.275 14.5 10.625C14.5 10.975 14.236 11.25 13.9 11.25C12.904 11.25 12.1 12.0875 12.1 13.125C12.1 14.1625 12.904 15 13.9 15C14.236 15 14.5 15.275 14.5 15.625C14.5 15.975 14.236 16.25 13.9 16.25H12.7C11.9044 16.25 11.1413 16.5792 10.5787 17.1653C10.0161 17.7513 9.7 18.5462 9.7 19.375C9.7 19.725 9.964 20 10.3 20C10.636 20 10.9 20.275 10.9 20.625C10.9 20.975 10.636 21.25 10.3 21.25ZM21.1 25H13.9C12.904 25 12.1 24.1625 12.1 23.125V21.875C12.1 19.4625 13.984 17.5 16.3 17.5H18.7C21.016 17.5 22.9 19.4625 22.9 21.875V23.125C22.9 24.1625 22.096 25 21.1 25ZM16.3 18.75C15.5044 18.75 14.7413 19.0792 14.1787 19.6653C13.6161 20.2513 13.3 21.0462 13.3 21.875V23.125C13.3 23.475 13.564 23.75 13.9 23.75H21.1C21.436 23.75 21.7 23.475 21.7 23.125V21.875C21.7 21.0462 21.3839 20.2513 20.8213 19.6653C20.2587 19.0792 19.4957 18.75 18.7 18.75H16.3Z" fill="#6D2E3D"/>
</svg>
