<svg width="35" height="35" viewBox="0 0 35 35" fill="none" xmlns="http://www.w3.org/2000/svg">
<path d="M0 17.5C0 7.83502 7.83502 0 17.5 0C27.165 0 35 7.83502 35 17.5C35 27.165 27.165 35 17.5 35C7.83502 35 0 27.165 0 17.5Z" fill="#F3D8D9"/>
<path d="M8.75 21.25H26.25V22.5H8.75V21.25ZM8.75 23.75H26.25V25H8.75V23.75ZM22.5 13.75C22.2528 13.75 22.0111 13.8233 21.8055 13.9607C21.6 14.098 21.4398 14.2932 21.3451 14.5216C21.2505 14.7501 21.2258 15.0014 21.274 15.2439C21.3222 15.4863 21.4413 15.7091 21.6161 15.8839C21.7909 16.0587 22.0137 16.1778 22.2561 16.226C22.4986 16.2742 22.7499 16.2495 22.9784 16.1549C23.2068 16.0602 23.402 15.9 23.5393 15.6945C23.6767 15.4889 23.75 15.2472 23.75 15C23.75 14.6685 23.6183 14.3505 23.3839 14.1161C23.1495 13.8817 22.8315 13.75 22.5 13.75ZM17.5 17.5C17.0055 17.5 16.5222 17.3534 16.1111 17.0787C15.7 16.804 15.3795 16.4135 15.1903 15.9567C15.0011 15.4999 14.9516 14.9972 15.048 14.5123C15.1445 14.0273 15.3826 13.5819 15.7322 13.2322C16.0819 12.8826 16.5273 12.6445 17.0123 12.548C17.4972 12.4516 17.9999 12.5011 18.4567 12.6903C18.9135 12.8795 19.304 13.2 19.5787 13.6111C19.8534 14.0222 20 14.5055 20 15C19.9992 15.6628 19.7355 16.2982 19.2669 16.7669C18.7982 17.2355 18.1628 17.4992 17.5 17.5ZM17.5 13.75C17.2528 13.75 17.0111 13.8233 16.8055 13.9607C16.6 14.098 16.4398 14.2932 16.3452 14.5216C16.2505 14.7501 16.2258 15.0014 16.274 15.2439C16.3222 15.4863 16.4413 15.7091 16.6161 15.8839C16.7909 16.0587 17.0137 16.1778 17.2561 16.226C17.4986 16.2742 17.7499 16.2495 17.9784 16.1549C18.2068 16.0602 18.402 15.9 18.5393 15.6945C18.6767 15.4889 18.75 15.2472 18.75 15C18.75 14.6685 18.6183 14.3505 18.3839 14.1161C18.1495 13.8817 17.8315 13.75 17.5 13.75ZM12.5 13.75C12.2528 13.75 12.0111 13.8233 11.8055 13.9607C11.6 14.098 11.4398 14.2932 11.3452 14.5216C11.2505 14.7501 11.2258 15.0014 11.274 15.2439C11.3222 15.4863 11.4413 15.7091 11.6161 15.8839C11.7909 16.0587 12.0137 16.1778 12.2561 16.226C12.4986 16.2742 12.7499 16.2495 12.9784 16.1549C13.2068 16.0602 13.402 15.9 13.5393 15.6945C13.6767 15.4889 13.75 15.2472 13.75 15C13.75 14.6685 13.6183 14.3505 13.3839 14.1161C13.1495 13.8817 12.8315 13.75 12.5 13.75Z" fill="#6D2E3D"/>
<path d="M25 20H10C9.66873 19.9992 9.35127 19.8672 9.11703 19.633C8.88279 19.3987 8.75083 19.0813 8.75 18.75V11.25C8.75083 10.9187 8.88279 10.6013 9.11703 10.367C9.35127 10.1328 9.66873 10.0008 10 10H25C25.3313 10.0008 25.6487 10.1328 25.883 10.367C26.1172 10.6013 26.2492 10.9187 26.25 11.25V18.75C26.2495 19.0814 26.1176 19.399 25.8833 19.6333C25.649 19.8676 25.3314 19.9995 25 20ZM25 11.25H10V18.75H25V11.25Z" fill="#6D2E3D"/>
</svg>
