<svg width="35" height="35" viewBox="0 0 35 35" fill="none" xmlns="http://www.w3.org/2000/svg">
<path d="M0 17.5C0 7.83502 7.83502 0 17.5 0C27.165 0 35 7.83502 35 17.5C35 27.165 27.165 35 17.5 35C7.83502 35 0 27.165 0 17.5Z" fill="#F3D8D9"/>
<path d="M18.9225 10.2442C18.7663 10.0879 18.5543 10 18.3333 10H10.8333C10.6123 10 10.4004 10.0878 10.2441 10.2441C10.0878 10.4004 10 10.6123 10 10.8333V18.3333C10 18.555 10.0875 18.7667 10.2442 18.9225L16.9108 25.5892C16.988 25.6668 17.0798 25.7284 17.181 25.7705C17.2821 25.8125 17.3905 25.8342 17.5 25.8342C17.6095 25.8342 17.7179 25.8125 17.819 25.7705C17.9202 25.7284 18.012 25.6668 18.0892 25.5892L25.5892 18.0892C25.7454 17.9329 25.8332 17.721 25.8332 17.5C25.8332 17.279 25.7454 17.0671 25.5892 16.9108L18.9225 10.2442ZM17.5 23.8217L11.6667 17.9883V11.6667H17.9883L23.8217 17.5L17.5 23.8217Z" fill="#6D2E3D"/>
<path d="M14.5799 15.8335C15.2725 15.8335 15.834 15.272 15.834 14.5794C15.834 13.8867 15.2725 13.3252 14.5799 13.3252C13.8872 13.3252 13.3257 13.8867 13.3257 14.5794C13.3257 15.272 13.8872 15.8335 14.5799 15.8335Z" fill="#6D2E3D"/>
</svg>
