<svg width="35" height="35" viewBox="0 0 35 35" fill="none" xmlns="http://www.w3.org/2000/svg">
<path d="M0 17.5C0 7.83502 7.83502 0 17.5 0C27.165 0 35 7.83502 35 17.5C35 27.165 27.165 35 17.5 35C7.83502 35 0 27.165 0 17.5Z" fill="#F3D8D9"/>
<path d="M21.6665 10.8359H13.3332C12.4127 10.8359 11.6665 11.5821 11.6665 12.5026V23.3359C11.6665 24.2564 12.4127 25.0026 13.3332 25.0026H21.6665C22.587 25.0026 23.3332 24.2564 23.3332 23.3359V12.5026C23.3332 11.5821 22.587 10.8359 21.6665 10.8359Z" stroke="#6D2E3D"/>
<path d="M15 15H20M15 18.3333H20M15 21.6667H18.3333" stroke="#6D2E3D" stroke-linecap="round"/>
</svg>
