<svg width="36" height="35" viewBox="0 0 36 35" fill="none" xmlns="http://www.w3.org/2000/svg">
<path d="M0.666504 17.5C0.666504 7.83502 8.50152 0 18.1665 0C27.8315 0 35.6665 7.83502 35.6665 17.5C35.6665 27.165 27.8315 35 18.1665 35C8.50152 35 0.666504 27.165 0.666504 17.5Z" fill="#F3D8D9"/>
<path d="M22.2533 24.2137L24.8333 22.5954L22.2533 20.9762V24.2137ZM13.8075 14.7737H22.5258V13.9404H13.8075V14.7737ZM23.1667 25.9287C22.2383 25.9287 21.4508 25.6051 20.8042 24.9579C20.1569 24.3112 19.8333 23.5237 19.8333 22.5954C19.8333 21.667 20.1569 20.8793 20.8042 20.232C21.4514 19.5848 22.2389 19.2615 23.1667 19.262C24.0944 19.2626 24.8822 19.5859 25.53 20.232C26.1778 20.8781 26.5011 21.6659 26.5 22.5954C26.5 23.5231 26.1767 24.3106 25.53 24.9579C24.8822 25.6051 24.0944 25.9287 23.1667 25.9287ZM11.5 24.8062V12.1787C11.5 11.8054 11.6311 11.4876 11.8933 11.2254C12.1556 10.9631 12.4733 10.832 12.8467 10.832H23.4875C23.8597 10.832 24.1772 10.9631 24.44 11.2254C24.7022 11.4876 24.8333 11.8054 24.8333 12.1787V17.132C24.6978 17.082 24.5633 17.0393 24.43 17.0037C24.2961 16.9681 24.1528 16.9404 24 16.9204V12.1787C24 12.0504 23.9467 11.9326 23.84 11.8254C23.7333 11.7181 23.6156 11.6648 23.4867 11.6654H12.8467C12.7183 11.6654 12.6006 11.7187 12.4933 11.8254C12.3861 11.932 12.3328 12.0498 12.3333 12.1787V23.3737H17.62C17.6578 23.6015 17.7067 23.8243 17.7667 24.042C17.8272 24.2598 17.9114 24.4676 18.0192 24.6654L17.9908 24.6937L17.045 24.0054L15.9233 24.8062L14.8017 24.0054L13.68 24.8062L12.5575 24.0054L11.5 24.8062ZM13.8083 21.0562H17.7325C17.7636 20.9034 17.8019 20.7604 17.8475 20.627C17.8931 20.4937 17.9464 20.359 18.0075 20.2229H13.8083V21.0562ZM13.8083 17.9154H19.9C20.1722 17.7004 20.4639 17.5212 20.775 17.3779C21.0861 17.234 21.4186 17.1354 21.7725 17.082H13.8075L13.8083 17.9154Z" fill="#6D2E3D"/>
</svg>
