<svg width="35" height="35" viewBox="0 0 35 35" fill="none" xmlns="http://www.w3.org/2000/svg">
<path d="M0 17.5C0 7.83502 7.83502 0 17.5 0C27.165 0 35 7.83502 35 17.5C35 27.165 27.165 35 17.5 35C7.83502 35 0 27.165 0 17.5Z" fill="#F3D8D9"/>
<path d="M13.0692 11.6688C11.9317 11.7205 11.2292 11.8805 10.7325 12.378C10 13.1113 10 14.2921 10 16.653V20.8271C10 23.188 10 24.3688 10.7325 25.1021C11.4642 25.8355 12.6433 25.8355 15 25.8355H20C22.3567 25.8355 23.5358 25.8355 24.2675 25.1021C24.9992 24.3688 25 23.188 25 20.8271V16.6521C25 14.2913 25 13.1105 24.2675 12.3771C23.7708 11.8796 23.0675 11.7188 21.9308 11.668" stroke="#6D2E3D" stroke-width="1.25" stroke-linejoin="round"/>
<path d="M13.3543 12.9513C12.9543 11.3846 12.7543 10.6013 13.0793 10.0263C13.1663 9.87314 13.2772 9.73476 13.4076 9.6163C13.8984 9.16797 14.7243 9.16797 16.3751 9.16797H18.6251C20.2759 9.16797 21.1018 9.16797 21.5926 9.6163C21.7234 9.73547 21.8343 9.87464 21.9209 10.0271C22.2459 10.6021 22.0459 11.3855 21.6459 12.9521C21.3259 14.2005 21.1668 14.8246 20.7401 15.2355C20.6234 15.3482 20.4954 15.4463 20.3559 15.5296C19.8443 15.8346 19.1859 15.8346 17.8701 15.8346H17.1301C15.8134 15.8346 15.1551 15.8346 14.6443 15.5296C14.5059 15.4464 14.3774 15.3481 14.2609 15.2363C13.8334 14.8246 13.6734 14.2005 13.3543 12.9513Z" stroke="#6D2E3D" stroke-width="1.25" stroke-linejoin="round"/>
<path d="M15.833 22.5026H19.1663M17.083 15.8359L17.9163 13.3359" stroke="#6D2E3D" stroke-width="1.25" stroke-linecap="round" stroke-linejoin="round"/>
</svg>
