<svg width="35" height="35" viewBox="0 0 35 35" fill="none" xmlns="http://www.w3.org/2000/svg">
<path d="M0 17.5C0 7.83502 7.83502 0 17.5 0C27.165 0 35 7.83502 35 17.5C35 27.165 27.165 35 17.5 35C7.83502 35 0 27.165 0 17.5Z" fill="#F3D8D9"/>
<g clip-path="url(#clip0_816_66311)">
<path d="M21.875 13.3594L27.4902 16.1719V23.8086L21.875 26.6211L16.25 23.8281V20.6934L13.125 22.2461L7.5 19.4531L7.50977 11.7969L13.125 8.98438L18.7402 11.7969L18.75 14.9316L21.875 13.3594ZM25.4688 16.5527L21.875 14.7656L18.2812 16.5527L21.875 18.3496L25.4688 16.5527ZM16.7188 12.1777L13.125 10.3906L9.53125 12.1777L13.125 13.9746L16.7188 12.1777ZM8.75977 13.1934L8.75 18.6719L12.5 20.5371V15.0586L8.75977 13.1934ZM13.75 20.5371L16.2598 19.2969V16.1719L17.5 15.5566L17.4902 13.1934L13.75 15.0586V20.5371ZM17.5098 17.5684L17.5 23.0469L21.25 24.9121V19.4336L17.5098 17.5684ZM22.5 24.9121L26.2402 23.0371V17.5684L22.5 19.4336V24.9121Z" fill="#6D2E3D"/>
</g>
<defs>
<clipPath id="clip0_816_66311">
<rect width="20" height="20" fill="white" transform="translate(7.5 7.5)"/>
</clipPath>
</defs>
</svg>
