<svg width="35" height="35" viewBox="0 0 35 35" fill="none" xmlns="http://www.w3.org/2000/svg">
<path d="M0 17.5C0 7.83502 7.83502 0 17.5 0C27.165 0 35 7.83502 35 17.5C35 27.165 27.165 35 17.5 35C7.83502 35 0 27.165 0 17.5Z" fill="#F3D8D9"/>
<path d="M16.6668 12.0846C16.667 12.7861 16.4144 13.4642 15.9552 13.9945C15.496 14.5248 14.8611 14.8719 14.1668 14.9721V17.0846H19.3752C19.8725 17.0846 20.3494 16.8871 20.701 16.5355C21.0526 16.1838 21.2502 15.7069 21.2502 15.2096V14.8805C20.5804 14.6786 20.0055 14.2429 19.63 13.6528C19.2546 13.0626 19.1036 12.3572 19.2046 11.665C19.3055 10.9729 19.6517 10.34 20.1802 9.88169C20.7086 9.42337 21.384 9.17009 22.0835 9.16797C22.8218 9.16664 23.5331 9.44536 24.074 9.94789C24.6149 10.4504 24.9451 11.1394 24.9979 11.8758C25.0508 12.6122 24.8224 13.3413 24.3589 13.9159C23.8953 14.4905 23.2311 14.868 22.5002 14.9721V15.2096C22.5002 16.0384 22.1709 16.8333 21.5849 17.4193C20.9988 18.0054 20.204 18.3346 19.3752 18.3346H14.1668V20.0305C14.8784 20.1332 15.527 20.4951 15.9881 21.0468C16.4492 21.5984 16.6903 22.301 16.665 23.0195C16.6398 23.738 16.3501 24.4219 15.8515 24.9399C15.3529 25.4579 14.6805 25.7735 13.9635 25.8261C13.2464 25.8787 12.5352 25.6646 11.9664 25.2248C11.3976 24.7851 11.0112 24.1508 10.8814 23.4436C10.7516 22.7365 10.8876 22.0063 11.2633 21.3933C11.639 20.7802 12.2278 20.3276 12.9168 20.1221V14.8805C12.2471 14.6786 11.6722 14.2429 11.2967 13.6528C10.9212 13.0626 10.7703 12.3572 10.8712 11.665C10.9722 10.9729 11.3184 10.34 11.8468 9.88169C12.3752 9.42337 13.0507 9.17009 13.7502 9.16797C14.5237 9.16797 15.2656 9.47526 15.8126 10.0222C16.3595 10.5692 16.6668 11.3111 16.6668 12.0846ZM13.7502 13.7513C14.1922 13.7513 14.6161 13.5757 14.9287 13.2632C15.2412 12.9506 15.4168 12.5267 15.4168 12.0846C15.4168 11.6426 15.2412 11.2187 14.9287 10.9061C14.6161 10.5936 14.1922 10.418 13.7502 10.418C13.3081 10.418 12.8842 10.5936 12.5717 10.9061C12.2591 11.2187 12.0835 11.6426 12.0835 12.0846C12.0835 12.5267 12.2591 12.9506 12.5717 13.2632C12.8842 13.5757 13.3081 13.7513 13.7502 13.7513ZM22.0835 13.7513C22.5255 13.7513 22.9495 13.5757 23.262 13.2632C23.5746 12.9506 23.7502 12.5267 23.7502 12.0846C23.7502 11.6426 23.5746 11.2187 23.262 10.9061C22.9495 10.5936 22.5255 10.418 22.0835 10.418C21.6415 10.418 21.2176 10.5936 20.905 10.9061C20.5924 11.2187 20.4168 11.6426 20.4168 12.0846C20.4168 12.5267 20.5924 12.9506 20.905 13.2632C21.2176 13.5757 21.6415 13.7513 22.0835 13.7513ZM15.4168 22.918C15.4168 22.4759 15.2412 22.052 14.9287 21.7395C14.6161 21.4269 14.1922 21.2513 13.7502 21.2513C13.3081 21.2513 12.8842 21.4269 12.5717 21.7395C12.2591 22.052 12.0835 22.4759 12.0835 22.918C12.0835 23.36 12.2591 23.7839 12.5717 24.0965C12.8842 24.409 13.3081 24.5846 13.7502 24.5846C14.1922 24.5846 14.6161 24.409 14.9287 24.0965C15.2412 23.7839 15.4168 23.36 15.4168 22.918Z" fill="#6D2E3D"/>
</svg>
