<svg width="20" height="21" viewBox="0 0 20 21" fill="none" xmlns="http://www.w3.org/2000/svg">
<path d="M10 18C8.95833 18 7.98278 17.8022 7.07333 17.4067C6.16389 17.0111 5.37222 16.4764 4.69833 15.8025C4.02445 15.1286 3.48972 14.3369 3.09417 13.4275C2.69861 12.5181 2.50056 11.5422 2.5 10.5C2.49945 9.45778 2.6975 8.48222 3.09417 7.57333C3.49083 6.66444 4.02528 5.87278 4.6975 5.19833C5.36972 4.52389 6.16139 3.98917 7.0725 3.59417C7.98361 3.19917 8.95944 3.00111 10 3C11.1389 3 12.2189 3.24306 13.24 3.72917C14.2611 4.21528 15.1256 4.90278 15.8333 5.79167V4.66667C15.8333 4.43056 15.9133 4.23278 16.0733 4.07333C16.2333 3.91389 16.4311 3.83389 16.6667 3.83333C16.9022 3.83278 17.1003 3.91278 17.2608 4.07333C17.4214 4.23389 17.5011 4.43167 17.5 4.66667V8C17.5 8.23611 17.42 8.43417 17.26 8.59417C17.1 8.75417 16.9022 8.83389 16.6667 8.83333H13.3333C13.0972 8.83333 12.8994 8.75333 12.74 8.59333C12.5806 8.43333 12.5006 8.23556 12.5 8C12.4994 7.76444 12.5794 7.56667 12.74 7.40667C12.9006 7.24667 13.0983 7.16667 13.3333 7.16667H14.7917C14.2222 6.38889 13.5208 5.77778 12.6875 5.33333C11.8542 4.88889 10.9583 4.66667 10 4.66667C8.375 4.66667 6.99667 5.23278 5.865 6.365C4.73333 7.49722 4.16722 8.87556 4.16667 10.5C4.16611 12.1244 4.73222 13.5031 5.865 14.6358C6.99778 15.7686 8.37611 16.3344 10 16.3333C11.3194 16.3333 12.5 15.9375 13.5417 15.1458C14.5833 14.3542 15.2708 13.3333 15.6042 12.0833C15.6736 11.8611 15.7986 11.6944 15.9792 11.5833C16.1597 11.4722 16.3611 11.4306 16.5833 11.4583C16.8194 11.4861 17.0069 11.5867 17.1458 11.76C17.2847 11.9333 17.3264 12.1244 17.2708 12.3333C16.8681 13.9861 15.9931 15.3439 14.6458 16.4067C13.2986 17.4694 11.75 18.0006 10 18ZM10.8333 10.1667L12.9167 12.25C13.0694 12.4028 13.1458 12.5972 13.1458 12.8333C13.1458 13.0694 13.0694 13.2639 12.9167 13.4167C12.7639 13.5694 12.5694 13.6458 12.3333 13.6458C12.0972 13.6458 11.9028 13.5694 11.75 13.4167L9.41667 11.0833C9.33333 11 9.27083 10.9064 9.22917 10.8025C9.1875 10.6986 9.16667 10.5908 9.16667 10.4792V7.16667C9.16667 6.93056 9.24667 6.73278 9.40667 6.57333C9.56667 6.41389 9.76445 6.33389 10 6.33333C10.2356 6.33278 10.4336 6.41278 10.5942 6.57333C10.7547 6.73389 10.8344 6.93167 10.8333 7.16667V10.1667Z" fill="#6D2E3D"/>
</svg>
