<svg width="26" height="26" viewBox="0 0 26 26" fill="none" xmlns="http://www.w3.org/2000/svg">
<g clip-path="url(#clip0_499_55684)">
<rect x="0.875" y="0.875" width="24.25" height="24.25" rx="12.125" fill="#6D2E3D"/>
<path d="M13 0.875C6.30359 0.875 0.875 6.30359 0.875 13C0.875 19.6968 6.30359 25.125 13 25.125C19.6968 25.125 25.125 19.6968 25.125 13C25.125 6.30359 19.6968 0.875 13 0.875ZM13 23.6332C7.15007 23.6332 2.39062 18.8499 2.39062 13C2.39062 7.15002 7.15007 2.39058 13 2.39058C18.8499 2.39058 23.6094 7.15004 23.6094 13C23.6094 18.8499 18.8499 23.6332 13 23.6332ZM18.3047 12.2422H13.7578V7.69531C13.7578 7.277 13.4183 6.9375 13 6.9375C12.5817 6.9375 12.2422 7.277 12.2422 7.69531V12.2422H7.69531C7.277 12.2422 6.9375 12.5817 6.9375 13C6.9375 13.4183 7.277 13.7578 7.69531 13.7578H12.2422V18.3047C12.2422 18.723 12.5817 19.0625 13 19.0625C13.4183 19.0625 13.7578 18.723 13.7578 18.3047V13.7578H18.3047C18.723 13.7578 19.0625 13.4183 19.0625 13C19.0625 12.5817 18.723 12.2422 18.3047 12.2422Z" fill="white"/>
</g>
<defs>
<clipPath id="clip0_499_55684">
<rect x="0.875" y="0.875" width="24.25" height="24.25" rx="12.125" fill="white"/>
</clipPath>
</defs>
</svg>
