<svg width="25" height="24" viewBox="0 0 25 24" fill="none" xmlns="http://www.w3.org/2000/svg">
<path d="M15.833 13C15.833 12.8011 15.754 12.6103 15.6133 12.4697C15.4727 12.329 15.2819 12.25 15.083 12.25H9.08301C8.8841 12.25 8.69333 12.329 8.55268 12.4697C8.41203 12.6103 8.33301 12.8011 8.33301 13C8.33301 13.1989 8.41203 13.3897 8.55268 13.5303C8.69333 13.671 8.8841 13.75 9.08301 13.75H15.083C15.2819 13.75 15.4727 13.671 15.6133 13.5303C15.754 13.3897 15.833 13.1989 15.833 13ZM15.833 17C15.833 16.8011 15.754 16.6103 15.6133 16.4697C15.4727 16.329 15.2819 16.25 15.083 16.25H9.08301C8.8841 16.25 8.69333 16.329 8.55268 16.4697C8.41203 16.6103 8.33301 16.8011 8.33301 17C8.33301 17.1989 8.41203 17.3897 8.55268 17.5303C8.69333 17.671 8.8841 17.75 9.08301 17.75H15.083C15.2819 17.75 15.4727 17.671 15.6133 17.5303C15.754 17.3897 15.833 17.1989 15.833 17Z" fill="#6D2E3D"/>
<path fill-rule="evenodd" clip-rule="evenodd" d="M7.08301 2.25C6.35366 2.25 5.65419 2.53973 5.13846 3.05546C4.62274 3.57118 4.33301 4.27065 4.33301 5V19C4.33301 19.7293 4.62274 20.4288 5.13846 20.9445C5.65419 21.4603 6.35366 21.75 7.08301 21.75H17.083C17.8124 21.75 18.5118 21.4603 19.0276 20.9445C19.5433 20.4288 19.833 19.7293 19.833 19V7.968C19.833 7.587 19.709 7.217 19.479 6.913L16.481 2.945C16.3179 2.72912 16.1069 2.554 15.8647 2.43341C15.6225 2.31282 15.3556 2.25004 15.085 2.25H7.08301ZM5.83301 5C5.83301 4.31 6.39301 3.75 7.08301 3.75H14.333V8.147C14.333 8.561 14.669 8.897 15.083 8.897H18.333V19C18.333 19.69 17.773 20.25 17.083 20.25H7.08301C6.39301 20.25 5.83301 19.69 5.83301 19V5Z" fill="#6D2E3D"/>
</svg>
