<svg width="20" height="20" viewBox="0 0 20 20" fill="none" xmlns="http://www.w3.org/2000/svg">
<path d="M10 13.2007V6.80031M8.36 11.9999C8.68292 12.4082 9.0875 12.5607 9.65083 12.5607H10.43C11.1554 12.5607 11.7433 11.9878 11.7433 11.2807C11.7433 10.5736 11.1558 10.0007 10.43 10.0007H9.56917C8.84417 10.0007 8.25583 9.42781 8.25583 8.72073C8.25583 8.01365 8.84333 7.44073 9.56917 7.44073H10.3483C10.9121 7.44073 11.3167 7.59281 11.6396 8.00156M10.0254 14.2349V17.3982M18.1254 4.81073V12.8399L10.4021 17.2995C10.2874 17.3657 10.1574 17.4005 10.025 17.4005C9.89262 17.4005 9.76256 17.3657 9.64792 17.2995L1.875 12.8111V4.78156M1.875 4.78156L5.65 2.60156L8.34375 4.15698C9.25917 4.68531 10.7379 4.68781 11.6475 4.16281L14.325 2.61698L18.125 4.81115L12.895 7.83073M1.875 4.78156L7.105 7.80115" stroke="#6D2E3D" stroke-linecap="round" stroke-linejoin="round"/>
</svg>
