<svg width="20" height="20" viewBox="0 0 20 20" fill="none" xmlns="http://www.w3.org/2000/svg">
<path d="M13.1248 12.0807C12.9591 12.0807 12.8001 12.1466 12.6829 12.2638C12.5657 12.381 12.4998 12.54 12.4998 12.7057C12.4998 12.8715 12.5657 13.0305 12.6829 13.1477C12.8001 13.2649 12.9591 13.3307 13.1248 13.3307H15.2082C15.3739 13.3307 15.5329 13.2649 15.6501 13.1477C15.7673 13.0305 15.8332 12.8715 15.8332 12.7057C15.8332 12.54 15.7673 12.381 15.6501 12.2638C15.5329 12.1466 15.3739 12.0807 15.2082 12.0807H13.1248ZM1.6665 6.8724C1.6665 6.1541 1.95185 5.46523 2.45976 4.95731C2.96767 4.4494 3.65654 4.16406 4.37484 4.16406H15.6248C15.9805 4.16406 16.3327 4.23412 16.6613 4.37022C16.9899 4.50633 17.2884 4.70582 17.5399 4.95731C17.7914 5.20881 17.9909 5.50737 18.127 5.83596C18.2631 6.16455 18.3332 6.51673 18.3332 6.8724V13.1224C18.3332 13.4781 18.2631 13.8302 18.127 14.1588C17.9909 14.4874 17.7914 14.786 17.5399 15.0375C17.2884 15.289 16.9899 15.4885 16.6613 15.6246C16.3327 15.7607 15.9805 15.8307 15.6248 15.8307H4.37484C3.65654 15.8307 2.96767 15.5454 2.45976 15.0375C1.95185 14.5296 1.6665 13.8407 1.6665 13.1224V6.8724ZM17.0832 7.91406V6.8724C17.0832 6.48562 16.9295 6.11469 16.656 5.8412C16.3825 5.56771 16.0116 5.41406 15.6248 5.41406H4.37484C3.98806 5.41406 3.61713 5.56771 3.34364 5.8412C3.07015 6.11469 2.9165 6.48562 2.9165 6.8724V7.91406H17.0832ZM2.9165 9.16406V13.1224C2.9165 13.9274 3.56984 14.5807 4.37484 14.5807H15.6248C16.0116 14.5807 16.3825 14.4271 16.656 14.1536C16.9295 13.8801 17.0832 13.5092 17.0832 13.1224V9.16406H2.9165Z" fill="#471923"/>
</svg>
