<svg width="187" height="100" viewBox="0 0 187 100" fill="none" xmlns="http://www.w3.org/2000/svg">
<path opacity="0.38" d="M100.089 -24.5533C45.8709 -21.6385 43.5387 36.6614 49.3687 59.398C55.1988 82.1346 10.8912 87.3816 5.64417 124.694C0.397186 162.006 34.7939 177.746 59.2796 178.329C83.7654 178.912 103.004 164.337 107.085 146.264C111.166 128.191 122.826 119.446 143.231 115.948C163.636 112.45 200.365 85.0493 193.952 49.4865C193.952 49.4865 192.45 11.6462 156.931 -13.4768C133.028 -30.3828 100.089 -24.5533 100.089 -24.5533Z" fill="#E2E7FF"/>
<path d="M135.167 64.7879C135.167 64.7879 136.644 45.9523 131.104 33.3948C128.889 30.4405 127.411 31.5481 127.411 31.5481C127.411 31.5481 126.672 39.304 128.519 46.6903C130.366 54.0772 131.473 68.4808 131.473 68.4808L135.167 64.7879Z" fill="#61A27D"/>
<path d="M136.272 63.3108C136.272 63.3108 136.642 54.4468 145.875 46.691C155.108 38.9351 156.955 38.9351 156.955 38.9351C156.955 38.9351 149.568 38.5655 144.398 41.8899C139.227 45.2138 137.381 54.4468 137.011 55.9245C136.641 57.4017 134.426 63.3114 134.426 63.3114L136.272 63.3108Z" fill="#578B71"/>
<path d="M130.283 64.6684C130.283 64.6684 128.552 55.9675 118.235 49.7262C107.917 43.4854 106.092 43.7699 106.092 43.7699C106.092 43.7699 113.334 42.2667 118.955 44.7545C124.576 47.2422 127.822 56.0808 128.415 57.4832C129.008 58.8861 132.108 64.3834 132.108 64.3834L130.283 64.6684Z" fill="#578B71"/>
<path d="M134.424 63.3106C134.424 63.3106 144.026 31.5485 152.521 24.1617C152.152 23.0535 142.18 26.3774 139.225 34.5028C136.27 42.6277 135.532 54.8156 134.424 58.14C133.316 61.4639 131.838 64.4188 131.838 64.4188" fill="#7CC97D"/>
<path d="M135.168 64.7881C135.168 64.7881 131.474 47.4297 121.872 41.5205C121.133 43.7362 131.843 61.8333 130.736 69.9587C129.628 78.0836 135.168 64.7881 135.168 64.7881Z" fill="#7CC97D"/>
<path d="M140.437 84.3523H126.233C125.359 78.4285 124.625 73.1018 124.489 71.0665C124.21 66.8697 125.624 63.3134 126.327 61.8335H140.343C141.046 63.3134 142.461 66.8697 142.181 71.0665C142.045 73.1018 141.311 78.4285 140.437 84.3523Z" fill="#A9A7E7"/>
<path d="M11.1109 48.9814H37.1594V84.2235H11.1109V48.9814Z" fill="#24ADB2"/>
<path d="M13.7925 48.9814H39.841V84.2235H13.7925V48.9814Z" fill="#26C6DA"/>
<path d="M20.2993 45.4062H46.3479V84.2236H20.2993V45.4062Z" fill="#E1543C"/>
<path d="M22.9839 45.4062H52.863V84.2236H22.9839V45.4062Z" fill="#FF634D"/>
<path d="M22.975 45.4062H28.0827V84.2236H22.975V45.4062Z" fill="#EB594D"/>
<path d="M172.121 55.1104C172.121 55.1104 176.207 57.1532 177.994 63.0272C179.782 68.9006 170.077 84.7342 170.077 83.968C170.077 83.2018 160.373 78.8603 160.373 78.8603L165.225 60.9838L172.121 55.1104Z" fill="#202F7C"/>
<path d="M70.0548 86.109L75.4503 71.8501H88.9387L83.5432 86.109" fill="#4F57A0"/>
<path d="M119.004 74.6763H42.313L40.9718 67.4829H117.662" fill="#E2E7FF"/>
<path d="M110.87 31.0787L117.657 67.4825H40.9673L34.3375 31.9213C34.0736 30.5076 35.159 29.2017 36.5971 29.2017H108.611C109.718 29.2017 110.668 29.9906 110.87 31.0787Z" fill="#243FA7"/>
<path d="M73.1006 80.9671L52.7981 65.8363L72.7175 64.687L91.4875 79.2434L73.1006 80.9671Z" fill="white"/>
<path d="M78.7798 76.0512L73.6721 73.2421C73.6721 73.2421 68.74 71.1992 68.5964 71.1992C68.4528 71.1992 68.022 71.6782 68.5487 72.6834C69.0754 73.6891 70.4642 73.9287 70.4642 73.9287L71.374 76.4663L66.6494 75.796L65.564 75.5407C65.564 75.5407 66.3302 77.4563 66.6494 77.9028C66.9686 78.3498 68.7562 79.4991 68.7562 79.4991C68.7562 79.4991 72.1402 82.3082 73.353 82.6274C74.5662 82.9466 78.7798 83.1378 78.7798 83.1378L81.461 83.0739L83.951 83.5849C83.951 83.5849 85.2276 81.2228 85.0363 77.9028L78.7798 76.0512Z" fill="#FF8D68"/>
<path d="M48.5144 87.7991L33.7027 184.331H30.1274L39.8319 87.2881L48.5144 87.7991Z" fill="#E2E7FF"/>
<path d="M18.3869 87.7991L3.57529 184.331H-1.90735e-06L9.70446 87.2881L18.3869 87.7991Z" fill="#E2E7FF"/>
<path d="M105.216 87.7991L120.028 184.331H123.603L113.899 87.2881L105.216 87.7991Z" fill="#C2D3EB"/>
<path d="M135.349 87.7991L150.161 184.331H153.736L144.032 87.2881L135.349 87.7991Z" fill="#C2D3EB"/>
<path d="M7.66061 86.7773H140.967V91.3741H7.66061V86.7773Z" fill="#A9A7E7"/>
<path d="M5.10257 88.8206H136.876C138.287 88.8206 139.43 87.6772 139.43 86.2667C139.43 84.8562 138.287 83.7129 136.876 83.7129H5.10257C3.69208 83.7129 2.54871 84.8562 2.54871 86.2667C2.54871 87.6772 3.69208 88.8206 5.10257 88.8206Z" fill="#FFC757"/>
<path d="M153.141 16.7611C153.141 16.7611 148.895 17.5522 146.104 23.8055C143.313 30.0587 143.985 43.7861 145.455 45.4936C146.925 47.201 151.755 46.9068 158.542 45.1554C165.713 43.3055 168.569 36.1673 170.143 31.4389C173.157 22.3836 165.773 12.3687 153.141 16.7611Z" fill="#FF8D68"/>
<path d="M164.928 53.3608L162.486 41.6622C162.486 41.6622 156.2 39.3668 151.909 43.374L150.45 45.1551L149.953 52.6341C149.953 52.6341 156.542 54.4131 164.928 53.3608Z" fill="#FF8D68"/>
<path d="M85.674 75.4127C85.674 75.4127 80.6942 75.2848 80.3111 75.7958C79.928 76.3068 78.1403 80.9035 79.8001 82.8185C81.2046 83.8399 81.2047 83.8399 81.2047 83.8399H85.5462L85.674 75.4127Z" fill="#E2E7FF"/>
<path d="M165.797 51.6629L164.456 48.2155C164.456 48.2155 156.412 45.7255 149.516 48.7899C147.793 50.5136 146.835 53.1953 146.835 53.1953L165.797 51.6629Z" fill="#E2E7FF"/>
<path d="M167.526 52.0461C167.526 52.0461 166.504 50.2585 164.717 50.0033C162.929 49.748 154.757 48.7266 149.394 50.2585C147.351 51.0247 146.33 52.0461 146.33 52.0461C146.33 52.0461 138.669 54.6 136.115 56.1319C133.561 57.6643 132.795 69.4116 132.284 73.2422C131.774 77.0727 133.306 81.159 133.306 81.159C133.306 81.159 127.176 106.186 127.176 109.761C127.176 113.336 129.219 117.422 136.37 119.976C143.521 122.53 162.929 121.508 169.569 117.422C171.612 113.336 174.677 64.8144 175.187 60.2176C175.698 55.6214 167.526 52.0461 167.526 52.0461Z" fill="#202F7C"/>
<path d="M140.324 55.1105C140.324 55.1105 138.409 53.9612 133.812 57.026C129.215 60.0904 116.574 71.5825 115.042 72.3487C113.51 73.1149 84.0136 74.6473 84.0136 74.6473C84.0136 74.6473 79.7999 80.0103 84.3967 84.2239C84.3967 84.2239 112.871 85.3732 118.234 84.9901C123.597 84.607 141.474 74.2642 141.474 74.2642C141.474 74.2642 148.752 63.5378 140.324 55.1105Z" fill="#202F7C"/>
<path d="M146.461 72.0137C146.461 72.0137 122.581 84.5511 119.794 84.9488C117.008 85.3465 106.461 84.9488 106.461 84.9488" stroke="#1B2048" stroke-width="0.8263" stroke-miterlimit="10"/>
<path d="M114.227 75.1973C114.227 75.1973 113.431 79.5756 116.217 82.1625" stroke="#1B2048" stroke-width="0.8263" stroke-miterlimit="10"/>
<path d="M112.434 74.0034C112.434 74.0034 110.046 77.7846 111.24 80.5704" stroke="#1B2048" stroke-width="0.8263" stroke-miterlimit="10"/>
<path d="M146.66 67.0376C146.66 67.0376 148.65 60.0723 141.685 55.4951" stroke="#1B2048" stroke-width="0.8263" stroke-miterlimit="10"/>
<path d="M172.33 60.4707C172.33 60.4707 173.723 72.8092 173.723 78.5802" stroke="#1B2048" stroke-width="0.8263" stroke-miterlimit="10"/>
<path d="M165.172 52.3113C165.172 52.3113 156.018 51.5153 148.456 52.3113" stroke="#1B2048" stroke-width="0.8263" stroke-miterlimit="10"/>
<path d="M147.025 25.04C147.025 25.04 146.259 28.4875 149.324 30.7861L149.132 34.6166C149.132 34.6166 147.983 38.064 148.749 38.4472C149.516 38.8303 149.707 38.2553 149.707 38.2553C149.707 38.2553 152.197 34.233 152.963 34.0417C153.729 33.8499 151.239 39.4046 151.239 39.4046C151.239 39.4046 153.729 43.2352 158.326 43.8096L157.368 42.469C157.368 42.469 159.475 43.8096 162.731 43.6183C165.987 43.4265 168.477 38.4472 168.477 38.4472C168.477 38.4472 167.903 39.7878 168.477 40.3627C169.052 40.9371 172.308 35.9572 172.5 29.6368L173.457 31.5523C173.457 31.5523 173.266 27.1469 171.542 22.167C169.818 17.1872 162.156 13.5479 157.943 13.5479C153.729 13.5479 149.516 13.931 148.366 13.5479C147.217 13.1648 147.792 16.421 147.792 16.421C147.792 16.421 147.217 15.0804 147.026 13.931C146.259 13.3567 145.11 17.9534 145.493 19.6771C145.876 21.4008 145.876 21.4008 145.876 21.4008C145.876 21.4008 144.536 19.6771 144.344 18.7191C143.578 18.5278 143.769 22.7414 147.025 25.04Z" fill="#201360"/>
<path d="M149.806 34.5828C149.806 34.5828 150.58 32.0187 152.704 33.3669C154.828 34.715 151.811 40.7526 150.035 40.2319C148.258 39.7111 149.339 35.5577 149.806 34.5828Z" fill="#FF634D"/>
<path d="M72.0759 78.9885L66.649 77.9031L65.5636 75.5405" stroke="#E66657" stroke-width="1.2805" stroke-miterlimit="10"/>
<path d="M66.8408 78.0303C66.8408 78.0303 69.586 80.3289 69.9691 80.5202C70.3522 80.712 72.0759 81.1585 72.0759 81.1585" stroke="#E66657" stroke-width="1.2805" stroke-miterlimit="10"/>
<path d="M150.665 41.0649C150.665 41.0649 151.431 43.7461 146.835 45.2786" stroke="#E66657" stroke-width="1.2805" stroke-miterlimit="10"/>
<path d="M45.9599 61.2396H86.8195L81.7124 34.6807H40.8522L45.9599 61.2396Z" fill="#2E60BE"/>
<path d="M99.9537 43.8751C100.1 44.6364 99.517 45.3425 98.7415 45.3425H54.2589C53.6672 45.3425 53.1584 44.9225 53.0467 44.3411L52.3921 40.937H99.3891L99.9537 43.8751Z" fill="#26C6F8"/>
<path d="M48.8619 14.7944H93.3445C93.9362 14.7944 94.445 15.2144 94.5567 15.7958L99.3918 40.9373H52.3949L47.6497 16.2624C47.5034 15.5005 48.0864 14.7944 48.8619 14.7944Z" fill="#CAE5FF"/>
<path d="M79.2692 45.3612C78.6835 43.7459 78.322 42.5911 78.322 42.5911C78.322 42.5911 76.9804 35.5782 82.9567 37.3772C82.9567 37.3772 85.0299 38.9324 86.0059 42.2254C86.3088 43.2479 86.6702 44.3403 87.0251 45.3612H79.2692Z" fill="#387AB6"/>
<path d="M66.8977 45.3612C67.0077 41.9034 67.2223 39.1307 67.5957 38.3834C68.6935 36.3709 73.1754 34.5415 73.1754 34.5415L79.304 35.4562C79.304 35.4562 81.8654 36.1877 82.6885 38.0176C82.9649 38.6327 83.6341 41.6238 84.3488 45.3617L66.8977 45.3612Z" fill="#DCE4FF"/>
<path d="M78.2528 30.3917C78.2528 30.3917 78.6234 33.1331 79.4384 35.1337C79.4384 35.1337 79.6606 36.6894 76.4007 36.0229C73.1407 35.3559 73.5851 33.7259 73.5851 33.7259V27.2803L78.2528 30.3917Z" fill="#FF8D68"/>
<path d="M82.8246 23.6146C82.8246 23.6146 82.7878 29.7437 81.0289 32.6964C79.8281 33.9384 75.7342 31.9876 74.0116 29.3525C72.2889 26.7173 72.3225 22.753 73.6859 20.5459C75.0487 18.3389 79.5387 19.0027 80.8544 19.7651C82.1701 20.527 82.8989 22.6343 82.8246 23.6146Z" fill="#FF8D68"/>
<path d="M74.5559 27.0762C74.5559 27.0762 73.4001 25.2951 72.6268 26.3556C71.8535 27.416 74.5315 29.5851 74.7363 28.7599C74.9406 27.9346 74.5559 27.0762 74.5559 27.0762Z" fill="#FBA894"/>
<path d="M82.8281 23.614C82.8281 23.614 84.9782 21.7234 82.3848 19.2785C80.9028 18.1671 80.162 18.9821 78.6063 18.6856C77.0506 18.3892 74.235 18.6857 73.1978 20.3156C72.1607 21.9456 72.5313 25.7241 72.8272 26.0947C73.1236 26.4654 74.0128 26.6875 74.0128 27.354C74.0128 28.0211 74.1608 28.5397 74.3835 28.5397C74.6056 28.5397 74.6057 27.4283 74.6057 26.6133C74.6057 25.7983 74.7536 24.2426 75.1242 23.1312C75.4949 22.0198 77.1985 22.0941 77.8656 22.242C78.5321 22.3899 78.9737 24.0968 82.8281 23.614Z" fill="#713336"/>
<path opacity="0.53" d="M74.758 25.4558C74.758 25.4558 74.7098 25.4314 74.6356 25.4005C74.6361 25.3983 74.6361 25.3945 74.6361 25.3945L74.758 25.4558Z" fill="#505E83"/>
<path d="M74.6325 25.4001C74.619 25.5215 74.231 29.0703 75.6393 30.0592C77.1029 31.0351 77.1636 29.785 78.3227 29.6018C79.4812 29.4187 80.4268 29.4799 80.9449 30.2423C81.4022 31.0048 81.3106 31.3402 81.7376 31.1267C81.8292 31.3705 81.1887 32.8645 80.2128 33.2611C79.2369 33.6572 76.9198 32.438 75.8832 31.5233C74.8466 30.6086 74.2061 30.0294 74.0235 29.2366C73.8403 28.4439 73.9319 26.919 73.7184 25.8521C73.5959 25.0457 74.3334 25.276 74.6325 25.4001ZM79.9689 31.9498C81.3713 31.6447 81.1887 30.5474 79.7554 30.0901C79.7554 30.0901 78.2311 29.3889 77.7126 30.4558C77.4991 31.157 78.5666 32.2549 79.9689 31.9498Z" fill="#713336"/>
<path d="M73.5855 33.2612C73.5855 33.2612 75.3693 35.5024 78.2966 35.7766C78.891 35.5479 79.2113 34.4501 79.2113 34.4501L79.6686 35.1361C79.6686 35.1361 79.8973 36.5081 79.6686 37.0571C79.3944 37.1026 78.3881 36.4166 78.3881 36.4166C78.3881 36.4166 77.7021 37.3773 77.1993 37.5599C76.6964 37.7425 73.4945 35.5935 73.1748 34.5411C73.1737 34.5417 73.1964 33.7869 73.5855 33.2612Z" fill="white"/>
<path d="M66.43 45.3612C66.5893 41.9528 66.793 39.3474 66.9849 38.8104C67.7164 37.103 70.461 34.9078 73.1747 34.5415C73.1747 34.5415 74.194 39.2466 75.197 45.3612H66.43Z" fill="#387AB6"/>
<path d="M82.217 45.361C80.7794 39.2605 79.6696 35.6392 79.6696 35.6392C80.4927 35.7307 81.9563 36.3707 82.9626 37.377C83.5088 38.4694 84.3574 41.6068 85.2336 45.361H82.217Z" fill="#387AB6"/>
<path d="M66.9726 45.3614C66.8729 42.0982 67.0555 39.0811 67.5887 38.3837C69.3265 36.92 71.1559 37.0116 72.0706 38.6584C72.5707 39.5584 73.2345 42.6986 73.7336 45.3619L66.9726 45.3614Z" fill="#387AB6"/>
<path d="M78.3831 36.4165C78.9017 38.5293 79.3314 40.6659 79.7199 42.8063" stroke="#87B8EB" stroke-width="0.3595" stroke-miterlimit="10"/>
<path d="M44.8101 19.6476C40.4987 15.8406 39.4102 10.0289 42.3789 6.66683C45.3476 3.30475 51.2494 3.66546 55.5608 7.47249C59.8723 11.2795 60.9608 17.0912 57.992 20.4533C55.0233 23.8154 49.1216 23.4547 44.8101 19.6476Z" fill="#6787FF"/>
<path d="M39.1225 23.433C39.4693 24.8229 40.8771 25.95 42.267 25.95C43.6569 25.95 44.5028 24.8229 44.1566 23.433C43.8098 22.0431 42.402 20.916 41.0121 20.916C39.6221 20.916 38.7763 22.0426 39.1225 23.433Z" fill="#6787FF"/>
<path d="M52.5573 18.2272C52.8466 18.2272 53.1083 18.1167 53.2742 17.8961L55.6508 14.73C55.9825 14.2883 55.8042 13.5725 55.252 13.1309C54.7004 12.6892 53.9846 12.6892 53.6529 13.1309L51.8761 15.4973L45.5291 10.4172C44.9775 9.97553 44.2617 9.97553 43.9301 10.4172C43.5984 10.8588 43.7767 11.5746 44.3289 12.0162L51.6745 17.8961C51.9514 18.1167 52.2684 18.2272 52.5573 18.2272Z" fill="white"/>
<path d="M119.962 7.04256H122.97C123.725 7.04256 124.185 6.43023 123.996 5.6754L123.246 2.66744C123.057 1.91261 122.293 1.30029 121.538 1.30029H118.53C117.775 1.30029 117.315 1.91261 117.504 2.66744L118.254 5.6754C118.442 6.43023 119.207 7.04256 119.962 7.04256Z" stroke="#A9A7E7" stroke-width="0.75" stroke-miterlimit="10"/>
<path d="M110.392 7.04256H113.4C114.155 7.04256 114.615 6.43023 114.426 5.6754L113.676 2.66744C113.488 1.91261 112.723 1.30029 111.968 1.30029H108.96C108.205 1.30029 107.745 1.91261 107.934 2.66744L108.684 5.6754C108.872 6.43023 109.637 7.04256 110.392 7.04256Z" fill="#26C6DA"/>
<path d="M100.823 7.04256H103.831C104.586 7.04256 105.045 6.43023 104.857 5.6754L104.107 2.66744C103.919 1.91261 103.154 1.30029 102.399 1.30029H99.3909C98.6361 1.30029 98.176 1.91261 98.3646 2.66744L99.1146 5.6754C99.3026 6.43023 100.067 7.04256 100.823 7.04256Z" fill="white"/>
<path d="M122.216 16.0665H125.224C125.978 16.0665 126.439 15.4542 126.25 14.6993L125.5 11.6914C125.311 10.936 124.547 10.3242 123.792 10.3242H120.784C120.029 10.3242 119.569 10.9365 119.758 11.6914L120.508 14.6993C120.696 15.4542 121.461 16.0665 122.216 16.0665Z" fill="#26C6DA"/>
<path d="M124.619 25.7056H127.627C128.382 25.7056 128.842 25.0933 128.653 24.3385L127.903 21.3305C127.715 20.5757 126.95 19.9634 126.195 19.9634H123.187C122.432 19.9634 121.972 20.5757 122.161 21.3305L122.911 24.3385C123.1 25.0939 123.864 25.7056 124.619 25.7056Z" fill="white"/>
<path d="M112.646 16.0665H115.654C116.409 16.0665 116.869 15.4542 116.68 14.6993L115.93 11.6914C115.742 10.936 114.977 10.3242 114.222 10.3242H111.214C110.459 10.3242 109.999 10.9365 110.188 11.6914L110.938 14.6993C111.126 15.4542 111.89 16.0665 112.646 16.0665Z" fill="#EDF4FF"/>
<path d="M116.841 32.8834H119.849C120.604 32.8834 121.064 32.2711 120.875 31.5162L120.125 28.5083C119.937 27.7534 119.172 27.1411 118.417 27.1411H115.409C114.654 27.1411 114.195 27.7534 114.383 28.5083L115.133 31.5162C115.321 32.2711 116.086 32.8834 116.841 32.8834Z" stroke="#A9A7E7" stroke-width="0.75" stroke-miterlimit="10"/>
<path d="M26.346 21.1987H27.4503C27.7278 21.1987 27.8963 20.9738 27.8269 20.6969L27.5516 19.5926C27.4823 19.3152 27.2016 19.0908 26.9247 19.0908H25.8203C25.5429 19.0908 25.3744 19.3157 25.4437 19.5926L25.719 20.6969C25.7884 20.9744 26.0691 21.1987 26.346 21.1987Z" fill="#CAE5FF"/>
<path d="M27.1477 24.4365H28.2521C28.5295 24.4365 28.698 24.2116 28.6287 23.9347L28.3534 22.8304C28.284 22.553 28.0033 22.3286 27.7264 22.3286H26.6221C26.3447 22.3286 26.1761 22.5535 26.2455 22.8304L26.5208 23.9347C26.5896 24.2116 26.8703 24.4365 27.1477 24.4365Z" fill="#CAE5FF"/>
<path d="M23.637 24.4365H24.7413C25.0188 24.4365 25.1873 24.2116 25.1179 23.9347L24.8427 22.8304C24.7733 22.553 24.4926 22.3286 24.2157 22.3286H23.1114C22.8339 22.3286 22.6654 22.5535 22.7347 22.8304L23.01 23.9347C23.0788 24.2116 23.3595 24.4365 23.637 24.4365Z" fill="#CAE5FF"/>
<path d="M20.1209 24.4365H21.2252C21.5026 24.4365 21.6712 24.2116 21.6018 23.9347L21.3265 22.8304C21.2572 22.553 20.9765 22.3286 20.6996 22.3286H19.5952C19.3178 22.3286 19.1493 22.5535 19.2186 22.8304L19.4939 23.9347C19.5627 24.2116 19.8434 24.4365 20.1209 24.4365Z" fill="#CAE5FF"/>
<path d="M27.9778 27.7485H29.0821C29.3596 27.7485 29.5281 27.5236 29.4587 27.2467L29.1835 26.1424C29.1141 25.865 28.8334 25.6406 28.5565 25.6406H27.4522C27.1747 25.6406 27.0062 25.8655 27.0756 26.1424L27.3509 27.2467C27.4197 27.5236 27.7004 27.7485 27.9778 27.7485Z" fill="#CAE5FF"/>
<path d="M28.8567 31.2871H29.9611C30.2385 31.2871 30.407 31.0622 30.3376 30.7853L30.0624 29.681C29.993 29.4035 29.7123 29.1792 29.4354 29.1792H28.3311C28.0536 29.1792 27.8851 29.4041 27.9545 29.681L28.2298 30.7853C28.2991 31.0628 28.5798 31.2871 28.8567 31.2871Z" fill="#CAE5FF"/>
<path d="M24.4612 27.7485H25.5655C25.843 27.7485 26.0115 27.5236 25.9421 27.2467L25.6669 26.1424C25.5975 25.865 25.3168 25.6406 25.0399 25.6406H23.9356C23.6581 25.6406 23.4896 25.8655 23.559 26.1424L23.8342 27.2467C23.9031 27.5236 24.1843 27.7485 24.4612 27.7485Z" fill="#CAE5FF"/>
<path d="M26.0027 33.9224H27.107C27.3845 33.9224 27.553 33.6975 27.4836 33.4206L27.2084 32.3162C27.139 32.0388 26.8583 31.8145 26.5814 31.8145H25.4771C25.1996 31.8145 25.0311 32.0393 25.1005 32.3162L25.3758 33.4206C25.4446 33.698 25.7253 33.9224 26.0027 33.9224Z" fill="#CAE5FF"/>
<path opacity="0.9" d="M26.6987 63.0375H63.0033C63.3848 63.0375 63.6639 62.6771 63.5674 62.3076L60.1785 49.2863C60.1119 49.0295 59.8794 48.8501 59.6144 48.8501H23.3098C22.9283 48.8501 22.6493 49.2104 22.7457 49.58L26.1346 62.6013C26.2013 62.8581 26.4332 63.0375 26.6987 63.0375Z" fill="#BFD9FF"/>
<path d="M58.0237 51.6353H45.3909" stroke="#A9C2FF" stroke-width="1.076" stroke-miterlimit="10" stroke-linecap="round" stroke-linejoin="round"/>
<path d="M58.9973 57.4658H46.3645" stroke="#A9C2FF" stroke-width="1.076" stroke-miterlimit="10" stroke-linecap="round" stroke-linejoin="round"/>
<path d="M53.6784 55.2637H41.0457" stroke="#A9C2FF" stroke-width="1.076" stroke-miterlimit="10" stroke-linecap="round" stroke-linejoin="round"/>
<path d="M58.3518 53.5791H54.5619" stroke="#A9C2FF" stroke-width="1.076" stroke-miterlimit="10" stroke-linecap="round" stroke-linejoin="round"/>
<path d="M58.8694 55.2637H55.0795" stroke="#A9C2FF" stroke-width="1.076" stroke-miterlimit="10" stroke-linecap="round" stroke-linejoin="round"/>
<path d="M43.3801 51.6353H38.8776" stroke="#A9C2FF" stroke-width="1.076" stroke-miterlimit="10" stroke-linecap="round" stroke-linejoin="round"/>
<path d="M41.1781 60.2013H47.9017C47.9359 60.2013 47.9602 60.1693 47.9516 60.1362L47.6508 58.9804C47.6449 58.9577 47.6243 58.9414 47.6004 58.9414H40.8774C40.8432 58.9414 40.8189 58.9734 40.827 59.0064L41.1277 60.1628C41.1337 60.1856 41.1543 60.2013 41.1781 60.2013Z" stroke="#84AEE5" stroke-width="0.3587" stroke-miterlimit="10"/>
<path d="M49.5346 60.2013H56.2582C56.2923 60.2013 56.3167 60.1693 56.308 60.1362L56.0073 58.9804C56.0013 58.9577 55.9807 58.9414 55.9574 58.9414H49.2338C49.1997 58.9414 49.1753 58.9734 49.184 59.0064L49.4847 60.1628C49.4907 60.1856 49.5113 60.2013 49.5346 60.2013Z" stroke="#84AEE5" stroke-width="0.3587" stroke-miterlimit="10"/>
<path d="M29.3585 58.5254C29.7032 58.0665 31.1012 57.7327 31.4876 57.2737C31.6848 57.0391 31.6848 56.6034 31.6377 56.2333C31.5 56.1455 31.3857 56.0577 31.318 55.9759C31.202 55.8063 31.0709 55.5695 30.9397 55.3094C30.9002 55.3484 30.847 55.3782 30.7788 55.3766C30.5951 55.3712 29.8966 54.4196 30.0765 54.1996C30.1795 54.0734 30.3458 54.1828 30.4694 54.2999C30.2846 53.8761 30.1545 53.5516 30.1545 53.5516H30.1616C30.1442 53.4979 30.128 53.4443 30.1144 53.3901C29.837 52.2781 30.5138 51.3765 31.6257 51.3765C32.7377 51.3765 33.8637 52.2781 34.1411 53.3901C34.1547 53.4448 34.1655 53.4984 34.1742 53.5516H34.1812C34.1812 53.5516 34.2132 53.8761 34.2392 54.2999C34.3048 54.1834 34.4164 54.0739 34.5822 54.1996C34.8721 54.4202 34.6478 55.3712 34.4668 55.3766C34.3996 55.3788 34.3313 55.3484 34.2728 55.3094C34.2712 55.5695 34.2587 55.8063 34.2273 55.9759C34.1937 56.0756 34.0967 56.1851 33.9699 56.2918C34.1081 56.6489 34.3189 57.0515 34.6169 57.2737C35.2319 57.7327 36.7968 58.0665 37.3702 58.5254C37.886 58.9383 38.3461 60.144 38.4333 60.3824H29.2203C29.19 60.144 29.0486 58.9383 29.3585 58.5254Z" fill="#387AB6"/>
<path d="M75.9238 58.3938H105.714C108.329 58.3938 109.921 56.2734 109.269 53.6583C108.617 51.0432 105.968 48.9229 103.353 48.9229H73.5623C70.9472 48.9229 69.3557 51.0432 70.0076 53.6583C70.6595 56.2734 73.3082 58.3938 75.9238 58.3938Z" fill="white"/>
<path d="M102.556 54.8948L103.833 55.4887C103.953 55.5445 104.055 55.4545 104.005 55.3359L103.476 54.0782C103.456 54.031 103.459 53.9833 103.485 53.9497L104.177 53.0589C104.242 52.9749 104.158 52.8291 104.035 52.8118L102.726 52.6281C102.677 52.6211 102.629 52.5918 102.597 52.549L101.748 51.4051C101.667 51.2973 101.514 51.2973 101.488 51.4051L101.208 52.549C101.198 52.5918 101.164 52.6216 101.118 52.6281L99.9014 52.8118C99.7871 52.8291 99.7757 52.9749 99.883 53.0589L101.019 53.9497C101.061 53.9828 101.089 54.031 101.092 54.0782L101.19 55.3359C101.199 55.454 101.346 55.5445 101.438 55.4887L102.42 54.8948C102.457 54.8726 102.508 54.8726 102.556 54.8948Z" fill="#FFA402"/>
<path d="M96.2636 54.8948L97.5408 55.4887C97.6611 55.5445 97.7629 55.4545 97.7131 55.3359L97.1837 54.0782C97.1636 54.031 97.1674 53.9833 97.1934 53.9497L97.8849 53.0589C97.9499 52.9749 97.8659 52.8291 97.7429 52.8118L96.4342 52.6281C96.3855 52.6211 96.3372 52.5918 96.3053 52.549L95.4556 51.4051C95.3754 51.2973 95.2221 51.2973 95.1955 51.4051L94.9159 52.549C94.9056 52.5918 94.872 52.6216 94.8265 52.6281L93.6094 52.8118C93.4951 52.8291 93.4837 52.9749 93.5905 53.0589L94.7262 53.9497C94.7685 53.9828 94.7962 54.031 94.7999 54.0782L94.898 55.3359C94.9072 55.454 95.0541 55.5445 95.1462 55.4887L96.1275 54.8948C96.1655 54.8726 96.2159 54.8726 96.2636 54.8948Z" fill="#FFA402"/>
<path d="M89.9716 54.8948L91.2488 55.4887C91.3691 55.5445 91.4709 55.4545 91.4211 55.3359L90.8917 54.0782C90.8722 54.031 90.8754 53.9833 90.9014 53.9497L91.5929 53.0589C91.6579 52.9749 91.5739 52.8291 91.4509 52.8118L90.1423 52.6281C90.0935 52.6211 90.0453 52.5918 90.0133 52.549L89.1636 51.4051C89.0834 51.2973 88.9301 51.2973 88.9041 51.4051L88.6245 52.549C88.6142 52.5918 88.5806 52.6216 88.535 52.6281L87.318 52.8118C87.2037 52.8291 87.1923 52.9749 87.2996 53.0589L88.4353 53.9497C88.4776 53.9828 88.5052 54.031 88.509 54.0782L88.6071 55.3359C88.6163 55.454 88.7632 55.5445 88.8553 55.4887L89.8366 54.8948C89.8735 54.8726 89.9239 54.8726 89.9716 54.8948Z" fill="#FFA402"/>
<path d="M83.6796 54.8948L84.9568 55.4887C85.0771 55.5445 85.179 55.4545 85.1291 55.3359L84.5997 54.0782C84.5796 54.031 84.5834 53.9833 84.6094 53.9497L85.3009 53.0589C85.3659 52.9749 85.2819 52.8291 85.1589 52.8118L83.8508 52.6281C83.802 52.6211 83.7533 52.5918 83.7218 52.549L82.8716 51.4051C82.7914 51.2973 82.6381 51.2973 82.6121 51.4051L82.3325 52.549C82.3222 52.5918 82.2886 52.6216 82.2431 52.6281L81.026 52.8118C80.9117 52.8291 80.9003 52.9749 81.007 53.0589L82.1428 53.9497C82.1851 53.9828 82.2127 54.031 82.2165 54.0782L82.3146 55.3359C82.3238 55.454 82.4706 55.5445 82.5628 55.4887L83.5441 54.8948C83.5809 54.8726 83.6313 54.8726 83.6796 54.8948Z" fill="#FFA402"/>
<path d="M77.3905 54.8948L78.6677 55.4887C78.788 55.5445 78.8899 55.4545 78.84 55.3359L78.3106 54.0782C78.2911 54.031 78.2944 53.9833 78.3204 53.9497L79.0118 53.0589C79.0768 52.9749 78.9928 52.8291 78.8698 52.8118L77.5617 52.6281C77.513 52.6211 77.4647 52.5918 77.4328 52.549L76.5831 51.4051C76.5029 51.2973 76.3496 51.2973 76.323 51.4051L76.0434 52.549C76.0331 52.5918 75.9995 52.6216 75.954 52.6281L74.7369 52.8118C74.6226 52.8291 74.6112 52.9749 74.7185 53.0589L75.8543 53.9497C75.8966 53.9828 75.9242 54.031 75.928 54.0782L76.0261 55.3359C76.0353 55.454 76.1821 55.5445 76.2742 55.4887L77.2556 54.8948C77.2919 54.8726 77.3423 54.8726 77.3905 54.8948Z" fill="#C2D4D9"/>
<path d="M149.175 40.1224C147.815 40.1224 146.712 38.5855 146.712 36.6896C146.712 34.7938 147.815 33.2568 149.175 33.2568C150.535 33.2568 151.638 34.7938 151.638 36.6896C151.638 38.5855 150.535 40.1224 149.175 40.1224Z" fill="#202F7C"/>
<path d="M148.806 36.9878C148.806 36.9878 141.94 44.5995 141.94 45.7938C141.94 46.9876 144.179 46.8386 144.179 46.8386" stroke="#202F7C" stroke-width="1.1018" stroke-miterlimit="10"/>
<path d="M143.654 46.8391C143.654 47.3338 144.055 47.7348 144.55 47.7348C145.045 47.7348 145.446 47.3338 145.446 46.8391C145.446 46.3443 145.045 45.9434 144.55 45.9434C144.055 45.9434 143.654 46.3443 143.654 46.8391Z" fill="#202F7C"/>
<path d="M175.689 133.256L185.648 85.358C186.043 83.4555 184.591 81.6694 182.647 81.6694H149.692C147.877 81.6694 146.311 82.9434 145.942 84.7202L135.85 133.255" fill="#A9A7E7"/>
<path d="M181.26 84.9458H151.638" stroke="#4F57A0" stroke-miterlimit="10"/>
<path d="M148.568 88.3774L143.51 113.846" stroke="#4F57A0" stroke-miterlimit="10"/>
<path d="M4.51812 42.1381H28.371C29.601 42.1381 30.5406 41.0391 30.3488 39.8237L30.1684 38.6803C30.0145 37.7071 29.1757 36.9902 28.1905 36.9902H4.33767C3.10761 36.9902 2.168 38.0897 2.35982 39.3046L2.54027 40.448C2.69416 41.4212 3.53299 42.1381 4.51812 42.1381Z" fill="#CAE5FF"/>
<path d="M27.364 39.6089H6.77268" stroke="white" stroke-width="2" stroke-miterlimit="10"/>
<path d="M91.4055 12.5156H97.908C101 12.5156 104.04 15.0223 104.698 18.1148C105.355 21.2073 103.381 23.714 100.288 23.714H98.8769C97.2995 27.4487 93.574 26.9653 93.574 26.9653C94.2785 25.5613 94.4286 24.4374 94.4237 23.714H93.7859C90.6934 23.714 87.6535 21.2073 86.9962 18.1148C86.3389 15.0229 88.313 12.5156 91.4055 12.5156Z" fill="#FF634D"/>
<path d="M100.668 17.0312H94.5266" stroke="white" stroke-width="2" stroke-miterlimit="10"/>
<path d="M101.185 19.4697H91.2061" stroke="white" stroke-width="2" stroke-miterlimit="10"/>
</svg>
