<svg width="16" height="16" viewBox="0 0 16 16" fill="none" xmlns="http://www.w3.org/2000/svg">
<path d="M8.92522 7.65L6.69397 8.925V6.375L8.92522 7.65Z" fill="white" stroke="white" stroke-width="0.95625" stroke-linecap="round" stroke-linejoin="round"/>
<path d="M1.2749 8.10065V7.19795C1.2749 5.35238 1.2749 4.42928 1.85184 3.83577C2.42941 3.24162 3.33849 3.21612 5.156 3.16448C6.01663 3.14026 6.89638 3.12305 7.6499 3.12305C8.40343 3.12305 9.28254 3.14026 10.1438 3.16448C11.9613 3.21612 12.8704 3.24162 13.4473 3.83577C14.0243 4.42992 14.0249 5.35302 14.0249 7.19795V8.10001C14.0249 9.94621 14.0249 10.8687 13.448 11.4628C12.8704 12.0563 11.962 12.0825 10.1438 12.1335C9.28318 12.1583 8.40343 12.1755 7.6499 12.1755C6.89638 12.1755 6.01726 12.1583 5.156 12.1335C3.33849 12.0825 2.42941 12.057 1.85184 11.4628C1.27426 10.8687 1.2749 9.94557 1.2749 8.10065Z" stroke="white" stroke-width="0.95625"/>
</svg>
